<svg width="79" height="78" fill="none" xmlns="http://www.w3.org/2000/svg"><g style="mix-blend-mode:soft-light" filter="url(#filter0_f_211_4142)"><circle cx="39.5" cy="39" r="35" fill="#EBEDEF"/></g><rect x="17.5" y="17" width="44" height="44" rx="22" fill="#44B46D"/><g clip-path="url(#clip0_211_4142)" fill="#EBEDEF"><path d="M53.045 38.32a1.93 1.93 0 00-1.144-.656l-.214-2.902a.438.438 0 00.428-.362l.082-.468a1.65 1.65 0 00-.338-1.357c-.303-.361-.746-.56-1.249-.56h-3.218l.156-.889a.843.843 0 00-.177-.69.83.83 0 00-.64-.292H30.888c-.469 0-.9.365-.982.83l-1.401 7.95a.438.438 0 10.863.152l1.402-7.95c.009-.052.076-.105.118-.105h15.788l-1.393 7.903a.438.438 0 10.863.152l.101-.573h5.244c.363 0 .676.136.882.381.142.17.225.38.245.613H51.16a.438.438 0 00-.431.362l-.165.935c-.067.377.027.75.257 1.025.227.27.571.425.945.425h.412l-.34 1.93h-1.157a2.302 2.302 0 00-.496-1.043c-.448-.534-1.108-.828-1.858-.828-1.202 0-2.361.786-2.904 1.87h-.176l.569-3.226a.438.438 0 10-.864-.153l-.596 3.38h-8.115a2.303 2.303 0 00-.496-1.042c-.449-.535-1.108-.83-1.858-.83-1.202 0-2.361.787-2.904 1.871h-2.515l.175-.994h1.97a.438.438 0 100-.876h-4.676a.438.438 0 000 .877h1.816l-.157.888a.843.843 0 00.177.691.83.83 0 00.64.291H30.7c-.119.744.06 1.444.507 1.977.448.535 1.108.829 1.858.829 1.492 0 2.92-1.212 3.182-2.7l.016-.106h8.877c-.119.744.06 1.444.507 1.977.448.535 1.108.829 1.858.829 1.492 0 2.92-1.212 3.182-2.7a3.05 3.05 0 00.016-.106h1.505a.438.438 0 00.432-.362l.825-4.677c.112-.634-.037-1.235-.42-1.69zm-6.643-.694l.505-2.864h3.901l.211 2.864h-4.617zm4.932-3.846l-.019.105h-4.253l.175-.993h3.373c.239 0 .444.087.577.246.139.165.19.393.147.642zM35.382 45.003c-.192 1.09-1.232 1.976-2.318 1.976-.486 0-.908-.183-1.187-.515-.287-.343-.396-.807-.308-1.308.193-1.09 1.233-1.976 2.32-1.976.485 0 .906.183 1.185.515.287.342.397.807.308 1.308zm14.44 0c-.192 1.09-1.232 1.976-2.318 1.976-.486 0-.907-.183-1.186-.515-.287-.343-.397-.807-.308-1.308.192-1.09 1.232-1.976 2.318-1.976.486 0 .908.183 1.187.515.287.342.396.807.308 1.308zm2.512-3.636h-.567a.343.343 0 01-.273-.112.372.372 0 01-.066-.308l.101-.573h.98l-.175.993z"/><path d="M34.198 44.464a.83.83 0 00-.64-.29c-.468 0-.9.364-.982.83a.842.842 0 00.177.69.83.83 0 00.64.291c.469 0 .9-.364.982-.83a.842.842 0 00-.177-.69zm14.442 0a.83.83 0 00-.64-.29c-.469 0-.9.364-.982.83a.842.842 0 00.176.69.83.83 0 00.64.291c.47 0 .9-.364.982-.83a.842.842 0 00-.176-.69zm-5.455-2.161H37.63a.438.438 0 000 .877h5.555a.438.438 0 000-.877zm-7.893-1.871h-8.088a.438.438 0 100 .877h8.088a.438.438 0 000-.877zm8.372-1.764l-1.623-1.402a.439.439 0 00-.574.663l.733.633H31.082a.439.439 0 000 .877H41.92l-.904.599a.438.438 0 10.484.73l2.118-1.402a.438.438 0 00.045-.698z"/></g><defs><clipPath id="clip0_211_4142"><path fill="#fff" transform="translate(25.5 25)" d="M0 0h28v28H0z"/></clipPath><filter id="filter0_f_211_4142" x=".5" y="0" width="78" height="78" filterUnits="userSpaceOnUse" color-interpolation-filters="sRGB"><feFlood flood-opacity="0" result="BackgroundImageFix"/><feBlend in="SourceGraphic" in2="BackgroundImageFix" result="shape"/><feGaussianBlur stdDeviation="2" result="effect1_foregroundBlur_211_4142"/></filter></defs></svg>