<svg width="26" height="34" fill="none" xmlns="http://www.w3.org/2000/svg"><path d="M9.3 3.6C6.5 6.7 5.6 7.2 3 6.7-.4 6-.5 6.2 1.2 9.1c1 1.7 1.1 2.3.1 2.6-1.6.6-1.7 3.3-.2 3.3.8 0 1 2.8.7 9.6l-.5 9.5 2.6-.3c3-.4 3.9-4.4.9-4.2-1.6.2-1.8-.8-1.8-7v-7.1l3.9-.3c4.3-.3 6.1 1.1 3.5 2.6-1 .5-2 2.9-2.4 5.6-.6 3.9-.4 4.6 1 4.6.9 0 2.1.5 2.8 1.2.9.9 1.5.9 2.4 0 .7-.7 2-1.2 2.9-1.2 1.1 0 1.6-.6 1.3-1.8-.4-1.4-1.4-1.6-5-1.3-4.5.3-4.5.3-4.2-2.5.3-2.4.8-2.9 3.6-3 2.1-.1 3.6.4 4.2 1.5.6 1 1 1.1 1 .3 0-.7-.9-2-1.9-2.9-2.4-2-1.8-3.3 1.6-3.3h2.5l-.3 9.2-.4 9.3 2.6.3 2.6.3-.5-9.5c-.3-6.8-.1-9.6.7-9.6 1.5 0 1.4-2.7-.1-3.3-1-.3-1-.9 0-2.6C26.5 6.2 26.4 6 23 6.7c-2.6.5-3.5 0-6.4-3.1C14.7 1.6 13 0 12.8 0c-.2 0-1.8 1.6-3.5 3.6zm6.7.9c2.6 2.8 1.7 3.4-1.2.8-1.7-1.5-1.9-1.5-3.6 0-2.9 2.6-3.8 2-1.2-.8C11.3 3.1 12.6 2 13 2c.4 0 1.7 1.1 3 2.5zM14 6c0 .5-.4 1-1 1-.5 0-1-.5-1-1 0-.6.5-1 1-1 .6 0 1 .4 1 1zm7.5 3c-1.1.5-4.9.9-8.5.9-3.6 0-7.4-.4-8.5-.9-1.3-.6 1.8-.9 8.5-.9s9.8.3 8.5.9zm-8.2 2.2l7.2.2-5.5.5-5.5.5 8 .6c7.2.6 6.7.6-4.5.7-8 0-11-.2-8.5-.7 3.1-.6 3.4-.7 1.3-.9-1.6 0-2.8-.6-2.8-1.2s.7-.8 1.6-.5c.9.3 4.8.7 8.7.8zM23 11c0 .5-.4 1-1 1-.5 0-1-.5-1-1 0-.6.5-1 1-1 .6 0 1 .4 1 1zm0 11.6c0 4.7-.4 7.3-1 6.9-1.8-1.1-1.2-14.5.7-14.5.2 0 .3 3.4.3 7.6zm-7.7 4.1c-1.3.2-3.3.2-4.5 0-1.3-.2-.3-.4 2.2-.4s3.5.2 2.3.4zM6 32c0 .5-.9 1-2 1s-2-.5-2-1c0-.6.9-1 2-1s2 .4 2 1zm18 0c0 .5-.9 1-2 1s-2-.5-2-1c0-.6.9-1 2-1s2 .4 2 1z" fill="url(#paint0_linear_211_4396)"/><defs><linearGradient id="paint0_linear_211_4396" x1="1.5" y1="-6" x2="20" y2="25" gradientUnits="userSpaceOnUse"><stop stop-color="#F6D4BA"/><stop offset="1" stop-color="#F6D4BA" stop-opacity=".45"/></linearGradient></defs></svg>