<svg width="278" height="280" viewBox="0 0 278 280" fill="none" xmlns="http://www.w3.org/2000/svg">
<path d="M32.7035 31.6114C32.8245 30.4836 33.1771 29.3425 33.7595 28.1879C33.3477 27.5599 33.069 26.7609 32.9229 25.7917C32.7775 24.8219 32.7695 23.7333 32.8983 22.5262C33.1861 19.8456 34.174 17.1536 35.862 14.4491C36.6098 13.2516 37.4177 12.19 38.2858 11.265C39.1542 10.3404 40.1734 9.44861 41.3443 8.5893C42.8617 7.48072 44.2967 6.71965 45.6492 6.30637C47.0019 5.89335 48.4085 5.77171 49.8683 5.94066C50.0069 5.95626 50.1548 5.97367 50.3124 5.99186C50.4505 6.00798 50.6569 6.04151 50.9308 6.09427L51.128 5.65162C51.9726 3.73909 52.8059 2.29728 53.6291 1.32594C54.4524 0.354595 55.2785 -0.0828476 56.1074 0.0128059C56.8572 0.0998802 57.4051 0.485096 57.7513 1.16818C58.0976 1.85126 58.2079 2.77789 58.0828 3.94626C57.986 4.84794 57.7383 5.80004 57.3398 6.80231C56.9412 7.80406 56.4276 8.79801 55.7996 9.78365C56.0641 10.3123 56.2697 10.7456 56.4138 11.0846C56.5582 11.4227 56.676 11.7321 56.7661 12.0123C56.9495 12.5521 57.0756 13.1016 57.1464 13.6597C57.2159 14.2175 57.2184 14.8041 57.1524 15.4191C57.0008 16.8339 56.6127 17.9253 55.9888 18.6934C55.3643 19.4617 54.5963 19.7934 53.6836 19.6873C52.9496 19.6028 52.3116 19.2743 51.7699 18.7032C51.2288 18.1317 50.7297 17.2599 50.2731 16.0866L50.0379 16.3083L49.5783 16.6597C49.3387 16.8391 49.1195 17.0111 48.9211 17.1749C48.7227 17.3389 48.5196 17.5024 48.3109 17.6651C48.1025 17.8278 47.8788 17.9986 47.6384 18.1785C47.3982 18.3581 47.1158 18.554 46.7918 18.7656C46.5101 18.9606 46.2992 19.1017 46.1593 19.1885C46.0192 19.2753 45.8303 19.3983 45.5924 19.5566C45.6885 19.9805 45.747 20.3696 45.7683 20.7229C45.7893 21.0766 45.7713 21.5188 45.7145 22.0495C45.5852 23.2522 45.2542 24.386 44.7205 25.4501C44.1871 26.5135 43.5251 27.4282 42.7333 28.1934C41.9427 28.9591 41.0611 29.5385 40.0899 29.9323C39.1187 30.3258 38.1302 30.4646 37.1239 30.3482C35.8415 30.2 34.8155 29.6152 34.0459 28.5939C33.4605 29.5832 33.1042 30.6715 32.9764 31.8604C32.9259 32.3319 32.9201 32.7616 32.9581 33.1507C32.9967 33.5387 33.0812 33.9585 33.2128 34.4097L33.0217 34.5119C32.8511 33.8696 32.7427 33.3438 32.6967 32.9331C32.6509 32.5232 32.6534 32.0826 32.7035 31.6114ZM56.219 0.648582C55.8244 0.602837 55.3931 0.713299 54.9245 0.981281C54.4569 1.24874 53.9963 1.63136 53.5432 2.12912C53.0904 2.62635 52.6673 3.2208 52.2736 3.9122C51.8798 4.60283 51.55 5.34855 51.2846 6.14808C52.1547 6.41477 52.9323 6.80594 53.6158 7.32034C54.3 7.83551 54.9177 8.4991 55.4701 9.3098C56.1874 8.2098 56.7138 7.25847 57.0496 6.45712C57.3853 5.65552 57.599 4.82428 57.6915 3.96288C57.7969 2.97933 57.7211 2.1967 57.4634 1.61759C57.2064 1.0377 56.7916 0.714863 56.219 0.648582ZM33.1595 22.8849C32.9509 24.8323 33.2479 26.4443 34.0497 27.72C34.2934 27.3122 34.4923 26.993 34.6469 26.7614C34.8017 26.5309 35.0169 26.2442 35.2934 25.9029C35.5458 25.5996 35.7922 25.3014 36.0331 25.0075C36.2748 24.7132 36.5315 24.4164 36.8035 24.1159C37.4372 23.4214 38.0771 22.8108 38.7226 22.2837C39.3686 21.7561 40.1554 21.1731 41.0828 20.5331C41.4274 20.3028 41.7488 20.0964 42.0481 19.9135C42.3478 19.7302 42.6357 19.561 42.9114 19.4058L44.4441 18.5249L44.8619 18.2622C44.3848 16.9407 43.5439 16.2106 42.34 16.0712C41.63 15.9891 40.9543 16.0975 40.3123 16.3969C39.6713 16.6964 39.1357 17.1736 38.7056 17.8299L38.538 17.7168C39.0163 16.9836 39.594 16.4383 40.2715 16.0809C40.9495 15.7235 41.6628 15.5886 42.4128 15.6751C43.6955 15.8233 44.6177 16.6251 45.1811 18.081L45.5033 17.8689L46.9734 17.0117C47.1228 16.9254 47.3104 16.8068 47.5361 16.6571C47.7617 16.5064 48.0264 16.3247 48.3289 16.1105C48.6534 15.8779 48.9294 15.6767 49.1578 15.5059C49.3854 15.3346 49.5756 15.1963 49.7267 15.0892C49.771 15.0526 49.8198 15.017 49.873 14.9819C49.9268 14.9458 49.9976 14.892 50.085 14.8194C50.0019 14.4774 49.9428 14.1491 49.9063 13.8338C49.87 13.5177 49.849 13.2045 49.8425 12.8924C49.836 12.5807 49.847 12.2438 49.8753 11.8841C49.9041 11.5244 49.9438 11.109 49.9944 10.6373C50.0757 9.87905 50.1658 9.22508 50.2643 8.67586C50.3637 8.12741 50.5313 7.49293 50.7682 6.7732C50.5533 6.72745 50.3879 6.68742 50.2716 6.65363C50.1553 6.61906 50.0184 6.59281 49.8605 6.57488C48.499 6.41736 47.1571 6.54213 45.8351 6.94969C44.5131 7.35725 43.1071 8.0762 41.6185 9.10784C40.4737 9.90893 39.4702 10.7477 38.607 11.6234C37.7442 12.4988 36.9411 13.5162 36.1973 14.6752C35.3549 16.0104 34.6736 17.3833 34.1523 18.7976C33.6314 20.2103 33.3004 21.5728 33.1595 22.8849ZM50.2243 11.0063C50.1475 11.7237 50.1212 12.3434 50.1447 12.8651C50.169 13.3865 50.2376 13.9547 50.3516 14.5702L50.7429 14.2728C51.4384 13.7509 51.9961 13.2973 52.4174 12.9103C52.8382 12.5227 53.2398 12.1334 53.6213 11.7422C53.9353 11.4251 54.201 11.1342 54.4189 10.8694C54.6375 10.6035 54.9343 10.2125 55.309 9.69554C54.9933 9.2859 54.7416 8.97632 54.5545 8.76812C54.3671 8.5594 54.1159 8.34367 53.8002 8.12039C53.3949 7.80354 52.9821 7.54778 52.5633 7.35465C52.145 7.16049 51.6636 6.9905 51.12 6.8452C50.8873 7.52334 50.7007 8.19187 50.5603 8.85052C50.4199 9.50865 50.3079 10.2273 50.2243 11.0063ZM51.7724 14.7342C51.5705 14.9393 51.3974 15.116 51.2508 15.2657C51.1052 15.4144 50.8888 15.6177 50.6013 15.8753C50.8535 16.693 51.2456 17.3664 51.7782 17.8949C52.3108 18.4236 52.9128 18.7266 53.5835 18.8041C54.4714 18.9073 55.2007 18.6692 55.7721 18.0924C56.3435 17.5151 56.6918 16.642 56.8171 15.4739C56.9157 14.5515 56.8607 13.668 56.6515 12.8243C56.4426 11.9798 56.0676 11.1012 55.5259 10.1876L55.312 10.5055C55.0248 10.9492 54.7474 11.3479 54.4797 11.7014C54.2125 12.0538 53.9413 12.391 53.6671 12.7122C53.3931 13.0332 53.1032 13.3576 52.7984 13.6859C52.494 14.0132 52.152 14.3628 51.7724 14.7342ZM36.9183 25.0012C36.4339 25.4223 35.9568 25.912 35.4872 26.4701C35.0182 27.0274 34.6371 27.549 34.3454 28.0343C34.6899 28.3647 34.9949 28.5918 35.2613 28.7163C35.5278 28.8401 35.9076 28.9313 36.4009 28.988C36.8745 29.0428 37.3739 29.0433 37.8988 28.9903C38.4236 28.9365 38.949 28.8367 39.4742 28.6898C39.9991 28.5432 40.5042 28.3527 40.9888 28.1183C41.4736 27.8835 41.922 27.614 42.3338 27.3089C44.0926 25.997 45.094 24.2038 45.3377 21.9284C45.3752 21.5796 45.3853 21.2536 45.3677 20.9513C45.3507 20.6483 45.3074 20.2537 45.2396 19.7692C45.0055 19.9075 44.8031 20.0242 44.6327 20.1185C44.4631 20.2134 44.2935 20.3078 44.1233 20.4024C43.9535 20.4965 43.7671 20.6049 43.5642 20.727C43.361 20.8481 43.1218 20.9869 42.8454 21.1416C42.315 21.433 41.8637 21.682 41.4919 21.8878C41.1204 22.094 40.7851 22.2884 40.4852 22.4719C40.1864 22.6552 39.8967 22.8397 39.617 23.025C39.3378 23.2109 39.0256 23.4183 38.6808 23.6486C38.3131 23.9168 37.9771 24.163 37.6731 24.3878C37.3694 24.6119 37.1179 24.8164 36.9183 25.0012Z" fill="#F6D4BA" fill-opacity="0.9"/>
<path d="M31.6992 33.9692C32.0938 34.0167 32.6001 34.1295 33.2186 34.3071L33.1198 34.5049C32.686 34.3687 32.2817 34.2806 31.9081 34.2405C31.5339 34.2013 31.1201 34.207 30.6665 34.2598C29.5221 34.3923 28.4741 34.7627 27.5224 35.3707C28.5054 36.17 29.0681 37.2362 29.2104 38.5688C29.3227 39.614 29.1891 40.6412 28.8101 41.6502C28.4318 42.659 27.8739 43.5752 27.1369 44.3968C26.4003 45.2187 25.5202 45.907 24.4964 46.4609C23.4723 47.0153 22.3807 47.3595 21.2229 47.4936C20.712 47.5523 20.2864 47.5716 19.9464 47.5497C19.6062 47.5274 19.2315 47.4666 18.8238 47.3668C18.6713 47.6139 18.5531 47.8102 18.4694 47.9555C18.3856 48.101 18.2501 48.3199 18.0621 48.6128C17.8589 48.9494 17.6697 49.2431 17.4972 49.4924C17.3241 49.7419 17.1594 49.9748 17.0028 50.1916C16.8463 50.4076 16.689 50.6192 16.5316 50.8251C16.3738 51.0312 16.2081 51.2591 16.0353 51.5079L15.6969 51.9854L15.4835 52.2294C16.6128 52.7046 17.4526 53.2226 18.0025 53.7848C18.5521 54.3476 18.8678 55.0104 18.9497 55.7725C19.0512 56.7215 18.7325 57.5192 17.9926 58.1677C17.2533 58.8159 16.2031 59.2193 14.8412 59.3768C14.2491 59.4457 13.6844 59.4429 13.1477 59.3709C12.6099 59.297 12.0817 59.166 11.5622 58.976C11.2922 58.882 10.9948 58.7598 10.669 58.6093C10.3429 58.4596 9.92592 58.2467 9.41694 57.9712C8.46802 58.6241 7.51125 59.1572 6.54716 59.5715C5.58261 59.9856 4.66641 60.2432 3.79817 60.3435C2.67372 60.4737 1.78206 60.3591 1.12435 59.9989C0.46654 59.6394 0.0960545 59.0701 0.0124972 58.2909C-0.0800512 57.4303 0.341448 56.5717 1.27631 55.7166C2.21137 54.8612 3.5991 53.9956 5.43963 53.1179L5.86601 52.9128C5.81558 52.6284 5.78265 52.4142 5.76722 52.2705C5.7497 52.107 5.73329 51.9531 5.71796 51.8094C5.55524 50.2927 5.6724 48.8312 6.06986 47.4258C6.46743 46.0209 7.20009 44.5297 8.26757 42.9532C9.09406 41.737 9.95261 40.6778 10.8429 39.7759C11.7331 38.8737 12.7546 38.0344 13.9076 37.2572C16.5107 35.504 19.1019 34.4771 21.6824 34.1784C22.8438 34.044 23.8916 34.0529 24.8251 34.2039C25.7581 34.3562 26.5272 34.6458 27.1311 35.0736C28.2427 34.4677 29.3413 34.1017 30.4263 33.9759C30.8801 33.9239 31.3047 33.9213 31.6992 33.9692ZM1.55689 59.6999C2.11462 59.9677 2.86732 60.0464 3.81461 59.937C4.64334 59.8408 5.44373 59.6188 6.2153 59.2703C6.98686 58.9215 7.90188 58.3743 8.96096 57.6294C8.18031 57.0552 7.54174 56.4132 7.04628 55.7025C6.55069 54.9927 6.17434 54.1851 5.9177 53.2803C5.14809 53.5563 4.43029 53.8992 3.76535 54.3081C3.10001 54.7169 2.52762 55.1567 2.04895 55.6274C1.56989 56.0981 1.20204 56.5762 0.944528 57.0625C0.686526 57.5493 0.580296 57.9974 0.624371 58.4066C0.687895 59.0018 0.998865 59.4327 1.55689 59.6999ZM18.0928 35.4809C16.7321 36.0228 15.41 36.7309 14.1256 37.6058C13.01 38.3783 12.0303 39.2129 11.1877 40.1099C10.3448 41.0059 9.53773 42.0492 8.76647 43.2378C7.77356 44.7849 7.08125 46.2452 6.68897 47.6189C6.29698 48.9926 6.17679 50.3866 6.32835 51.8008C6.34584 51.9651 6.37126 52.1075 6.40411 52.2281C6.43713 52.3487 6.47554 52.5208 6.51972 52.7438C7.2122 52.4974 7.82262 52.3238 8.35084 52.2203C8.87945 52.1179 9.50871 52.0244 10.2385 51.9399C10.6923 51.8874 11.0926 51.8463 11.4388 51.8169C11.7849 51.7873 12.1088 51.7756 12.4093 51.7821C12.7099 51.7889 13.0116 51.8109 13.3152 51.8481C13.6188 51.8863 13.9349 51.9482 14.264 52.0347C14.3341 51.9438 14.3858 51.8702 14.4202 51.8138C14.4539 51.7587 14.4884 51.708 14.5236 51.662C14.627 51.505 14.7603 51.308 14.9248 51.0709C15.0888 50.8339 15.283 50.5469 15.5064 50.2098C15.7127 49.8956 15.8877 49.6211 16.0326 49.3858C16.177 49.1517 16.2911 48.9572 16.3746 48.8018L17.1994 47.274L17.4033 46.9394C16.0024 46.3541 15.2303 45.3963 15.0876 44.0631C15.0041 43.2838 15.1342 42.5428 15.4781 41.8387C15.8221 41.1353 16.3472 40.5349 17.0526 40.0376L17.1614 40.2118C16.53 40.6586 16.0704 41.2154 15.7825 41.881C15.4942 42.5483 15.3895 43.2498 15.4685 43.988C15.6027 45.2387 16.3058 46.1121 17.5774 46.608L17.8308 46.1737L18.6787 44.5822C18.8278 44.2949 18.9905 43.996 19.167 43.6847C19.3433 43.3735 19.5419 43.0395 19.7636 42.6813C20.3793 41.7181 20.9407 40.9006 21.4483 40.23C21.9556 39.5591 22.5433 38.894 23.2123 38.2353C23.5011 37.9533 23.7873 37.6864 24.0704 37.4358C24.3529 37.185 24.6402 36.9289 24.9318 36.6667C25.2603 36.3795 25.5362 36.1562 25.7586 35.995C25.9813 35.8344 26.289 35.6278 26.681 35.3751C25.4531 34.5415 23.9018 34.233 22.0273 34.45C20.7643 34.5964 19.4527 34.9402 18.0928 35.4809ZM8.51863 52.5278C7.88507 52.6747 7.24152 52.8681 6.58842 53.1098C6.72855 53.6746 6.89254 54.1744 7.0791 54.6093C7.26519 55.0444 7.51067 55.473 7.81567 55.8938C8.03078 56.2221 8.23855 56.4834 8.43918 56.6781C8.64002 56.8725 8.93769 57.1337 9.33213 57.4615C9.83004 57.0721 10.206 56.7641 10.4617 56.5372C10.7167 56.3105 10.9964 56.0345 11.3017 55.7088C11.6786 55.3124 12.0537 54.8947 12.4262 54.4573C12.7988 54.0203 13.2357 53.4407 13.738 52.7178L14.024 52.3113C13.4316 52.193 12.8848 52.1213 12.383 52.0966C11.8809 52.0719 11.2841 52.0992 10.594 52.179C9.84373 52.2658 9.15202 52.3823 8.51863 52.5278ZM13.173 54.8536C12.857 55.17 12.5447 55.471 12.2359 55.7556C11.9264 56.0405 11.6021 56.3227 11.2625 56.5998C10.9225 56.8782 10.5391 57.1662 10.1117 57.4648L9.80563 57.6873C10.6849 58.2498 11.5308 58.6392 12.3434 58.8567C13.156 59.0738 14.0062 59.131 14.8938 59.0283C16.0185 58.8986 16.8585 58.5368 17.4141 57.9426C17.9696 57.3494 18.1983 56.5915 18.0996 55.669C18.0247 54.9719 17.7331 54.347 17.2241 53.7934C16.7155 53.2405 16.0673 52.8325 15.28 52.5707C15.0321 52.8696 14.8368 53.0945 14.6934 53.2455C14.5495 53.3975 14.3795 53.5774 14.1823 53.7877C13.8247 54.182 13.488 54.5368 13.173 54.8536ZM23.474 39.1391C23.2576 39.4549 23.0209 39.804 22.7622 40.1866C22.5405 40.5442 22.341 40.8689 22.1622 41.159C21.9838 41.4496 21.8061 41.75 21.6297 42.0604C21.4531 42.3723 21.266 42.7206 21.0676 43.1063C20.8692 43.4928 20.63 43.962 20.3493 44.5125C20.2004 44.8 20.067 45.0487 19.9501 45.2595C19.8325 45.4706 19.7282 45.664 19.6377 45.8399C19.5468 46.017 19.4556 46.1937 19.3649 46.3697C19.2739 46.5469 19.1613 46.757 19.0277 47.0005C19.4949 47.0712 19.8742 47.1159 20.1659 47.1333C20.4572 47.1518 20.771 47.1411 21.1064 47.1024C23.2967 46.8487 25.0228 45.8085 26.2853 43.9817C26.579 43.5539 26.8384 43.0879 27.0643 42.5839C27.2897 42.0809 27.4734 41.5556 27.6145 41.0105C27.7556 40.4647 27.8524 39.9194 27.9039 39.3735C27.955 38.8282 27.9545 38.3089 27.9017 37.8174C27.8467 37.305 27.7596 36.9105 27.6403 36.6334C27.5202 36.3566 27.3013 36.04 26.9835 35.6821C26.5167 35.9851 26.0143 36.3805 25.4777 36.8681C24.9405 37.356 24.4694 37.8517 24.0641 38.3546C23.8866 38.562 23.6895 38.8235 23.474 39.1391Z" fill="#F6D4BA" fill-opacity="0.9"/>
<path d="M30.2888 26.6531L30.4181 26.7004C30.237 27.4087 29.8692 27.9561 29.3148 28.3416C28.8364 28.6748 28.3468 28.7468 27.8457 28.5586C27.3453 28.3707 26.8715 27.9296 26.4247 27.2361C26.1807 26.8582 25.9573 26.4342 25.7539 25.9651C25.5505 25.4956 25.3919 25.027 25.2771 24.5591C25.162 24.091 25.0819 23.5738 25.0354 23.0064C24.9889 22.4395 24.9743 21.8533 24.9911 21.2485C25.0126 20.4794 25.0974 19.7279 25.2443 18.9921C25.3917 18.2559 25.5853 17.5705 25.825 16.9361C26.0652 16.3011 26.3429 15.7427 26.6591 15.2603C26.9748 14.7782 27.3153 14.4104 27.6796 14.1567C28.1507 13.8286 28.6393 13.6654 29.1459 13.6665C29.6525 13.6678 30.0916 13.8294 30.4646 14.1515C30.6062 14.2697 30.7476 14.408 30.8882 14.5661C31.0293 14.7251 31.1631 14.9024 31.29 15.0994C31.5437 15.4929 31.7496 15.9762 31.9099 16.5485C32.0701 17.1209 32.1821 17.7468 32.2459 18.4265C32.3097 19.1054 32.3225 19.8124 32.2837 20.5462C32.2452 21.2794 32.1551 21.9973 32.0138 22.6999C31.8099 23.697 31.5279 24.5397 31.1689 25.2287C30.8096 25.9167 30.3873 26.4303 29.901 26.7685C29.4379 27.0906 29.0073 27.2252 28.6098 27.1714C28.2122 27.1173 27.8845 26.8902 27.6261 26.4888C27.4081 26.1512 27.2378 25.7288 27.1147 25.2222C26.9918 24.7156 26.9138 24.1721 26.8805 23.5914C26.8475 23.0113 26.864 22.4137 26.9293 21.7985C26.9948 21.1835 27.1087 20.5919 27.2705 20.0237C27.4247 19.4955 27.6118 19.0433 27.832 18.6682C28.0521 18.2929 28.2955 18.0132 28.561 17.8284C28.865 17.6173 29.1522 17.543 29.4239 17.6056C29.6951 17.6677 29.9325 17.857 30.1359 18.1725C30.2325 18.3225 30.3113 18.4964 30.3726 18.6937C30.4339 18.8909 30.4789 19.1023 30.5087 19.3274C30.5382 19.5525 30.5514 19.7859 30.5482 20.0284C30.5447 20.2704 30.5204 20.5103 30.4751 20.7476C30.3876 21.2084 30.2517 21.6082 30.0688 21.9472C29.8857 22.2858 29.6688 22.5426 29.4181 22.717C29.3726 22.7485 29.3308 22.7774 29.2928 22.8041C29.2475 22.8358 29.1877 22.8712 29.1146 22.9109L29.0571 22.7963C29.1709 22.7514 29.2472 22.716 29.285 22.6892C29.5435 22.5099 29.7581 22.2289 29.9297 21.8468C30.1016 21.4639 30.225 21.0075 30.3 20.4752C30.3673 19.9824 30.3816 19.5527 30.343 19.1857C30.3043 18.8184 30.2165 18.5276 30.0789 18.315C29.7636 17.8258 29.3974 17.7265 28.9798 18.0171C28.8204 18.1281 28.6603 18.2931 28.4994 18.5141C28.3393 18.7337 28.1877 18.9936 28.0449 19.2931C27.9023 19.592 27.7709 19.926 27.6513 20.2951C27.5317 20.6636 27.4332 21.0525 27.3549 21.4608C27.2495 21.9458 27.183 22.4265 27.1542 22.9032C27.1262 23.3793 27.1302 23.8342 27.1665 24.2657C27.203 24.6974 27.2695 25.0912 27.3666 25.4465C27.4634 25.8016 27.5908 26.1018 27.7484 26.3461C28.216 27.0721 28.7882 27.2 29.4639 26.7298C29.7068 26.5608 29.9503 26.3285 30.1944 26.0334C30.4384 25.7376 30.6538 25.4109 30.8409 25.0522C30.9137 24.9098 30.9923 24.7408 31.0756 24.5464C31.1586 24.3512 31.2447 24.1256 31.3328 23.8703C31.4311 23.5961 31.5149 23.3549 31.5842 23.1467C31.6535 22.9383 31.7128 22.7319 31.7616 22.5263C31.8109 22.3207 31.8524 22.1034 31.8859 21.8741C31.92 21.6454 31.9527 21.3761 31.9852 21.0681C32.023 20.7338 32.0526 20.4302 32.0746 20.1576C32.0971 19.8849 32.1078 19.6289 32.1076 19.389C32.1071 19.1493 32.1016 18.9193 32.0908 18.6981C32.0806 18.4769 32.0623 18.2437 32.0363 17.9989C32.0083 17.8016 31.976 17.6061 31.9405 17.4143C31.9044 17.2222 31.8662 17.0262 31.8251 16.8264C31.7408 16.4734 31.646 16.1682 31.5402 15.9104C31.4346 15.6525 31.3105 15.4129 31.1679 15.1922C30.3853 13.9771 29.4849 13.7236 28.4674 14.4314C28.1407 14.6586 27.844 14.9362 27.5773 15.265C27.3106 15.5933 27.0569 16.0063 26.8172 16.5043C26.5595 17.0265 26.3334 17.584 26.1377 18.1769C25.9426 18.7696 25.785 19.3825 25.6644 20.0149C25.5991 20.3572 25.546 20.7052 25.5045 21.0598C25.4635 21.4138 25.4329 21.7636 25.4137 22.1088C25.3942 22.4537 25.3882 22.7862 25.3964 23.1059C25.4044 23.4261 25.4254 23.723 25.459 23.9967C25.5385 24.581 25.6739 25.1414 25.8648 25.6766C26.0564 26.2123 26.2888 26.6929 26.5635 27.1191C26.9756 27.758 27.4049 28.156 27.8525 28.3135C28.3003 28.4702 28.7519 28.3904 29.2075 28.0736C29.4662 27.894 29.6891 27.6814 29.8775 27.4362C30.0661 27.1909 30.2029 26.9297 30.2888 26.6531Z" fill="#F6D4BA" fill-opacity="0.9"/>
<path d="M26.4959 30.9631C26.7318 30.7674 26.936 30.5356 27.1091 30.2673C27.4143 29.794 27.4911 29.3246 27.34 28.8596C27.1881 28.3946 26.8056 27.9483 26.1904 27.5199C25.7804 27.2345 25.3175 26.993 24.8021 26.7945C24.2866 26.5959 23.7476 26.4553 23.1853 26.3726C22.9215 26.3373 22.636 26.3157 22.3278 26.3079C22.0201 26.299 21.6998 26.3048 21.368 26.3253C21.0357 26.3456 20.6991 26.3775 20.3583 26.4199C20.0171 26.4628 19.6818 26.5184 19.352 26.586C18.7435 26.7108 18.1539 26.8748 17.5835 27.078C17.0124 27.2805 16.4759 27.5163 15.9737 27.7835C15.494 28.0327 15.0963 28.2961 14.7806 28.5731C14.4643 28.85 14.1972 29.1587 13.9783 29.4977C13.2971 30.5548 13.5412 31.49 14.7108 32.3041C14.9231 32.4517 15.1537 32.5807 15.402 32.6906C15.6499 32.8006 15.9438 32.8991 16.2834 32.9867C16.4759 33.029 16.6647 33.0691 16.8498 33.1062C17.0347 33.1434 17.222 33.1767 17.4125 33.2058C17.6476 33.2328 17.872 33.2518 18.0851 33.2627C18.2979 33.2736 18.5195 33.2793 18.7503 33.2799C18.981 33.2801 19.2276 33.2689 19.4897 33.2458C19.7522 33.2229 20.0444 33.192 20.3664 33.1533C20.663 33.1192 20.9215 33.0847 21.142 33.0498C21.3632 33.0147 21.5722 32.9716 21.7697 32.9209C21.9678 32.8694 22.1665 32.8078 22.3674 32.7361C22.5674 32.6641 22.7997 32.577 23.0634 32.4746C23.3091 32.3834 23.5263 32.294 23.7139 32.2079C23.9018 32.1211 24.0638 32.0398 24.2011 31.9639C24.5463 31.7697 24.8609 31.5456 25.1451 31.2922C25.4296 31.0385 25.653 30.7859 25.8159 30.5335C26.2685 29.8309 26.1451 29.2367 25.4466 28.7504C25.2114 28.5872 24.9224 28.4549 24.5808 28.354C24.2386 28.2534 23.8594 28.184 23.4442 28.1461C23.0284 28.1089 22.591 28.1042 22.1323 28.1339C21.6735 28.1632 21.2108 28.2324 20.7442 28.3423C20.3512 28.4234 19.9768 28.5261 19.6222 28.6503C19.2669 28.7746 18.9453 28.911 18.6576 29.0589C18.3695 29.2074 18.1193 29.3646 17.9076 29.5312C17.6952 29.6983 17.5364 29.8647 17.4295 30.0303C17.1499 30.4646 17.2454 30.8446 17.7166 31.1721C17.9213 31.3148 18.2007 31.4063 18.5544 31.4469C18.9074 31.4869 19.3214 31.4718 19.7955 31.4019C20.3078 31.3239 20.7474 31.196 21.1155 31.0172C21.4833 30.8392 21.754 30.6159 21.9267 30.3476C21.9524 30.3079 21.9866 30.2289 22.0301 30.1103L22.1403 30.1698C22.1017 30.2465 22.0678 30.3084 22.0371 30.3554C22.0115 30.3952 21.9838 30.4384 21.9531 30.4854C21.7855 30.7458 21.5381 30.9715 21.2127 31.1617C20.8863 31.3517 20.5012 31.4924 20.0576 31.5836C19.8294 31.6309 19.5988 31.6561 19.3653 31.6597C19.1326 31.6631 18.9074 31.6496 18.6905 31.6189C18.4736 31.5877 18.2707 31.541 18.0807 31.4775C17.8909 31.4139 17.7238 31.3315 17.5795 31.2314C17.2754 31.0198 17.0935 30.7737 17.0331 30.4916C16.973 30.2096 17.0443 29.911 17.2481 29.5957C17.4257 29.3194 17.6952 29.0665 18.0561 28.8383C18.4177 28.6093 18.8523 28.4148 19.3615 28.2542C19.9081 28.0863 20.4774 27.968 21.0696 27.9002C21.6613 27.8316 22.2366 27.8149 22.7951 27.8492C23.354 27.8838 23.8769 27.9652 24.365 28.0928C24.8523 28.2204 25.2587 28.3974 25.5842 28.6241C25.97 28.8926 26.1889 29.2328 26.2409 29.6461C26.2922 30.0589 26.1629 30.5065 25.8532 30.9876C25.5274 31.4923 25.0333 31.9314 24.3708 32.3044C23.7079 32.6776 22.8964 32.9705 21.9369 33.1821C21.2608 33.3292 20.5697 33.4228 19.8636 33.4631C19.1579 33.5034 18.4773 33.4901 17.8237 33.4233C17.1693 33.357 16.5671 33.2411 16.0159 33.0745C15.4649 32.9084 15 32.6935 14.6215 32.4304C14.4317 32.2989 14.2608 32.1591 14.1079 32.0132C13.9555 31.8666 13.8224 31.7203 13.7094 31.5732C13.3986 31.1856 13.2431 30.7287 13.2422 30.2029C13.2411 29.6765 13.3985 29.1691 13.7136 28.68C13.9579 28.301 14.3118 27.9478 14.7762 27.6192C15.2403 27.2904 15.778 27.0019 16.3891 26.7526C17 26.5036 17.6595 26.3024 18.368 26.1496C19.0764 25.9965 19.8 25.9089 20.5394 25.8865C21.1222 25.8689 21.6862 25.8839 22.232 25.9323C22.7779 25.9809 23.2758 26.0641 23.7264 26.1834C24.1768 26.3024 24.628 26.4675 25.0796 26.6791C25.5312 26.8906 25.9392 27.1222 26.303 27.3757C26.9707 27.8401 27.395 28.3322 27.5762 28.8523C27.7571 29.3724 27.6878 29.8811 27.3675 30.3781C26.9963 30.9546 26.4694 31.3367 25.7874 31.5243L25.7421 31.3902C26.0083 31.3013 26.2595 31.1591 26.4959 30.9631Z" fill="#F6D4BA" fill-opacity="0.9"/>
<path d="M38.2969 17.9869C38.5158 18.2144 38.871 18.2146 39.0902 17.9869C39.3091 17.7595 39.3091 17.3904 39.09 17.163C38.871 16.9355 38.5158 16.9355 38.2971 17.163C38.078 17.3904 38.0782 17.7595 38.2969 17.9869Z" fill="#69DBEF"/>
<path d="M28.7478 23.1675C28.9009 23.3268 29.1496 23.3271 29.303 23.1677C29.4564 23.0084 29.4564 22.7503 29.3027 22.591C29.1494 22.4319 28.9009 22.4319 28.7478 22.591C28.5945 22.7503 28.5945 23.0084 28.7478 23.1675Z" fill="#69DBEF"/>
<path d="M21.8572 30.4384C22.0104 30.5974 22.2592 30.5974 22.4124 30.4384C22.5658 30.2793 22.5656 30.0204 22.4124 29.8613C22.2592 29.7023 22.0106 29.7023 21.8572 29.8616C21.7039 30.0207 21.7039 30.2793 21.8572 30.4384Z" fill="#69DBEF"/>
<path d="M16.7658 40.6237C16.9846 40.8512 17.3399 40.8514 17.5585 40.624C17.7778 40.3963 17.7778 40.0272 17.5589 39.7998C17.34 39.5721 16.9848 39.5721 16.7656 39.7998C16.5468 40.0275 16.5468 40.3963 16.7658 40.6237Z" fill="#69DBEF"/>
<path d="M23.6748 14.1002V24.582H13.5859L13.5863 24.4276L13.5859 14.1002H23.6748ZM23.3773 14.4095H13.8834L13.8836 24.2729H23.3773V14.4095Z" fill="#69DBEF"/>
<path d="M22.6842 15.1304L22.6839 23.5519H22.5352H14.5784L14.5781 15.1309L22.6842 15.1304ZM22.3866 15.4397L14.8756 15.4399L14.876 23.2432H22.3862L22.3866 15.4397Z" fill="#69DBEF"/>
<path d="M21.6937 16.1601L21.6928 22.5218H21.5442L15.5703 22.5223L15.5705 16.1612L21.6937 16.1601ZM21.3962 16.4697L15.868 16.47L15.8682 22.2128L21.3954 22.2125L21.3962 16.4697Z" fill="#69DBEF"/>
<path d="M245.303 32.9334C245.257 33.3438 245.149 33.8699 244.978 34.5119L244.787 34.41C244.919 33.9588 245.003 33.539 245.042 33.1509C245.08 32.7618 245.074 32.3322 245.023 31.8607C244.896 30.6718 244.54 29.5835 243.954 28.5942C243.184 29.6154 242.158 30.2003 240.876 30.3484C239.87 30.4649 238.881 30.3261 237.91 29.9323C236.939 29.5388 236.057 28.9594 235.267 28.1936C234.475 27.4284 233.813 26.5137 233.28 25.4504C232.745 24.386 232.415 23.2525 232.285 22.0495C232.229 21.519 232.211 21.0769 232.232 20.7231C232.253 20.3696 232.312 19.9808 232.408 19.5571C232.17 19.3986 231.981 19.2756 231.841 19.1885C231.701 19.1017 231.49 18.9611 231.208 18.7656C230.884 18.5543 230.602 18.3583 230.362 18.1787C230.122 17.9988 229.897 17.8281 229.689 17.6654C229.481 17.5026 229.277 17.3392 229.079 17.1751C228.881 17.0117 228.661 16.8393 228.422 16.66L227.962 16.3083L227.727 16.0868C227.27 17.2599 226.771 18.1319 226.23 18.7035C225.688 19.2743 225.05 19.6031 224.316 19.6876C223.404 19.7936 222.636 19.462 222.011 18.6936C221.387 17.9255 221 16.8341 220.847 15.4196C220.782 14.8044 220.784 14.2175 220.854 13.6599C220.924 13.1016 221.051 12.5524 221.234 12.0125C221.324 11.7323 221.442 11.4233 221.586 11.0848C221.73 10.7459 221.935 10.3126 222.2 9.78392C221.572 8.79828 221.059 7.80432 220.66 6.80257C220.262 5.8003 220.014 4.84794 219.917 3.94652C219.792 2.77815 219.902 1.85152 220.249 1.16844C220.595 0.485355 221.143 0.10014 221.892 0.0130653C222.721 -0.0825882 223.547 0.355141 224.371 1.32622C225.194 2.29756 226.027 3.73935 226.872 5.65188L227.069 6.0948C227.343 6.04177 227.549 6.00799 227.688 5.99213C227.845 5.97394 227.993 5.95652 228.132 5.94092C229.592 5.77171 230.998 5.89361 232.35 6.30663C233.703 6.71991 235.138 7.48071 236.656 8.58956C237.826 9.44887 238.846 10.3404 239.714 11.2652C240.582 12.1903 241.39 13.2518 242.138 14.4493C243.826 17.1538 244.814 19.8459 245.102 22.5265C245.23 23.7336 245.222 24.8222 245.077 25.7919C244.931 26.7612 244.652 27.5605 244.24 28.1879C244.823 29.3428 245.176 30.4836 245.297 31.6114C245.346 32.0829 245.349 32.5235 245.303 32.9334ZM220.536 1.61785C220.279 2.19696 220.203 2.97934 220.308 3.96315C220.401 4.82455 220.615 5.65579 220.951 6.4574C221.286 7.25875 221.813 8.21006 222.53 9.31033C223.082 8.4991 223.7 7.83578 224.384 7.32061C225.068 6.80621 225.845 6.41503 226.715 6.14861C226.45 5.34882 226.12 4.60309 225.726 3.91221C225.333 3.22107 224.909 2.62661 224.457 2.12938C224.004 1.63136 223.543 1.249 223.075 0.981541C222.607 0.713558 222.175 0.603355 221.781 0.648842C221.208 0.715122 220.794 1.03796 220.536 1.61785ZM243.848 18.7976C243.326 17.3836 242.645 16.0107 241.803 14.6754C241.059 13.5164 240.256 12.4991 239.393 11.6237C238.53 10.748 237.526 9.9092 236.382 9.10811C234.893 8.07621 233.487 7.35751 232.165 6.94995C230.843 6.54238 229.501 6.41762 228.139 6.57514C227.981 6.59333 227.845 6.61933 227.728 6.6539C227.612 6.68769 227.447 6.72772 227.232 6.77347C227.469 7.4932 227.636 8.12767 227.736 8.67611C227.834 9.22533 227.924 9.8793 228.006 10.6375C228.056 11.109 228.096 11.5246 228.124 11.8844C228.153 12.2441 228.164 12.5807 228.158 12.8926C228.151 13.2048 228.13 13.518 228.094 13.8341C228.057 14.1494 227.998 14.4776 227.915 14.8197C228.002 14.8922 228.073 14.946 228.127 14.9822C228.18 15.0172 228.229 15.0529 228.273 15.0895C228.424 15.1966 228.614 15.3349 228.842 15.5059C229.071 15.6769 229.346 15.8781 229.671 16.1108C229.974 16.3249 230.238 16.5066 230.464 16.6574C230.69 16.8071 230.877 16.9256 231.027 17.0119L232.496 17.8692L232.819 18.0812C233.382 16.6254 234.304 15.8235 235.587 15.6754C236.337 15.5888 237.051 15.7237 237.728 16.0811C238.406 16.4383 238.984 16.9838 239.462 17.7171L239.294 17.8302C238.864 17.1736 238.329 16.6969 237.688 16.3972C237.046 16.0978 236.37 15.9894 235.66 16.0713C234.456 16.2108 233.615 16.941 233.138 18.2624L233.556 18.5252L235.089 19.4061C235.364 19.5613 235.652 19.7302 235.952 19.9137C236.251 20.0967 236.573 20.3034 236.917 20.5334C237.844 21.1733 238.631 21.7563 239.277 22.284C239.923 22.8111 240.563 23.4217 241.196 24.1165C241.469 24.4167 241.725 24.7138 241.966 25.0077C242.208 25.3017 242.454 25.5998 242.706 25.9029C242.983 26.2445 243.198 26.5309 243.353 26.7617C243.508 26.9933 243.706 27.3125 243.95 27.7203C244.752 26.4446 245.049 24.8325 244.84 22.8852C244.699 21.5731 244.368 20.2106 243.848 18.7976ZM227.44 8.85079C227.299 8.19214 227.113 7.52335 226.88 6.84547C226.336 6.99077 225.855 7.16075 225.437 7.35491C225.017 7.54803 224.605 7.8038 224.2 8.12065C223.884 8.34393 223.633 8.55967 223.445 8.76839C223.258 8.97659 223.007 9.28616 222.691 9.6958C223.066 10.2128 223.362 10.6037 223.581 10.8694C223.799 11.1345 224.065 11.4251 224.378 11.7425C224.76 12.1336 225.162 12.523 225.583 12.9106C226.004 13.2976 226.561 13.7514 227.257 14.2731L227.648 14.5704C227.763 13.9549 227.831 13.3867 227.855 12.8653C227.879 12.3437 227.852 11.724 227.776 11.0066C227.692 10.2276 227.58 9.50892 227.44 8.85079ZM225.202 13.6859C224.897 13.3579 224.607 13.0335 224.333 12.7125C224.059 12.3912 223.787 12.0541 223.52 11.7016C223.252 11.3481 222.975 10.9494 222.688 10.5057L222.474 10.1876C221.932 11.1015 221.557 11.98 221.348 12.8245C221.139 13.6682 221.084 14.5517 221.183 15.4739C221.308 16.6426 221.657 17.5154 222.228 18.0927C222.799 18.6695 223.528 18.9076 224.417 18.8044C225.087 18.7269 225.689 18.4238 226.222 17.8951C226.754 17.3667 227.147 16.6932 227.398 15.8755C227.111 15.6179 226.895 15.4147 226.749 15.266C226.602 15.1165 226.429 14.9395 226.228 14.7345C225.848 14.363 225.506 14.0134 225.202 13.6859ZM240.327 24.3881C240.023 24.1632 239.687 23.9171 239.319 23.6488C238.974 23.4186 238.663 23.2111 238.383 23.0253C238.103 22.84 237.813 22.6554 237.515 22.4722C237.215 22.2887 236.879 22.0942 236.508 21.8881C236.136 21.6823 235.685 21.4332 235.154 21.1419C234.878 20.9872 234.639 20.8484 234.436 20.727C234.233 20.6051 234.047 20.4967 233.877 20.4026C233.707 20.308 233.537 20.2137 233.367 20.1191C233.197 20.0245 232.995 19.9077 232.76 19.7695C232.692 20.254 232.649 20.6485 232.632 20.9516C232.615 21.2539 232.625 21.5798 232.662 21.9284C232.906 24.204 233.907 25.9973 235.666 27.3091C236.078 27.6143 236.526 27.8838 237.011 28.1185C237.496 28.3527 238.001 28.5435 238.526 28.6901C239.051 28.8372 239.576 28.9368 240.101 28.9906C240.626 29.0436 241.126 29.0428 241.599 28.9882C242.092 28.9316 242.472 28.8403 242.739 28.7166C243.005 28.5921 243.31 28.3649 243.655 28.0346C243.363 27.5493 242.982 27.0276 242.513 26.4703C242.043 25.9123 241.566 25.4226 241.082 25.0015C240.882 24.8167 240.631 24.6121 240.327 24.3881Z" fill="#F6D4BA" fill-opacity="0.9"/>
<path d="M247.574 33.9762C248.659 34.102 249.757 34.468 250.869 35.0739C251.472 34.646 252.243 34.3565 253.176 34.2042C254.109 34.0531 255.155 34.0443 256.318 34.1787C258.898 34.4773 261.49 35.5043 264.092 37.2575C265.245 38.0349 266.266 38.874 267.156 39.7764C268.047 40.6781 268.905 41.7373 269.733 42.9535C270.799 44.5302 271.532 46.0211 271.93 47.426C272.328 48.8315 272.445 50.2927 272.283 51.8097C272.268 51.9534 272.25 52.1073 272.233 52.2708C272.218 52.4148 272.185 52.6287 272.133 52.9133L272.56 53.1179C274.402 53.9956 275.788 54.8615 276.723 55.7169C277.659 56.572 278.079 57.4306 277.987 58.2912C277.904 59.0704 277.534 59.6397 276.876 59.9991C276.218 60.3594 275.327 60.474 274.202 60.3435C273.333 60.2435 272.418 59.9856 271.452 59.5718C270.489 59.1575 269.533 58.6244 268.582 57.9717C268.075 58.247 267.657 58.4599 267.332 58.6098C267.006 58.7601 266.709 58.8822 266.438 58.9763C265.918 59.1663 265.39 59.2973 264.852 59.3712C264.314 59.4434 263.751 59.446 263.158 59.3771C261.797 59.2196 260.747 58.8165 260.006 58.168C259.268 57.5195 258.948 56.7217 259.05 55.773C259.133 55.0106 259.448 54.3478 259.999 53.7851C260.547 53.2229 261.387 52.7049 262.516 52.2297L262.303 51.9856L261.965 51.5082C261.792 51.2594 261.625 51.0315 261.467 50.8253C261.312 50.6195 261.155 50.4079 260.997 50.1919C260.842 49.9751 260.677 49.7422 260.502 49.4927C260.329 49.2434 260.141 48.95 259.939 48.6129C259.751 48.3204 259.613 48.1013 259.531 47.9558C259.446 47.8105 259.328 47.6142 259.176 47.367C258.768 47.4668 258.392 47.5277 258.055 47.55C257.714 47.5719 257.287 47.5529 256.776 47.4939C255.62 47.3598 254.527 47.0156 253.504 46.4612C252.481 45.907 251.6 45.219 250.862 44.3971C250.126 43.5755 249.568 42.6593 249.19 41.6502C248.811 40.6415 248.677 39.614 248.789 38.5691C248.932 37.2364 249.494 36.1705 250.477 35.3707C249.526 34.763 248.478 34.3926 247.333 34.26C246.88 34.2073 246.466 34.2016 246.092 34.2408C245.718 34.2808 245.314 34.3689 244.88 34.5051L244.781 34.3074C245.399 34.1298 245.906 34.017 246.301 33.9694C246.695 33.9216 247.12 33.9242 247.574 33.9762ZM277.376 58.4068C277.419 57.9977 277.314 57.5493 277.056 57.0628C276.798 56.5764 276.431 56.0984 275.95 55.6277C275.473 55.157 274.9 54.7172 274.234 54.3083C273.569 53.8992 272.851 53.5566 272.083 53.2808C271.825 54.1854 271.45 54.9927 270.954 55.7028C270.459 56.4135 269.821 57.0555 269.038 57.6297C270.099 58.3746 271.014 58.9218 271.785 59.2703C272.555 59.6191 273.356 59.8411 274.184 59.9373C275.132 60.0467 275.885 59.968 276.443 59.7002C277.001 59.4333 277.311 59.0021 277.376 58.4068ZM255.973 34.4503C254.099 34.2335 252.546 34.5418 251.32 35.3754C251.71 35.6278 252.018 35.8349 252.24 35.9953C252.463 36.1565 252.738 36.3797 253.069 36.6669C253.359 36.9292 253.647 37.1852 253.929 37.4361C254.212 37.6864 254.5 37.9536 254.787 38.2356C255.458 38.8942 256.043 39.5591 256.551 40.2303C257.059 40.9009 257.622 41.7183 258.237 42.6816C258.458 43.0398 258.658 43.3738 258.833 43.6849C259.01 43.9963 259.173 44.2952 259.321 44.5825L260.169 46.174L260.424 46.6083C261.695 46.1121 262.398 45.239 262.531 43.988C262.611 43.2501 262.506 42.5483 262.218 41.8813C261.93 41.2156 261.47 40.6589 260.839 40.2121L260.947 40.0379C261.652 40.5349 262.178 41.1356 262.523 41.8389C262.866 42.5431 262.996 43.2844 262.913 44.0634C262.768 45.3963 261.998 46.3544 260.597 46.9397L260.799 47.2742L261.625 48.8021C261.71 48.9575 261.823 49.1519 261.968 49.3861C262.113 49.6211 262.288 49.8958 262.493 50.2101C262.716 50.5472 262.911 50.8344 263.076 51.0715C263.239 51.3083 263.374 51.505 263.476 51.6623C263.511 51.7083 263.546 51.759 263.579 51.8141C263.614 51.8705 263.666 51.944 263.736 52.035C264.064 51.9482 264.382 51.8866 264.685 51.8484C264.987 51.8112 265.29 51.7891 265.59 51.7824C265.89 51.7756 266.216 51.7878 266.561 51.8172C266.906 51.8466 267.307 51.8876 267.762 51.9402C268.492 52.0244 269.12 52.1182 269.648 52.2209C270.179 52.3241 270.787 52.4977 271.48 52.7441C271.525 52.5211 271.562 52.3488 271.597 52.2284C271.627 52.1078 271.655 51.9654 271.672 51.8011C271.822 50.3868 271.702 48.9926 271.312 47.6192C270.919 46.2455 270.226 44.7852 269.233 43.2381C268.462 42.0495 267.654 41.0061 266.811 40.1102C265.971 39.2132 264.99 38.3783 263.874 37.6061C262.591 36.7312 261.267 36.0231 259.909 35.4812C258.548 34.9405 257.237 34.5964 255.973 34.4503ZM267.407 52.1793C266.716 52.0995 266.118 52.0722 265.618 52.0969C265.115 52.1213 264.567 52.1933 263.977 52.3116L264.262 52.7184C264.765 53.441 265.2 54.0206 265.573 54.4575C265.946 54.8952 266.321 55.3127 266.699 55.7091C267.004 56.0348 267.284 56.3108 267.539 56.5375C267.794 56.7644 268.17 57.0726 268.668 57.462C269.063 57.1337 269.361 56.8725 269.561 56.6783C269.761 56.4836 269.968 56.2224 270.184 55.8941C270.489 55.4733 270.734 55.0447 270.922 54.6096C271.107 54.1747 271.272 53.6749 271.412 53.1101C270.759 52.8684 270.116 52.6747 269.481 52.5281C268.848 52.3823 268.157 52.2661 267.407 52.1793ZM263.819 53.788C263.621 53.5777 263.451 53.3978 263.306 53.2458C263.163 53.0947 262.968 52.8696 262.721 52.571C261.933 52.8327 261.285 53.2406 260.777 53.7937C260.266 54.3473 259.976 54.9719 259.901 55.6693C259.801 56.5918 260.031 57.3497 260.587 57.9429C261.142 58.5371 261.98 58.8989 263.106 59.0286C263.994 59.1312 264.845 59.0741 265.655 58.857C266.468 58.6395 267.314 58.2501 268.195 57.6876L267.887 57.4651C267.462 57.1665 267.076 56.8785 266.739 56.6001C266.398 56.323 266.073 56.0407 265.763 55.7559C265.455 55.4712 265.142 55.1702 264.827 54.8539C264.512 54.5373 264.174 54.1823 263.819 53.788ZM253.937 38.3549C253.531 37.852 253.059 37.3563 252.523 36.8684C251.985 36.3808 251.482 35.9852 251.017 35.6821C250.699 36.0405 250.479 36.3569 250.359 36.6337C250.242 36.9108 250.153 37.3053 250.098 37.8176C250.045 38.3092 250.045 38.8285 250.096 39.3738C250.148 39.9197 250.244 40.465 250.384 41.0106C250.527 41.5559 250.709 42.0812 250.935 42.5842C251.162 43.0881 251.42 43.5542 251.715 43.982C252.976 45.8085 254.702 46.8493 256.894 47.1027C257.229 47.1417 257.542 47.1518 257.835 47.1336C258.125 47.1162 258.505 47.0715 258.973 47.0005C258.838 46.7572 258.725 46.5472 258.635 46.37C258.545 46.194 258.453 46.0172 258.362 45.8405C258.272 45.6643 258.167 45.4709 258.05 45.2598C257.932 45.049 257.8 44.8003 257.649 44.5128C257.369 43.962 257.132 43.4931 256.931 43.1066C256.734 42.7209 256.546 42.3726 256.371 42.0609C256.193 41.7503 256.016 41.4498 255.838 41.1592C255.658 40.8692 255.46 40.5445 255.238 40.1869C254.98 39.8043 254.742 39.4552 254.525 39.1396C254.309 38.8241 254.114 38.5623 253.937 38.3549Z" fill="#F6D4BA" fill-opacity="0.9"/>
<path d="M248.119 27.4364C248.308 27.6816 248.531 27.8942 248.789 28.0738C249.245 28.3906 249.697 28.4702 250.145 28.3137C250.592 28.1559 251.022 27.7582 251.432 27.1193C251.708 26.6933 251.94 26.2125 252.133 25.6768C252.323 25.1416 252.458 24.5814 252.538 23.9971C252.571 23.7232 252.593 23.4263 252.601 23.1061C252.608 22.7864 252.603 22.4539 252.583 22.1088C252.563 21.7638 252.533 21.414 252.493 21.06C252.451 20.7054 252.398 20.3571 252.333 20.0151C252.213 19.3824 252.055 18.7698 251.86 18.1771C251.663 17.5842 251.437 17.0267 251.18 16.5045C250.94 16.0065 250.687 15.5935 250.419 15.2652C250.153 14.9364 249.856 14.6588 249.53 14.4316C248.512 13.7238 247.612 13.9773 246.829 15.1924C246.687 15.4131 246.563 15.6527 246.457 15.9106C246.351 16.1687 246.256 16.4736 246.172 16.8263C246.131 17.0264 246.092 17.2224 246.056 17.4145C246.021 17.6066 245.989 17.8018 245.961 17.9991C245.935 18.2439 245.917 18.4768 245.906 18.6983C245.896 18.9195 245.89 19.1495 245.889 19.3892C245.889 19.6291 245.9 19.8851 245.923 20.1578C245.944 20.4304 245.974 20.734 246.012 21.0683C246.044 21.3766 246.077 21.6456 246.111 21.8746C246.145 22.1036 246.186 22.3209 246.235 22.5265C246.284 22.7318 246.343 22.9384 246.413 23.1469C246.482 23.3551 246.566 23.5961 246.664 23.8705C246.752 24.1255 246.838 24.3514 246.922 24.5466C247.005 24.741 247.083 24.91 247.156 25.0524C247.343 25.4111 247.559 25.7378 247.802 26.0334C248.047 26.3286 248.29 26.561 248.533 26.73C249.209 27.2002 249.781 27.072 250.249 26.3466C250.407 26.102 250.534 25.8018 250.632 25.4467C250.727 25.0911 250.794 24.6976 250.829 24.2659C250.867 23.8347 250.872 23.3798 250.842 22.9031C250.814 22.4264 250.747 21.946 250.642 21.461C250.564 21.0527 250.464 20.6638 250.347 20.295C250.226 19.9262 250.095 19.5922 249.952 19.2933C249.809 18.9936 249.658 18.7339 249.498 18.5143C249.337 18.2933 249.177 18.1283 249.017 18.0173C248.6 17.7264 248.233 17.826 247.918 18.3151C247.781 18.528 247.693 18.8186 247.654 19.1859C247.615 19.5529 247.63 19.9826 247.697 20.4754C247.772 21.0075 247.896 21.4641 248.067 21.847C248.239 22.2291 248.454 22.5101 248.712 22.6894C248.75 22.7162 248.826 22.7518 248.94 22.7968L248.882 22.9111C248.809 22.8714 248.75 22.836 248.704 22.8043C248.666 22.7776 248.624 22.7487 248.579 22.7172C248.328 22.5428 248.111 22.2863 247.928 21.9473C247.745 21.6084 247.61 21.2086 247.522 20.7475C247.477 20.5105 247.452 20.2708 247.449 20.0286C247.445 19.7861 247.459 19.5527 247.489 19.3276C247.518 19.1025 247.563 18.8911 247.624 18.6939C247.685 18.4966 247.765 18.3227 247.862 18.1727C248.064 17.8572 248.302 17.6679 248.573 17.6058C248.844 17.5429 249.132 17.6173 249.436 17.8286C249.701 18.0134 249.945 18.2931 250.165 18.6681C250.384 19.0435 250.572 19.4957 250.727 20.0239C250.889 20.5921 251.002 21.1837 251.067 21.7989C251.132 22.4139 251.15 23.0112 251.117 23.5916C251.082 24.1723 251.005 24.7158 250.882 25.2224C250.759 25.7287 250.589 26.1511 250.372 26.489C250.113 26.8906 249.785 27.1175 249.387 27.1716C248.99 27.2251 248.559 27.0907 248.096 26.769C247.61 26.4305 247.188 25.9169 246.828 25.2289C246.469 24.5398 246.187 23.6972 245.983 22.7001C245.842 21.9975 245.752 21.2796 245.713 20.5464C245.675 19.8126 245.687 19.1056 245.751 18.4267C245.815 17.7467 245.927 17.121 246.087 16.5487C246.247 15.9763 246.453 15.4931 246.707 15.0996C246.834 14.9026 246.968 14.7251 247.108 14.5662C247.249 14.4082 247.391 14.2699 247.532 14.1519C247.905 13.8294 248.344 13.668 248.851 13.6669C249.358 13.6656 249.846 13.8288 250.317 14.1569C250.682 14.4105 251.022 14.7784 251.337 15.2605C251.655 15.7429 251.933 16.3013 252.173 16.936C252.411 17.5707 252.606 18.2564 252.753 18.992C252.898 19.7281 252.984 20.4796 253.006 21.2487C253.024 21.8535 253.009 22.4394 252.961 23.0065C252.916 23.5737 252.836 24.0912 252.721 24.5591C252.606 25.0272 252.446 25.4958 252.243 25.9653C252.04 26.4344 251.815 26.8581 251.572 27.2363C251.125 27.9295 250.652 28.3709 250.151 28.5588C249.65 28.747 249.16 28.6747 248.682 28.3418C248.128 27.9563 247.76 27.4089 247.579 26.7006L247.708 26.6533C247.794 26.9298 247.931 27.1908 248.119 27.4364Z" fill="#F6D4BA" fill-opacity="0.9"/>
<path d="M252.26 31.3904L252.215 31.5243C251.532 31.3369 251.007 30.9548 250.634 30.3783C250.314 29.8813 250.246 29.3727 250.426 28.8525C250.606 28.3324 251.032 27.8404 251.7 27.3756C252.062 27.1225 252.47 26.8906 252.923 26.6793C253.373 26.4677 253.826 26.3024 254.276 26.1836C254.727 26.0643 255.225 25.9809 255.77 25.9325C256.315 25.8842 256.881 25.8691 257.464 25.8868C258.202 25.9091 258.927 25.9967 259.635 26.1498C260.343 26.3024 261.001 26.5039 261.614 26.7529C262.225 27.0021 262.763 27.2907 263.226 27.6195C263.691 27.948 264.044 28.3012 264.289 28.6802C264.604 29.1694 264.762 29.6768 264.759 30.2028C264.759 30.7289 264.604 31.1859 264.294 31.5734C264.179 31.7205 264.046 31.8669 263.894 32.0135C263.741 32.1593 263.571 32.2991 263.381 32.4307C263.003 32.694 262.538 32.9087 261.987 33.0748C261.434 33.2414 260.834 33.3573 260.178 33.4236C259.525 33.4904 258.845 33.5036 258.139 33.4633C257.431 33.4231 256.741 33.3295 256.065 33.1824C255.107 32.9708 254.294 32.6779 253.631 32.3046C252.968 31.9316 252.475 31.4926 252.15 30.9878C251.84 30.5067 251.71 30.0591 251.762 29.6461C251.815 29.2331 252.032 28.8926 252.418 28.6243C252.743 28.3977 253.151 28.2204 253.638 28.0928C254.126 27.9654 254.649 27.8843 255.207 27.8495C255.765 27.8152 256.34 27.8318 256.933 27.9004C257.526 27.9683 258.094 28.0865 258.642 28.2544C259.15 28.4148 259.585 28.6098 259.946 28.8382C260.308 29.0667 260.576 29.3196 260.754 29.5959C260.959 29.9112 261.029 30.2099 260.969 30.4919C260.909 30.7739 260.726 31.0201 260.423 31.2314C260.278 31.3317 260.111 31.4141 259.923 31.4778C259.73 31.5412 259.528 31.5883 259.313 31.6192C259.095 31.6499 258.87 31.6634 258.637 31.66C258.404 31.6563 258.174 31.6309 257.944 31.5838C257.501 31.4926 257.116 31.352 256.791 31.162C256.463 30.972 256.218 30.7461 256.05 30.4857C256.018 30.4386 255.99 30.3955 255.965 30.3557C255.935 30.3086 255.9 30.2468 255.863 30.1704L255.973 30.1106C256.015 30.2291 256.05 30.3081 256.075 30.3479C256.248 30.6161 256.518 30.8394 256.886 31.0175C257.256 31.1963 257.694 31.3242 258.207 31.4021C258.682 31.4721 259.095 31.4871 259.448 31.4471C259.801 31.4068 260.081 31.3151 260.286 31.1724C260.756 30.8449 260.851 30.4646 260.574 30.0305C260.466 29.8649 260.308 29.6986 260.096 29.5317C259.883 29.3649 259.633 29.2076 259.345 29.0592C259.057 28.9113 258.735 28.7751 258.379 28.6506C258.027 28.5263 257.651 28.4237 257.259 28.3426C256.791 28.2326 256.328 28.1635 255.87 28.1341C255.412 28.1045 254.974 28.1092 254.559 28.1463C254.144 28.1843 253.764 28.2534 253.421 28.3543C253.081 28.4551 252.79 28.5874 252.555 28.7509C251.857 29.237 251.735 29.8312 252.187 30.5337C252.35 30.7861 252.573 31.0388 252.858 31.2925C253.141 31.5456 253.456 31.7699 253.801 31.9641C253.939 32.04 254.101 32.1216 254.289 32.2082C254.477 32.2942 254.694 32.3836 254.939 32.4749C255.202 32.5773 255.435 32.6643 255.635 32.7366C255.835 32.8081 256.035 32.8697 256.233 32.9209C256.431 32.9718 256.638 33.015 256.861 33.0498C257.081 33.0849 257.339 33.1195 257.636 33.1535C257.959 33.192 258.249 33.2229 258.512 33.2458C258.775 33.2692 259.022 33.2804 259.253 33.2801C259.483 33.2796 259.705 33.2739 259.918 33.2629C260.131 33.252 260.353 33.2331 260.591 33.206C260.781 33.1769 260.966 33.1436 261.152 33.1065C261.337 33.0693 261.527 33.029 261.719 32.9869C262.06 32.8991 262.352 32.8005 262.6 32.6909C262.848 32.5809 263.08 32.452 263.291 32.3041C264.461 31.4903 264.704 30.555 264.024 29.4982C263.806 29.159 263.538 28.8502 263.221 28.5734C262.905 28.2963 262.508 28.033 262.03 27.7837C261.527 27.5165 260.989 27.2808 260.418 27.0783C259.848 26.875 259.26 26.711 258.65 26.5863C258.319 26.5187 257.984 26.463 257.644 26.4202C257.304 26.3778 256.966 26.3458 256.633 26.3253C256.303 26.305 255.983 26.2993 255.675 26.3081C255.367 26.3159 255.082 26.3375 254.817 26.3728C254.254 26.4552 253.716 26.5964 253.201 26.7947C252.685 26.9933 252.222 27.235 251.812 27.5202C251.197 27.9485 250.814 28.3948 250.661 28.8601C250.511 29.3246 250.589 29.7942 250.894 30.2673C251.067 30.5358 251.272 30.7677 251.507 30.9634C251.742 31.1594 251.995 31.3015 252.26 31.3904Z" fill="#F6D4BA" fill-opacity="0.9"/>
<path d="M239.703 17.9872C239.485 18.2146 239.129 18.2149 238.91 17.9872C238.691 17.7597 238.691 17.3909 238.91 17.1629C239.129 16.9355 239.485 16.9355 239.703 17.1629C239.922 17.3909 239.922 17.7597 239.703 17.9872Z" fill="#69DBEF"/>
<path d="M249.252 23.1677C249.099 23.3271 248.85 23.3273 248.697 23.168C248.544 23.0086 248.544 22.7503 248.697 22.5912C248.851 22.4321 249.099 22.4321 249.252 22.5912C249.406 22.7503 249.406 23.0087 249.252 23.1677Z" fill="#69DBEF"/>
<path d="M256.135 30.4386C255.982 30.5977 255.734 30.5977 255.579 30.4386C255.427 30.2793 255.427 30.0207 255.579 29.8616C255.734 29.7025 255.982 29.7025 256.135 29.8618C256.29 30.0209 256.29 30.2793 256.135 30.4386Z" fill="#69DBEF"/>
<path d="M261.234 40.624C261.016 40.8515 260.661 40.8517 260.441 40.6243C260.223 40.3966 260.223 40.0275 260.441 39.8001C260.661 39.5724 261.016 39.5724 261.234 39.8001C261.454 40.0278 261.454 40.3966 261.234 40.624Z" fill="#69DBEF"/>
<path d="M254.324 14.1005H264.412V24.4279V24.5823H254.324V14.1005ZM254.622 14.4098V24.2732H264.114V14.4098H254.622Z" fill="#69DBEF"/>
<path d="M255.316 15.1305L263.422 15.131V23.5518L255.467 23.5524H255.316V15.1305ZM255.614 15.4398V23.2433H263.125V15.4404L255.614 15.4398Z" fill="#69DBEF"/>
<path d="M256.309 16.1604L262.433 16.1614V22.5226L256.459 22.5221H256.311L256.309 16.1604ZM256.606 16.47L256.609 22.2128L262.135 22.213V16.4705L256.606 16.47Z" fill="#69DBEF"/>
<path d="M11 60H10V219H11V60Z" fill="#F6D4BA" fill-opacity="0.5"/>
<path d="M267 219H268V60H267V219Z" fill="#F6D4BA" fill-opacity="0.5"/>
<path d="M57.918 11.051H220.084V10.0464H57.918V11.051Z" fill="#F6D4BA" fill-opacity="0.5"/>
<path d="M32.6967 246.462C32.7427 246.052 32.8511 245.525 33.0217 244.883L33.2128 244.986C33.0812 245.437 32.9967 245.857 32.9581 246.245C32.9201 246.634 32.9259 247.063 32.9764 247.535C33.1042 248.724 33.4605 249.812 34.0459 250.801C34.8155 249.78 35.8415 249.195 37.1239 249.047C38.1302 248.931 39.1187 249.07 40.0899 249.463C41.0611 249.857 41.9427 250.436 42.7333 251.202C43.5251 251.967 44.1871 252.882 44.7205 253.945C45.2542 255.009 45.5852 256.143 45.7145 257.346C45.7713 257.877 45.7893 258.318 45.7683 258.672C45.747 259.026 45.6885 259.415 45.5924 259.839C45.8303 259.997 46.0192 260.12 46.1593 260.207C46.2992 260.294 46.5101 260.435 46.7918 260.63C47.1158 260.841 47.3982 261.037 47.6384 261.217C47.8788 261.397 48.1025 261.568 48.3109 261.73C48.5196 261.893 48.7227 262.056 48.9211 262.22C49.1195 262.384 49.3387 262.556 49.5783 262.736L50.0379 263.087L50.2731 263.309C50.7297 262.135 51.2288 261.263 51.7699 260.692C52.3116 260.121 52.9496 259.792 53.6836 259.708C54.5963 259.602 55.3643 259.933 55.9888 260.702C56.6127 261.47 57.0008 262.562 57.1524 263.976C57.2184 264.591 57.2159 265.178 57.1464 265.736C57.0756 266.294 56.9495 266.843 56.7661 267.383C56.676 267.663 56.5582 267.973 56.4138 268.311C56.2697 268.649 56.0641 269.083 55.7996 269.611C56.4276 270.597 56.9412 271.592 57.3398 272.593C57.7383 273.595 57.986 274.547 58.0828 275.449C58.2079 276.618 58.0976 277.544 57.7513 278.227C57.4051 278.91 56.8572 279.296 56.1074 279.382C55.2785 279.478 54.4524 279.041 53.6291 278.069C52.8059 277.098 51.9726 275.656 51.128 273.744L50.9308 273.301C50.6569 273.354 50.4505 273.387 50.3124 273.403C50.1548 273.422 50.0069 273.439 49.8683 273.455C48.4085 273.624 47.0019 273.502 45.6492 273.089C44.2967 272.676 42.8617 271.915 41.3443 270.806C40.1734 269.947 39.1542 269.055 38.2858 268.13C37.4177 267.205 36.6098 266.144 35.862 264.946C34.174 262.241 33.1861 259.55 32.8983 256.869C32.7695 255.662 32.7775 254.573 32.9229 253.604C33.069 252.634 33.3477 251.835 33.7595 251.208C33.1771 250.053 32.8245 248.912 32.7035 247.784C32.6534 247.313 32.6509 246.872 32.6967 246.462ZM57.4634 277.778C57.7211 277.198 57.7969 276.416 57.6915 275.432C57.599 274.571 57.3853 273.74 57.0496 272.938C56.7138 272.137 56.1874 271.186 55.4701 270.085C54.9177 270.897 54.3 271.56 53.6158 272.075C52.9323 272.589 52.1547 272.98 51.2846 273.247C51.55 274.047 51.8798 274.792 52.2736 275.483C52.6673 276.175 53.0904 276.769 53.5432 277.266C53.9963 277.764 54.4569 278.147 54.9245 278.414C55.3931 278.682 55.8244 278.792 56.219 278.746C56.7916 278.68 57.2064 278.358 57.4634 277.778ZM34.1523 260.598C34.6736 262.012 35.3549 263.385 36.1973 264.72C36.9411 265.879 37.7442 266.897 38.607 267.772C39.4702 268.648 40.4737 269.486 41.6185 270.287C43.1071 271.32 44.5131 272.038 45.8351 272.446C47.1571 272.853 48.499 272.978 49.8605 272.82C50.0184 272.802 50.1553 272.776 50.2716 272.742C50.3879 272.708 50.5533 272.668 50.7682 272.622C50.5313 271.902 50.3637 271.268 50.2643 270.719C50.1658 270.17 50.0757 269.516 49.9944 268.758C49.9438 268.286 49.9041 267.871 49.8753 267.511C49.847 267.152 49.836 266.815 49.8425 266.503C49.849 266.191 49.87 265.877 49.9063 265.562C49.9428 265.246 50.0019 264.918 50.085 264.576C49.9976 264.503 49.9268 264.449 49.873 264.413C49.8198 264.379 49.771 264.343 49.7267 264.306C49.5756 264.199 49.3854 264.061 49.1578 263.889C48.9294 263.719 48.6534 263.517 48.3289 263.285C48.0264 263.071 47.7617 262.889 47.5361 262.738C47.3104 262.588 47.1228 262.47 46.9734 262.383L45.5033 261.526L45.1811 261.314C44.6177 262.77 43.6955 263.572 42.4128 263.72C41.6628 263.807 40.9495 263.672 40.2715 263.314C39.594 262.957 39.0163 262.412 38.538 261.678L38.7056 261.565C39.1357 262.222 39.6713 262.699 40.3123 262.998C40.9543 263.298 41.63 263.406 42.34 263.324C43.5439 263.185 44.3848 262.455 44.8619 261.133L44.4441 260.87L42.9114 259.989C42.6357 259.834 42.3478 259.665 42.0481 259.482C41.7488 259.299 41.4274 259.092 41.0828 258.862C40.1554 258.222 39.3686 257.639 38.7226 257.112C38.0771 256.585 37.4372 255.974 36.8035 255.279C36.5315 254.979 36.2748 254.682 36.0331 254.388C35.7922 254.094 35.5458 253.796 35.2934 253.493C35.0169 253.151 34.8017 252.865 34.6469 252.634C34.4923 252.402 34.2934 252.083 34.0497 251.675C33.2479 252.951 32.9509 254.563 33.1595 256.51C33.3004 257.822 33.6314 259.185 34.1523 260.598ZM50.5603 270.545C50.7007 271.203 50.8873 271.872 51.12 272.55C51.6636 272.405 52.145 272.235 52.5633 272.041C52.9821 271.848 53.3949 271.592 53.8002 271.275C54.1159 271.052 54.3671 270.836 54.5545 270.627C54.7416 270.419 54.9933 270.109 55.309 269.7C54.9343 269.183 54.6375 268.792 54.4189 268.526C54.201 268.261 53.9353 267.97 53.6213 267.653C53.2398 267.262 52.8382 266.872 52.4174 266.485C51.9961 266.098 51.4384 265.644 50.7429 265.122L50.3516 264.825C50.2376 265.44 50.169 266.009 50.1447 266.53C50.1212 267.052 50.1475 267.672 50.2243 268.389C50.3079 269.168 50.4199 269.887 50.5603 270.545ZM52.7984 265.71C53.1032 266.037 53.3931 266.362 53.6671 266.683C53.9413 267.004 54.2125 267.341 54.4797 267.694C54.7474 268.047 55.0248 268.446 55.312 268.89L55.5259 269.208C56.0676 268.294 56.4426 267.416 56.6515 266.571C56.8607 265.727 56.9157 264.844 56.8171 263.922C56.6918 262.753 56.3435 261.88 55.7721 261.303C55.2007 260.726 54.4714 260.488 53.5835 260.591C52.9128 260.669 52.3108 260.972 51.7782 261.5C51.2456 262.029 50.8535 262.702 50.6013 263.52C50.8888 263.778 51.1052 263.981 51.2508 264.13C51.3974 264.279 51.5705 264.456 51.7724 264.661C52.152 265.033 52.494 265.382 52.7984 265.71ZM37.6731 255.007C37.9771 255.232 38.3131 255.478 38.6808 255.747C39.0256 255.977 39.3378 256.185 39.617 256.37C39.8967 256.556 40.1864 256.74 40.4852 256.923C40.7851 257.107 41.1204 257.301 41.4919 257.507C41.8637 257.713 42.315 257.962 42.8454 258.254C43.1218 258.408 43.361 258.547 43.5642 258.669C43.7671 258.79 43.9535 258.899 44.1233 258.993C44.2935 259.087 44.4631 259.182 44.6327 259.276C44.8031 259.371 45.0055 259.488 45.2396 259.626C45.3074 259.142 45.3507 258.747 45.3677 258.444C45.3853 258.142 45.3752 257.816 45.3377 257.467C45.094 255.192 44.0926 253.398 42.3338 252.086C41.922 251.782 41.4736 251.512 40.9888 251.277C40.5042 251.043 39.9991 250.852 39.4742 250.705C38.949 250.559 38.4236 250.459 37.8988 250.405C37.3739 250.352 36.8745 250.353 36.4009 250.407C35.9076 250.464 35.5278 250.555 35.2613 250.679C34.9949 250.803 34.6899 251.031 34.3454 251.361C34.6371 251.847 35.0182 252.368 35.4872 252.925C35.9568 253.484 36.4339 253.973 36.9183 254.394C37.1179 254.579 37.3694 254.783 37.6731 255.007Z" fill="#F6D4BA" fill-opacity="0.9"/>
<path d="M30.4263 245.419C29.3413 245.294 28.2427 244.928 27.1311 244.322C26.5272 244.75 25.7581 245.039 24.8251 245.191C23.8916 245.343 22.8438 245.351 21.6824 245.217C19.1019 244.918 16.5107 243.892 13.9076 242.138C12.7546 241.361 11.7331 240.522 10.8429 239.619C9.95261 238.718 9.09406 237.658 8.26757 236.442C7.20009 234.865 6.46743 233.375 6.06986 231.97C5.6724 230.564 5.55524 229.103 5.71796 227.586C5.73329 227.442 5.7497 227.288 5.76722 227.125C5.78265 226.981 5.81558 226.767 5.86601 226.483L5.43963 226.278C3.5991 225.4 2.21137 224.534 1.27631 223.679C0.341448 222.824 -0.0800512 221.965 0.0124972 221.104C0.0960545 220.325 0.46654 219.756 1.12435 219.397C1.78206 219.036 2.67372 218.922 3.79817 219.052C4.66641 219.152 5.58261 219.41 6.54716 219.824C7.51125 220.238 8.46802 220.771 9.41694 221.424C9.92592 221.149 10.3429 220.936 10.669 220.786C10.9948 220.636 11.2922 220.513 11.5622 220.42C12.0817 220.229 12.6099 220.098 13.1477 220.025C13.6844 219.953 14.2491 219.95 14.8412 220.019C16.2031 220.176 17.2533 220.579 17.9926 221.227C18.7325 221.876 19.0512 222.674 18.9497 223.623C18.8678 224.385 18.5521 225.048 18.0025 225.611C17.4526 226.173 16.6128 226.691 15.4835 227.166L15.6969 227.41L16.0353 227.887C16.2081 228.136 16.3738 228.364 16.5316 228.57C16.689 228.776 16.8463 228.988 17.0028 229.204C17.1594 229.421 17.3241 229.653 17.4972 229.903C17.6697 230.152 17.8589 230.446 18.0621 230.783C18.2501 231.075 18.3856 231.294 18.4694 231.44C18.5531 231.585 18.6713 231.781 18.8238 232.029C19.2315 231.929 19.6062 231.868 19.9464 231.845C20.2864 231.824 20.712 231.843 21.2229 231.902C22.3807 232.036 23.4723 232.38 24.4964 232.934C25.5202 233.489 26.4003 234.176 27.1369 234.999C27.8739 235.82 28.4318 236.736 28.8101 237.745C29.1891 238.754 29.3227 239.781 29.2104 240.827C29.0681 242.159 28.5054 243.225 27.5224 244.025C28.4741 244.633 29.5221 245.003 30.6665 245.136C31.1201 245.188 31.5339 245.194 31.9081 245.155C32.2817 245.115 32.686 245.027 33.1198 244.891L33.2186 245.089C32.6001 245.266 32.0938 245.379 31.6992 245.426C31.3047 245.474 30.8801 245.471 30.4263 245.419ZM0.624371 220.989C0.580296 221.398 0.686526 221.846 0.944528 222.333C1.20204 222.819 1.56989 223.297 2.04895 223.768C2.52762 224.238 3.10001 224.678 3.76535 225.087C4.43029 225.496 5.14809 225.839 5.9177 226.115C6.17434 225.211 6.55069 224.403 7.04628 223.693C7.54174 222.982 8.18031 222.34 8.96096 221.766C7.90188 221.021 6.98686 220.474 6.2153 220.125C5.44373 219.777 4.64334 219.555 3.81461 219.458C2.86732 219.349 2.11462 219.428 1.55689 219.695C0.998865 219.963 0.687895 220.393 0.624371 220.989ZM22.0273 244.945C23.9018 245.162 25.4531 244.854 26.681 244.02C26.289 243.768 25.9813 243.561 25.7586 243.401C25.5362 243.239 25.2603 243.016 24.9318 242.729C24.6402 242.466 24.3529 242.21 24.0704 241.96C23.7873 241.709 23.5011 241.442 23.2123 241.16C22.5433 240.501 21.9556 239.836 21.4483 239.166C20.9407 238.495 20.3793 237.677 19.7636 236.714C19.5419 236.356 19.3433 236.022 19.167 235.71C18.9905 235.399 18.8278 235.1 18.6787 234.813L17.8308 233.222L17.5774 232.787C16.3058 233.284 15.6027 234.157 15.4685 235.407C15.3895 236.146 15.4942 236.847 15.7825 237.514C16.0704 238.18 16.53 238.737 17.1614 239.183L17.0526 239.358C16.3472 238.861 15.8221 238.26 15.4781 237.557C15.1342 236.853 15.0041 236.111 15.0876 235.332C15.2303 233.999 16.0024 233.041 17.4033 232.456L17.1994 232.121L16.3746 230.594C16.2911 230.438 16.177 230.244 16.0326 230.01C15.8877 229.775 15.7127 229.5 15.5064 229.185C15.283 228.848 15.0888 228.561 14.9248 228.324C14.7603 228.087 14.627 227.89 14.5236 227.733C14.4884 227.687 14.4539 227.637 14.4202 227.581C14.3858 227.525 14.3341 227.452 14.264 227.361C13.9349 227.447 13.6188 227.509 13.3152 227.547C13.0116 227.584 12.7099 227.607 12.4093 227.613C12.1088 227.62 11.7849 227.608 11.4388 227.578C11.0926 227.549 10.6923 227.508 10.2385 227.456C9.50871 227.371 8.87945 227.277 8.35084 227.175C7.82262 227.072 7.2122 226.898 6.51972 226.651C6.47554 226.874 6.43713 227.047 6.40411 227.167C6.37126 227.288 6.34584 227.43 6.32835 227.594C6.17679 229.009 6.29698 230.403 6.68897 231.776C7.08125 233.15 7.77356 234.61 8.76647 236.158C9.53773 237.346 10.3448 238.39 11.1877 239.285C12.0303 240.182 13.01 241.017 14.1256 241.79C15.41 242.665 16.7321 243.372 18.0928 243.914C19.4527 244.455 20.7643 244.799 22.0273 244.945ZM10.594 227.216C11.2841 227.296 11.8809 227.323 12.383 227.299C12.8848 227.274 13.4316 227.203 14.024 227.084L13.738 226.678C13.2357 225.954 12.7988 225.375 12.4262 224.938C12.0537 224.501 11.6786 224.083 11.3017 223.687C10.9964 223.361 10.7167 223.085 10.4617 222.858C10.206 222.631 9.83004 222.323 9.33213 221.934C8.93769 222.262 8.64002 222.523 8.43918 222.717C8.23855 222.912 8.03078 223.173 7.81567 223.502C7.51067 223.922 7.26519 224.351 7.0791 224.786C6.89254 225.221 6.72855 225.721 6.58842 226.286C7.24152 226.527 7.88507 226.721 8.51863 226.867C9.15202 227.013 9.84373 227.13 10.594 227.216ZM14.1823 225.608C14.3795 225.818 14.5495 225.998 14.6934 226.15C14.8368 226.301 15.0321 226.526 15.28 226.824C16.0673 226.563 16.7155 226.155 17.2241 225.602C17.7331 225.048 18.0247 224.423 18.0996 223.726C18.1983 222.804 17.9696 222.046 17.4141 221.453C16.8585 220.859 16.0185 220.497 14.8938 220.367C14.0062 220.264 13.156 220.322 12.3434 220.539C11.5308 220.756 10.6849 221.146 9.80563 221.708L10.1117 221.931C10.5391 222.229 10.9225 222.517 11.2625 222.796C11.6021 223.073 11.9264 223.355 12.2359 223.64C12.5447 223.924 12.857 224.225 13.173 224.542C13.488 224.858 13.8247 225.213 14.1823 225.608ZM24.0641 241.041C24.4694 241.544 24.9405 242.039 25.4777 242.527C26.0143 243.015 26.5167 243.41 26.9835 243.714C27.3013 243.355 27.5202 243.039 27.6403 242.762C27.7596 242.485 27.8467 242.09 27.9017 241.578C27.9545 241.086 27.955 240.567 27.9039 240.022C27.8524 239.476 27.7556 238.931 27.6145 238.385C27.4734 237.84 27.2897 237.315 27.0643 236.812C26.8384 236.308 26.579 235.841 26.2853 235.414C25.0228 233.587 23.2967 232.546 21.1064 232.293C20.771 232.254 20.4572 232.244 20.1659 232.262C19.8742 232.279 19.4949 232.324 19.0277 232.395C19.1613 232.638 19.2739 232.848 19.3649 233.026C19.4556 233.202 19.5468 233.378 19.6377 233.555C19.7282 233.731 19.8325 233.925 19.9501 234.136C20.067 234.346 20.2004 234.595 20.3493 234.883C20.63 235.433 20.8692 235.902 21.0676 236.289C21.266 236.675 21.4531 237.023 21.6297 237.334C21.8061 237.645 21.9838 237.946 22.1622 238.236C22.341 238.527 22.5405 238.851 22.7622 239.209C23.0209 239.591 23.2576 239.941 23.474 240.256C23.6895 240.572 23.8866 240.833 24.0641 241.041Z" fill="#F6D4BA" fill-opacity="0.9"/>
<path d="M29.8775 251.959C29.6891 251.714 29.4662 251.501 29.2075 251.322C28.7519 251.005 28.3003 250.925 27.8525 251.082C27.4049 251.239 26.9756 251.637 26.5635 252.276C26.2888 252.703 26.0564 253.183 25.8648 253.719C25.6739 254.254 25.5385 254.814 25.459 255.399C25.4254 255.673 25.4044 255.969 25.3964 256.289C25.3882 256.609 25.3942 256.942 25.4137 257.287C25.4329 257.632 25.4635 257.981 25.5045 258.336C25.546 258.69 25.5991 259.038 25.6644 259.381C25.785 260.013 25.9426 260.626 26.1377 261.219C26.3334 261.811 26.5595 262.369 26.8172 262.891C27.0569 263.389 27.3106 263.802 27.5773 264.131C27.844 264.459 28.1407 264.737 28.4674 264.964C29.4849 265.672 30.3853 265.418 31.1679 264.203C31.3105 263.982 31.4346 263.743 31.5402 263.485C31.646 263.227 31.7408 262.922 31.8251 262.569C31.8662 262.369 31.9044 262.173 31.9405 261.981C31.976 261.789 32.0083 261.594 32.0363 261.396C32.0623 261.152 32.0806 260.919 32.0908 260.697C32.1016 260.476 32.1071 260.246 32.1076 260.006C32.1078 259.766 32.0971 259.51 32.0746 259.238C32.0526 258.965 32.023 258.662 31.9852 258.327C31.9527 258.019 31.92 257.75 31.8859 257.521C31.8524 257.292 31.8109 257.074 31.7616 256.869C31.7128 256.663 31.6535 256.457 31.5842 256.249C31.5149 256.04 31.4311 255.799 31.3328 255.525C31.2447 255.27 31.1586 255.044 31.0756 254.849C30.9923 254.654 30.9137 254.485 30.8409 254.343C30.6538 253.985 30.4384 253.658 30.1944 253.362C29.9503 253.067 29.7068 252.835 29.4639 252.665C28.7882 252.195 28.216 252.324 27.7484 253.049C27.5908 253.294 27.4634 253.594 27.3666 253.949C27.2695 254.304 27.203 254.698 27.1665 255.13C27.1302 255.561 27.1262 256.016 27.1542 256.492C27.183 256.969 27.2495 257.45 27.3549 257.935C27.4332 258.343 27.5317 258.732 27.6513 259.1C27.7709 259.469 27.9023 259.803 28.0449 260.102C28.1877 260.402 28.3393 260.662 28.4994 260.882C28.6603 261.102 28.8204 261.267 28.9798 261.378C29.3974 261.669 29.7636 261.569 30.0789 261.08C30.2165 260.867 30.3043 260.577 30.343 260.21C30.3816 259.843 30.3673 259.413 30.3 258.92C30.225 258.388 30.1016 257.931 29.9297 257.549C29.7581 257.167 29.5435 256.886 29.285 256.706C29.2472 256.68 29.1709 256.644 29.0571 256.599L29.1146 256.485C29.1877 256.524 29.2475 256.56 29.2928 256.592C29.3308 256.618 29.3726 256.647 29.4181 256.679C29.6688 256.853 29.8857 257.11 30.0688 257.448C30.2517 257.787 30.3876 258.187 30.4751 258.648C30.5204 258.885 30.5447 259.125 30.5482 259.367C30.5514 259.609 30.5382 259.843 30.5087 260.068C30.4789 260.293 30.4339 260.505 30.3726 260.702C30.3113 260.899 30.2325 261.073 30.1359 261.223C29.9325 261.538 29.6951 261.728 29.4239 261.79C29.1522 261.853 28.865 261.778 28.561 261.567C28.2955 261.382 28.0521 261.102 27.832 260.727C27.6118 260.352 27.4247 259.9 27.2705 259.371C27.1087 258.804 26.9948 258.212 26.9293 257.597C26.864 256.982 26.8475 256.384 26.8805 255.804C26.9138 255.223 26.9918 254.68 27.1147 254.173C27.2378 253.667 27.4081 253.244 27.6261 252.906C27.8845 252.505 28.2122 252.278 28.6098 252.224C29.0073 252.17 29.4379 252.305 29.901 252.627C30.3873 252.965 30.8096 253.478 31.1689 254.167C31.5279 254.856 31.8099 255.698 32.0138 256.695C32.1551 257.398 32.2452 258.116 32.2837 258.849C32.3225 259.583 32.3097 260.29 32.2459 260.969C32.1821 261.649 32.0701 262.275 31.9099 262.847C31.7496 263.419 31.5437 263.902 31.29 264.296C31.1631 264.493 31.0293 264.67 30.8882 264.829C30.7476 264.988 30.6062 265.126 30.4646 265.244C30.0916 265.566 29.6525 265.728 29.1459 265.729C28.6393 265.73 28.1507 265.566 27.6796 265.239C27.3153 264.985 26.9748 264.617 26.6591 264.135C26.3429 263.653 26.0652 263.094 25.825 262.459C25.5853 261.825 25.3917 261.139 25.2443 260.403C25.0974 259.668 25.0126 258.916 24.9911 258.147C24.9743 257.542 24.9889 256.956 25.0354 256.389C25.0819 255.822 25.162 255.304 25.2771 254.836C25.3919 254.368 25.5505 253.9 25.7539 253.43C25.9573 252.961 26.1807 252.537 26.4247 252.159C26.8715 251.466 27.3453 251.025 27.8457 250.837C28.3468 250.649 28.8364 250.721 29.3148 251.054C29.8692 251.439 30.237 251.986 30.4181 252.695L30.2888 252.742C30.2029 252.466 30.0661 252.205 29.8775 251.959Z" fill="#F6D4BA" fill-opacity="0.9"/>
<path d="M25.7421 248.005L25.7874 247.871C26.4694 248.059 26.9963 248.441 27.3675 249.017C27.6878 249.514 27.7571 250.023 27.5762 250.543C27.395 251.063 26.9707 251.555 26.303 252.02C25.9392 252.273 25.5312 252.505 25.0796 252.716C24.628 252.928 24.1768 253.093 23.7264 253.212C23.2758 253.331 22.7779 253.415 22.232 253.463C21.6862 253.511 21.1222 253.527 20.5394 253.509C19.8 253.487 19.0764 253.399 18.368 253.246C17.6595 253.093 17 252.892 16.3891 252.642C15.778 252.393 15.2403 252.105 14.7762 251.776C14.3118 251.448 13.9579 251.094 13.7136 250.715C13.3985 250.226 13.2411 249.719 13.2422 249.193C13.2431 248.666 13.3986 248.21 13.7094 247.822C13.8224 247.675 13.9555 247.528 14.1079 247.382C14.2608 247.236 14.4317 247.096 14.6215 246.965C15 246.702 15.4649 246.487 16.0159 246.321C16.5671 246.154 17.1693 246.038 17.8237 245.972C18.4773 245.905 19.1579 245.892 19.8636 245.932C20.5697 245.972 21.2608 246.066 21.9369 246.213C22.8964 246.425 23.7079 246.718 24.3708 247.091C25.0333 247.464 25.5274 247.903 25.8532 248.408C26.1629 248.889 26.2922 249.336 26.2409 249.749C26.1889 250.162 25.97 250.503 25.5842 250.771C25.2587 250.998 24.8523 251.175 24.365 251.303C23.8769 251.43 23.354 251.511 22.7951 251.546C22.2366 251.581 21.6613 251.563 21.0696 251.495C20.4774 251.427 19.9081 251.309 19.3615 251.141C18.8523 250.98 18.4177 250.786 18.0561 250.557C17.6952 250.329 17.4257 250.076 17.2481 249.8C17.0443 249.484 16.973 249.186 17.0331 248.904C17.0935 248.621 17.2754 248.375 17.5795 248.164C17.7238 248.064 17.8909 247.982 18.0807 247.918C18.2707 247.854 18.4736 247.807 18.6905 247.777C18.9074 247.746 19.1326 247.732 19.3653 247.736C19.5988 247.739 19.8294 247.764 20.0576 247.812C20.5012 247.903 20.8863 248.043 21.2127 248.234C21.5381 248.424 21.7855 248.649 21.9531 248.91C21.9838 248.957 22.0115 249 22.0371 249.04C22.0678 249.087 22.1017 249.149 22.1403 249.225L22.0301 249.285C21.9866 249.166 21.9524 249.087 21.9267 249.048C21.754 248.78 21.4833 248.556 21.1155 248.378C20.7474 248.199 20.3078 248.071 19.7955 247.993C19.3214 247.923 18.9074 247.908 18.5544 247.949C18.2007 247.989 17.9213 248.08 17.7166 248.223C17.2454 248.55 17.1499 248.931 17.4295 249.365C17.5364 249.531 17.6952 249.697 17.9076 249.864C18.1193 250.03 18.3695 250.188 18.6576 250.336C18.9453 250.485 19.2669 250.621 19.6222 250.745C19.9768 250.869 20.3512 250.972 20.7442 251.053C21.2108 251.163 21.6735 251.232 22.1323 251.261C22.591 251.291 23.0284 251.286 23.4442 251.249C23.8594 251.211 24.2386 251.142 24.5808 251.041C24.9224 250.94 25.2114 250.808 25.4466 250.644C26.1451 250.159 26.2685 249.564 25.8159 248.862C25.653 248.61 25.4296 248.357 25.1451 248.103C24.8609 247.85 24.5463 247.626 24.2011 247.431C24.0638 247.356 23.9018 247.274 23.7139 247.187C23.5263 247.101 23.3091 247.012 23.0634 246.921C22.7997 246.818 22.5674 246.731 22.3674 246.659C22.1665 246.587 21.9678 246.526 21.7697 246.475C21.5722 246.424 21.3632 246.381 21.142 246.345C20.9215 246.311 20.663 246.276 20.3664 246.242C20.0444 246.204 19.7522 246.172 19.4897 246.15C19.2276 246.126 18.981 246.115 18.7503 246.115C18.5195 246.116 18.2979 246.122 18.0851 246.133C17.872 246.144 17.6476 246.163 17.4125 246.19C17.222 246.219 17.0347 246.252 16.8498 246.289C16.6647 246.326 16.4759 246.366 16.2834 246.409C15.9438 246.497 15.6499 246.595 15.402 246.705C15.1537 246.815 14.9231 246.944 14.7108 247.091C13.5412 247.905 13.2971 248.84 13.9783 249.897C14.1972 250.237 14.4643 250.545 14.7806 250.822C15.0963 251.099 15.494 251.362 15.9737 251.612C16.4759 251.879 17.0124 252.115 17.5835 252.317C18.1539 252.52 18.7435 252.684 19.352 252.81C19.6818 252.877 20.0171 252.932 20.3583 252.975C20.6991 253.018 21.0357 253.05 21.368 253.07C21.6998 253.09 22.0201 253.096 22.3278 253.087C22.636 253.08 22.9215 253.058 23.1853 253.023C23.7476 252.94 24.2866 252.799 24.8021 252.601C25.3175 252.402 25.7804 252.161 26.1904 251.875C26.8056 251.447 27.1881 251.001 27.34 250.536C27.4911 250.071 27.4143 249.601 27.1091 249.128C26.936 248.86 26.7318 248.628 26.4959 248.432C26.2595 248.236 26.0083 248.094 25.7421 248.005Z" fill="#F6D4BA" fill-opacity="0.9"/>
<path d="M38.2969 261.408C38.5158 261.181 38.871 261.181 39.0902 261.408C39.3091 261.636 39.3091 262.005 39.09 262.233C38.871 262.46 38.5158 262.46 38.2971 262.233C38.078 262.005 38.0782 261.636 38.2969 261.408Z" fill="#69DBEF"/>
<path d="M28.7478 256.228C28.9009 256.069 29.1496 256.068 29.303 256.227C29.4564 256.387 29.4564 256.645 29.3027 256.805C29.1494 256.964 28.9009 256.964 28.7478 256.805C28.5945 256.645 28.5945 256.387 28.7478 256.228Z" fill="#69DBEF"/>
<path d="M21.8572 248.957C22.0104 248.798 22.2592 248.798 22.4124 248.957C22.5658 249.116 22.5656 249.375 22.4124 249.534C22.2592 249.693 22.0106 249.693 21.8572 249.534C21.7039 249.374 21.7039 249.116 21.8572 248.957Z" fill="#69DBEF"/>
<path d="M16.7658 238.771C16.9846 238.544 17.3399 238.544 17.5585 238.771C17.7778 238.999 17.7778 239.368 17.5589 239.595C17.34 239.823 16.9848 239.823 16.7656 239.595C16.5468 239.368 16.5468 238.999 16.7658 238.771Z" fill="#69DBEF"/>
<path d="M23.6748 265.295H13.5859L13.5863 254.968L13.5859 254.813H23.6748V265.295ZM23.3773 264.986V255.122H13.8836L13.8834 264.986H23.3773Z" fill="#69DBEF"/>
<path d="M22.6842 264.265L14.5781 264.264L14.5784 255.843L22.5352 255.843H22.6839L22.6842 264.265ZM22.3866 263.956L22.3862 256.152H14.876L14.8756 263.955L22.3866 263.956Z" fill="#69DBEF"/>
<path d="M21.6937 263.235L15.5705 263.234L15.5703 256.873L21.5442 256.873H21.6928L21.6937 263.235ZM21.3962 262.926L21.3954 257.183L15.8682 257.183L15.868 262.925L21.3962 262.926Z" fill="#69DBEF"/>
<path d="M245.297 247.784C245.176 248.912 244.823 250.053 244.24 251.208C244.652 251.836 244.931 252.634 245.077 253.604C245.222 254.573 245.23 255.662 245.102 256.869C244.814 259.55 243.826 262.242 242.138 264.947C241.39 266.144 240.582 267.205 239.714 268.131C238.846 269.055 237.826 269.947 236.656 270.806C235.138 271.915 233.703 272.676 232.35 273.089C230.998 273.502 229.591 273.624 228.132 273.455C227.993 273.439 227.845 273.422 227.688 273.404C227.549 273.388 227.343 273.354 227.069 273.301L226.872 273.744C226.028 275.657 225.194 277.098 224.371 278.07C223.547 279.041 222.722 279.479 221.892 279.383C221.143 279.296 220.595 278.911 220.249 278.227C219.902 277.544 219.792 276.618 219.917 275.449C220.014 274.548 220.262 273.596 220.66 272.593C221.059 271.592 221.572 270.598 222.2 269.612C221.936 269.083 221.73 268.65 221.587 268.311C221.442 267.973 221.324 267.664 221.234 267.383C221.051 266.844 220.924 266.294 220.854 265.736C220.784 265.178 220.782 264.591 220.847 263.976C221 262.562 221.387 261.47 222.011 260.702C222.636 259.934 223.404 259.602 224.317 259.708C225.05 259.793 225.688 260.121 226.23 260.692C226.771 261.264 227.27 262.136 227.727 263.309L227.962 263.088L228.422 262.736C228.661 262.556 228.881 262.384 229.079 262.22C229.277 262.057 229.481 261.893 229.689 261.731C229.897 261.568 230.122 261.397 230.362 261.217C230.602 261.038 230.884 260.842 231.208 260.63C231.49 260.435 231.701 260.294 231.841 260.207C231.981 260.12 232.17 259.997 232.408 259.839C232.312 259.415 232.253 259.026 232.232 258.673C232.211 258.319 232.229 257.877 232.285 257.346C232.415 256.143 232.745 255.01 233.28 253.945C233.813 252.882 234.475 251.967 235.267 251.202C236.057 250.437 236.939 249.857 237.91 249.464C238.881 249.07 239.869 248.931 240.876 249.047C242.158 249.196 243.184 249.78 243.954 250.801C244.539 249.813 244.896 248.724 245.023 247.535C245.074 247.064 245.08 246.634 245.042 246.245C245.003 245.857 244.919 245.437 244.787 244.986L244.978 244.883C245.149 245.526 245.257 246.052 245.303 246.463C245.349 246.872 245.346 247.313 245.297 247.784ZM221.781 278.747C222.175 278.793 222.607 278.682 223.075 278.415C223.543 278.147 224.004 277.764 224.457 277.267C224.909 276.769 225.333 276.175 225.726 275.483C226.12 274.793 226.45 274.047 226.716 273.248C225.845 272.981 225.068 272.59 224.384 272.075C223.7 271.56 223.082 270.897 222.53 270.086C221.813 271.186 221.286 272.137 220.95 272.938C220.615 273.74 220.401 274.571 220.308 275.432C220.203 276.416 220.279 277.199 220.536 277.778C220.793 278.358 221.208 278.681 221.781 278.747ZM244.84 256.511C245.049 254.564 244.752 252.951 243.95 251.676C243.707 252.083 243.507 252.403 243.353 252.634C243.198 252.865 242.983 253.151 242.706 253.493C242.454 253.796 242.208 254.094 241.966 254.388C241.725 254.682 241.469 254.979 241.196 255.28C240.563 255.974 239.923 256.585 239.277 257.112C238.631 257.64 237.844 258.223 236.917 258.862C236.573 259.093 236.251 259.299 235.952 259.482C235.652 259.666 235.364 259.835 235.089 259.989L233.556 260.871L233.138 261.133C233.615 262.455 234.456 263.185 235.66 263.324C236.37 263.407 237.046 263.298 237.688 262.999C238.329 262.699 238.864 262.222 239.294 261.566L239.462 261.679C238.984 262.412 238.406 262.957 237.728 263.315C237.051 263.672 236.337 263.807 235.587 263.721C234.304 263.572 233.382 262.77 232.819 261.315L232.497 261.526L231.027 262.384C230.877 262.47 230.69 262.589 230.464 262.739C230.238 262.889 229.974 263.071 229.671 263.285C229.346 263.518 229.07 263.719 228.842 263.89C228.614 264.061 228.424 264.199 228.273 264.306C228.229 264.343 228.18 264.379 228.127 264.414C228.073 264.45 228.002 264.504 227.915 264.576C227.998 264.918 228.057 265.247 228.094 265.562C228.13 265.878 228.151 266.191 228.158 266.503C228.164 266.815 228.153 267.152 228.124 267.512C228.096 267.871 228.056 268.287 228.006 268.758C227.924 269.517 227.834 270.171 227.736 270.72C227.636 271.268 227.469 271.903 227.232 272.622C227.447 272.668 227.612 272.708 227.728 272.742C227.845 272.777 227.981 272.803 228.139 272.821C229.501 272.978 230.843 272.853 232.165 272.446C233.487 272.039 234.893 271.32 236.382 270.288C237.526 269.486 238.53 268.648 239.393 267.772C240.256 266.897 241.059 265.879 241.803 264.72C242.645 263.385 243.326 262.012 243.848 260.598C244.368 259.185 244.699 257.823 244.84 256.511ZM227.776 268.389C227.852 267.672 227.879 267.052 227.855 266.531C227.831 266.009 227.763 265.441 227.648 264.826L227.257 265.123C226.561 265.644 226.004 266.098 225.583 266.485C225.162 266.873 224.76 267.262 224.379 267.653C224.065 267.971 223.799 268.261 223.581 268.526C223.362 268.792 223.066 269.183 222.691 269.7C223.007 270.11 223.258 270.419 223.445 270.628C223.633 270.836 223.884 271.052 224.2 271.275C224.605 271.592 225.018 271.848 225.437 272.041C225.855 272.235 226.336 272.405 226.88 272.551C227.113 271.872 227.299 271.204 227.44 270.545C227.58 269.887 227.692 269.168 227.776 268.389ZM226.228 264.661C226.429 264.456 226.602 264.279 226.749 264.13C226.895 263.981 227.111 263.778 227.399 263.52C227.147 262.703 226.754 262.029 226.222 261.501C225.689 260.972 225.087 260.669 224.417 260.592C223.528 260.489 222.799 260.726 222.228 261.303C221.657 261.881 221.308 262.753 221.183 263.922C221.084 264.844 221.139 265.728 221.348 266.571C221.557 267.416 221.933 268.294 222.474 269.208L222.688 268.89C222.975 268.446 223.252 268.048 223.52 267.694C223.787 267.342 224.059 267.005 224.333 266.683C224.607 266.362 224.897 266.038 225.202 265.71C225.506 265.382 225.848 265.033 226.228 264.661ZM241.082 254.395C241.566 253.973 242.043 253.484 242.513 252.926C242.982 252.369 243.363 251.847 243.654 251.361C243.31 251.031 243.005 250.804 242.739 250.679C242.472 250.555 242.092 250.464 241.599 250.407C241.126 250.353 240.626 250.352 240.101 250.405C239.576 250.459 239.051 250.559 238.526 250.706C238.001 250.852 237.496 251.043 237.011 251.277C236.526 251.512 236.078 251.782 235.666 252.087C233.907 253.399 232.906 255.192 232.662 257.467C232.624 257.816 232.615 258.142 232.632 258.444C232.649 258.747 232.692 259.142 232.76 259.627C232.995 259.488 233.197 259.371 233.367 259.277C233.537 259.182 233.707 259.088 233.877 258.993C234.047 258.899 234.233 258.791 234.436 258.669C234.639 258.547 234.878 258.409 235.154 258.254C235.685 257.963 236.136 257.714 236.508 257.508C236.879 257.302 237.215 257.107 237.515 256.923C237.813 256.74 238.103 256.556 238.383 256.371C238.662 256.185 238.974 255.977 239.319 255.747C239.687 255.479 240.023 255.232 240.327 255.008C240.631 254.784 240.882 254.579 241.082 254.395Z" fill="#F6D4BA" fill-opacity="0.9"/>
<path d="M246.301 245.426C245.906 245.379 245.399 245.266 244.781 245.089L244.88 244.891C245.314 245.027 245.718 245.115 246.092 245.155C246.466 245.194 246.88 245.189 247.333 245.136C248.478 245.003 249.526 244.633 250.477 244.025C249.494 243.225 248.932 242.159 248.789 240.827C248.677 239.782 248.811 238.754 249.19 237.745C249.568 236.736 250.126 235.82 250.862 234.999C251.6 234.177 252.481 233.489 253.504 232.935C254.527 232.38 255.618 232.036 256.777 231.902C257.287 231.843 257.712 231.824 258.052 231.846C258.393 231.868 258.768 231.929 259.176 232.029C259.328 231.782 259.446 231.585 259.531 231.44C259.614 231.295 259.749 231.075 259.939 230.783C260.142 230.446 260.329 230.152 260.502 229.903C260.677 229.654 260.842 229.421 260.997 229.204C261.155 228.988 261.312 228.776 261.467 228.571C261.625 228.364 261.793 228.137 261.965 227.887L262.303 227.41L262.516 227.166C261.387 226.691 260.547 226.173 259.999 225.611C259.449 225.048 259.133 224.385 259.051 223.623C258.948 222.674 259.268 221.876 260.006 221.228C260.747 220.58 261.798 220.176 263.159 220.019C263.752 219.95 264.315 219.952 264.852 220.025C265.39 220.099 265.918 220.23 266.439 220.42C266.709 220.514 267.007 220.636 267.332 220.786C267.657 220.936 268.075 221.149 268.583 221.424C269.533 220.772 270.489 220.238 271.452 219.824C272.418 219.41 273.334 219.152 274.202 219.052C275.328 218.922 276.218 219.037 276.876 219.397C277.534 219.756 277.905 220.325 277.987 221.104C278.08 221.966 277.659 222.824 276.724 223.679C275.788 224.535 274.402 225.4 272.561 226.278L272.133 226.483C272.185 226.767 272.218 226.981 272.233 227.125C272.25 227.289 272.268 227.443 272.283 227.586C272.446 229.103 272.328 230.564 271.93 231.97C271.532 233.375 270.799 234.866 269.731 236.442C268.905 237.659 268.047 238.718 267.157 239.62C266.266 240.522 265.245 241.361 264.092 242.138C261.49 243.892 258.898 244.918 256.316 245.217C255.155 245.352 254.107 245.343 253.174 245.191C252.241 245.039 251.473 244.75 250.87 244.322C249.757 244.928 248.659 245.294 247.574 245.419C247.12 245.472 246.695 245.474 246.301 245.426ZM276.443 219.695C275.886 219.428 275.133 219.349 274.184 219.459C273.356 219.555 272.556 219.777 271.785 220.126C271.014 220.474 270.099 221.021 269.038 221.767C269.821 222.34 270.459 222.982 270.954 223.693C271.45 224.403 271.825 225.211 272.083 226.115C272.851 225.839 273.569 225.497 274.234 225.088C274.9 224.679 275.473 224.239 275.951 223.768C276.431 223.297 276.799 222.819 277.056 222.333C277.314 221.847 277.419 221.398 277.377 220.989C277.312 220.394 277.001 219.963 276.443 219.695ZM259.906 243.914C261.267 243.373 262.591 242.665 263.874 241.79C264.99 241.017 265.971 240.182 266.811 239.286C267.655 238.39 268.463 237.347 269.233 236.158C270.226 234.61 270.919 233.15 271.312 231.776C271.702 230.403 271.823 229.009 271.672 227.595C271.655 227.431 271.627 227.288 271.597 227.168C271.562 227.047 271.525 226.875 271.48 226.652C270.787 226.898 270.179 227.072 269.648 227.175C269.121 227.278 268.493 227.372 267.762 227.456C267.307 227.508 266.906 227.549 266.561 227.579C266.216 227.608 265.891 227.62 265.591 227.613C265.29 227.607 264.988 227.584 264.685 227.547C264.382 227.509 264.064 227.447 263.737 227.361C263.667 227.452 263.614 227.526 263.579 227.582C263.547 227.637 263.511 227.688 263.476 227.734C263.374 227.891 263.239 228.088 263.076 228.324C262.911 228.562 262.716 228.849 262.493 229.186C262.288 229.5 262.113 229.775 261.968 230.01C261.823 230.244 261.708 230.438 261.625 230.594L260.799 232.121L260.597 232.456C261.998 233.041 262.768 234 262.914 235.332C262.996 236.112 262.866 236.853 262.521 237.557C262.178 238.26 261.653 238.861 260.947 239.358L260.84 239.184C261.47 238.737 261.93 238.18 262.218 237.514C262.506 236.848 262.611 236.146 262.531 235.407C262.398 234.157 261.695 233.284 260.422 232.788L260.169 233.222L259.321 234.814C259.173 235.101 259.011 235.4 258.833 235.711C258.655 236.022 258.458 236.356 258.235 236.714C257.622 237.678 257.059 238.495 256.551 239.166C256.044 239.836 255.456 240.501 254.788 241.16C254.5 241.443 254.212 241.71 253.929 241.96C253.647 242.21 253.359 242.467 253.069 242.729C252.739 243.016 252.463 243.239 252.241 243.401C252.018 243.561 251.71 243.768 251.32 244.021C252.546 244.854 254.097 245.163 255.973 244.946C257.234 244.799 258.548 244.455 259.906 243.914ZM269.481 226.868C270.116 226.721 270.759 226.527 271.412 226.286C271.272 225.721 271.107 225.221 270.922 224.786C270.734 224.351 270.489 223.923 270.184 223.502C269.969 223.173 269.761 222.912 269.561 222.718C269.361 222.523 269.063 222.262 268.668 221.934C268.17 222.323 267.795 222.631 267.539 222.858C267.284 223.085 267.004 223.361 266.699 223.687C266.321 224.083 265.946 224.501 265.573 224.938C265.2 225.375 264.765 225.955 264.262 226.678L263.977 227.084C264.567 227.203 265.115 227.274 265.618 227.299C266.118 227.324 266.716 227.296 267.407 227.217C268.157 227.13 268.848 227.013 269.481 226.868ZM264.827 224.542C265.143 224.225 265.455 223.924 265.763 223.64C266.073 223.355 266.399 223.073 266.739 222.796C267.077 222.517 267.462 222.229 267.887 221.931L268.195 221.708C267.314 221.146 266.469 220.756 265.656 220.539C264.845 220.322 263.994 220.265 263.106 220.367C261.98 220.497 261.142 220.859 260.587 221.453C260.031 222.046 259.801 222.804 259.901 223.726C259.976 224.424 260.267 225.049 260.777 225.602C261.285 226.155 261.933 226.563 262.721 226.825C262.969 226.526 263.164 226.301 263.306 226.15C263.451 225.998 263.622 225.818 263.819 225.608C264.174 225.214 264.512 224.859 264.827 224.542ZM254.525 240.257C254.743 239.941 254.978 239.592 255.238 239.209C255.461 238.851 255.658 238.527 255.838 238.237C256.016 237.946 256.194 237.645 256.371 237.335C256.546 237.023 256.734 236.675 256.932 236.289C257.132 235.903 257.369 235.434 257.65 234.883C257.8 234.596 257.932 234.347 258.05 234.136C258.168 233.925 258.273 233.732 258.363 233.555C258.453 233.378 258.545 233.202 258.635 233.026C258.725 232.849 258.838 232.639 258.973 232.395C258.505 232.324 258.125 232.28 257.835 232.262C257.542 232.244 257.229 232.254 256.894 232.293C254.703 232.547 252.976 233.587 251.715 235.414C251.42 235.841 251.162 236.308 250.935 236.812C250.71 237.315 250.527 237.84 250.384 238.385C250.244 238.931 250.148 239.476 250.096 240.022C250.045 240.567 250.045 241.086 250.098 241.578C250.153 242.091 250.242 242.485 250.359 242.762C250.479 243.039 250.7 243.356 251.017 243.714C251.483 243.411 251.986 243.015 252.521 242.527C253.059 242.04 253.532 241.544 253.937 241.041C254.115 240.834 254.31 240.572 254.525 240.257Z" fill="#F6D4BA" fill-opacity="0.9"/>
<path d="M247.708 252.743L247.579 252.695C247.76 251.987 248.128 251.439 248.682 251.054C249.161 250.721 249.65 250.649 250.151 250.837C250.652 251.025 251.125 251.466 251.573 252.159C251.816 252.538 252.041 252.962 252.243 253.431C252.446 253.9 252.606 254.369 252.721 254.837C252.834 255.305 252.916 255.822 252.961 256.389C253.009 256.956 253.021 257.542 253.006 258.147C252.984 258.916 252.899 259.668 252.754 260.404C252.606 261.14 252.411 261.825 252.173 262.459C251.933 263.094 251.655 263.653 251.338 264.135C251.022 264.618 250.682 264.985 250.317 265.239C249.846 265.567 249.358 265.73 248.851 265.729C248.345 265.728 247.906 265.566 247.532 265.244C247.391 265.126 247.249 264.988 247.109 264.83C246.968 264.671 246.834 264.493 246.708 264.296C246.454 263.903 246.247 263.42 246.087 262.847C245.927 262.275 245.815 261.649 245.751 260.969C245.687 260.29 245.675 259.583 245.713 258.849C245.752 258.116 245.842 257.398 245.983 256.696C246.187 255.699 246.469 254.856 246.828 254.167C247.188 253.479 247.61 252.965 248.096 252.627C248.559 252.305 248.989 252.171 249.388 252.224C249.785 252.278 250.113 252.505 250.372 252.907C250.59 253.244 250.76 253.667 250.882 254.173C251.005 254.68 251.083 255.223 251.118 255.804C251.15 256.385 251.133 256.982 251.068 257.597C251.002 258.212 250.89 258.804 250.727 259.372C250.572 259.9 250.384 260.352 250.165 260.728C249.945 261.102 249.702 261.382 249.436 261.567C249.132 261.778 248.845 261.853 248.573 261.79C248.302 261.728 248.065 261.539 247.862 261.223C247.765 261.073 247.686 260.899 247.624 260.702C247.563 260.505 247.518 260.294 247.488 260.068C247.459 259.843 247.446 259.609 247.449 259.367C247.453 259.125 247.477 258.885 247.522 258.648C247.61 258.187 247.745 257.787 247.928 257.448C248.112 257.11 248.328 256.853 248.579 256.679C248.624 256.647 248.666 256.618 248.704 256.592C248.75 256.56 248.809 256.524 248.882 256.485L248.94 256.599C248.826 256.644 248.75 256.68 248.712 256.706C248.454 256.886 248.239 257.167 248.067 257.549C247.895 257.931 247.772 258.388 247.697 258.92C247.63 259.413 247.615 259.843 247.654 260.21C247.693 260.577 247.781 260.868 247.918 261.081C248.233 261.569 248.6 261.669 249.017 261.378C249.177 261.267 249.337 261.102 249.498 260.882C249.658 260.662 249.81 260.402 249.952 260.103C250.095 259.804 250.227 259.47 250.347 259.101C250.465 258.732 250.565 258.343 250.642 257.935C250.747 257.45 250.815 256.969 250.842 256.493C250.872 256.016 250.867 255.561 250.83 255.13C250.795 254.698 250.727 254.305 250.63 253.949C250.535 253.594 250.407 253.294 250.249 253.049C249.781 252.324 249.209 252.196 248.533 252.666C248.29 252.835 248.047 253.067 247.803 253.362C247.559 253.658 247.343 253.985 247.156 254.343C247.083 254.486 247.005 254.655 246.922 254.849C246.838 255.044 246.752 255.27 246.665 255.525C246.566 255.799 246.482 256.041 246.413 256.249C246.344 256.457 246.284 256.664 246.235 256.869C246.186 257.075 246.145 257.292 246.111 257.521C246.077 257.75 246.044 258.019 246.012 258.327C245.974 258.662 245.945 258.965 245.923 259.238C245.9 259.51 245.889 259.767 245.889 260.006C245.89 260.246 245.896 260.476 245.906 260.698C245.917 260.919 245.935 261.152 245.961 261.396C245.989 261.594 246.021 261.789 246.057 261.981C246.092 262.173 246.131 262.369 246.172 262.569C246.256 262.922 246.351 263.227 246.457 263.485C246.563 263.743 246.687 263.982 246.829 264.203C247.612 265.418 248.512 265.672 249.53 264.964C249.857 264.737 250.153 264.459 250.42 264.131C250.687 263.802 250.94 263.389 251.18 262.891C251.438 262.369 251.663 261.811 251.861 261.219C252.053 260.626 252.213 260.013 252.333 259.381C252.398 259.038 252.451 258.69 252.494 258.336C252.534 257.982 252.564 257.632 252.584 257.287C252.604 256.942 252.609 256.609 252.601 256.29C252.594 255.969 252.571 255.673 252.539 255.399C252.459 254.814 252.323 254.255 252.133 253.719C251.941 253.183 251.708 252.702 251.433 252.276C251.022 251.638 250.592 251.24 250.145 251.082C249.697 250.926 249.245 251.005 248.79 251.322C248.531 251.502 248.308 251.714 248.12 251.959C247.931 252.205 247.794 252.466 247.708 252.743Z" fill="#F6D4BA" fill-opacity="0.9"/>
<path d="M251.507 248.433C251.269 248.628 251.067 248.86 250.894 249.129C250.589 249.602 250.511 250.071 250.661 250.536C250.814 251.001 251.197 251.448 251.812 251.875C252.222 252.161 252.685 252.403 253.201 252.601C253.716 252.8 254.254 252.941 254.817 253.023C255.08 253.058 255.367 253.08 255.675 253.088C255.983 253.097 256.303 253.091 256.633 253.071C256.966 253.05 257.304 253.018 257.644 252.976C257.984 252.933 258.319 252.877 258.65 252.81C259.258 252.685 259.848 252.521 260.418 252.318C260.989 252.115 261.527 251.88 262.03 251.612C262.508 251.363 262.905 251.099 263.221 250.823C263.538 250.545 263.806 250.237 264.024 249.898C264.704 248.841 264.461 247.906 263.291 247.092C263.078 246.944 262.848 246.815 262.6 246.705C262.352 246.595 262.057 246.497 261.719 246.409C261.527 246.367 261.337 246.326 261.152 246.289C260.966 246.252 260.781 246.219 260.591 246.19C260.353 246.163 260.131 246.144 259.918 246.133C259.705 246.122 259.483 246.116 259.253 246.116C259.022 246.115 258.775 246.127 258.512 246.15C258.249 246.173 257.957 246.204 257.636 246.243C257.339 246.276 257.081 246.311 256.861 246.346C256.638 246.381 256.431 246.424 256.233 246.475C256.035 246.526 255.835 246.588 255.635 246.659C255.435 246.732 255.202 246.818 254.939 246.921C254.692 247.012 254.477 247.102 254.289 247.188C254.101 247.274 253.939 247.356 253.801 247.432C253.456 247.626 253.141 247.85 252.858 248.103C252.573 248.357 252.35 248.61 252.187 248.862C251.735 249.565 251.857 250.159 252.555 250.645C252.79 250.809 253.081 250.941 253.421 251.041C253.764 251.142 254.141 251.212 254.559 251.249C254.974 251.287 255.41 251.291 255.87 251.262C256.328 251.232 256.791 251.163 257.259 251.053C257.651 250.972 258.024 250.87 258.379 250.745C258.735 250.621 259.057 250.485 259.345 250.337C259.633 250.188 259.883 250.031 260.093 249.864C260.306 249.697 260.466 249.531 260.574 249.365C260.851 248.931 260.756 248.551 260.286 248.224C260.081 248.081 259.801 247.989 259.448 247.949C259.095 247.909 258.68 247.924 258.207 247.994C257.694 248.072 257.254 248.2 256.886 248.378C256.518 248.557 256.248 248.78 256.075 249.048C256.05 249.088 256.015 249.167 255.973 249.285L255.863 249.226C255.9 249.149 255.935 249.087 255.965 249.04C255.99 249 256.018 248.957 256.048 248.91C256.215 248.65 256.463 248.424 256.788 248.234C257.116 248.044 257.501 247.903 257.944 247.812C258.172 247.765 258.402 247.74 258.637 247.736C258.87 247.733 259.095 247.746 259.313 247.777C259.528 247.808 259.73 247.855 259.921 247.918C260.111 247.982 260.278 248.064 260.423 248.165C260.726 248.376 260.909 248.622 260.969 248.904C261.029 249.186 260.959 249.485 260.754 249.8C260.576 250.076 260.306 250.329 259.946 250.558C259.585 250.786 259.15 250.981 258.64 251.141C258.094 251.309 257.524 251.427 256.933 251.495C256.34 251.564 255.765 251.581 255.207 251.546C254.649 251.512 254.126 251.431 253.636 251.303C253.151 251.176 252.743 250.998 252.418 250.772C252.032 250.503 251.812 250.163 251.762 249.75C251.71 249.337 251.84 248.889 252.15 248.408C252.475 247.903 252.968 247.464 253.631 247.091C254.294 246.718 255.105 246.425 256.065 246.214C256.741 246.066 257.431 245.973 258.139 245.933C258.845 245.892 259.525 245.905 260.178 245.972C260.834 246.038 261.434 246.155 261.987 246.321C262.538 246.487 263.003 246.702 263.381 246.966C263.571 247.097 263.741 247.236 263.894 247.382C264.046 247.529 264.179 247.675 264.291 247.823C264.604 248.21 264.759 248.667 264.759 249.193C264.762 249.719 264.604 250.227 264.289 250.716C264.044 251.095 263.691 251.448 263.226 251.776C262.763 252.105 262.225 252.394 261.614 252.643C261.001 252.892 260.343 253.093 259.635 253.246C258.925 253.399 258.202 253.487 257.464 253.509C256.881 253.527 256.315 253.512 255.77 253.463C255.225 253.415 254.727 253.332 254.276 253.212C253.826 253.093 253.373 252.928 252.923 252.717C252.47 252.505 252.062 252.273 251.7 252.02C251.032 251.556 250.606 251.063 250.426 250.543C250.246 250.023 250.314 249.515 250.634 249.018C251.007 248.441 251.532 248.059 252.215 247.871L252.26 248.005C251.995 248.094 251.742 248.237 251.507 248.433Z" fill="#F6D4BA" fill-opacity="0.9"/>
<path d="M239.704 261.409C239.485 261.181 239.13 261.181 238.91 261.409C238.691 261.636 238.691 262.005 238.911 262.233C239.13 262.46 239.485 262.46 239.704 262.233C239.923 262.005 239.923 261.636 239.704 261.409Z" fill="#69DBEF"/>
<path d="M249.252 256.228C249.099 256.069 248.85 256.069 248.697 256.228C248.544 256.387 248.544 256.645 248.697 256.805C248.85 256.964 249.099 256.964 249.252 256.805C249.406 256.645 249.406 256.387 249.252 256.228Z" fill="#69DBEF"/>
<path d="M256.135 248.957C255.982 248.798 255.734 248.798 255.579 248.957C255.427 249.117 255.427 249.375 255.579 249.534C255.734 249.694 255.982 249.694 256.135 249.534C256.287 249.375 256.287 249.117 256.135 248.957Z" fill="#69DBEF"/>
<path d="M261.234 238.772C261.016 238.544 260.661 238.544 260.441 238.772C260.223 238.999 260.223 239.368 260.441 239.596C260.661 239.823 261.016 239.823 261.234 239.596C261.451 239.368 261.451 238.999 261.234 238.772Z" fill="#69DBEF"/>
<path d="M254.324 265.295V254.813H264.412V254.968V265.295H254.324ZM254.622 264.986H264.114V255.122H254.622V264.986Z" fill="#69DBEF"/>
<path d="M255.316 264.265V255.843H255.467L263.422 255.844V264.265L255.316 264.265ZM255.614 263.956L263.125 263.956V256.152H255.614V263.956Z" fill="#69DBEF"/>
<path d="M256.309 263.235L256.311 256.874H256.459L262.433 256.873V263.235L256.309 263.235ZM256.606 262.926L262.135 262.925V257.183L256.606 257.183V262.926Z" fill="#69DBEF"/>
<path d="M57.918 268.728V269.733H220.084V268.728H57.918Z" fill="#F6D4BA" fill-opacity="0.5"/>
</svg>
