<svg width="53" height="52" fill="none" xmlns="http://www.w3.org/2000/svg"><path d="M42.923 19.077h-12v-12H11.077v37.846h31.846V19.077zm-.23-1.846L33 8.319V17l9.692.23zM10.5 5H33l12 12v28.5a1.5 1.5 0 01-1.5 1.5h-33A1.5 1.5 0 019 45.5v-39A1.5 1.5 0 0110.5 5z" fill="#323232"/><path d="M34.462 26.923H18.538a1.038 1.038 0 100 2.077h15.924a1.038 1.038 0 100-2.077zm-10.5-8.077h-5.424a1.038 1.038 0 100 2.077h5.424a1.038 1.038 0 100-2.077zM34.462 35H18.538a1.038 1.038 0 100 2.077h15.924a1.038 1.038 0 100-2.077z" fill="#00AB54"/></svg>