<svg width="615" height="671" fill="none" xmlns="http://www.w3.org/2000/svg"><rect x="7.5" y="66.5" width="597" height="537" rx="15.5" stroke="url(#paint0_linear_298_4390)" stroke-dasharray="500 250"/><path d="M305.32 76.002c.499.528 1.073 1.263 1.719 2.204l-.402.103a11.47 11.47 0 00-1.378-1.753c-.48-.494-1.078-.985-1.793-1.472a16.769 16.769 0 00-5.946-2.544c.345 2.073-.26 3.938-1.816 5.595-1.22 1.3-2.765 2.284-4.637 2.953-1.871.669-3.875 1.019-6.009 1.048-2.135.03-4.297-.262-6.486-.876a20.436 20.436 0 01-6.026-2.787c-.806-.549-1.437-1.04-1.893-1.474a12.289 12.289 0 01-1.358-1.554c-.543.092-.971.169-1.283.23-.31.062-.793.142-1.447.243-.734.13-1.39.23-1.965.3-.577.07-1.118.131-1.627.184-.509.054-1.012.1-1.508.14-.497.04-1.034.094-1.608.164l-1.113.125-.626.015c.983 1.888 1.494 3.476 1.536 4.764.04 1.289-.384 2.408-1.275 3.356-1.106 1.18-2.614 1.685-4.524 1.518-1.909-.167-3.937-.981-6.085-2.444a13.877 13.877 0 01-2.405-2.044 13.646 13.646 0 01-1.737-2.349 16.32 16.32 0 01-.789-1.482 36.692 36.692 0 01-.942-2.217 39.343 39.343 0 01-6.2-1.67c-1.921-.698-3.566-1.514-4.935-2.446-1.774-1.208-2.893-2.409-3.355-3.6-.462-1.193-.239-2.273.67-3.242 1.005-1.071 2.738-1.521 5.199-1.35 2.461.172 5.58.877 9.361 2.113l.878.285c.303-.379.54-.657.707-.835l.539-.574c1.77-1.886 3.865-3.374 6.287-4.462 2.421-1.087 5.432-1.868 9.033-2.341 2.784-.361 5.404-.509 7.863-.444 2.459.066 5.022.36 7.689.88 6.024 1.178 11.07 3.151 15.14 5.922 1.832 1.249 3.314 2.519 4.444 3.81 1.129 1.292 1.842 2.54 2.138 3.743 2.383.663 4.43 1.576 6.143 2.742a11.17 11.17 0 011.822 1.523zm-76.902-7.584c.441.97 1.41 1.963 2.904 2.98 1.307.89 2.74 1.606 4.3 2.145 1.559.54 3.585 1.031 6.077 1.475-.355-1.58-.417-3.063-.185-4.451.232-1.388.762-2.74 1.589-4.058a26.845 26.845 0 00-4.422-1.443c-1.488-.345-2.883-.543-4.186-.595-1.304-.052-2.46.039-3.468.27-1.01.233-1.753.604-2.231 1.115-.694.739-.82 1.593-.378 2.562zm55.522-7.1c-2.653-1.033-5.47-1.834-8.456-2.405-2.609-.48-5.106-.73-7.489-.744-2.385-.014-4.91.177-7.579.575-3.456.528-6.37 1.324-8.741 2.383-2.372 1.06-4.383 2.469-6.034 4.228a3.97 3.97 0 00-.456.567c-.112.174-.285.412-.516.714 1.311.559 2.411 1.099 3.3 1.62a55.348 55.348 0 013.059 1.958c.716.487 1.341.923 1.873 1.306s1.009.76 1.428 1.13c.419.369.82.756 1.203 1.163.382.408.751.856 1.106 1.349.22-.018.391-.037.514-.058.121-.021.237-.036.348-.045.354-.05.804-.11 1.351-.176.547-.067 1.202-.153 1.966-.26a79.434 79.434 0 001.837-.285c.514-.088.934-.168 1.258-.24l3.191-.71.732-.128c-1.223-2.338-1.058-4.335.497-5.992.909-.969 2.073-1.638 3.493-2.01 1.419-.37 2.959-.408 4.62-.112l-.075.325c-1.489-.262-2.878-.195-4.168.2-1.291.397-2.366 1.054-3.227 1.972-1.46 1.555-1.612 3.374-.454 5.457l.933-.18 3.311-.754a60.084 60.084 0 014.052-.812c2.149-.333 4.028-.57 5.637-.706a41.597 41.597 0 015.144-.1 54.28 54.28 0 012.279.14c.733.06 1.48.12 2.242.18.847.075 1.535.157 2.064.246.529.088 1.24.228 2.134.418-.651-2.406-2.454-4.617-5.41-6.63-1.992-1.356-4.315-2.55-6.967-3.584zM247.802 68.8a35.687 35.687 0 00-3.517-1.674c-.546.798-.973 1.552-1.281 2.261a9.014 9.014 0 00-.646 2.32c-.127.624-.175 1.164-.146 1.623.029.458.108 1.108.237 1.948a58.88 58.88 0 002.83.328 29.79 29.79 0 002.291.087 71.556 71.556 0 003.252-.041c1.109-.04 2.496-.16 4.165-.361l.944-.11a21.657 21.657 0 00-2.054-2.213c-.684-.632-1.569-1.319-2.658-2.06a41.658 41.658 0 00-3.417-2.108zm3.561 8.19a71.253 71.253 0 01-2.526-.12 45.12 45.12 0 01-5.281-.65l-.73-.121c.511 1.685 1.201 3.136 2.072 4.356.871 1.22 2.006 2.306 3.406 3.26 1.775 1.208 3.449 1.816 5.024 1.822 1.575.007 2.901-.563 3.977-1.71.814-.866 1.223-1.914 1.229-3.143.006-1.23-.38-2.463-1.156-3.702a32.58 32.58 0 01-1.726.046l-1.444-.01c-1.03.008-1.978 0-2.845-.027zm35.416-5.121c-.725.092-1.524.196-2.396.31l-2.139.363a60.217 60.217 0 00-4.13.854c-.792.192-1.752.427-2.879.703-.591.141-1.11.258-1.555.352-.445.094-.849.184-1.211.272l-1.088.262c-.362.088-.8.187-1.312.297.572.64 1.054 1.147 1.446 1.518.391.37.851.736 1.381 1.096 3.454 2.353 7.286 3.27 11.497 2.753a18.968 18.968 0 002.955-.62 19.49 19.49 0 002.86-1.093 18.736 18.736 0 002.572-1.476 12.594 12.594 0 002.051-1.737c.599-.637.995-1.182 1.19-1.635.195-.452.301-1.068.321-1.85-1.066-.224-2.304-.387-3.711-.489a30.247 30.247 0 00-3.977-.044c-.527.017-1.152.072-1.875.164z" fill="#F6D4BA" fill-opacity=".9"/><path d="M309.869 74.578c1.66-1.111 3.668-1.96 6.023-2.545.241-1.195.899-2.42 1.97-3.677 1.073-1.256 2.497-2.48 4.274-3.67 3.948-2.641 8.909-4.453 14.883-5.437 2.647-.435 5.198-.646 7.656-.632 2.458.013 5.087.246 7.888.697 3.626.59 6.675 1.468 9.147 2.634a21.708 21.708 0 016.493 4.669l.565.591c.176.184.424.47.745.858l.866-.256c3.727-1.115 6.817-1.72 9.272-1.812 2.454-.093 4.21.413 5.264 1.518.953.998 1.226 2.087.817 3.265-.408 1.178-1.474 2.344-3.194 3.495-1.329.889-2.938 1.652-4.828 2.29-1.89.636-3.933 1.127-6.13 1.47-.32.908-.6 1.637-.841 2.189a15.09 15.09 0 01-.723 1.458 12.228 12.228 0 01-1.632 2.293 12.383 12.383 0 01-2.314 1.968c-2.083 1.395-4.077 2.144-5.979 2.25-1.904.105-3.436-.45-4.597-1.666-.933-.977-1.409-2.11-1.427-3.398-.017-1.288.424-2.86 1.321-4.718l-.627-.036-1.118-.16a41.22 41.22 0 00-1.618-.217 68.066 68.066 0 01-1.514-.188c-.512-.07-1.058-.149-1.637-.237a38.26 38.26 0 01-1.981-.364 40.02 40.02 0 01-1.459-.29 55.484 55.484 0 00-1.294-.272 11.035 11.035 0 01-1.288 1.513c-.437.418-1.047.89-1.828 1.413-1.771 1.185-3.74 2.05-5.904 2.594a22.133 22.133 0 01-6.451.668c-2.138-.098-4.159-.513-6.061-1.243-1.903-.73-3.495-1.764-4.774-3.105-1.632-1.708-2.323-3.594-2.071-5.658-2.139.398-4.084 1.183-5.835 2.355-.694.464-1.269.936-1.729 1.415-.456.48-.89 1.05-1.298 1.71l-.408-.116c.605-.921 1.145-1.638 1.621-2.15.475-.512 1.061-1 1.755-1.466zm74.365-6.22c-.501-.525-1.261-.921-2.282-1.186-1.02-.264-2.18-.392-3.483-.383-1.301.01-2.689.163-4.162.46-1.473.296-2.927.73-4.36 1.303.888 1.344 1.479 2.715 1.773 4.111.295 1.397.3 2.88.016 4.448 2.474-.363 4.479-.79 6.015-1.279a16.56 16.56 0 004.207-2.008c1.449-.97 2.373-1.933 2.771-2.888.398-.956.234-1.815-.495-2.578zM322.036 65.4c-2.868 1.92-4.573 4.073-5.113 6.46a51.099 51.099 0 012.114-.35 27.693 27.693 0 012.055-.18c.76-.034 1.505-.07 2.236-.107.732-.038 1.49-.06 2.273-.068a42.047 42.047 0 015.154.267c1.615.189 3.507.486 5.672.889.795.157 1.525.314 2.194.47.669.156 1.302.314 1.899.474l3.346.861.943.21c1.063-2.047.83-3.873-.701-5.476-.904-.947-2.009-1.638-3.319-2.076-1.309-.438-2.702-.55-4.18-.336l-.09-.328c1.649-.242 3.192-.154 4.629.262 1.437.417 2.632 1.125 3.585 2.124 1.633 1.709 1.888 3.712.769 6.012l.739.151 3.225.814c.328.084.751.176 1.27.28.521.105 1.138.22 1.852.346.768.131 1.428.238 1.978.323.55.084 1.003.158 1.36.22.112.012.229.031.351.056.124.025.296.05.516.075.333-.481.682-.919 1.046-1.315.365-.394.748-.77 1.151-1.125a17.09 17.09 0 011.379-1.084c.515-.367 1.12-.782 1.814-1.247a50.107 50.107 0 012.973-1.862c.866-.491 1.942-.997 3.229-1.513-.245-.31-.428-.554-.549-.732a4.515 4.515 0 00-.481-.582c-1.732-1.813-3.808-3.288-6.229-4.425-2.422-1.137-5.373-2.026-8.857-2.668-2.687-.483-5.224-.757-7.609-.818-2.385-.063-4.873.105-7.462.502-2.961.474-5.744 1.186-8.353 2.134-2.607.948-4.877 2.069-6.809 3.362zm39.988 7.29c-1.056.707-1.912 1.366-2.566 1.977a19.051 19.051 0 00-1.956 2.148l.949.14c1.681.255 3.074.42 4.184.495a70.7 70.7 0 003.258.147c.866.024 1.628.02 2.289-.013a57.46 57.46 0 002.816-.238c.091-.836.141-1.484.15-1.941.008-.458-.065-1.001-.221-1.63a9.563 9.563 0 00-.751-2.34c-.34-.72-.801-1.49-1.383-2.305a32.95 32.95 0 00-3.445 1.561 37.593 37.593 0 00-3.324 2zm-2.715 6.018c-.558-.015-1.038-.026-1.444-.036a32.96 32.96 0 01-1.729-.102c-.721 1.215-1.051 2.438-.99 3.667a4.818 4.818 0 001.372 3.186c1.129 1.182 2.482 1.795 4.057 1.84 1.577.044 3.225-.51 4.945-1.662 1.358-.91 2.445-1.96 3.262-3.152.816-1.193 1.442-2.624 1.876-4.293l-.725.097c-.995.149-1.916.26-2.764.33-.846.073-1.677.122-2.492.15a72.01 72.01 0 01-2.522.04 72.717 72.717 0 01-2.846-.065zm-34.712-6.428a30.31 30.31 0 00-3.977-.084c-1.404.056-2.635.18-3.691.37.055.782.189 1.403.404 1.862.217.46.638 1.017 1.265 1.674.602.63 1.313 1.232 2.131 1.805a20.678 20.678 0 002.641 1.56c.942.468 1.913.863 2.912 1.184 1.001.323 1.996.562 2.985.717 4.236.653 8.03-.14 11.381-2.383a9.872 9.872 0 001.332-1.053c.376-.359.835-.85 1.378-1.473-.517-.127-.959-.24-1.327-.34l-1.1-.296c-.366-.1-.774-.203-1.225-.311a63.42 63.42 0 01-1.571-.403 1411.5 1411.5 0 00-2.913-.796 64.991 64.991 0 00-2.205-.56 69.178 69.178 0 00-1.967-.428l-2.156-.431c-.879-.144-1.683-.274-2.412-.389a20.86 20.86 0 00-1.885-.225zm-22.933-5.909a6.845 6.845 0 001.792-.037c1.06-.161 1.788-.592 2.187-1.292.398-.7.441-1.658.13-2.875a10.334 10.334 0 00-1.02-2.48 13.454 13.454 0 00-1.747-2.415 16.107 16.107 0 00-1.135-1.104c-.428-.38-.892-.758-1.392-1.135a33.03 33.03 0 00-1.562-1.11 28.894 28.894 0 00-1.652-1.024 29.995 29.995 0 00-3.17-1.58 27.783 27.783 0 00-3.225-1.15c-1.011-.3-1.926-.484-2.742-.555a9.92 9.92 0 00-2.363.065c-2.366.359-3.253 1.695-2.66 4.008.107.421.265.842.474 1.263.209.421.497.884.865 1.39.218.28.435.551.649.816.214.263.438.526.67.787.3.314.595.605.884.873.288.268.597.541.924.82.329.278.695.562 1.1.851.404.29.86.608 1.371.951.467.32.88.593 1.241.819a14.704 14.704 0 002.159 1.124c.38.16.826.343 1.337.546.47.194.898.355 1.279.485a12.72 12.72 0 003.247.702c.74.059 1.392.046 1.958-.04 1.571-.238 2.179-1.049 1.826-2.43-.119-.466-.357-.961-.711-1.484a11.063 11.063 0 00-1.344-1.6 17.352 17.352 0 00-1.852-1.591 18.442 18.442 0 00-2.253-1.438 19.71 19.71 0 00-2.005-1.007 17.534 17.534 0 00-1.914-.704 11 11 0 00-1.691-.376c-.524-.07-.969-.075-1.34-.02-.971.148-1.337.687-1.099 1.618.104.406.381.844.832 1.314.45.47 1.059.951 1.827 1.444.833.53 1.629.916 2.388 1.16.76.243 1.44.32 2.04.228a2.8 2.8 0 00.459-.14l.078.2a4.054 4.054 0 01-.391.082l-.291.045c-.582.088-1.232.042-1.947-.138a8.725 8.725 0 01-2.203-.919 7.953 7.953 0 01-1.086-.748 8.662 8.662 0 01-.907-.858 6.215 6.215 0 01-.682-.891 3.132 3.132 0 01-.39-.877c-.154-.601-.088-1.096.198-1.482.287-.387.783-.633 1.489-.74.618-.094 1.335-.052 2.152.127.816.18 1.692.487 2.629.92 1 .47 1.968 1.024 2.901 1.66.933.637 1.775 1.31 2.525 2.02.751.71 1.389 1.43 1.915 2.16.526.729.872 1.415 1.036 2.058.196.764.058 1.407-.413 1.93-.472.522-1.246.865-2.323 1.028-1.13.172-2.414.067-3.85-.314-1.437-.383-2.979-1.032-4.626-1.95a28.786 28.786 0 01-3.324-2.182 26.16 26.16 0 01-2.854-2.498 17.782 17.782 0 01-2.115-2.564c-.565-.848-.945-1.646-1.137-2.396a6.131 6.131 0 01-.18-1.082c-.024-.347-.02-.67.013-.97.069-.806.45-1.502 1.143-2.09.693-.587 1.587-.964 2.682-1.13.847-.128 1.819-.097 2.913.096 1.095.192 2.242.518 3.442.975a27.042 27.042 0 013.615 1.708 25.769 25.769 0 013.441 2.32c.853.68 1.636 1.376 2.35 2.087.714.71 1.314 1.402 1.798 2.078.484.675.909 1.4 1.274 2.18.364.778.639 1.528.823 2.248.338 1.32.293 2.38-.135 3.178-.429.798-1.2 1.28-2.312 1.45-1.289.195-2.544-.013-3.764-.624l.113-.204c.497.22 1.043.365 1.638.43z" fill="#F6D4BA" fill-opacity=".9"/><path d="M312.748 66.16l.121.207a5.956 5.956 0 01-3.738.502c-1.121-.204-1.913-.713-2.378-1.524-.466-.813-.558-1.874-.28-3.185a11.93 11.93 0 01.723-2.223c.329-.768.721-1.482 1.175-2.142a14.974 14.974 0 011.706-2.02 25.457 25.457 0 012.258-2.013 23.018 23.018 0 013.338-2.21 24.604 24.604 0 013.541-1.593 17.702 17.702 0 013.399-.864c1.087-.158 2.057-.159 2.912-.003 1.103.202 2.014.607 2.734 1.218.721.61 1.134 1.319 1.238 2.127.048.302.066.626.058.972a5.92 5.92 0 01-.133 1.077c-.157.744-.501 1.53-1.028 2.361-.528.831-1.194 1.663-2.001 2.498a22.984 22.984 0 01-2.743 2.407 25.732 25.732 0 01-3.228 2.076c-1.606.866-3.12 1.467-4.541 1.802-1.42.335-2.699.4-3.838.192-1.085-.199-1.875-.567-2.371-1.105s-.662-1.186-.501-1.944c.135-.639.45-1.315.943-2.027a13.8 13.8 0 011.819-2.1 18.008 18.008 0 012.436-1.939 18.975 18.975 0 012.828-1.567c.918-.404 1.78-.682 2.59-.836.808-.154 1.524-.173 2.147-.059.712.13 1.219.393 1.523.789.304.397.392.892.265 1.49-.06.282-.177.571-.349.865a5.667 5.667 0 01-.643.87 7.608 7.608 0 01-.869.828 7.05 7.05 0 01-1.054.714 8.03 8.03 0 01-2.163.849c-.706.156-1.355.181-1.941.074l-.294-.053a4.472 4.472 0 01-.396-.095l.069-.197c.222.087.378.139.467.155.605.11 1.282.055 2.031-.164.75-.22 1.528-.58 2.338-1.083.745-.468 1.334-.93 1.763-1.386.43-.455.687-.885.772-1.288.197-.924-.193-1.475-1.172-1.654-.374-.068-.82-.077-1.34-.024a10.54 10.54 0 00-1.676.321c-.598.162-1.225.376-1.883.644-.657.267-1.311.581-1.96.943-.791.413-1.521.868-2.19 1.365a15.522 15.522 0 00-1.782 1.534 9.856 9.856 0 00-1.273 1.557c-.33.512-.546 1-.644 1.462-.291 1.371.354 2.202 1.938 2.492.569.103 1.223.137 1.96.102a12.216 12.216 0 003.219-.597c.375-.118.795-.266 1.257-.445.503-.186.94-.355 1.313-.503a13.56 13.56 0 002.111-1.056c.35-.215.752-.474 1.205-.778a51.2 51.2 0 001.329-.908c.391-.277.745-.55 1.061-.816.316-.268.611-.532.888-.791.277-.26.559-.541.845-.845.221-.254.432-.51.635-.767s.407-.522.612-.794c.346-.495.614-.949.803-1.364.19-.414.329-.83.417-1.248.489-2.296-.459-3.662-2.842-4.097a10.04 10.04 0 00-2.369-.142c-.813.045-1.719.2-2.719.467-1.055.272-2.114.62-3.174 1.047a26.564 26.564 0 00-4.708 2.451c-.525.346-1.031.699-1.514 1.06-.483.36-.93.725-1.34 1.091a14.03 14.03 0 00-1.087 1.068 12.072 12.072 0 00-1.639 2.361 9.537 9.537 0 00-.908 2.448c-.257 1.208-.17 2.168.26 2.882.431.714 1.18 1.168 2.247 1.363a6.93 6.93 0 001.795.096 5.213 5.213 0 001.62-.378z" fill="#F6D4BA" fill-opacity=".9"/><path d="M277.162 65.174c.012.517-.475.93-1.088.92-.612-.01-1.118-.438-1.13-.956-.011-.516.476-.928 1.087-.918.613.01 1.119.438 1.131.954zm20.194-5.056c.008.361-.332.65-.761.643-.429-.007-.783-.306-.79-.668-.009-.362.332-.65.76-.643.429.007.783.306.791.668zm19.418.442c.008.362-.332.65-.761.643-.429-.007-.782-.306-.791-.668-.008-.361.333-.649.762-.642.428.007.782.305.79.667zm20.939 5.898c.012.516-.475.928-1.087.918-.613-.01-1.119-.437-1.131-.954-.011-.517.476-.929 1.088-.919.612.01 1.118.438 1.13.955z" fill="#69DBEF"/><path d="M305.143 609.743c.5.528 1.073 1.263 1.719 2.204l-.402.103a11.607 11.607 0 00-1.377-1.753 11.66 11.66 0 00-1.794-1.472 16.767 16.767 0 00-5.946-2.544c.345 2.073-.26 3.939-1.815 5.595-1.22 1.3-2.766 2.284-4.638 2.953-1.871.669-3.875 1.019-6.008 1.048-2.136.03-4.297-.262-6.487-.876a20.426 20.426 0 01-6.026-2.787c-.806-.549-1.436-1.039-1.893-1.473a12.339 12.339 0 01-1.358-1.555c-.543.093-.971.169-1.282.23-.311.062-.794.143-1.448.243-.734.13-1.39.23-1.965.301-.577.07-1.118.131-1.627.184-.509.053-1.011.099-1.508.139-.497.04-1.033.094-1.608.164l-1.112.125-.627.016c.983 1.888 1.495 3.475 1.536 4.764.04 1.288-.384 2.407-1.274 3.355-1.107 1.179-2.614 1.685-4.524 1.519-1.909-.168-3.938-.982-6.086-2.444a13.85 13.85 0 01-2.404-2.045 13.615 13.615 0 01-1.738-2.348 16.682 16.682 0 01-.789-1.482c-.267-.559-.579-1.3-.941-2.218a39.273 39.273 0 01-6.201-1.669c-1.921-.699-3.566-1.515-4.935-2.447-1.774-1.208-2.893-2.409-3.355-3.601-.462-1.192-.238-2.272.671-3.241 1.005-1.071 2.737-1.521 5.199-1.349 2.46.172 5.58.876 9.36 2.112l.878.285c.303-.378.54-.657.708-.835l.538-.574c1.77-1.886 3.866-3.373 6.287-4.462 2.421-1.087 5.432-1.868 9.034-2.341 2.783-.361 5.403-.509 7.862-.443 2.459.066 5.022.359 7.69.88 6.023 1.178 11.069 3.151 15.14 5.922 1.831 1.248 3.313 2.518 4.444 3.809 1.128 1.292 1.842 2.54 2.138 3.743 2.382.663 4.429 1.576 6.142 2.742.715.488 1.323.995 1.822 1.523zm-76.902-7.584c.442.97 1.41 1.963 2.904 2.981a18.178 18.178 0 004.3 2.145c1.56.539 3.586 1.031 6.078 1.474-.355-1.579-.418-3.062-.185-4.451.231-1.387.761-2.741 1.588-4.058a26.842 26.842 0 00-4.422-1.443c-1.488-.345-2.883-.543-4.186-.595-1.304-.052-2.46.039-3.468.27-1.01.233-1.752.605-2.23 1.115-.695.739-.821 1.594-.379 2.562zm55.523-7.1c-2.654-1.033-5.471-1.834-8.457-2.405-2.609-.48-5.105-.729-7.489-.743-2.384-.015-4.91.176-7.579.574-3.456.529-6.37 1.324-8.741 2.383-2.372 1.059-4.383 2.469-6.034 4.228a4.04 4.04 0 00-.455.567c-.113.174-.285.412-.517.714 1.311.559 2.411 1.099 3.3 1.62a54.857 54.857 0 013.059 1.958c.716.488 1.341.923 1.873 1.306a17.613 17.613 0 012.631 2.294c.382.407.752.856 1.107 1.348.219-.017.39-.037.513-.057.121-.022.237-.037.348-.046.354-.051.805-.11 1.352-.176.547-.067 1.201-.153 1.965-.26a78.36 78.36 0 001.837-.285c.515-.088.934-.168 1.258-.24l3.191-.71.733-.128c-1.224-2.338-1.059-4.334.496-5.992.91-.969 2.073-1.638 3.493-2.009 1.419-.371 2.959-.408 4.62-.113l-.075.325c-1.489-.262-2.878-.194-4.168.201-1.29.397-2.366 1.054-3.227 1.971-1.46 1.555-1.611 3.375-.454 5.457l.934-.179 3.31-.755a60.707 60.707 0 014.053-.812c2.149-.333 4.027-.569 5.637-.706a41.77 41.77 0 015.143-.101c.785.033 1.545.08 2.279.141.734.061 1.481.121 2.242.18.847.075 1.535.158 2.064.246.53.089 1.24.228 2.134.418-.651-2.406-2.454-4.617-5.41-6.63-1.992-1.356-4.314-2.55-6.966-3.584zm-36.139 7.482a35.619 35.619 0 00-3.517-1.674c-.546.798-.973 1.553-1.281 2.261a9.053 9.053 0 00-.646 2.319c-.126.625-.175 1.165-.146 1.624.029.458.108 1.108.237 1.948 1.223.165 2.166.274 2.83.328a29.25 29.25 0 002.291.087c1.06.012 2.144-.002 3.253-.041 1.108-.039 2.495-.16 4.164-.361l.944-.109a21.524 21.524 0 00-2.054-2.214c-.683-.632-1.569-1.319-2.658-2.06a41.59 41.59 0 00-3.417-2.108zm3.561 8.191a72.476 72.476 0 01-2.526-.121 45.632 45.632 0 01-5.281-.65l-.729-.121c.51 1.685 1.2 3.137 2.072 4.356.87 1.22 2.006 2.306 3.406 3.26 1.774 1.208 3.448 1.816 5.023 1.822 1.575.007 2.901-.562 3.977-1.71.814-.866 1.224-1.914 1.229-3.143.006-1.229-.38-2.463-1.155-3.701-.748.034-1.324.049-1.727.046l-1.444-.012c-1.03.01-1.978.001-2.845-.026zm35.416-5.122c-.725.092-1.523.196-2.396.311l-2.139.362a64.38 64.38 0 00-1.948.365c-.663.135-1.39.298-2.182.489-.792.193-1.752.427-2.879.704-.591.141-1.109.257-1.554.352-.446.093-.85.184-1.212.271l-1.087.262c-.363.088-.801.187-1.312.297.571.64 1.053 1.148 1.445 1.518.391.37.852.736 1.381 1.097 3.455 2.352 7.287 3.269 11.498 2.752a18.979 18.979 0 002.954-.62c.985-.29 1.939-.654 2.86-1.092a18.699 18.699 0 002.572-1.477 12.569 12.569 0 002.051-1.737c.599-.637.995-1.182 1.19-1.634.195-.453.301-1.069.321-1.85-1.066-.225-2.303-.388-3.711-.49a30.267 30.267 0 00-3.976-.044c-.527.018-1.152.072-1.876.164z" fill="#F6D4BA" fill-opacity=".9"/><path d="M309.693 608.319c1.66-1.111 3.668-1.959 6.023-2.544.241-1.196.899-2.421 1.97-3.678 1.072-1.256 2.497-2.48 4.274-3.669 3.948-2.642 8.909-4.454 14.883-5.438 2.646-.435 5.198-.646 7.656-.632 2.457.014 5.087.246 7.888.697 3.626.59 6.675 1.468 9.146 2.634a21.715 21.715 0 016.494 4.669l.565.591c.176.184.424.47.745.858l.866-.256c3.727-1.115 6.817-1.72 9.272-1.812 2.454-.092 4.209.414 5.263 1.518.954.999 1.226 2.087.817 3.265-.408 1.179-1.473 2.344-3.193 3.495-1.329.889-2.938 1.652-4.829 2.29-1.89.636-3.933 1.127-6.129 1.47-.32.908-.6 1.637-.841 2.189a15.493 15.493 0 01-.723 1.458 12.263 12.263 0 01-1.633 2.294 12.356 12.356 0 01-2.314 1.968c-2.083 1.394-4.076 2.143-5.978 2.249-1.904.106-3.436-.45-4.597-1.665-.933-.978-1.409-2.111-1.427-3.399-.017-1.288.424-2.861 1.321-4.718l-.627-.035-1.119-.162a41.674 41.674 0 00-1.617-.216 69.503 69.503 0 01-1.515-.188 89.325 89.325 0 01-1.636-.237 38.672 38.672 0 01-1.981-.364 39.83 39.83 0 01-1.46-.29 52.111 52.111 0 00-1.294-.271 11.123 11.123 0 01-1.287 1.512c-.437.419-1.047.889-1.828 1.413-1.772 1.185-3.74 2.051-5.905 2.595a22.16 22.16 0 01-6.451.667c-2.137-.098-4.158-.512-6.06-1.243-1.903-.729-3.495-1.764-4.775-3.105-1.632-1.708-2.322-3.593-2.071-5.658-2.138.398-4.083 1.183-5.834 2.355-.694.464-1.269.936-1.729 1.415a10.352 10.352 0 00-1.299 1.709l-.407-.114c.605-.922 1.145-1.639 1.621-2.151a9.89 9.89 0 011.755-1.466zm74.365-6.22c-.501-.525-1.262-.921-2.283-1.186-1.019-.264-2.179-.392-3.482-.383-1.301.01-2.689.163-4.162.46a25.156 25.156 0 00-4.36 1.303c.887 1.344 1.479 2.715 1.773 4.111.295 1.397.3 2.88.016 4.448 2.474-.363 4.479-.789 6.015-1.279a16.577 16.577 0 004.207-2.007c1.449-.97 2.373-1.933 2.771-2.889.398-.956.234-1.815-.495-2.578zm-62.199-2.957c-2.868 1.919-4.572 4.073-5.113 6.46.884-.161 1.59-.278 2.115-.35a27.643 27.643 0 012.055-.18c.76-.034 1.505-.07 2.236-.107.731-.038 1.49-.06 2.273-.067a42.023 42.023 0 015.154.266c1.615.189 3.506.486 5.672.889a66.345 66.345 0 014.093.944l3.345.861.944.21c1.063-2.047.83-3.872-.701-5.476-.904-.946-2.01-1.638-3.32-2.076-1.308-.438-2.701-.55-4.179-.336l-.09-.328c1.648-.241 3.192-.154 4.628.262 1.437.417 2.633 1.125 3.586 2.124 1.632 1.709 1.887 3.712.769 6.012l.738.152 3.226.813c.328.084.751.177 1.27.281.521.104 1.138.22 1.852.345.768.131 1.428.239 1.978.323.55.084 1.003.158 1.36.22.111.013.228.031.35.056.124.025.296.051.517.075.333-.481.682-.919 1.046-1.314.365-.395.748-.77 1.151-1.126.403-.356.863-.717 1.379-1.084.515-.367 1.12-.782 1.814-1.247a49.996 49.996 0 012.973-1.861c.866-.492 1.942-.998 3.229-1.514-.245-.31-.429-.554-.549-.732a4.602 4.602 0 00-.482-.582c-1.731-1.813-3.808-3.288-6.228-4.425-2.422-1.136-5.374-2.026-8.857-2.668-2.687-.483-5.225-.757-7.609-.818-2.385-.063-4.873.105-7.462.502-2.961.475-5.745 1.186-8.354 2.134-2.606.948-4.876 2.069-6.809 3.362zm39.989 7.29c-1.056.707-1.912 1.367-2.566 1.977a18.869 18.869 0 00-1.956 2.149l.949.139c1.681.256 3.074.421 4.184.495a70 70 0 003.258.147c.865.024 1.627.02 2.288-.013.662-.033 1.6-.112 2.817-.238.091-.836.141-1.483.149-1.941.009-.458-.065-1.001-.22-1.63a9.597 9.597 0 00-.751-2.34 15.224 15.224 0 00-1.384-2.305 32.796 32.796 0 00-3.444 1.561 37.475 37.475 0 00-3.324 1.999zm-2.715 6.018l-1.444-.036a32.89 32.89 0 01-1.73-.101c-.72 1.214-1.05 2.437-.989 3.666a4.817 4.817 0 001.372 3.186c1.129 1.183 2.482 1.795 4.057 1.839 1.576.045 3.224-.509 4.944-1.661 1.358-.909 2.446-1.96 3.262-3.152.817-1.193 1.442-2.624 1.877-4.293l-.725.097c-.995.149-1.916.259-2.764.331a50.6 50.6 0 01-2.492.15c-.814.028-1.655.041-2.522.04a72.556 72.556 0 01-2.846-.066zm-34.712-6.428a30.439 30.439 0 00-3.977-.084c-1.404.057-2.636.18-3.692.37.056.782.19 1.403.405 1.862.216.459.638 1.017 1.265 1.674.602.63 1.313 1.232 2.131 1.805a20.761 20.761 0 002.641 1.56c.941.468 1.913.863 2.912 1.185a19.68 19.68 0 002.985.716c4.236.654 8.03-.14 11.38-2.383a9.747 9.747 0 001.332-1.053c.377-.358.835-.849 1.379-1.472a53.54 53.54 0 01-1.328-.341l-1.099-.296c-.366-.1-.774-.203-1.225-.311a66.548 66.548 0 01-1.572-.403c-1.14-.312-2.111-.578-2.913-.796a64.626 64.626 0 00-2.204-.56 70.667 70.667 0 00-1.967-.428l-2.156-.431a417.68 417.68 0 00-2.413-.389 21.07 21.07 0 00-1.884-.225zm-22.933-5.909a6.858 6.858 0 001.792-.038c1.059-.161 1.788-.592 2.187-1.291.398-.701.441-1.659.13-2.876-.208-.812-.548-1.637-1.02-2.479a13.49 13.49 0 00-1.747-2.416c-.33-.356-.708-.724-1.136-1.103a22.16 22.16 0 00-1.391-1.135c-.5-.378-1.021-.747-1.563-1.11a29.786 29.786 0 00-4.821-2.605 27.73 27.73 0 00-3.225-1.15c-1.012-.299-1.926-.484-2.742-.555a9.924 9.924 0 00-2.364.065c-2.365.359-3.252 1.695-2.659 4.009.107.421.265.842.474 1.262.209.422.497.885.865 1.391.218.279.435.551.649.815.214.263.438.527.67.788.299.313.594.604.883.872.289.269.597.542.925.82.329.278.695.562 1.099.852.404.29.861.607 1.371.951.467.319.881.592 1.242.818a14.583 14.583 0 002.159 1.124c.38.161.826.343 1.336.547.471.193.898.355 1.28.485.381.129.721.233 1.016.314a12.72 12.72 0 002.231.387c.74.059 1.392.046 1.957-.039 1.571-.238 2.18-1.049 1.827-2.43-.12-.466-.357-.962-.711-1.485a11.053 11.053 0 00-1.344-1.599 17.26 17.26 0 00-1.852-1.592 18.48 18.48 0 00-2.253-1.438 19.766 19.766 0 00-2.005-1.006 17.498 17.498 0 00-1.914-.705 10.869 10.869 0 00-1.692-.376c-.523-.069-.969-.075-1.339-.019-.971.147-1.337.686-1.099 1.618.103.406.381.843.832 1.314.45.469 1.059.951 1.827 1.443.833.53 1.628.916 2.388 1.16.76.243 1.439.32 2.04.229.088-.013.241-.06.459-.14l.078.199a3.867 3.867 0 01-.391.082l-.291.045c-.583.088-1.232.042-1.947-.138a8.725 8.725 0 01-2.203-.919 7.796 7.796 0 01-1.086-.748 8.488 8.488 0 01-.907-.857 6.226 6.226 0 01-.682-.892 3.13 3.13 0 01-.39-.877c-.154-.601-.088-1.095.198-1.482.287-.387.783-.633 1.489-.741.618-.093 1.335-.051 2.151.129.817.179 1.693.486 2.629.92a20.937 20.937 0 012.902 1.66 20.268 20.268 0 012.525 2.019 15.42 15.42 0 011.915 2.16c.526.729.871 1.415 1.036 2.059.196.764.058 1.406-.413 1.929-.472.522-1.246.866-2.323 1.029-1.131.172-2.414.066-3.85-.315-1.437-.382-2.98-1.032-4.626-1.95a28.9 28.9 0 01-3.324-2.181 26.135 26.135 0 01-2.855-2.499c-.844-.861-1.549-1.715-2.114-2.563-.565-.849-.945-1.647-1.137-2.396a6.056 6.056 0 01-.18-1.083c-.025-.346-.02-.67.012-.97.07-.806.45-1.501 1.143-2.089.694-.588 1.588-.965 2.683-1.131.847-.128 1.818-.096 2.913.096 1.095.193 2.241.518 3.441.975a27.088 27.088 0 013.616 1.708 25.882 25.882 0 013.441 2.32 28.71 28.71 0 012.35 2.087 16.714 16.714 0 011.797 2.078c.485.675.91 1.401 1.274 2.18.365.779.64 1.528.824 2.249.338 1.32.293 2.38-.135 3.177-.43.798-1.2 1.281-2.312 1.45-1.289.195-2.544-.013-3.764-.623l.113-.205a5.483 5.483 0 001.638.431z" fill="#F6D4BA" fill-opacity=".9"/><path d="M312.571 599.901l.122.207a5.96 5.96 0 01-3.739.503c-1.12-.205-1.913-.713-2.378-1.525-.465-.812-.558-1.874-.279-3.185.152-.714.393-1.455.722-2.223a12.34 12.34 0 011.176-2.141 15.05 15.05 0 011.705-2.021 25.6 25.6 0 012.258-2.013 23.086 23.086 0 013.338-2.21 24.78 24.78 0 013.541-1.593 17.78 17.78 0 013.4-.864c1.087-.158 2.057-.159 2.911-.002 1.103.201 2.015.607 2.735 1.217.72.61 1.133 1.319 1.238 2.128.047.301.066.625.058.971a5.92 5.92 0 01-.133 1.077c-.158.744-.501 1.531-1.029 2.361-.527.832-1.193 1.663-2 2.498a23.003 23.003 0 01-2.743 2.408 25.726 25.726 0 01-3.228 2.075c-1.606.866-3.12 1.467-4.541 1.802-1.42.336-2.699.4-3.838.192-1.085-.198-1.876-.567-2.372-1.104-.495-.539-.662-1.187-.501-1.944.136-.64.45-1.316.944-2.027a13.77 13.77 0 011.819-2.1 17.981 17.981 0 012.435-1.939 19.01 19.01 0 012.828-1.568c.919-.404 1.781-.682 2.591-.836.808-.153 1.524-.173 2.147-.058.711.129 1.219.392 1.523.788.304.397.392.893.265 1.489a2.943 2.943 0 01-.349.866 5.686 5.686 0 01-.643.87 7.661 7.661 0 01-.869.829 7.084 7.084 0 01-1.054.713 8.068 8.068 0 01-2.163.849c-.707.157-1.355.182-1.942.075l-.294-.054a4.4 4.4 0 01-.395-.095l.069-.197c.222.087.378.139.467.155.604.111 1.282.056 2.031-.163.75-.22 1.528-.581 2.337-1.083.746-.469 1.335-.931 1.763-1.386.43-.456.688-.886.773-1.288.197-.925-.194-1.476-1.172-1.655-.374-.068-.82-.077-1.34-.024-.519.052-1.078.16-1.676.321-.598.162-1.226.377-1.883.644a18 18 0 00-1.961.943 16.255 16.255 0 00-3.971 2.899A9.842 9.842 0 00310 595.04c-.33.513-.545 1-.643 1.462-.292 1.372.354 2.203 1.938 2.492a8.694 8.694 0 001.96.102 12.2 12.2 0 002.216-.316c.292-.071.626-.164 1.002-.281.376-.118.796-.266 1.258-.445.502-.186.94-.354 1.313-.503.374-.149.731-.308 1.073-.478.34-.17.686-.362 1.037-.577.351-.215.752-.475 1.206-.779.494-.328.938-.63 1.328-.908.392-.277.746-.549 1.062-.816.316-.268.611-.532.888-.791s.559-.541.844-.845c.222-.254.433-.509.635-.766.204-.257.407-.523.613-.795a8.82 8.82 0 00.802-1.363 5.89 5.89 0 00.418-1.248c.488-2.297-.459-3.662-2.842-4.098a10.098 10.098 0 00-2.369-.142c-.813.045-1.719.201-2.719.468a25.66 25.66 0 00-3.175 1.047c-1.06.425-2.094.918-3.1 1.478-.545.303-1.08.628-1.607.973-.525.345-1.031.698-1.515 1.059a19.84 19.84 0 00-1.339 1.092c-.412.366-.774.721-1.088 1.067a12.112 12.112 0 00-1.638 2.361 9.509 9.509 0 00-.908 2.448c-.257 1.208-.17 2.168.259 2.882.431.714 1.18 1.169 2.247 1.363a6.94 6.94 0 001.796.096 5.206 5.206 0 001.619-.378z" fill="#F6D4BA" fill-opacity=".9"/><path d="M276.986 598.916c.011.517-.476.928-1.088.919-.612-.01-1.119-.438-1.13-.955-.012-.517.476-.928 1.087-.918.613.009 1.119.437 1.131.954zm20.194-5.057c.008.362-.333.65-.761.643-.429-.007-.783-.306-.791-.668-.008-.362.333-.65.761-.642.429.007.782.305.791.667zm19.418.443c.008.361-.333.65-.761.642-.429-.007-.782-.306-.791-.668-.008-.361.333-.649.762-.642.428.007.781.306.79.668zm20.939 5.897c.011.516-.476.928-1.087.918-.613-.01-1.119-.437-1.131-.954-.012-.517.475-.928 1.088-.918.612.01 1.118.437 1.13.954zM17.073 265.934l-8.7 7.412L0 266.212l.128-.109L8.7 258.8l8.374 7.134zm-.504.008l-7.88-6.713-8.185 6.975 7.879 6.713 8.186-6.975z" fill="#69DBEF"/><path d="M15.394 265.96l-6.99 5.955-.123-.105-6.604-5.626 6.99-5.955 6.727 5.731zm-.503.009l-6.234-5.311-6.476 5.518 6.233 5.31 6.477-5.517z" fill="#69DBEF"/><path d="M13.717 265.988l-5.28 4.498-.123-.105-4.959-4.224 5.28-4.498 5.082 4.329zm-.503.009l-4.589-3.909-4.766 4.061 4.588 3.908 4.767-4.06zm3.859 22.482l-8.7 7.412L0 288.757l.128-.109 8.571-7.302 8.374 7.133zm-.504.009l-7.88-6.713-8.185 6.974 7.879 6.713 8.186-6.974z" fill="#69DBEF"/><path d="M15.394 288.506l-6.99 5.955-.123-.105-6.604-5.627 6.99-5.954 6.727 5.731zm-.503.008l-6.234-5.311-6.476 5.518 6.233 5.311 6.477-5.518z" fill="#69DBEF"/><path d="M13.717 288.534l-5.28 4.498-.123-.106-4.959-4.223 5.28-4.498 5.082 4.329zm-.503.008l-4.589-3.909-4.766 4.061 4.588 3.909 4.767-4.061zm3.859 22.483l-8.7 7.412L0 311.303l.128-.109 8.571-7.303 8.374 7.134zm-.504.008l-7.88-6.713-8.185 6.975 7.879 6.713 8.186-6.975z" fill="#69DBEF"/><path d="M15.394 311.052l-6.99 5.954-.123-.105-6.604-5.626 6.99-5.955 6.727 5.732zm-.503.008l-6.234-5.311-6.476 5.518 6.233 5.31 6.477-5.517z" fill="#69DBEF"/><path d="M13.717 311.079l-5.28 4.498-.123-.105-4.959-4.224 5.28-4.498 5.082 4.329zm-.503.009l-4.589-3.909-4.766 4.061 4.588 3.908 4.767-4.06zm3.859 22.483l-8.7 7.411L0 333.848l.128-.109 8.571-7.302 8.374 7.134zm-.504.008l-7.88-6.713-8.185 6.974 7.879 6.713 8.186-6.974z" fill="#69DBEF"/><path d="M15.394 333.597l-6.99 5.955-.123-.105-6.604-5.626 6.99-5.955 6.727 5.731zm-.503.008l-6.234-5.31-6.476 5.518 6.233 5.31 6.477-5.518z" fill="#69DBEF"/><path d="M13.717 333.625l-5.28 4.498-.123-.105-4.959-4.224 5.28-4.498 5.082 4.329zm-.503.008l-4.589-3.908-4.766 4.061 4.588 3.908 4.767-4.061zm3.859 22.483l-8.7 7.412L0 356.394l.128-.109 8.571-7.303 8.374 7.134zm-.504.009l-7.88-6.714-8.185 6.975 7.879 6.713 8.186-6.974z" fill="#69DBEF"/><path d="M15.394 356.143l-6.99 5.955-.123-.106-6.604-5.626 6.99-5.955 6.727 5.732zm-.503.008l-6.234-5.311-6.476 5.518 6.233 5.311 6.477-5.518z" fill="#69DBEF"/><path d="M13.717 356.171l-5.28 4.497-.123-.105-4.959-4.224 5.28-4.497 5.082 4.329zm-.503.008l-4.589-3.909-4.766 4.061 4.588 3.908 4.767-4.06zm3.859 22.483l-8.7 7.412L0 378.94l.128-.109 8.571-7.303 8.374 7.134zm-.504.008l-7.88-6.713-8.185 6.975 7.879 6.713 8.186-6.975z" fill="#69DBEF"/><path d="M15.394 378.689l-6.99 5.954-.123-.105-6.604-5.626 6.99-5.955 6.727 5.732zm-.503.008l-6.234-5.311-6.476 5.518 6.233 5.31 6.477-5.517z" fill="#69DBEF"/><path d="M13.717 378.716l-5.28 4.498-.123-.105-4.959-4.224 5.28-4.498 5.082 4.329zm-.503.009l-4.589-3.909-4.766 4.061 4.588 3.908 4.767-4.06zm3.859 22.482l-8.7 7.412L0 401.485l.128-.109 8.571-7.302 8.374 7.133zm-.504.009l-7.88-6.713-8.185 6.974 7.879 6.713 8.186-6.974z" fill="#69DBEF"/><path d="M15.394 401.234l-6.99 5.955-.123-.105-6.604-5.627 6.99-5.954 6.727 5.731zm-.503.008l-6.234-5.311-6.476 5.518 6.233 5.311 6.477-5.518z" fill="#69DBEF"/><path d="M13.717 401.262l-5.28 4.498-.123-.106-4.959-4.223 5.28-4.498 5.082 4.329zm-.503.008l-4.589-3.909-4.766 4.061 4.588 3.909 4.767-4.061zM614.57 266.134l-8.7 7.412-8.373-7.134.128-.109 8.571-7.303 8.374 7.134zm-.504.008l-7.88-6.713-8.186 6.975 7.88 6.713 8.186-6.975z" fill="#69DBEF"/><path d="M612.891 266.16l-6.99 5.955-.123-.105-6.604-5.626 6.989-5.955 6.728 5.731zm-.504.009l-6.234-5.311-6.476 5.518 6.234 5.31 6.476-5.517z" fill="#69DBEF"/><path d="M611.214 266.188l-5.28 4.498-.124-.105-4.958-4.224 5.28-4.498 5.082 4.329zm-.503.009l-4.589-3.909-4.766 4.061 4.588 3.908 4.767-4.06zm3.859 22.482l-8.7 7.412-8.373-7.134.128-.109 8.571-7.302 8.374 7.133zm-.504.009l-7.88-6.713-8.186 6.974 7.88 6.713 8.186-6.974z" fill="#69DBEF"/><path d="M612.891 288.706l-6.99 5.955-.123-.105-6.604-5.627 6.989-5.954 6.728 5.731zm-.504.008l-6.234-5.311-6.476 5.518 6.234 5.311 6.476-5.518z" fill="#69DBEF"/><path d="M611.214 288.734l-5.28 4.498-.124-.105-4.958-4.224 5.28-4.498 5.082 4.329zm-.503.008l-4.589-3.908-4.766 4.06 4.588 3.909 4.767-4.061zm3.859 22.483l-8.7 7.412-8.373-7.134.128-.109 8.571-7.303 8.374 7.134zm-.504.008l-7.88-6.713-8.186 6.975 7.88 6.713 8.186-6.975z" fill="#69DBEF"/><path d="M612.891 311.252l-6.99 5.954-.123-.105-6.604-5.626 6.989-5.955 6.728 5.732zm-.504.008l-6.234-5.311-6.476 5.518 6.234 5.311 6.476-5.518z" fill="#69DBEF"/><path d="M611.214 311.279l-5.28 4.498-.124-.105-4.958-4.224 5.28-4.498 5.082 4.329zm-.503.009l-4.589-3.909-4.766 4.061 4.588 3.908 4.767-4.06zm3.859 22.483l-8.7 7.411-8.373-7.134.128-.108 8.571-7.303 8.374 7.134zm-.504.008l-7.88-6.713L598 334.04l7.88 6.713 8.186-6.974z" fill="#69DBEF"/><path d="M612.891 333.797l-6.99 5.955-.123-.105-6.604-5.626 6.989-5.955 6.728 5.731zm-.504.009l-6.234-5.311-6.476 5.518 6.234 5.31 6.476-5.517z" fill="#69DBEF"/><path d="M611.214 333.825l-5.28 4.498-.124-.105-4.958-4.224 5.28-4.498 5.082 4.329zm-.503.009l-4.589-3.909-4.766 4.061 4.588 3.908 4.767-4.06zm3.859 22.482l-8.7 7.412-8.373-7.134.128-.109 8.571-7.303 8.374 7.134zm-.504.009l-7.88-6.714-8.186 6.975 7.88 6.713 8.186-6.974z" fill="#69DBEF"/><path d="M612.891 356.343l-6.99 5.955-.123-.105-6.604-5.627 6.989-5.955 6.728 5.732zm-.504.008l-6.234-5.311-6.476 5.518 6.234 5.311 6.476-5.518z" fill="#69DBEF"/><path d="M611.214 356.371l-5.28 4.497-.124-.105-4.958-4.223 5.28-4.498 5.082 4.329zm-.503.008l-4.589-3.909-4.766 4.061 4.588 3.908 4.767-4.06zm3.859 22.483l-8.7 7.412-8.373-7.134.128-.109 8.571-7.303 8.374 7.134zm-.504.008l-7.88-6.713-8.186 6.975 7.88 6.713 8.186-6.975z" fill="#69DBEF"/><path d="M612.891 378.889l-6.99 5.954-.123-.105-6.604-5.626 6.989-5.955 6.728 5.732zm-.504.008l-6.234-5.311-6.476 5.518 6.234 5.31 6.476-5.517z" fill="#69DBEF"/><path d="M611.214 378.916l-5.28 4.498-.124-.105-4.958-4.224 5.28-4.498 5.082 4.329zm-.503.009l-4.589-3.909-4.766 4.061 4.588 3.908 4.767-4.06zm3.859 22.482l-8.7 7.412-8.373-7.134.128-.109 8.571-7.302 8.374 7.133zm-.504.009l-7.88-6.713-8.186 6.974 7.88 6.713 8.186-6.974z" fill="#69DBEF"/><path d="M612.891 401.434l-6.99 5.955-.123-.105-6.604-5.627 6.989-5.954 6.728 5.731zm-.504.008l-6.234-5.31-6.476 5.518 6.234 5.31 6.476-5.518z" fill="#69DBEF"/><path d="M611.214 401.462l-5.28 4.498-.124-.105-4.958-4.224 5.28-4.498 5.082 4.329zm-.503.008l-4.589-3.908-4.766 4.06 4.588 3.909 4.767-4.061z" fill="#69DBEF"/><defs><linearGradient id="paint0_linear_298_4390" x1="306" y1="66" x2="306" y2="604" gradientUnits="userSpaceOnUse"><stop stop-color="#F6D4BA"/><stop offset="1" stop-color="#F6D4BA" stop-opacity=".45"/></linearGradient></defs></svg>