<svg width="614" height="625" fill="none" xmlns="http://www.w3.org/2000/svg"><path d="M305.668 28.002c.499.528 1.07 1.263 1.715 2.204l-.401.103a11.52 11.52 0 00-1.374-1.753 11.663 11.663 0 00-1.789-1.472 16.708 16.708 0 00-5.932-2.544c.344 2.073-.259 3.939-1.811 5.595-1.217 1.3-2.759 2.284-4.626 2.953-1.867.669-3.866 1.019-5.994 1.048-2.131.03-4.287-.262-6.472-.876a20.374 20.374 0 01-6.011-2.787c-.804-.549-1.433-1.04-1.888-1.474a12.278 12.278 0 01-1.355-1.554c-.542.093-.968.169-1.279.23a37 37 0 01-1.444.243c-.733.13-1.387.23-1.961.3-.575.07-1.115.131-1.622.185-.508.053-1.01.099-1.505.139-.495.04-1.031.094-1.604.164l-1.11.125-.625.016c.981 1.887 1.491 3.475 1.533 4.764.039 1.288-.384 2.407-1.272 3.355-1.104 1.18-2.608 1.685-4.513 1.518-1.905-.167-3.929-.981-6.071-2.444a13.831 13.831 0 01-2.399-2.044 13.679 13.679 0 01-1.733-2.348 16.58 16.58 0 01-.787-1.482c-.266-.56-.578-1.3-.939-2.218a39.146 39.146 0 01-6.186-1.669c-1.916-.7-3.557-1.515-4.923-2.447-1.769-1.208-2.886-2.409-3.347-3.6-.461-1.193-.238-2.273.669-3.242 1.003-1.07 2.731-1.521 5.186-1.35 2.455.172 5.567.877 9.338 2.113l.876.285c.303-.378.539-.657.706-.835l.537-.574a19.421 19.421 0 016.272-4.462c2.415-1.087 5.419-1.868 9.012-2.34 2.776-.362 5.391-.51 7.843-.444 2.453.066 5.01.36 7.671.88 6.01 1.177 11.043 3.15 15.104 5.922 1.827 1.248 3.305 2.518 4.433 3.81 1.126 1.29 1.838 2.539 2.133 3.742 2.376.663 4.419 1.576 6.128 2.742.713.488 1.319.995 1.817 1.523zm-76.716-7.584c.44.97 1.407 1.963 2.896 2.98a18.092 18.092 0 004.291 2.146c1.555.539 3.576 1.03 6.062 1.474-.354-1.58-.416-3.063-.184-4.451.23-1.388.759-2.74 1.584-4.058a26.71 26.71 0 00-4.411-1.443c-1.484-.345-2.876-.543-4.176-.595-1.301-.052-2.454.039-3.46.27-1.007.233-1.748.605-2.225 1.115-.693.74-.819 1.593-.377 2.562zm55.388-7.1c-2.647-1.033-5.457-1.834-8.436-2.405-2.602-.48-5.093-.729-7.471-.744-2.378-.014-4.898.177-7.56.575-3.448.529-6.355 1.324-8.721 2.383-2.365 1.06-4.372 2.469-6.019 4.228a3.943 3.943 0 00-.454.567 12.26 12.26 0 01-.516.714c1.309.559 2.406 1.1 3.292 1.62a54.939 54.939 0 013.052 1.958c.715.488 1.338.923 1.869 1.306A17.637 17.637 0 01256 25.814c.382.407.75.855 1.104 1.348a5.83 5.83 0 00.512-.058c.121-.02.237-.036.347-.045.354-.05.803-.11 1.349-.176.546-.067 1.199-.153 1.96-.26a79.343 79.343 0 001.833-.285 26.27 26.27 0 001.255-.24l3.183-.71.731-.128c-1.221-2.338-1.056-4.334.496-5.992.907-.969 2.068-1.638 3.484-2.01 1.416-.37 2.952-.408 4.609-.112l-.075.325c-1.486-.262-2.871-.195-4.158.2-1.287.398-2.36 1.055-3.219 1.972-1.456 1.555-1.608 3.374-.453 5.457l.931-.18 3.302-.754a60.323 60.323 0 014.043-.812c2.144-.333 4.018-.569 5.624-.706a41.424 41.424 0 015.131-.1c.783.032 1.541.08 2.274.14.731.061 1.476.121 2.236.18.845.075 1.532.157 2.059.246.528.088 1.237.228 2.129.418-.649-2.406-2.448-4.617-5.397-6.63-1.988-1.356-4.304-2.55-6.95-3.584zM248.289 20.8a35.618 35.618 0 00-3.509-1.674c-.544.798-.97 1.553-1.278 2.261a9.05 9.05 0 00-.644 2.32c-.126.624-.175 1.164-.146 1.623.029.458.108 1.108.237 1.948 1.22.165 2.161.274 2.823.328.661.054 1.422.084 2.285.087a71.08 71.08 0 003.245-.041c1.106-.04 2.49-.16 4.155-.361l.941-.11a21.536 21.536 0 00-2.049-2.213c-.682-.632-1.565-1.319-2.651-2.06a41.577 41.577 0 00-3.409-2.108zm3.553 8.191a70.674 70.674 0 01-2.52-.121 45.135 45.135 0 01-5.269-.65l-.728-.121c.509 1.685 1.198 3.136 2.067 4.356.869 1.22 2.002 2.306 3.398 3.26 1.77 1.208 3.44 1.816 5.012 1.822 1.571.007 2.893-.562 3.967-1.71.812-.866 1.221-1.914 1.226-3.143.006-1.229-.379-2.463-1.153-3.702-.745.035-1.32.05-1.722.047l-1.441-.012a71.8 71.8 0 01-2.837-.026zm35.33-5.122a472.2 472.2 0 00-2.39.31l-2.134.363a60.572 60.572 0 00-4.12.854c-.79.192-1.748.427-2.872.703-.59.142-1.107.258-1.551.352-.444.094-.847.185-1.209.272l-1.084.262c-.362.088-.799.187-1.309.297.57.64 1.051 1.148 1.442 1.518.39.37.849.736 1.377 1.096 3.447 2.353 7.269 3.27 11.47 2.753.98-.124 1.962-.331 2.947-.62.983-.29 1.935-.655 2.854-1.092a18.723 18.723 0 002.566-1.477 12.582 12.582 0 002.045-1.737c.598-.637.993-1.182 1.188-1.634.194-.453.3-1.07.32-1.85-1.064-.225-2.298-.388-3.702-.49a30.094 30.094 0 00-3.967-.044 20.65 20.65 0 00-1.871.164z" fill="#F6D4BA" fill-opacity=".9"/><path d="M310.206 26.578c1.656-1.111 3.66-1.96 6.009-2.545.241-1.195.897-2.42 1.965-3.677 1.07-1.256 2.491-2.48 4.264-3.669 3.939-2.642 8.887-4.454 14.847-5.438 2.64-.435 5.186-.646 7.637-.632 2.452.013 5.075.246 7.87.697 3.617.59 6.658 1.468 9.124 2.634a21.654 21.654 0 016.478 4.669l.564.591c.175.184.423.47.743.858l.863-.256c3.719-1.115 6.801-1.72 9.25-1.812 2.449-.093 4.2.413 5.251 1.518.951.999 1.223 2.087.815 3.265-.407 1.178-1.47 2.344-3.186 3.495-1.325.889-2.931 1.652-4.816 2.29-1.886.636-3.924 1.127-6.115 1.47a34.14 34.14 0 01-.839 2.189c-.241.55-.481 1.037-.721 1.458a12.262 12.262 0 01-1.629 2.293 12.337 12.337 0 01-2.308 1.968c-2.078 1.395-4.067 2.144-5.965 2.25-1.899.105-3.427-.45-4.586-1.666-.93-.977-1.405-2.11-1.423-3.398-.017-1.288.423-2.86 1.318-4.719l-.626-.035-1.116-.16a40.971 40.971 0 00-1.613-.217 68.41 68.41 0 01-1.511-.188 98.866 98.866 0 01-1.633-.237 38.156 38.156 0 01-1.976-.365 40.044 40.044 0 01-1.456-.289 52.003 52.003 0 00-1.291-.272c-.421.588-.85 1.093-1.284 1.513-.436.418-1.044.89-1.823 1.413-1.768 1.185-3.732 2.05-5.891 2.594a22.02 22.02 0 01-6.435.668c-2.133-.098-4.149-.513-6.046-1.243-1.899-.73-3.487-1.764-4.763-3.105-1.628-1.708-2.317-3.594-2.066-5.658-2.134.398-4.074 1.183-5.82 2.355-.693.464-1.267.936-1.726 1.415-.455.48-.888 1.05-1.295 1.71l-.406-.116c.603-.921 1.142-1.638 1.616-2.15a9.97 9.97 0 011.751-1.466zm74.186-6.22c-.499-.525-1.258-.921-2.277-1.186-1.017-.264-2.174-.392-3.474-.383-1.298.01-2.683.163-4.152.46-1.469.296-2.92.73-4.35 1.303.886 1.344 1.476 2.715 1.769 4.111.295 1.397.3 2.88.017 4.448 2.468-.363 4.468-.79 6-1.279a16.496 16.496 0 004.196-2.008c1.446-.97 2.368-1.933 2.765-2.888.397-.956.234-1.815-.494-2.578zM322.344 17.4c-2.861 1.92-4.562 4.073-5.101 6.46a50.995 50.995 0 012.11-.35 27.487 27.487 0 012.049-.18c.758-.034 1.502-.07 2.231-.107a54.24 54.24 0 012.268-.068 41.82 41.82 0 015.141.267c1.611.189 3.498.486 5.658.889a66.39 66.39 0 012.189.47c.667.156 1.298.314 1.895.474l3.337.861.941.21c1.061-2.047.828-3.873-.699-5.476-.902-.947-2.005-1.638-3.312-2.076-1.305-.438-2.695-.55-4.169-.336l-.09-.328c1.645-.242 3.185-.154 4.617.262 1.434.417 2.627 1.125 3.578 2.124 1.628 1.709 1.882 3.712.767 6.012l.736.151 3.218.814c.327.084.749.177 1.267.28.52.105 1.135.22 1.847.346.767.131 1.425.238 1.973.323.55.084 1.002.158 1.358.22.111.012.227.031.349.056.124.025.295.05.515.075.333-.481.681-.919 1.044-1.315.364-.394.746-.77 1.148-1.125a16.97 16.97 0 011.375-1.084 76.992 76.992 0 011.811-1.247 49.532 49.532 0 012.965-1.861c.864-.492 1.937-.998 3.222-1.514a13.01 13.01 0 01-.548-.732 4.584 4.584 0 00-.48-.582c-1.728-1.814-3.799-3.288-6.214-4.425-2.416-1.136-5.361-2.026-8.836-2.668-2.681-.483-5.212-.757-7.59-.818-2.38-.063-4.862.105-7.445.502-2.953.474-5.73 1.186-8.333 2.134-2.6.948-4.865 2.069-6.792 3.362zm39.891 7.29c-1.052.707-1.906 1.366-2.559 1.977a19.132 19.132 0 00-1.952 2.148l.948.14c1.676.256 3.066.42 4.174.495a70.16 70.16 0 003.25.147c.863.024 1.623.02 2.282-.013a57.034 57.034 0 002.81-.238c.091-.836.141-1.484.149-1.941.009-.458-.065-1.001-.219-1.63a9.605 9.605 0 00-.75-2.34c-.34-.72-.799-1.49-1.38-2.305a32.783 32.783 0 00-3.436 1.561 37.38 37.38 0 00-3.317 2zm-2.708 6.018c-.557-.015-1.036-.026-1.44-.036a32.906 32.906 0 01-1.726-.102c-.718 1.215-1.047 2.438-.987 3.667a4.825 4.825 0 001.369 3.186c1.126 1.182 2.476 1.795 4.047 1.84 1.573.044 3.217-.51 4.933-1.662 1.355-.91 2.439-1.96 3.254-3.152.814-1.193 1.439-2.624 1.872-4.293l-.723.097c-.993.149-1.912.26-2.758.33-.843.073-1.673.122-2.486.15-.812.028-1.65.041-2.516.04a72.033 72.033 0 01-2.839-.065zm-34.628-6.428a30.16 30.16 0 00-3.967-.084c-1.401.056-2.63.18-3.683.37.055.782.189 1.403.403 1.862.216.46.637 1.017 1.262 1.674.601.63 1.31 1.232 2.126 1.805a20.601 20.601 0 002.635 1.56 20.83 20.83 0 002.905 1.185c.998.322 1.991.56 2.978.716 4.225.654 8.01-.14 11.353-2.383a9.826 9.826 0 001.329-1.053c.375-.358.833-.85 1.375-1.473-.516-.127-.957-.24-1.325-.34l-1.096-.296c-.366-.1-.773-.203-1.222-.311a63.481 63.481 0 01-1.568-.403 1322.03 1322.03 0 00-2.906-.796 65.478 65.478 0 00-2.199-.56 69.014 69.014 0 00-1.963-.428c-.641-.129-1.358-.274-2.15-.431-.878-.144-1.679-.274-2.407-.389a20.81 20.81 0 00-1.88-.225zm-22.878-5.908a6.818 6.818 0 001.788-.038c1.057-.161 1.784-.592 2.182-1.292.397-.7.44-1.658.129-2.875a10.32 10.32 0 00-1.017-2.48 13.476 13.476 0 00-1.743-2.415 16.264 16.264 0 00-1.133-1.104 22.07 22.07 0 00-1.388-1.135 32.968 32.968 0 00-1.559-1.11 29.854 29.854 0 00-4.809-2.605 27.675 27.675 0 00-3.218-1.149c-1.009-.3-1.921-.484-2.735-.555a9.875 9.875 0 00-2.358.065c-2.36.359-3.245 1.695-2.653 4.008.107.421.265.842.473 1.263.208.421.496.884.863 1.39.218.28.434.551.647.816.214.263.437.526.669.787.299.314.593.605.881.873.288.269.595.541.923.82.327.278.692.562 1.096.851.403.29.859.608 1.368.951.466.32.878.593 1.238.819a14.8 14.8 0 002.154 1.124c.379.16.824.343 1.333.546.47.194.896.355 1.277.485a12.637 12.637 0 003.239.701c.738.06 1.389.047 1.953-.038 1.567-.238 2.174-1.05 1.822-2.43-.119-.467-.356-.962-.709-1.485a11.041 11.041 0 00-1.342-1.6 17.291 17.291 0 00-1.847-1.591 18.373 18.373 0 00-2.247-1.438 19.85 19.85 0 00-2-1.007 17.551 17.551 0 00-1.909-.704 10.986 10.986 0 00-1.688-.376c-.522-.07-.967-.075-1.337-.02-.968.148-1.333.687-1.096 1.618.103.406.38.844.83 1.314.449.47 1.057.951 1.823 1.444.83.53 1.624.916 2.382 1.16.758.243 1.436.32 2.035.228a2.76 2.76 0 00.458-.14l.078.2a4.068 4.068 0 01-.39.082l-.29.045c-.582.088-1.23.042-1.943-.138a8.69 8.69 0 01-2.197-.919 7.881 7.881 0 01-1.084-.748 8.642 8.642 0 01-.905-.858 6.199 6.199 0 01-.68-.891 3.157 3.157 0 01-.389-.877c-.154-.601-.088-1.096.197-1.482.287-.387.781-.633 1.486-.74.616-.094 1.332-.052 2.146.127.815.18 1.689.487 2.623.92a20.91 20.91 0 012.894 1.66c.931.637 1.771 1.31 2.519 2.02.749.71 1.386 1.43 1.911 2.16.524.729.869 1.415 1.033 2.059.195.763.058 1.406-.412 1.929-.471.522-1.243.865-2.318 1.028-1.127.172-2.407.067-3.84-.314-1.434-.383-2.972-1.032-4.615-1.95a28.677 28.677 0 01-3.316-2.182 26.08 26.08 0 01-2.848-2.498 17.783 17.783 0 01-2.109-2.564c-.564-.849-.943-1.646-1.134-2.396a6.041 6.041 0 01-.18-1.083 5.45 5.45 0 01.013-.97c.069-.805.448-1.5 1.14-2.089.692-.587 1.583-.964 2.676-1.13.845-.128 1.814-.097 2.906.096 1.092.192 2.236.518 3.433.975a26.963 26.963 0 013.607 1.708 25.748 25.748 0 013.433 2.32 28.58 28.58 0 012.344 2.087 16.69 16.69 0 011.793 2.078c.483.675.907 1.4 1.271 2.18.363.778.638 1.528.821 2.248.338 1.32.293 2.38-.134 3.178-.428.798-1.197 1.28-2.307 1.45-1.285.195-2.537-.013-3.754-.624l.112-.204a5.47 5.47 0 001.634.43z" fill="#F6D4BA" fill-opacity=".9"/><path d="M313.078 18.16l.121.207a5.929 5.929 0 01-3.729.503c-1.118-.205-1.908-.714-2.372-1.525-.465-.813-.557-1.874-.28-3.185a12.08 12.08 0 01.721-2.223c.329-.768.72-1.482 1.173-2.141a15.06 15.06 0 011.701-2.021 25.517 25.517 0 012.253-2.013 23.046 23.046 0 013.33-2.21 24.567 24.567 0 013.532-1.593 17.655 17.655 0 013.392-.864c1.084-.158 2.052-.159 2.904-.003 1.101.202 2.01.607 2.728 1.218.719.61 1.131 1.319 1.235 2.127a5.5 5.5 0 01.058.972c-.01.346-.053.705-.133 1.077-.157.744-.499 1.53-1.026 2.361-.526.831-1.19 1.663-1.995 2.498a23.078 23.078 0 01-2.737 2.407 25.58 25.58 0 01-3.22 2.076c-1.602.866-3.113 1.467-4.53 1.802-1.416.335-2.693.4-3.829.192-1.082-.199-1.871-.567-2.365-1.105-.495-.538-.661-1.186-.5-1.943.135-.64.449-1.316.941-2.028a13.81 13.81 0 011.814-2.1 18.002 18.002 0 012.43-1.939 18.965 18.965 0 012.821-1.567c.916-.404 1.777-.682 2.584-.836.807-.154 1.521-.173 2.142-.059.71.13 1.216.393 1.52.789.303.397.391.893.264 1.49-.06.282-.176.571-.348.865a5.654 5.654 0 01-.642.87 7.513 7.513 0 01-.867.828 7.028 7.028 0 01-1.051.714 8 8 0 01-2.157.849c-.705.156-1.352.182-1.938.074l-.293-.053a4.575 4.575 0 01-.394-.095l.069-.197c.221.087.377.139.466.155.603.11 1.278.055 2.026-.164.747-.22 1.524-.58 2.331-1.083.744-.468 1.332-.93 1.759-1.386.429-.455.686-.885.771-1.288.197-.924-.193-1.475-1.17-1.654-.372-.068-.817-.077-1.336-.024-.517.052-1.075.16-1.672.321-.596.162-1.223.376-1.879.644-.655.267-1.307.581-1.955.943-.79.413-1.517.868-2.185 1.366a15.36 15.36 0 00-1.777 1.533 9.832 9.832 0 00-1.271 1.557c-.329.512-.544 1-.641 1.462-.291 1.371.353 2.202 1.933 2.492.568.103 1.219.137 1.955.102.735-.036 1.473-.14 2.21-.316.292-.07.625-.164 1.001-.281.374-.118.794-.266 1.254-.445.502-.186.938-.355 1.31-.503a13.33 13.33 0 002.105-1.056 35.2 35.2 0 001.203-.778c.493-.328.935-.63 1.325-.908.391-.277.744-.55 1.059-.816.315-.268.61-.532.886-.79.277-.26.558-.543.843-.846.22-.254.431-.51.633-.767.203-.257.406-.522.611-.794.345-.495.612-.949.801-1.364.189-.414.328-.83.416-1.248.487-2.296-.458-3.662-2.835-4.097a9.995 9.995 0 00-2.363-.142c-.811.045-1.715.2-2.713.467-1.052.272-2.108.62-3.167 1.047a27.153 27.153 0 00-3.092 1.478c-.544.304-1.078.628-1.604.974-.524.345-1.028.698-1.511 1.059-.481.36-.927.725-1.336 1.091-.411.366-.772.722-1.085 1.068a12.045 12.045 0 00-1.634 2.361 9.529 9.529 0 00-.906 2.448c-.256 1.208-.17 2.168.259 2.882.43.714 1.177 1.168 2.241 1.363.605.11 1.201.142 1.791.096a5.184 5.184 0 001.616-.378z" fill="#F6D4BA" fill-opacity=".9"/><path d="M277.578 17.174c.012.517-.474.93-1.085.92-.611-.01-1.116-.438-1.127-.955-.012-.517.474-.928 1.084-.919.611.01 1.116.438 1.128.954zm20.145-5.056c.008.361-.331.65-.758.643-.429-.007-.781-.306-.789-.668-.008-.362.331-.65.758-.643.428.007.781.306.789.668zm19.372.442c.008.362-.332.65-.759.643-.428-.007-.781-.306-.789-.668-.008-.361.332-.649.759-.642.428.007.78.305.789.668zm20.888 5.898c.012.516-.474.928-1.084.918-.612-.01-1.116-.437-1.128-.954-.012-.517.474-.929 1.085-.919.611.01 1.115.437 1.127.955z" fill="#69DBEF"/><path d="M305.668 563.002c.499.529 1.071 1.264 1.715 2.205l-.401.103a11.499 11.499 0 00-1.374-1.753 11.653 11.653 0 00-1.789-1.473 16.708 16.708 0 00-5.932-2.544c.344 2.074-.259 3.939-1.811 5.596-1.217 1.3-2.759 2.284-4.626 2.952-1.867.669-3.866 1.019-5.994 1.048-2.131.03-4.287-.262-6.471-.876a20.356 20.356 0 01-6.012-2.786c-.804-.549-1.433-1.04-1.888-1.474a12.316 12.316 0 01-1.355-1.554 48.67 48.67 0 00-1.279.23c-.31.061-.792.142-1.444.242-.732.131-1.387.231-1.961.301a96.17 96.17 0 01-1.622.184c-.508.053-1.01.099-1.505.139a41.48 41.48 0 00-1.604.165l-1.11.125-.625.015c.981 1.888 1.491 3.476 1.533 4.764.04 1.288-.384 2.407-1.272 3.356-1.104 1.179-2.608 1.685-4.513 1.518-1.904-.167-3.928-.982-6.071-2.444a13.802 13.802 0 01-2.399-2.045 13.652 13.652 0 01-1.733-2.348 16.56 16.56 0 01-.787-1.482 36.308 36.308 0 01-.939-2.217c-2.208-.415-4.271-.971-6.185-1.669-1.917-.7-3.558-1.515-4.924-2.448-1.769-1.208-2.886-2.408-3.347-3.6-.461-1.192-.238-2.273.669-3.241 1.003-1.071 2.731-1.522 5.187-1.35 2.454.172 5.566.876 9.338 2.113l.875.285c.303-.379.539-.657.706-.835.19-.204.369-.396.537-.574a19.421 19.421 0 016.272-4.462c2.415-1.088 5.419-1.868 9.012-2.341 2.777-.362 5.391-.509 7.843-.444 2.454.066 5.01.36 7.672.88 6.009 1.178 11.042 3.151 15.103 5.922 1.827 1.249 3.306 2.518 4.433 3.81 1.126 1.291 1.838 2.539 2.133 3.743 2.377.663 4.419 1.575 6.128 2.741.713.488 1.319.996 1.817 1.523zm-76.716-7.583c.44.969 1.407 1.963 2.897 2.98a18.09 18.09 0 004.29 2.145c1.555.539 3.576 1.031 6.062 1.474-.354-1.579-.416-3.062-.184-4.451.231-1.387.759-2.74 1.584-4.057a26.73 26.73 0 00-4.411-1.444c-1.484-.344-2.876-.543-4.176-.594-1.3-.052-2.454.038-3.459.27-1.008.232-1.749.604-2.226 1.114-.693.74-.818 1.594-.377 2.563zm55.388-7.1c-2.646-1.033-5.457-1.835-8.436-2.405-2.602-.481-5.093-.729-7.471-.744-2.378-.015-4.898.177-7.56.574-3.448.529-6.355 1.325-8.72 2.384-2.366 1.059-4.373 2.468-6.019 4.227a4.024 4.024 0 00-.455.567c-.113.175-.285.412-.516.714 1.309.559 2.406 1.1 3.292 1.62a55.745 55.745 0 013.052 1.958c.715.488 1.338.923 1.869 1.306a17.568 17.568 0 012.624 2.294c.382.407.75.856 1.104 1.348a5.9 5.9 0 00.512-.057c.121-.021.237-.036.347-.045.354-.051.803-.111 1.349-.176.546-.067 1.199-.154 1.96-.26a77.687 77.687 0 001.833-.285c.513-.088.932-.169 1.255-.241l3.183-.71.731-.127c-1.22-2.339-1.056-4.335.496-5.992.907-.969 2.068-1.638 3.484-2.01 1.416-.37 2.952-.408 4.609-.113l-.074.325c-1.486-.262-2.872-.194-4.158.201-1.288.397-2.361 1.054-3.22 1.971-1.456 1.555-1.608 3.375-.453 5.458l.931-.18 3.303-.754a60.193 60.193 0 014.043-.813c2.144-.333 4.017-.569 5.623-.706a41.39 41.39 0 015.131-.1c.783.033 1.541.08 2.274.14.731.061 1.476.122 2.236.18a27.99 27.99 0 012.06.246c.528.089 1.236.228 2.128.419-.649-2.407-2.448-4.617-5.397-6.63-1.987-1.357-4.304-2.551-6.95-3.584zm-36.051 7.482a35.801 35.801 0 00-3.509-1.675c-.544.799-.97 1.553-1.277 2.262a9.012 9.012 0 00-.645 2.319c-.126.624-.175 1.165-.145 1.623.029.458.108 1.108.236 1.948a58.94 58.94 0 002.823.329c.661.054 1.422.083 2.285.087 1.058.011 2.14-.003 3.245-.042 1.106-.039 2.49-.159 4.155-.361l.942-.109a21.726 21.726 0 00-2.05-2.214c-.681-.631-1.565-1.318-2.651-2.06a41.487 41.487 0 00-3.409-2.107zm3.553 8.191a69.598 69.598 0 01-2.52-.122 51.288 51.288 0 01-2.495-.229c-.849-.1-1.774-.24-2.774-.421l-.727-.121c.508 1.685 1.197 3.137 2.067 4.357.868 1.219 2.001 2.306 3.397 3.26 1.77 1.208 3.441 1.815 5.012 1.822 1.571.006 2.894-.563 3.967-1.71.812-.867 1.221-1.915 1.226-3.144.006-1.229-.379-2.462-1.153-3.701-.745.034-1.32.049-1.722.046-.405-.003-.884-.008-1.44-.011-1.028.009-1.974 0-2.838-.026zm35.33-5.122c-.723.091-1.52.195-2.39.31l-2.134.362c-.636.109-1.284.232-1.943.366-.662.134-1.387.297-2.177.489s-1.748.426-2.872.703a66.86 66.86 0 01-1.551.352 42.05 42.05 0 00-1.209.272l-1.084.261c-.362.088-.799.187-1.309.298.57.64 1.051 1.147 1.442 1.517.39.371.849.737 1.378 1.097 3.446 2.353 7.269 3.27 11.469 2.752.98-.124 1.962-.331 2.947-.62.983-.29 1.935-.654 2.854-1.092a18.642 18.642 0 002.566-1.477 12.608 12.608 0 002.046-1.737c.597-.637.992-1.182 1.187-1.634.194-.453.3-1.069.32-1.85-1.063-.225-2.298-.387-3.702-.489a29.958 29.958 0 00-3.967-.044c-.526.017-1.149.071-1.871.164z" fill="#F6D4BA" fill-opacity=".9"/><path d="M310.206 561.579c1.656-1.112 3.66-1.96 6.009-2.545.24-1.196.897-2.421 1.965-3.678 1.07-1.256 2.491-2.479 4.264-3.669 3.939-2.642 8.887-4.454 14.847-5.437 2.64-.436 5.185-.647 7.637-.633 2.452.014 5.075.246 7.869.697 3.618.59 6.659 1.468 9.125 2.635a21.66 21.66 0 016.478 4.668l.563.592c.176.184.424.47.744.857l.863-.256c3.719-1.115 6.801-1.719 9.25-1.812 2.449-.092 4.2.414 5.251 1.518.951.999 1.223 2.087.815 3.265-.407 1.179-1.47 2.344-3.186 3.496-1.325.888-2.931 1.651-4.817 2.289-1.885.637-3.923 1.127-6.114 1.47-.32.908-.599 1.638-.839 2.189a15.261 15.261 0 01-.722 1.458c-.45.822-.993 1.586-1.628 2.294a12.313 12.313 0 01-2.309 1.968c-2.077 1.395-4.066 2.143-5.964 2.249-1.899.106-3.427-.449-4.586-1.665-.931-.978-1.405-2.111-1.423-3.399-.017-1.288.423-2.86 1.318-4.718l-.626-.035-1.116-.161a39.769 39.769 0 00-1.613-.217 68.35 68.35 0 01-1.511-.187 99.238 99.238 0 01-1.633-.238 37.695 37.695 0 01-1.976-.364 42.002 42.002 0 01-1.456-.289 51.52 51.52 0 00-1.291-.272c-.421.587-.85 1.092-1.284 1.512-.436.419-1.044.89-1.823 1.413-1.768 1.186-3.732 2.051-5.891 2.595a21.995 21.995 0 01-6.436.667c-2.132-.098-4.148-.512-6.046-1.243-1.898-.729-3.486-1.764-4.762-3.104-1.628-1.708-2.317-3.594-2.066-5.659-2.134.398-4.074 1.183-5.82 2.355-.693.464-1.267.937-1.726 1.415-.455.48-.888 1.05-1.295 1.71l-.406-.115c.603-.922 1.142-1.639 1.616-2.151.475-.512 1.059-1 1.751-1.465zm74.186-6.221c-.5-.524-1.258-.921-2.277-1.185-1.017-.265-2.174-.393-3.474-.383-1.298.009-2.683.163-4.152.46-1.469.296-2.92.73-4.35 1.302.886 1.344 1.476 2.715 1.769 4.112.295 1.397.3 2.879.017 4.448 2.468-.364 4.468-.79 6-1.28a16.488 16.488 0 004.196-2.007c1.446-.97 2.368-1.933 2.765-2.889.397-.956.233-1.814-.494-2.578zm-62.048-2.957c-2.862 1.92-4.562 4.073-5.101 6.461a49.94 49.94 0 012.109-.351 27.521 27.521 0 012.05-.18c.758-.033 1.502-.069 2.231-.107.73-.037 1.486-.06 2.267-.067 1.817-.012 3.53.078 5.142.267 1.611.188 3.498.485 5.658.888a63.98 63.98 0 014.084.944l3.337.862.941.209c1.061-2.047.828-3.872-.699-5.476-.902-.946-2.005-1.637-3.312-2.076-1.305-.438-2.695-.55-4.169-.336l-.09-.328c1.645-.241 3.185-.154 4.617.262 1.434.418 2.626 1.126 3.577 2.124 1.629 1.709 1.883 3.713.767 6.012l.737.152 3.218.814c.327.083.749.176 1.267.28.52.104 1.135.22 1.847.345.767.131 1.425.239 1.973.324.55.084 1.001.157 1.358.219.111.013.227.032.349.057.124.025.295.05.515.074.332-.481.681-.918 1.044-1.314.364-.395.746-.77 1.148-1.126.402-.355.861-.717 1.375-1.083a78.76 78.76 0 011.81-1.248 49.73 49.73 0 012.966-1.861c.864-.492 1.937-.997 3.222-1.514a12.699 12.699 0 01-.548-.731 4.572 4.572 0 00-.481-.583c-1.727-1.813-3.798-3.288-6.213-4.425-2.416-1.136-5.361-2.025-8.836-2.667-2.681-.484-5.212-.757-7.59-.819-2.38-.063-4.862.105-7.445.503-2.954.474-5.73 1.185-8.333 2.133-2.6.949-4.865 2.069-6.792 3.362zm39.891 7.291c-1.053.707-1.907 1.366-2.559 1.976a19.217 19.217 0 00-1.952 2.149l.948.139c1.676.256 3.066.421 4.173.495a69.67 69.67 0 003.251.148c.863.023 1.623.019 2.282-.014.66-.033 1.596-.112 2.81-.237.091-.837.141-1.484.149-1.942.008-.458-.065-1.001-.22-1.63a9.565 9.565 0 00-.749-2.34c-.34-.72-.799-1.489-1.38-2.305a32.54 32.54 0 00-3.436 1.562 37.07 37.07 0 00-3.317 1.999zm-2.708 6.018a316.07 316.07 0 00-1.44-.036 32.951 32.951 0 01-1.726-.102c-.719 1.215-1.047 2.437-.987 3.667a4.827 4.827 0 001.369 3.186c1.126 1.182 2.476 1.795 4.047 1.839 1.573.044 3.217-.51 4.933-1.662 1.354-.909 2.439-1.96 3.254-3.152.814-1.192 1.438-2.623 1.872-4.293l-.723.097c-.993.149-1.912.26-2.758.331a50.29 50.29 0 01-2.486.15c-.812.028-1.651.041-2.516.04a72.146 72.146 0 01-2.839-.065zm-34.628-6.428a30.105 30.105 0 00-3.967-.085c-1.401.057-2.63.181-3.683.37.055.783.189 1.403.403 1.862.216.46.637 1.017 1.262 1.674.601.631 1.31 1.232 2.126 1.805a20.684 20.684 0 002.635 1.56c.939.468 1.908.863 2.905 1.185a19.72 19.72 0 002.978.717c4.225.653 8.01-.141 11.353-2.384a9.833 9.833 0 001.329-1.053 22.44 22.44 0 001.374-1.472c-.515-.127-.956-.24-1.324-.34l-1.096-.297a45.003 45.003 0 00-1.222-.311 61.022 61.022 0 01-1.568-.403c-1.137-.312-2.106-.578-2.906-.796a66.363 66.363 0 00-2.2-.56 73.315 73.315 0 00-1.962-.428l-2.151-.431c-.877-.143-1.678-.273-2.406-.389a20.958 20.958 0 00-1.88-.224zm-22.878-5.91a6.784 6.784 0 001.788-.038c1.057-.161 1.783-.591 2.182-1.291.397-.701.44-1.659.129-2.876a10.325 10.325 0 00-1.017-2.479 13.465 13.465 0 00-1.743-2.416 16.502 16.502 0 00-1.133-1.103c-.426-.38-.889-.758-1.388-1.135a32.858 32.858 0 00-1.559-1.11 28.677 28.677 0 00-1.648-1.025 29.874 29.874 0 00-3.162-1.58 27.362 27.362 0 00-3.217-1.149c-1.009-.3-1.921-.484-2.735-.556a9.821 9.821 0 00-2.358.066c-2.36.358-3.245 1.695-2.653 4.008.107.421.265.842.473 1.262.208.422.496.885.863 1.391.218.279.434.551.647.815.214.263.437.527.669.788.299.313.593.604.881.872.288.269.595.542.923.82.327.278.692.562 1.096.852.403.29.859.607 1.368.951.466.319.878.592 1.238.818a14.766 14.766 0 002.154 1.124c.379.161.824.343 1.333.547.47.194.896.355 1.277.485.38.129.719.234 1.013.314a12.59 12.59 0 002.226.387c.738.059 1.389.047 1.953-.039 1.567-.238 2.174-1.049 1.822-2.43-.119-.466-.356-.962-.709-1.485a11.032 11.032 0 00-1.342-1.599 17.415 17.415 0 00-1.847-1.592 18.4 18.4 0 00-2.247-1.438 19.801 19.801 0 00-2-1.006 17.448 17.448 0 00-1.91-.705 10.957 10.957 0 00-1.687-.376c-.522-.069-.967-.075-1.337-.019-.968.147-1.333.687-1.096 1.618.103.406.38.844.83 1.314.449.47 1.057.951 1.823 1.444.83.529 1.624.915 2.382 1.159s1.436.32 2.035.229a2.76 2.76 0 00.458-.14l.078.199a3.855 3.855 0 01-.39.082l-.29.045c-.582.088-1.23.042-1.943-.138a8.707 8.707 0 01-2.197-.918 7.868 7.868 0 01-1.084-.749 8.559 8.559 0 01-.905-.857 6.29 6.29 0 01-.681-.892 3.167 3.167 0 01-.388-.877c-.154-.601-.088-1.095.197-1.481.287-.387.781-.634 1.486-.741.616-.094 1.332-.051 2.146.128.814.18 1.689.486 2.623.92.998.47 1.963 1.023 2.894 1.66a20.197 20.197 0 012.519 2.019 15.444 15.444 0 011.911 2.16c.524.729.869 1.415 1.033 2.059.195.764.058 1.407-.412 1.929-.471.523-1.243.866-2.318 1.029-1.127.172-2.407.066-3.84-.315-1.434-.382-2.972-1.031-4.615-1.95a28.803 28.803 0 01-3.316-2.181 26.04 26.04 0 01-2.848-2.499 17.745 17.745 0 01-2.109-2.563c-.564-.849-.943-1.647-1.134-2.396a6.056 6.056 0 01-.18-1.083 5.45 5.45 0 01.013-.97c.069-.806.448-1.501 1.14-2.089.692-.588 1.583-.965 2.676-1.131.845-.128 1.814-.096 2.906.097 1.092.192 2.236.517 3.433.974a27.116 27.116 0 013.607 1.708 25.8 25.8 0 013.433 2.32c.85.681 1.632 1.377 2.344 2.087.712.711 1.31 1.403 1.793 2.078.483.675.907 1.401 1.271 2.18.363.779.638 1.528.821 2.249.338 1.32.293 2.38-.134 3.177-.429.798-1.197 1.281-2.307 1.45-1.285.196-2.537-.012-3.754-.623l.112-.205c.495.221 1.04.365 1.634.431z" fill="#F6D4BA" fill-opacity=".9"/><path d="M313.078 553.16l.121.208a5.932 5.932 0 01-3.73.502c-1.117-.205-1.908-.713-2.372-1.525-.464-.812-.556-1.873-.279-3.185a12.09 12.09 0 01.721-2.223c.329-.768.72-1.481 1.173-2.141a15.001 15.001 0 011.701-2.021 25.517 25.517 0 012.253-2.013 23.091 23.091 0 013.33-2.21 24.587 24.587 0 013.532-1.593 17.69 17.69 0 013.392-.864c1.084-.157 2.052-.158 2.904-.002 1.1.201 2.01.607 2.728 1.217.719.611 1.131 1.319 1.235 2.128.047.301.066.625.058.971-.01.346-.053.706-.133 1.078-.157.743-.5 1.53-1.026 2.361-.526.831-1.191 1.663-1.995 2.497a23.088 23.088 0 01-2.737 2.408 25.829 25.829 0 01-3.22 2.076c-1.602.866-3.113 1.466-4.53 1.801-1.417.336-2.693.4-3.829.192-1.082-.198-1.871-.566-2.366-1.104-.494-.539-.66-1.187-.499-1.944.135-.639.448-1.315.941-2.027a13.782 13.782 0 011.814-2.1 17.99 17.99 0 012.43-1.939 18.89 18.89 0 012.821-1.568c.916-.404 1.777-.682 2.584-.836.806-.153 1.521-.172 2.142-.058.71.129 1.216.392 1.52.788.303.397.391.893.264 1.49-.06.283-.177.571-.349.866a5.596 5.596 0 01-.641.869 7.555 7.555 0 01-.867.829 7.004 7.004 0 01-1.051.713 7.96 7.96 0 01-2.158.849c-.705.157-1.352.182-1.937.075a31.658 31.658 0 01-.293-.054 4.4 4.4 0 01-.395-.095l.069-.197c.222.087.377.139.467.155.602.111 1.278.056 2.025-.163.748-.22 1.524-.581 2.332-1.083.744-.469 1.331-.93 1.759-1.386.429-.456.686-.885.77-1.288.197-.925-.192-1.476-1.169-1.655-.372-.068-.817-.076-1.337-.024-.517.053-1.074.16-1.671.322a16.19 16.19 0 00-1.879.643c-.655.267-1.308.582-1.956.943a16.36 16.36 0 00-2.184 1.366 15.43 15.43 0 00-1.778 1.534 9.77 9.77 0 00-1.27 1.557c-.329.512-.544.999-.642 1.461-.291 1.372.353 2.203 1.934 2.492.567.104 1.219.138 1.955.102a12.133 12.133 0 003.21-.597c.375-.117.794-.265 1.255-.444.501-.187.938-.355 1.31-.503a13.593 13.593 0 002.105-1.056c.35-.215.75-.474 1.202-.779.494-.328.936-.63 1.326-.908.391-.276.744-.549 1.059-.816a19.777 19.777 0 001.728-1.635c.221-.255.432-.51.634-.767.203-.257.406-.522.611-.794a8.88 8.88 0 00.8-1.364c.19-.415.329-.831.417-1.248.487-2.297-.458-3.662-2.836-4.097a9.938 9.938 0 00-2.363-.142c-.81.044-1.714.2-2.712.467a25.55 25.55 0 00-3.167 1.047 27.024 27.024 0 00-3.093 1.478c-.543.303-1.077.628-1.603.973a31.69 31.69 0 00-1.511 1.059c-.481.361-.927.725-1.336 1.092-.411.366-.772.721-1.085 1.068a12.016 12.016 0 00-1.634 2.361 9.514 9.514 0 00-.907 2.448c-.256 1.208-.169 2.167.26 2.881.429.714 1.177 1.169 2.241 1.363a6.858 6.858 0 001.791.096 5.187 5.187 0 001.616-.378z" fill="#F6D4BA" fill-opacity=".9"/><path d="M277.578 552.176c.012.517-.474.929-1.085.919-.611-.01-1.116-.438-1.128-.955-.011-.517.475-.929 1.085-.919.612.01 1.116.438 1.128.955zm20.146-5.057c.008.362-.332.65-.759.643-.429-.007-.782-.306-.79-.668-.008-.362.332-.65.759-.643.428.007.781.306.79.668zm19.372.443c.008.361-.333.65-.76.643-.428-.008-.781-.307-.789-.669-.008-.361.332-.649.76-.642.427.007.78.305.789.668zm20.888 5.897c.011.516-.475.928-1.085.918-.612-.01-1.117-.437-1.129-.954-.011-.517.475-.929 1.086-.919.611.01 1.116.437 1.128.955zM17.073 220.134l-8.7 7.412L0 220.412l.128-.109L8.7 213l8.374 7.134zm-.504.008l-7.88-6.713-8.185 6.975 7.879 6.713 8.186-6.975z" fill="#69DBEF"/><path d="M15.394 220.16l-6.99 5.955-.123-.105-6.604-5.626 6.99-5.955 6.727 5.731zm-.503.009l-6.234-5.311-6.476 5.518 6.233 5.31 6.477-5.517z" fill="#69DBEF"/><path d="M13.717 220.188l-5.28 4.498-.123-.105-4.959-4.224 5.28-4.498 5.082 4.329zm-.503.009l-4.589-3.909-4.766 4.061 4.588 3.908 4.767-4.06zm3.859 22.482l-8.7 7.412L0 242.957l.128-.109 8.571-7.302 8.374 7.133zm-.504.009l-7.88-6.713-8.185 6.974 7.879 6.713 8.186-6.974z" fill="#69DBEF"/><path d="M15.394 242.706l-6.99 5.955-.123-.105-6.604-5.627 6.99-5.954 6.727 5.731zm-.503.008l-6.234-5.311-6.476 5.518 6.233 5.311 6.477-5.518z" fill="#69DBEF"/><path d="M13.717 242.734l-5.28 4.498-.123-.105-4.959-4.224 5.28-4.498 5.082 4.329zm-.503.008l-4.589-3.908-4.766 4.061 4.588 3.908 4.767-4.061zm3.859 22.483l-8.7 7.412L0 265.503l.128-.109 8.571-7.303 8.374 7.134zm-.504.008l-7.88-6.713-8.185 6.975 7.879 6.713 8.186-6.975z" fill="#69DBEF"/><path d="M15.394 265.252l-6.99 5.954-.123-.105-6.604-5.626 6.99-5.955 6.727 5.732zm-.503.008l-6.234-5.311-6.476 5.518 6.233 5.311 6.477-5.518z" fill="#69DBEF"/><path d="M13.717 265.28l-5.28 4.497-.123-.105-4.959-4.224 5.28-4.497 5.082 4.329zm-.503.008l-4.589-3.909-4.766 4.061 4.588 3.908 4.767-4.06zm3.859 22.483l-8.7 7.411L0 288.048l.128-.109 8.571-7.302 8.374 7.134zm-.504.008l-7.88-6.713-8.185 6.974 7.879 6.713 8.186-6.974z" fill="#69DBEF"/><path d="M15.394 287.797l-6.99 5.955-.123-.105-6.604-5.627 6.99-5.954 6.727 5.731zm-.503.008l-6.234-5.31-6.476 5.518 6.233 5.31 6.477-5.518z" fill="#69DBEF"/><path d="M13.717 287.825l-5.28 4.498-.123-.105-4.959-4.224 5.28-4.498 5.082 4.329zm-.503.009l-4.589-3.909-4.766 4.061 4.588 3.908 4.767-4.06zm3.859 22.482l-8.7 7.412L0 310.594l.128-.109 8.571-7.303 8.374 7.134zm-.504.009l-7.88-6.714-8.185 6.975 7.879 6.713 8.186-6.974z" fill="#69DBEF"/><path d="M15.394 310.343l-6.99 5.955-.123-.106-6.604-5.626 6.99-5.955 6.727 5.732zm-.503.008l-6.234-5.311-6.476 5.518 6.233 5.311 6.477-5.518z" fill="#69DBEF"/><path d="M13.717 310.371l-5.28 4.497-.123-.105-4.959-4.223 5.28-4.498 5.082 4.329zm-.503.008l-4.589-3.909-4.766 4.061 4.588 3.908 4.767-4.06zm3.859 22.483l-8.7 7.412L0 333.14l.128-.109 8.571-7.303 8.374 7.134zm-.504.008l-7.88-6.713-8.185 6.975 7.879 6.713 8.186-6.975z" fill="#69DBEF"/><path d="M15.394 332.888l-6.99 5.955-.123-.105-6.604-5.626 6.99-5.955 6.727 5.731zm-.503.009l-6.234-5.311-6.476 5.518 6.233 5.31 6.477-5.517z" fill="#69DBEF"/><path d="M13.717 332.916l-5.28 4.498-.123-.105-4.959-4.224 5.28-4.498 5.082 4.329zm-.503.009l-4.589-3.909-4.766 4.061 4.588 3.908 4.767-4.06zm3.859 22.482l-8.7 7.412L0 355.685l.128-.109 8.571-7.302 8.374 7.133zm-.504.009l-7.88-6.713-8.185 6.974 7.879 6.713 8.186-6.974z" fill="#69DBEF"/><path d="M15.394 355.434l-6.99 5.955-.123-.105-6.604-5.627 6.99-5.954 6.727 5.731zm-.503.008l-6.234-5.31-6.476 5.518 6.233 5.31 6.477-5.518z" fill="#69DBEF"/><path d="M13.717 355.462l-5.28 4.498-.123-.105-4.959-4.224 5.28-4.498 5.082 4.329zm-.503.009l-4.589-3.909-4.766 4.061 4.588 3.908 4.767-4.06zm600.393-135.337l-8.699 7.412-8.374-7.134.129-.109 8.571-7.303 8.373 7.134zm-.503.008l-7.88-6.713-8.186 6.975 7.879 6.713 8.187-6.975z" fill="#69DBEF"/><path d="M611.929 220.16l-6.99 5.955-.123-.105-6.604-5.626 6.989-5.955 6.728 5.731zm-.504.009l-6.234-5.311-6.476 5.518 6.233 5.31 6.477-5.517z" fill="#69DBEF"/><path d="M610.252 220.188l-5.281 4.498-.123-.105-4.959-4.224 5.28-4.498 5.083 4.329zm-.504.009l-4.588-3.909-4.766 4.061 4.587 3.908 4.767-4.06zm3.859 22.482l-8.699 7.412-8.374-7.134.129-.109 8.571-7.302 8.373 7.133zm-.503.009l-7.88-6.713-8.186 6.974 7.879 6.713 8.187-6.974z" fill="#69DBEF"/><path d="M611.929 242.706l-6.99 5.955-.123-.105-6.604-5.627 6.989-5.954 6.728 5.731zm-.504.008l-6.234-5.311-6.476 5.518 6.233 5.311 6.477-5.518z" fill="#69DBEF"/><path d="M610.252 242.734l-5.281 4.498-.123-.105-4.959-4.224 5.28-4.498 5.083 4.329zm-.504.008l-4.588-3.908-4.766 4.061 4.587 3.908 4.767-4.061zm3.859 22.483l-8.699 7.412-8.374-7.134.129-.109 8.571-7.303 8.373 7.134zm-.503.008l-7.88-6.713-8.186 6.975 7.879 6.713 8.187-6.975z" fill="#69DBEF"/><path d="M611.929 265.252l-6.99 5.954-.123-.105-6.604-5.626 6.989-5.955 6.728 5.732zm-.504.008l-6.234-5.311-6.476 5.518 6.233 5.311 6.477-5.518z" fill="#69DBEF"/><path d="M610.252 265.28l-5.281 4.497-.123-.105-4.959-4.224 5.28-4.497 5.083 4.329zm-.504.008l-4.588-3.909-4.766 4.061 4.587 3.908 4.767-4.06zm3.859 22.483l-8.699 7.411-8.374-7.134.129-.109 8.571-7.302 8.373 7.134zm-.503.008l-7.88-6.713-8.186 6.974 7.879 6.713 8.187-6.974z" fill="#69DBEF"/><path d="M611.929 287.797l-6.99 5.955-.123-.105-6.604-5.627 6.989-5.954 6.728 5.731zm-.504.008l-6.234-5.31-6.476 5.518 6.233 5.31 6.477-5.518z" fill="#69DBEF"/><path d="M610.252 287.825l-5.281 4.498-.123-.105-4.959-4.224 5.28-4.498 5.083 4.329zm-.504.009l-4.588-3.909-4.766 4.061 4.587 3.908 4.767-4.06zm3.859 22.482l-8.699 7.412-8.374-7.134.129-.109 8.571-7.303 8.373 7.134zm-.503.009l-7.88-6.714-8.186 6.975 7.879 6.713 8.187-6.974z" fill="#69DBEF"/><path d="M611.929 310.343l-6.99 5.955-.123-.106-6.604-5.626 6.989-5.955 6.728 5.732zm-.504.008l-6.234-5.311-6.476 5.518 6.233 5.311 6.477-5.518z" fill="#69DBEF"/><path d="M610.252 310.371l-5.281 4.497-.123-.105-4.959-4.223 5.28-4.498 5.083 4.329zm-.504.008l-4.588-3.909-4.766 4.061 4.587 3.908 4.767-4.06zm3.859 22.483l-8.699 7.412-8.374-7.134.129-.109 8.571-7.303 8.373 7.134zm-.503.008l-7.88-6.713-8.186 6.975 7.879 6.713 8.187-6.975z" fill="#69DBEF"/><path d="M611.929 332.888l-6.99 5.955-.123-.105-6.604-5.626 6.989-5.955 6.728 5.731zm-.504.009l-6.234-5.311-6.476 5.518 6.233 5.31 6.477-5.517z" fill="#69DBEF"/><path d="M610.252 332.916l-5.281 4.498-.123-.105-4.959-4.224 5.28-4.498 5.083 4.329zm-.504.009l-4.588-3.909-4.766 4.061 4.587 3.908 4.767-4.06zm3.859 22.482l-8.699 7.412-8.374-7.134.129-.109 8.571-7.302 8.373 7.133zm-.503.009l-7.88-6.713-8.186 6.974 7.879 6.713 8.187-6.974z" fill="#69DBEF"/><path d="M611.929 355.434l-6.99 5.955-.123-.105-6.604-5.627 6.989-5.954 6.728 5.731zm-.504.008l-6.234-5.31-6.476 5.518 6.233 5.31 6.477-5.518z" fill="#69DBEF"/><path d="M610.252 355.462l-5.281 4.498-.123-.105-4.959-4.224 5.28-4.498 5.083 4.329zm-.504.009l-4.588-3.909-4.766 4.061 4.587 3.908 4.767-4.06z" fill="#69DBEF"/><path fill-rule="evenodd" clip-rule="evenodd" d="M589 20H389.696v-1H589c8.837 0 16 7.163 16 16v174h-1V35c0-8.284-6.716-15-15-15zm15 347v174c0 8.284-6.716 15-15 15H389.696v1H589c8.837 0 16-7.163 16-16V367h-1zM223.825 556H24c-8.284 0-15-6.716-15-15V367H8v174c0 8.837 7.164 16 16 16h199.825v-1zM9 35v174H8V35c0-8.837 7.164-16 16-16h199.825v1H24c-8.284 0-15 6.716-15 15z" fill="#D9D9D9"/></svg>