<svg width="29" height="29" fill="none" xmlns="http://www.w3.org/2000/svg"><g clip-path="url(#clip0_53_2225)"><path d="M28.045 13.837a1.93 1.93 0 00-1.144-.656l-.214-2.902a.438.438 0 00.428-.363l.082-.467c.089-.502-.034-.996-.338-1.358a1.598 1.598 0 00-1.249-.56h-3.218l.156-.888a.843.843 0 00-.176-.691.83.83 0 00-.64-.291H5.887c-.468 0-.9.364-.982.83l-1.402 7.95a.438.438 0 00.864.152l1.402-7.95c.009-.052.076-.105.118-.105h15.788l-1.393 7.902a.438.438 0 10.863.153l.101-.573h5.245c.363 0 .676.135.882.38.142.17.225.38.245.613H26.16a.439.439 0 00-.431.363l-.165.935c-.067.377.027.75.257 1.024.227.27.571.426.945.426h.413l-.34 1.929h-1.158a2.303 2.303 0 00-.496-1.042c-.448-.535-1.108-.829-1.858-.829-1.202 0-2.361.787-2.904 1.87h-.176l.569-3.226a.438.438 0 00-.864-.152l-.596 3.379h-8.115a2.302 2.302 0 00-.496-1.042c-.449-.535-1.108-.829-1.858-.829-1.202 0-2.362.787-2.904 1.87H3.469l.175-.993h1.97a.438.438 0 000-.877H.939a.438.438 0 000 .877h1.816l-.157.888a.843.843 0 00.177.692.83.83 0 00.64.29H5.7c-.119.744.06 1.445.507 1.978.448.534 1.108.828 1.858.828 1.492 0 2.92-1.211 3.182-2.7l.016-.105h8.877c-.119.743.06 1.444.507 1.977.448.534 1.108.828 1.858.828 1.492 0 2.92-1.211 3.182-2.7l.016-.105h1.505a.438.438 0 00.432-.363l.825-4.676c.112-.635-.037-1.235-.42-1.69zm-6.643-.694l.505-2.864h3.901l.211 2.864h-4.617zm4.932-3.846l-.019.105h-4.253l.175-.994h3.373c.239 0 .444.088.577.247.139.165.19.393.147.642zM10.382 20.52c-.192 1.09-1.232 1.976-2.318 1.976-.486 0-.908-.183-1.187-.516-.287-.342-.396-.806-.308-1.308.193-1.09 1.233-1.976 2.32-1.976.485 0 .906.183 1.185.516.287.342.397.806.308 1.308zm14.44 0c-.191 1.09-1.232 1.976-2.318 1.976-.486 0-.907-.183-1.186-.516-.287-.342-.397-.806-.308-1.308.192-1.09 1.232-1.976 2.318-1.976.486 0 .908.183 1.187.516.287.342.396.806.308 1.308zm2.512-3.636h-.567a.342.342 0 01-.273-.112.371.371 0 01-.066-.309l.101-.573h.98l-.175.994z" fill="#000"/><path d="M9.199 19.98a.83.83 0 00-.64-.29c-.47 0-.9.364-.982.83a.843.843 0 00.176.69.83.83 0 00.64.292c.469 0 .9-.365.982-.83a.842.842 0 00-.176-.691zm14.441 0a.83.83 0 00-.64-.29c-.469 0-.9.364-.982.83a.843.843 0 00.176.69.83.83 0 00.64.292c.47 0 .9-.365.982-.83a.842.842 0 00-.176-.691zm-5.455-2.16H12.63a.438.438 0 100 .876h5.555a.438.438 0 100-.877zm-7.893-1.871H2.204a.438.438 0 000 .877h8.088a.438.438 0 000-.877z" fill="#000"/><path d="M18.664 14.185l-1.623-1.403a.438.438 0 00-.574.663l.733.633H6.082a.438.438 0 000 .877H16.92l-.904.6a.438.438 0 10.484.73l2.118-1.403a.438.438 0 00.045-.697z" fill="#00AB54"/></g><defs><clipPath id="clip0_53_2225"><path fill="#fff" transform="translate(.5 .517)" d="M0 0h28v28H0z"/></clipPath></defs></svg>