<svg width="53" height="52" fill="none" xmlns="http://www.w3.org/2000/svg"><g clip-path="url(#clip0_53_2103)"><path d="M47.762 43.311H5.179a4.399 4.399 0 01-4.394-4.394v-1.845a.57.57 0 01.57-.57h18.268a.57.57 0 01.57.57v1.63h12.554v-1.63a.57.57 0 01.571-.57h18.267a.57.57 0 01.57.57v1.845a4.399 4.399 0 01-4.393 4.394zM1.927 37.642v1.275a3.256 3.256 0 003.252 3.252h42.583a3.256 3.256 0 003.252-3.252v-1.275H33.889v1.63a.57.57 0 01-.571.572H19.623a.57.57 0 01-.571-.571v-1.63H1.927z" fill="#323232"/><path d="M48.681 37.642a.57.57 0 01-.57-.57V10.506a.736.736 0 00-.735-.736H5.564a.736.736 0 00-.735.736V37.07a.57.57 0 11-1.141 0V10.507c0-1.035.841-1.877 1.876-1.877h41.812c1.035 0 1.876.842 1.876 1.877V37.07a.57.57 0 01-.571.571z" fill="#323232"/><path d="M45.592 34.788H7.35a.57.57 0 01-.57-.57V13.492c0-.977.794-1.771 1.771-1.771h35.84c.977 0 1.772.795 1.772 1.771v20.726a.57.57 0 01-.57.57zM7.921 33.647h37.1V13.492a.63.63 0 00-.63-.63H8.551a.631.631 0 00-.63.63v20.155z" fill="#323232"/><path d="M29.793 32.272h-1.141v-9.178h-4.364v9.178h-1.141v-9.3c0-.562.457-1.02 1.019-1.02h4.607c.563 0 1.02.458 1.02 1.02v9.3zm-8.709 0h-1.141v-4.04h-4.364v4.04h-1.142V28.11c0-.563.458-1.02 1.02-1.02h4.608c.562 0 1.02.457 1.02 1.02v4.162zm17.418 0h-1.141V17.957h-4.364v14.315h-1.142V17.835c0-.562.458-1.02 1.02-1.02h4.607c.563 0 1.02.458 1.02 1.02v14.437z" fill="#00AB54"/></g><defs><clipPath id="clip0_53_2103"><path fill="#fff" transform="translate(.5)" d="M0 0h52v52H0z"/></clipPath></defs></svg>