<svg width="29" height="29" fill="none" xmlns="http://www.w3.org/2000/svg"><path d="M4.927 1.558a.652.652 0 00-.07.017.561.561 0 00-.438.56v5.04h5.04a.563.563 0 00.492-.278.563.563 0 000-.564.563.563 0 00-.492-.278H6.274a11.72 11.72 0 018.225-3.36c6.501 0 11.76 5.259 11.76 11.76 0 6.501-5.259 11.76-11.76 11.76A11.752 11.752 0 014.052 9.065l-.998-.507a12.803 12.803 0 00-1.435 5.897c0 7.107 5.773 12.88 12.88 12.88 7.107 0 12.88-5.773 12.88-12.88 0-7.107-5.773-12.88-12.88-12.88-3.487 0-6.641 1.402-8.96 3.658V2.135a.56.56 0 00-.612-.577zm9.572 1.697a.561.561 0 000 1.12.561.561 0 000-1.12zm5.32 1.418a.561.561 0 000 1.12.561.561 0 000-1.12zm3.903 3.902a.561.561 0 000 1.12.561.561 0 000-1.12zm-19.863 5.32a.561.561 0 000 1.12.561.561 0 000-1.12zm21.28 0a.561.561 0 000 1.12.561.561 0 000-1.12zm-19.862 5.32a.561.561 0 000 1.12.561.561 0 000-1.12zm18.445 0a.561.561 0 000 1.12.561.561 0 000-1.12zM9.179 23.118a.561.561 0 000 1.12.561.561 0 000-1.12zm10.64 0a.561.561 0 000 1.12.561.561 0 000-1.12zm-5.32 1.417a.561.561 0 000 1.12.561.561 0 000-1.12z" fill="#323232"/><path d="M8.129 12.39c0-1.455 1.107-2.467 2.66-2.467 1.498 0 2.59.956 2.59 2.257 0 .836-.392 1.514-1.715 2.853l-1.768 1.785v.087h3.623v1.103h-5.32v-.893l2.66-2.765c1.056-1.1 1.312-1.52 1.312-2.1 0-.722-.62-1.26-1.435-1.26-.87 0-1.452.558-1.452 1.4v.018H8.129v-.018z" fill="#00AB54"/><path fill-rule="evenodd" clip-rule="evenodd" d="M18.191 10.115c-1.406 2.107-2.583 3.942-3.29 5.233v1.137h3.85v1.523h1.173v-1.523h1.102v-1.102h-1.102v-5.268H18.19zm.578 1.085h-.07a59.41 59.41 0 00-2.625 4.13v.088h2.695V11.2z" fill="#00AB54"/></svg>