<svg width="53" height="52" fill="none" xmlns="http://www.w3.org/2000/svg"><g clip-path="url(#clip0_53_2125)"><path d="M38.484.62c-2.884.751-4.997 2.782-5.91 5.677-.204.65-.234.975-.234 2.183 0 1.717.142 2.306.873 3.799.437.894.65 1.188 1.392 1.94.487.487 1.015.975 1.188 1.087l.294.213-.903.457c-2.468 1.249-4.296 3.108-5.485 5.576-.914 1.92-1.168 3.28-1.168 6.388 0 2.316.051 2.58.559 2.813.203.091 3.006.122 11.517.122H51.86l.264-.244c.142-.132.295-.365.335-.518.03-.142.041-1.391.01-2.772-.04-2.255-.07-2.61-.304-3.525-.62-2.407-1.656-4.184-3.433-5.89-.955-.914-2.123-1.727-3.098-2.153-.355-.153-.65-.305-.65-.335 0-.031.132-.133.285-.224.487-.295 1.655-1.513 2.102-2.214A8.123 8.123 0 0042.415.61c-1.127-.275-2.874-.265-3.93.01zm3.27 1.93c.295.06.925.294 1.402.517 1.392.67 2.61 2.031 3.088 3.463.304.894.406 1.92.274 2.773-.62 4.205-4.946 6.5-8.745 4.652-1.005-.488-2.244-1.717-2.711-2.692-.528-1.066-.67-1.797-.61-3.036.061-1.31.305-2.062 1.006-3.108 1.35-2.021 3.91-3.057 6.297-2.57zm1.22 14.492c2.67.721 5.027 2.62 6.245 5.048.793 1.554 1.036 2.66 1.118 4.946l.06 1.706H30.665v-1.554c0-.843.05-1.838.112-2.204.152-1.015.72-2.549 1.27-3.483.67-1.128 2.234-2.692 3.361-3.362.884-.518 2.438-1.107 3.382-1.27.924-.162 3.28-.06 4.184.173z" fill="#323232"/><path d="M22.488 3.89c-.274.274-.355.437-.355.731 0 .345.091.477.883 1.28l.884.904h-1.574c-.864 0-1.95.05-2.417.101-4.093.518-7.384 3.646-8.085 7.689-.081.477-.152 1.076-.152 1.32 0 .802.386 1.239 1.097 1.25.355 0 .497-.062.731-.285.234-.244.294-.407.355-.996.102-1.046.244-1.747.518-2.417.762-1.879 2.377-3.392 4.357-4.083.772-.274.915-.284 2.997-.325l2.183-.04-.883.914c-.833.853-.894.934-.894 1.33 0 .63.416 1.026 1.076 1.026h.478l1.767-1.757c.975-.955 1.838-1.869 1.92-2.021.08-.152.142-.447.142-.65 0-.366-.112-.498-1.91-2.306-1.757-1.757-1.94-1.92-2.336-1.97-.386-.05-.457-.02-.782.305z" fill="#00AB54"/><path d="M10.454 21.328a8.336 8.336 0 00-5.911 5.749c-.305 1.046-.325 3.178-.04 4.204a8.732 8.732 0 003.209 4.682l.355.264-.914.468c-2.854 1.432-5.017 3.9-5.992 6.814-.508 1.514-.569 2.001-.63 4.804l-.05 2.661.304.315.305.305h11.324c11.263 0 11.314 0 11.578-.214.152-.111.325-.396.386-.63.163-.588.05-4.417-.162-5.534-.711-3.738-3.23-7.018-6.602-8.623l-.752-.356.742-.599c1.33-1.066 2.427-2.793 2.854-4.51.233-.923.244-2.69.01-3.645-.741-3.108-3.128-5.464-6.266-6.206-.935-.213-2.793-.193-3.748.051zm3.86 2.194c1.523.477 2.843 1.635 3.544 3.118.467.985.62 1.635.62 2.691 0 2.702-1.92 5.16-4.571 5.86-.731.193-2.234.193-2.986 0-2.173-.568-4.012-2.498-4.479-4.692-.822-3.86 2.407-7.556 6.348-7.272.416.03 1.107.163 1.523.295zm.243 14.219c2.986.67 5.718 2.935 6.866 5.697.599 1.442.73 2.143.782 4.225l.05 1.9-9.83-.02-9.842-.031-.03-1.117c-.062-2.235.294-3.992 1.147-5.607 1.493-2.833 4.276-4.783 7.414-5.2.914-.122 2.509-.05 3.443.153z" fill="#323232"/><path d="M42.649 33.79c-.66.203-.914.6-.914 1.432 0 .274-.091.853-.203 1.3-.64 2.478-2.306 4.266-4.774 5.129-.579.203-.914.233-2.843.274l-2.184.04.894-.924c.792-.822.883-.954.883-1.3 0-.213-.07-.497-.162-.63-.213-.294-.721-.517-1.067-.446-.182.03-.934.721-2.214 2-2.59 2.6-2.59 2.205-.03 4.754 1.198 1.198 2 1.92 2.183 1.96.691.173 1.29-.305 1.29-1.046 0-.437-.04-.498-.873-1.34l-.874-.895 2.225-.04c2.57-.061 3.23-.183 4.773-.945 2.082-1.026 3.748-2.843 4.55-4.966.498-1.31.752-3.108.518-3.656-.223-.518-.752-.833-1.178-.701z" fill="#00AB54"/></g><defs><clipPath id="clip0_53_2125"><path fill="#fff" transform="translate(.5)" d="M0 0h52v52H0z"/></clipPath></defs></svg>