<svg width="175" height="182" fill="none" xmlns="http://www.w3.org/2000/svg"><rect x="3.355" y="2.061" width="169.695" height="175.763" rx="23.5" fill="#FFF4E7" fill-opacity=".4" stroke="#000"/><path d="M2.855 25.56C1.502 9.89 12.187-1.208 25.941 1.713M2.855 25.56v0zM28.087 1.07C60.534 3.615 90.953-1.6 145.945 4.004m3.606-2.443c14.365.954 21.983 7.532 24.751 24.12m-1.398-2.328c2.182 30.362.223 56.02-.581 129.342m1.228 1.629c-2.697 11.695-9.612 24.042-24 26.507m3.72.286c-49.406-2.188-92.618-3.558-127.635-2.843m1.22.05C13.068 175.003 6.21 164.738 5.16 150.33m.175 4.45C.83 119.814 2.856 88.47.939 26.312" stroke="#000" stroke-linecap="round"/></svg>