<svg width="174" height="186" fill="none" xmlns="http://www.w3.org/2000/svg"><rect x="2.355" y="4.061" width="169.695" height="175.763" rx="23.5" fill="#FFF4E7" fill-opacity=".4" stroke="#000"/><path d="M1.855 49.673C3.97 18.47 10.314 5.544 16.385 1M1.854 49.673v0zM18.917 4.372c34.301.04 75.688-5.375 137.452 1.763m1.176-2.574c8.595 3.162 16.316 21.567 12.668 48.494m.24-9.112c2.96 44.274 3.765 65.542.107 86.832m1.991 4.437c-.995 27.324-8.981 50.969-15.735 45.748m1.035 5.04c-34.733-11.238-73.583-14.648-141.792-9.223m.803 4.547C8.189 172.8.906 154.084 2.474 127.331m.205-.496c-.277-4.306-3.138-34.376-.707-74.316" stroke="#000" stroke-linecap="round"/></svg>