<svg width="279" height="277" fill="none" xmlns="http://www.w3.org/2000/svg"><rect x="1.5" y="3.5" width="273.966" height="270" rx="23.5" fill="#FFF4E7" fill-opacity=".4" stroke="#000"/><path d="M1 17.632C5.39 11.045 15.919 2.534 29.289 1.317M1 17.632v0zM26.98 1c55.709.459 117.251.842 218.948 3.162m.448-.907c18.786 2.248 29.154 8.373 24.34 16.66m4.605-3.555c2.121 95.508 4.883 188.45-.214 245.538m.422-1.063c.701 9.299-8.396 14.657-26.881 15.165m-2.684-2.48c-67.219-1.49-134.235-.861-219.313 1.695m3.503-.004c-13.102-.543-27.308-6.895-25.56-14.93m-1.218 1.733C6.893 185.538 4.874 110.648 1.27 18.798" stroke="#000" stroke-linecap="round"/></svg>