<svg width="180" height="178" fill="none" xmlns="http://www.w3.org/2000/svg"><rect x="5.355" y="3.005" width="169.695" height="171.921" rx="23.5" fill="#FFF4E7" fill-opacity=".4" stroke="#000"/><path d="M4.855 26.505C4.36 10.471 12.713 3.957 28.038 2.698M4.855 26.505v0zM26.877 5.623C51.44 5.067 84.257.79 152.07.6m-.519 1.905c10.217 3.107 24.396 13.482 27.089 23.886m-5.792-1.013c3.012 32.87 1.576 55.355 1.917 128.772m.786-2.724c3.993 12.648-8.41 20.219-26.39 21.382m1.554-.104c-29.903 2.416-54.66 1.655-124.91 4.087m3.05-1.365c-13.724.3-22.487-8.552-27.967-27.08m7.362.103C3.83 109.054 7.07 71.244 3.247 24.622" stroke="#000" stroke-linecap="round"/></svg>