<svg width="412" height="297" fill="none" xmlns="http://www.w3.org/2000/svg"><g filter="url(#filter0_ddddd_53_2263)" stroke="#000"><rect x="17.5" y="6.435" width="373.628" height="232.388" rx="23.5" fill="#FFF9F2" fill-opacity=".8"/><path d="M17 18.273C22.99 12.62 37.358 5.317 55.604 4.272M17 18.273v0zM52.453 4c76.021.394 160.003.722 298.781 2.714m.611-.778c25.637 1.928 39.784 7.185 33.215 14.296m6.284-3.05c2.895 81.963 6.663 161.724-.291 210.716m.575-.912c.957 7.98-11.457 12.578-36.683 13.014m-3.662-2.128c-91.728-1.279-183.18-.739-299.279 1.455m4.78-.004c-17.88-.466-37.265-5.917-34.88-12.813m-1.661 1.488c4.798-65.631 2.043-129.9-2.875-208.724" stroke-linecap="round"/></g><defs><filter id="filter0_ddddd_53_2263" x=".657" y=".5" width="410.843" height="296" filterUnits="userSpaceOnUse" color-interpolation-filters="sRGB"><feFlood flood-opacity="0" result="BackgroundImageFix"/><feColorMatrix in="SourceAlpha" values="0 0 0 0 0 0 0 0 0 0 0 0 0 0 0 0 0 0 127 0" result="hardAlpha"/><feOffset/><feColorMatrix values="0 0 0 0 0 0 0 0 0 0 0 0 0 0 0 0 0 0 0.1 0"/><feBlend in2="BackgroundImageFix" result="effect1_dropShadow_53_2263"/><feColorMatrix in="SourceAlpha" values="0 0 0 0 0 0 0 0 0 0 0 0 0 0 0 0 0 0 127 0" result="hardAlpha"/><feOffset dy="3"/><feGaussianBlur stdDeviation="3"/><feColorMatrix values="0 0 0 0 0 0 0 0 0 0 0 0 0 0 0 0 0 0 0.1 0"/><feBlend in2="effect1_dropShadow_53_2263" result="effect2_dropShadow_53_2263"/><feColorMatrix in="SourceAlpha" values="0 0 0 0 0 0 0 0 0 0 0 0 0 0 0 0 0 0 127 0" result="hardAlpha"/><feOffset dy="10"/><feGaussianBlur stdDeviation="5"/><feColorMatrix values="0 0 0 0 0 0 0 0 0 0 0 0 0 0 0 0 0 0 0.09 0"/><feBlend in2="effect2_dropShadow_53_2263" result="effect3_dropShadow_53_2263"/><feColorMatrix in="SourceAlpha" values="0 0 0 0 0 0 0 0 0 0 0 0 0 0 0 0 0 0 127 0" result="hardAlpha"/><feOffset dy="23"/><feGaussianBlur stdDeviation="7"/><feColorMatrix values="0 0 0 0 0 0 0 0 0 0 0 0 0 0 0 0 0 0 0.05 0"/><feBlend in2="effect3_dropShadow_53_2263" result="effect4_dropShadow_53_2263"/><feColorMatrix in="SourceAlpha" values="0 0 0 0 0 0 0 0 0 0 0 0 0 0 0 0 0 0 127 0" result="hardAlpha"/><feOffset dy="40"/><feGaussianBlur stdDeviation="8"/><feColorMatrix values="0 0 0 0 0 0 0 0 0 0 0 0 0 0 0 0 0 0 0.01 0"/><feBlend in2="effect4_dropShadow_53_2263" result="effect5_dropShadow_53_2263"/><feBlend in="SourceGraphic" in2="effect5_dropShadow_53_2263" result="shape"/></filter></defs></svg>