<svg width="177" height="186" fill="none" xmlns="http://www.w3.org/2000/svg"><rect x="2.355" y="5.061" width="169.695" height="175.763" rx="23.5" fill="#FFF4E7" fill-opacity=".4" stroke="#000"/><path d="M1.855 28.56C-1.837 19.284 11.2 7.25 26.651.64M1.855 28.56v0zm26.39-22.905c28.947-3.268 64.83-1.976 118.182-1.557m2.124.463c15.466 3.539 27.732 12.52 22.983 22.43m-1.144-2.226c-1.107 45.26-1.231 87.733 5.837 135.7m-3.676-3.141c-2.387 12.641-7.879 25.449-26.133 20.366m3.072 7.034c-29.534-7.677-52.066-7.911-124.574-6.352m.94 2.952c-11.406-.382-22.29-7.509-24.376-22.219m2.423-2.178c-1.397-32.753-3.256-60.84.194-131.679" stroke="#000" stroke-linecap="round"/></svg>