<svg width="29" height="28" fill="none" xmlns="http://www.w3.org/2000/svg"><g clip-path="url(#clip0_53_2200)"><path d="M26.233 7.21c-.014-.756-.028-1.47-.028-2.162a.98.98 0 00-.98-.98c-4.191 0-7.382-1.204-10.042-3.79a.98.98 0 00-1.367 0c-2.66 2.586-5.85 3.79-10.042 3.79a.98.98 0 00-.98.98c0 .692-.013 1.406-.028 2.162-.134 7.035-.318 16.67 11.412 20.736a.981.981 0 00.642 0C26.552 23.88 26.368 14.245 26.233 7.209zM14.5 26.5C4.44 22.845 4.203 14.319 4.338 7.247c.008-.425.016-.836.021-1.24C8.285 5.843 11.813 4.342 14.5 2c2.688 2.34 6.294 3.843 10.22 4.008.005.403.013.815.02 1.239.136 7.072-.178 15.598-10.24 19.253z" fill="#323232"/><path d="M17.875 10.595l-4.73 4.73-2.02-2.018a.98.98 0 00-1.385 1.386l2.711 2.712a.977.977 0 001.386 0l5.424-5.423a.98.98 0 10-1.386-1.386z" fill="#00AB54"/></g><defs><clipPath id="clip0_53_2200"><path fill="#fff" transform="translate(.5)" d="M0 0h28v28H0z"/></clipPath></defs></svg>