<svg width="128" height="128" fill="none" xmlns="http://www.w3.org/2000/svg"><path d="M87.806 14.007c-5.602 1.46-9.704 5.404-11.48 11.025-.394 1.262-.453 1.894-.453 4.24 0 3.334.276 4.478 1.696 7.377.848 1.736 1.263 2.308 2.702 3.768.947.946 1.973 1.893 2.308 2.11l.572.414-1.755.888c-4.793 2.426-8.344 6.035-10.651 10.828-1.775 3.728-2.268 6.37-2.268 12.406 0 4.497.098 5.01 1.084 5.464.395.177 5.839.236 22.367.236h21.854l.513-.473c.276-.256.572-.71.651-1.006.059-.276.079-2.702.019-5.384-.078-4.379-.138-5.07-.591-6.844-1.203-4.675-3.215-8.127-6.667-11.44-1.854-1.775-4.122-3.353-6.016-4.182-.69-.295-1.262-.591-1.262-.65 0-.06.256-.257.552-.434.947-.572 3.215-2.94 4.083-4.3a15.776 15.776 0 00-9.625-24.063c-2.19-.533-5.582-.513-7.633.02zm6.35 3.747c.573.118 1.796.572 2.723 1.006 2.702 1.302 5.069 3.945 5.996 6.726.591 1.735.789 3.727.532 5.384-1.203 8.166-9.605 12.623-16.982 9.034-1.953-.947-4.359-3.334-5.266-5.227-1.026-2.071-1.302-3.491-1.184-5.897.119-2.545.592-4.004 1.953-6.036 2.623-3.925 7.594-5.937 12.229-4.99zM96.525 45.9c5.187 1.4 9.763 5.089 12.13 9.803 1.538 3.017 2.012 5.167 2.169 9.605l.119 3.314H72.618v-3.018c0-1.637.1-3.57.218-4.28.295-1.973 1.4-4.95 2.465-6.765 1.302-2.19 4.34-5.227 6.528-6.529 1.717-1.006 4.734-2.15 6.569-2.465 1.794-.316 6.37-.119 8.126.335zM56.74 20.358c-.532.532-.69.848-.69 1.42 0 .67.177.927 1.716 2.485l1.716 1.755h-3.057c-1.677 0-3.787.099-4.695.198-7.948 1.005-14.339 7.08-15.7 14.93-.158.927-.296 2.091-.296 2.565 0 1.558.75 2.406 2.13 2.425.69 0 .967-.118 1.42-.552.454-.473.573-.789.691-1.933.197-2.031.473-3.392 1.006-4.694 1.48-3.649 4.615-6.588 8.461-7.929 1.5-.532 1.776-.552 5.819-.631l4.24-.079-1.715 1.775c-1.618 1.657-1.736 1.815-1.736 2.584 0 1.223.809 1.992 2.09 1.992h.928l3.431-3.412c1.894-1.854 3.57-3.63 3.728-3.925.158-.296.276-.868.276-1.262 0-.71-.217-.967-3.708-4.478-3.412-3.412-3.767-3.727-4.536-3.826-.75-.099-.888-.04-1.519.592zM33.369 54.223c-5.523 1.44-9.902 5.68-11.48 11.164-.591 2.031-.63 6.173-.078 8.165.986 3.61 3.175 6.805 6.232 9.093l.69.513-1.774.907c-5.543 2.781-9.744 7.574-11.637 13.235-.987 2.939-1.105 3.885-1.223 9.329L14 111.797l.592.611.591.592h21.992c21.874 0 21.973 0 22.485-.414.296-.217.632-.769.75-1.223.316-1.144.099-8.58-.316-10.75-1.38-7.258-6.272-13.629-12.82-16.745l-1.46-.69 1.44-1.164c2.584-2.071 4.714-5.424 5.543-8.757.453-1.795.473-5.227.02-7.081-1.44-6.036-6.076-10.611-12.17-12.051-1.815-.414-5.424-.375-7.278.098zm7.495 4.26c2.958.928 5.522 3.176 6.883 6.056.908 1.913 1.203 3.175 1.203 5.227 0 5.246-3.727 10.02-8.875 11.38-1.42.375-4.34.375-5.799 0-4.22-1.104-7.79-4.852-8.698-9.112-1.598-7.495 4.674-14.675 12.327-14.122.809.059 2.15.315 2.959.572zm.473 27.614c5.799 1.302 11.105 5.7 13.333 11.065 1.164 2.8 1.42 4.162 1.52 8.205l.098 3.688-19.093-.039-19.112-.059-.06-2.17c-.118-4.339.573-7.751 2.23-10.888 2.899-5.502 8.303-9.29 14.398-10.098 1.775-.237 4.871-.099 6.686.296zm54.556-7.673c-1.282.395-1.775 1.164-1.775 2.781 0 .533-.178 1.657-.394 2.525-1.243 4.813-4.478 8.284-9.27 9.96-1.125.395-1.776.454-5.523.533l-4.24.079 1.735-1.795c1.538-1.598 1.716-1.854 1.716-2.525 0-.414-.138-.966-.316-1.222-.414-.573-1.4-1.006-2.07-.868-.356.059-1.815 1.4-4.3 3.885-5.03 5.05-5.03 4.28-.06 9.231 2.328 2.327 3.886 3.728 4.24 3.807 1.342.335 2.506-.592 2.506-2.032 0-.848-.08-.966-1.697-2.603l-1.696-1.736 4.32-.079c4.99-.118 6.272-.355 9.27-1.834 4.043-1.992 7.278-5.523 8.836-9.645.967-2.545 1.46-6.036 1.006-7.1-.434-1.007-1.46-1.618-2.288-1.362z" opacity=".2" fill="#69DBEF"/></svg>