<svg width="79" height="78" fill="none" xmlns="http://www.w3.org/2000/svg"><g style="mix-blend-mode:soft-light" filter="url(#filter0_f_211_4132)"><circle cx="39.5" cy="39" r="35" fill="#EBEDEF"/></g><rect x="17.5" y="17" width="44" height="44" rx="22" fill="#44B46D"/><path d="M29.925 26.102a.65.65 0 00-.07.018.561.561 0 00-.438.56v5.04h5.04a.563.563 0 00.492-.278.563.563 0 000-.564.563.563 0 00-.492-.278h-3.185a11.721 11.721 0 018.225-3.36c6.501 0 11.76 5.259 11.76 11.76 0 6.501-5.259 11.76-11.76 11.76A11.752 11.752 0 0129.05 33.61l-.998-.508A12.803 12.803 0 0026.617 39c0 7.107 5.773 12.88 12.88 12.88 7.107 0 12.88-5.773 12.88-12.88 0-7.107-5.773-12.88-12.88-12.88-3.487 0-6.641 1.402-8.96 3.657V26.68a.56.56 0 00-.612-.578zm9.572 1.698a.561.561 0 000 1.12.561.561 0 000-1.12zm5.32 1.418a.561.561 0 000 1.12.561.561 0 000-1.12zm3.903 3.902a.561.561 0 000 1.12.561.561 0 000-1.12zm-19.863 5.32a.561.561 0 000 1.12.561.561 0 000-1.12zm21.28 0a.561.561 0 000 1.12.561.561 0 000-1.12zm-19.862 5.32a.561.561 0 000 1.12.561.561 0 000-1.12zm18.445 0a.561.561 0 000 1.12.561.561 0 000-1.12zm-14.543 3.903a.561.561 0 000 1.12.561.561 0 000-1.12zm10.64 0a.561.561 0 000 1.12.561.561 0 000-1.12zm-5.32 1.417a.561.561 0 000 1.12.561.561 0 000-1.12z" fill="#EBEDEF"/><path d="M33.129 36.935c0-1.455 1.107-2.468 2.66-2.468 1.498 0 2.59.956 2.59 2.258 0 .836-.392 1.514-1.715 2.852l-1.768 1.785v.088h3.623v1.102h-5.32v-.892l2.66-2.765c1.056-1.1 1.312-1.52 1.312-2.1 0-.722-.62-1.26-1.435-1.26-.87 0-1.452.558-1.452 1.4v.017h-1.155v-.017z" fill="#EBEDEF"/><path fill-rule="evenodd" clip-rule="evenodd" d="M43.191 34.66c-1.406 2.107-2.583 3.942-3.29 5.233v1.137h3.85v1.523h1.173V41.03h1.102v-1.102h-1.102V34.66H43.19zm.578 1.085h-.07a59.41 59.41 0 00-2.625 4.13v.087h2.695v-4.217z" fill="#EBEDEF"/><defs><filter id="filter0_f_211_4132" x=".5" y="0" width="78" height="78" filterUnits="userSpaceOnUse" color-interpolation-filters="sRGB"><feFlood flood-opacity="0" result="BackgroundImageFix"/><feBlend in="SourceGraphic" in2="BackgroundImageFix" result="shape"/><feGaussianBlur stdDeviation="2" result="effect1_foregroundBlur_211_4132"/></filter></defs></svg>