<svg width="27" height="28" fill="none" xmlns="http://www.w3.org/2000/svg"><path d="M26.253 15.254c.164.205.352.49.564.855l-.132.04a4.436 4.436 0 00-.451-.68 4.04 4.04 0 00-.588-.571 5.091 5.091 0 00-1.949-.987 2.747 2.747 0 01-.595 2.17c-.4.505-.906.887-1.52 1.147-.613.26-1.27.395-1.969.406a6.373 6.373 0 01-2.125-.34 6.28 6.28 0 01-1.975-1.081 5.248 5.248 0 01-.62-.572 4.646 4.646 0 01-.446-.603c-.178.036-.318.066-.42.09-.102.023-.26.054-.474.093-.24.05-.456.09-.644.117-.19.027-.367.05-.533.072-.167.02-.332.038-.495.054-.162.015-.338.036-.527.063l-.364.049-.206.006c.323.732.49 1.348.504 1.849.013.5-.126.934-.418 1.302-.362.457-.856.654-1.482.589-.626-.065-1.29-.381-1.995-.948a4.848 4.848 0 01-.788-.794 5.341 5.341 0 01-.57-.911 6.892 6.892 0 01-.258-.575c-.087-.217-.19-.505-.308-.86a11.325 11.325 0 01-2.032-.649 6.94 6.94 0 01-1.617-.95c-.582-.468-.948-.934-1.1-1.396-.151-.463-.078-.882.22-1.258.33-.416.897-.59 1.704-.524.806.067 1.828.34 3.067.82l.288.11c.1-.146.177-.255.232-.324.062-.079.12-.153.176-.222a6.518 6.518 0 012.06-1.732c.794-.422 1.78-.725 2.961-.908.912-.14 1.77-.198 2.577-.173.805.026 1.645.14 2.52.342 1.974.457 3.627 1.223 4.961 2.298.6.485 1.086.977 1.457 1.479.37.5.603.985.7 1.452.78.257 1.452.611 2.013 1.064.235.19.434.386.597.59zM1.051 12.31c.145.376.463.762.952 1.157.429.345.898.623 1.41.832.51.21 1.174.4 1.99.572a5.276 5.276 0 01-.06-1.727c.076-.539.25-1.064.52-1.575a7.875 7.875 0 00-1.448-.56 6.328 6.328 0 00-1.372-.23 3.677 3.677 0 00-1.137.104c-.33.09-.574.235-.73.433-.228.287-.27.618-.125.994zm18.196-2.755a14 14 0 00-2.771-.934 11.925 11.925 0 00-2.455-.288 13.738 13.738 0 00-2.483.223c-1.133.205-2.088.514-2.865.925a6.182 6.182 0 00-1.977 1.64 1.6 1.6 0 00-.15.22c-.037.068-.093.16-.169.277.43.217.79.427 1.081.629.291.202.626.456 1.003.76.235.19.44.358.614.507a6.402 6.402 0 01.862.89c.125.158.246.332.363.523a1.68 1.68 0 00.168-.022 16.056 16.056 0 01.557-.086 22.567 22.567 0 001.246-.211c.169-.035.306-.066.412-.094l1.046-.275.24-.05c-.4-.907-.347-1.682.163-2.325a2.29 2.29 0 011.145-.78c.465-.144.97-.159 1.514-.044l-.025.126a2.461 2.461 0 00-1.366.078 2.35 2.35 0 00-1.057.765c-.479.604-.529 1.31-.15 2.118l.307-.07 1.084-.293a17.196 17.196 0 011.329-.315c.704-.129 1.32-.22 1.847-.274a11.535 11.535 0 011.686-.039c.257.013.506.031.746.055s.486.047.735.07c.278.029.503.06.677.095.173.035.406.089.699.163-.213-.934-.804-1.792-1.773-2.573a10.884 10.884 0 00-2.283-1.391zM7.404 12.459a11 11 0 00-1.153-.65 5.71 5.71 0 00-.42.878 4.019 4.019 0 00-.211.9 2.883 2.883 0 00-.048.63c.01.178.035.43.078.756.4.064.71.106.927.127.217.021.467.033.75.034.348.005.703 0 1.067-.016a14.21 14.21 0 001.364-.14l.31-.042a8.013 8.013 0 00-.673-.86 7.935 7.935 0 00-.871-.799 13.488 13.488 0 00-1.12-.818zm1.167 3.179c-.284-.01-.56-.026-.828-.047a12.664 12.664 0 01-1.73-.252l-.24-.047c.167.653.394 1.217.68 1.69.284.473.657.895 1.115 1.265.582.469 1.13.705 1.647.707.516.003.95-.218 1.303-.663.267-.337.401-.743.403-1.22.002-.477-.125-.956-.379-1.437-.245.014-.434.02-.566.018-.133 0-.29-.002-.473-.004-.337.004-.648 0-.932-.01zm11.606-1.988l-.785.12-.7.141a18.13 18.13 0 00-1.355.332c-.259.074-.574.165-.943.273-.194.054-.364.1-.51.136-.145.037-.278.072-.397.106l-.356.101a16.12 16.12 0 01-.43.116c.188.248.345.445.474.589.128.143.279.285.452.425 1.133.913 2.388 1.269 3.768 1.068.322-.048.645-.128.968-.24a5.99 5.99 0 001.78-.997c.26-.212.485-.437.673-.674.196-.248.326-.459.39-.635.064-.175.099-.414.105-.717a7.836 7.836 0 00-1.216-.19 8.383 8.383 0 00-1.918.046z" fill="#F6D4BA" fill-opacity=".9"/><path d="M17.026 11.052a.349.349 0 01-.357.357.38.38 0 01-.37-.37.347.347 0 01.356-.357c.2.004.367.17.37.37z" fill="#69DBEF"/></svg>