<svg width="27" height="22" fill="none" xmlns="http://www.w3.org/2000/svg"><path d="M22.524 2.58A21.177 21.177 0 0017.16.895c-.23.417-.5.98-.687 1.426-2-.3-3.981-.3-5.944 0A15.263 15.263 0 009.833.895c-1.883.325-3.685.9-5.368 1.69C1.071 7.714.15 12.716.61 17.647c2.252 1.681 4.434 2.703 6.58 3.371a16.367 16.367 0 001.408-2.32 13.856 13.856 0 01-2.219-1.08 11 11 0 00.544-.43c4.278 2 8.927 2 13.154 0 .177.148.36.292.544.43-.704.424-1.448.787-2.223 1.082.407.814.877 1.591 1.409 2.32 2.147-.668 4.331-1.69 6.583-3.373.54-5.717-.923-10.673-3.866-15.068zM9.181 14.615c-1.284 0-2.337-1.199-2.337-2.659 0-1.46 1.03-2.66 2.337-2.66 1.307 0 2.36 1.198 2.337 2.66.002 1.46-1.03 2.66-2.337 2.66zm8.638 0c-1.284 0-2.337-1.199-2.337-2.659 0-1.46 1.03-2.66 2.337-2.66 1.307 0 2.36 1.198 2.337 2.66 0 1.46-1.03 2.66-2.337 2.66z" fill="#fff"/></svg>