<svg width="53" height="52" viewBox="0 0 53 52" fill="none" xmlns="http://www.w3.org/2000/svg">
<path d="M42.9231 19.0769H30.9231V7.07692H11.0769V44.9231H42.9231V19.0769ZM42.6923 17.2308L33 8.31892V17L42.6923 17.2308ZM10.5 5H33L45 17V45.5C45 45.8978 44.842 46.2794 44.5607 46.5607C44.2794 46.842 43.8978 47 43.5 47H10.5C10.1022 47 9.72064 46.842 9.43934 46.5607C9.15804 46.2794 9 45.8978 9 45.5V6.5C9 6.10218 9.15804 5.72064 9.43934 5.43934C9.72064 5.15804 10.1022 5 10.5 5Z" fill="#323232"/>
<path d="M34.4615 26.9231H18.5385C17.9649 26.9231 17.5 27.3881 17.5 27.9616C17.5 28.5351 17.9649 29 18.5385 29H34.4615C35.0351 29 35.5 28.5351 35.5 27.9616C35.5 27.3881 35.0351 26.9231 34.4615 26.9231Z" fill="#00AB54"/>
<path d="M23.9615 18.8462H18.5385C17.9649 18.8462 17.5 19.3111 17.5 19.8847C17.5 20.4582 17.9649 20.9231 18.5385 20.9231H23.9615C24.5351 20.9231 25 20.4582 25 19.8847C25 19.3111 24.5351 18.8462 23.9615 18.8462Z" fill="#00AB54"/>
<path d="M34.4615 35H18.5385C17.9649 35 17.5 35.465 17.5 36.0385C17.5 36.612 17.9649 37.077 18.5385 37.077H34.4615C35.0351 37.077 35.5 36.612 35.5 36.0385C35.5 35.465 35.0351 35 34.4615 35Z" fill="#00AB54"/>
</svg>
