<svg width="615" height="671" viewBox="0 0 615 671" fill="none" xmlns="http://www.w3.org/2000/svg">
<rect x="7.5" y="66.5" width="597" height="537" rx="15.5" stroke="url(#paint0_linear_298_4390)" stroke-dasharray="500 250"/>
<path d="M305.32 76.0016C305.819 76.5302 306.393 77.2652 307.039 78.2062L306.637 78.3092C306.199 77.6343 305.739 77.0503 305.259 76.556C304.779 76.062 304.181 75.5708 303.466 75.0837C301.66 73.8547 299.679 73.0067 297.52 72.5396C297.865 74.6131 297.26 76.4784 295.704 78.135C294.484 79.435 292.939 80.4189 291.067 81.0876C289.196 81.7565 287.192 82.1066 285.058 82.1356C282.923 82.1658 280.761 81.8738 278.572 81.2599C276.381 80.6456 274.372 79.716 272.546 78.4731C271.74 77.9242 271.109 77.4334 270.653 76.9993C270.197 76.5651 269.744 76.0467 269.295 75.4449C268.752 75.5374 268.324 75.6139 268.012 75.675C267.702 75.7366 267.219 75.8174 266.565 75.9177C265.831 76.0479 265.175 76.1481 264.6 76.2185C264.023 76.2884 263.482 76.3493 262.973 76.4025C262.464 76.4556 261.961 76.5017 261.465 76.5418C260.968 76.582 260.431 76.6362 259.857 76.7059L258.744 76.831L258.118 76.8464C259.101 78.7343 259.612 80.322 259.654 81.6105C259.694 82.8988 259.27 84.0179 258.379 84.966C257.273 86.1452 255.765 86.651 253.855 86.4843C251.946 86.3172 249.918 85.5026 247.77 84.0404C246.836 83.4044 246.035 82.7219 245.365 81.9955C244.697 81.2672 244.117 80.4852 243.628 79.6475C243.367 79.2187 243.104 78.724 242.839 78.1654C242.572 77.6064 242.26 76.8662 241.897 75.948C239.685 75.5335 237.617 74.9769 235.697 74.2789C233.776 73.5796 232.131 72.7639 230.762 71.8319C228.988 70.6238 227.869 69.4232 227.407 68.2312C226.945 67.039 227.168 65.9587 228.077 64.9899C229.082 63.919 230.815 63.4689 233.276 63.6406C235.737 63.8123 238.856 64.5166 242.637 65.7531L243.515 66.038C243.818 65.6595 244.055 65.3812 244.222 65.2029C244.413 64.999 244.592 64.8078 244.761 64.6291C246.531 62.7429 248.626 61.2552 251.048 60.1671C253.469 59.0795 256.48 58.2989 260.081 57.826C262.865 57.4648 265.485 57.3172 267.944 57.3824C270.403 57.4484 272.966 57.7419 275.633 58.2628C281.657 59.4403 286.703 61.4134 290.773 64.1845C292.605 65.433 294.087 66.7029 295.217 67.994C296.346 69.2858 297.059 70.5334 297.355 71.7372C299.738 72.4 301.785 73.3129 303.498 74.4786C304.213 74.9664 304.82 75.474 305.32 76.0016ZM228.418 68.4181C228.859 69.3875 229.828 70.3812 231.322 71.3985C232.629 72.2883 234.062 73.0036 235.622 73.5433C237.181 74.0826 239.207 74.5743 241.699 75.0176C241.344 73.4386 241.282 71.9553 241.514 70.5668C241.746 69.1793 242.276 67.8262 243.103 66.5092C241.643 65.8911 240.169 65.4097 238.681 65.0656C237.193 64.7209 235.798 64.5227 234.495 64.4709C233.191 64.4192 232.035 64.5096 231.027 64.7412C230.017 64.9737 229.274 65.3453 228.796 65.8555C228.102 66.595 227.976 67.4493 228.418 68.4181ZM283.94 61.318C281.287 60.2849 278.47 59.4836 275.484 58.913C272.875 58.4324 270.378 58.1839 267.995 58.1694C265.61 58.1548 263.085 58.346 260.416 58.7437C256.96 59.2723 254.046 60.0681 251.675 61.1272C249.303 62.1862 247.292 63.5956 245.641 65.3547C245.449 65.5583 245.297 65.747 245.185 65.9218C245.073 66.0959 244.9 66.3335 244.669 66.6357C245.98 67.1945 247.08 67.735 247.969 68.2555C248.857 68.7771 249.877 69.43 251.028 70.2138C251.744 70.7015 252.369 71.1369 252.901 71.5198C253.433 71.9035 253.91 72.2805 254.329 72.6495C254.748 73.0186 255.149 73.4057 255.532 73.8133C255.914 74.2207 256.283 74.6694 256.638 75.1616C256.858 75.1445 257.029 75.1251 257.152 75.1043C257.273 75.083 257.389 75.0681 257.5 75.0591C257.854 75.0081 258.304 74.9482 258.851 74.883C259.398 74.816 260.053 74.7298 260.817 74.6231C261.525 74.5209 262.138 74.4251 262.654 74.3381C263.168 74.2502 263.588 74.1698 263.912 74.0975L267.103 73.3877L267.835 73.2601C266.612 70.9219 266.777 68.9255 268.332 67.2682C269.241 66.2991 270.405 65.6299 271.825 65.2587C273.244 64.888 274.784 64.8503 276.445 65.1456L276.37 65.4706C274.881 65.2087 273.492 65.2764 272.202 65.6718C270.911 66.0685 269.836 66.7253 268.975 67.6428C267.515 69.1978 267.363 71.0172 268.521 73.0999L269.454 72.9204L272.765 72.1662C273.355 72.0262 273.982 71.8885 274.644 71.7537C275.305 71.6191 276.029 71.486 276.817 71.3538C278.966 71.0208 280.845 70.7849 282.454 70.6479C284.062 70.5106 285.777 70.4765 287.598 70.5472C288.383 70.58 289.142 70.6269 289.877 70.6877C290.61 70.7488 291.357 70.8089 292.119 70.8675C292.966 70.9428 293.654 71.0253 294.183 71.1135C294.712 71.2024 295.423 71.3417 296.317 71.5321C295.666 69.1257 293.863 66.9152 290.907 64.902C288.915 63.5458 286.592 62.3512 283.94 61.318ZM247.802 68.8001C246.707 68.2002 245.534 67.6421 244.285 67.1259C243.739 67.9241 243.312 68.6784 243.004 69.387C242.695 70.096 242.479 70.8701 242.358 71.7061C242.231 72.3305 242.183 72.8712 242.212 73.3298C242.241 73.7878 242.32 74.4376 242.449 75.2776C243.672 75.4423 244.615 75.5514 245.279 75.606C245.941 75.6604 246.705 75.6897 247.57 75.6932C248.629 75.7044 249.714 75.6905 250.822 75.6518C251.931 75.6122 253.318 75.492 254.987 75.2906L255.931 75.1818C255.244 74.3372 254.558 73.5996 253.877 72.9678C253.193 72.3362 252.308 71.6492 251.219 70.9075C250.036 70.1021 248.897 69.3998 247.802 68.8001ZM251.363 76.9909C250.496 76.9641 249.653 76.9239 248.837 76.8696C248.021 76.815 247.186 76.7387 246.337 76.6399C245.485 76.5407 244.558 76.4002 243.556 76.2193L242.826 76.0987C243.337 77.7838 244.027 79.2353 244.898 80.4552C245.769 81.6745 246.904 82.7611 248.304 83.7151C250.079 84.9231 251.753 85.5305 253.328 85.5372C254.903 85.5436 256.229 84.9744 257.305 83.827C258.119 82.9606 258.528 81.9126 258.534 80.6836C258.54 79.4549 258.154 78.221 257.378 76.9823C256.631 77.0168 256.055 77.0319 255.652 77.0283C255.246 77.0249 254.766 77.0208 254.208 77.0171C253.178 77.0263 252.23 77.0176 251.363 76.9909ZM286.779 71.869C286.054 71.9608 285.255 72.0648 284.383 72.1797C283.594 72.3124 282.882 72.4337 282.244 72.5419C281.606 72.6508 280.956 72.773 280.296 72.907C279.632 73.0415 278.906 73.2046 278.114 73.3961C277.322 73.5883 276.362 73.8225 275.235 74.0993C274.644 74.2405 274.125 74.3566 273.68 74.4513C273.235 74.5452 272.831 74.6355 272.469 74.7229C272.106 74.8108 271.744 74.8977 271.381 74.9846C271.019 75.0727 270.581 75.1717 270.069 75.2822C270.641 75.9221 271.123 76.4293 271.515 76.7997C271.906 77.1701 272.366 77.5361 272.896 77.8963C276.35 80.2492 280.182 81.166 284.393 80.6487C285.376 80.5246 286.36 80.3176 287.348 80.0285C288.333 79.7382 289.287 79.3742 290.208 78.9365C291.129 78.4982 291.987 78.0053 292.78 77.4598C293.573 76.9134 294.257 76.3346 294.831 75.7227C295.43 75.0857 295.826 74.5406 296.021 74.0885C296.216 73.6358 296.322 73.0196 296.342 72.2384C295.276 72.0136 294.038 71.8511 292.631 71.749C291.221 71.6461 289.896 71.6318 288.654 71.7051C288.127 71.7223 287.502 71.7768 286.779 71.869Z" fill="#F6D4BA" fill-opacity="0.9"/>
<path d="M309.869 74.5781C311.529 73.467 313.537 72.6187 315.892 72.0334C316.133 70.838 316.791 69.6124 317.862 68.356C318.935 67.0998 320.359 65.8762 322.136 64.6869C326.084 62.0449 331.045 60.233 337.019 59.2491C339.666 58.8139 342.217 58.6029 344.675 58.6168C347.133 58.6303 349.762 58.8626 352.563 59.3139C356.189 59.9039 359.238 60.7816 361.71 61.9481C364.182 63.1156 366.346 64.6715 368.203 66.6168C368.379 66.801 368.568 66.9982 368.768 67.2081C368.944 67.3921 369.192 67.6782 369.513 68.0659L370.379 67.8097C374.106 66.6948 377.196 66.0901 379.651 65.9979C382.105 65.9053 383.861 66.4114 384.915 67.5157C385.868 68.5145 386.141 69.6027 385.732 70.7807C385.324 71.9595 384.258 73.1248 382.538 74.2761C381.209 75.165 379.6 75.9279 377.71 76.5654C375.82 77.202 373.777 77.6926 371.58 78.0354C371.26 78.9438 370.98 79.6732 370.739 80.2248C370.498 80.7754 370.258 81.2616 370.016 81.6828C369.565 82.5048 369.02 83.2681 368.384 83.9763C367.746 84.6813 366.976 85.3384 366.07 85.9444C363.987 87.3392 361.993 88.0879 360.091 88.1936C358.187 88.2995 356.655 87.7442 355.494 86.5284C354.561 85.5508 354.085 84.4179 354.067 83.1296C354.05 81.8418 354.491 80.2692 355.388 78.4115L354.761 78.3763L353.643 78.2152C353.064 78.1269 352.524 78.0549 352.025 77.999C351.527 77.9428 351.022 77.8803 350.511 77.811C349.999 77.7414 349.453 77.6624 348.874 77.5739C348.296 77.485 347.633 77.364 346.893 77.2095C346.234 77.088 345.748 76.9915 345.434 76.9202C345.119 76.8487 344.688 76.7583 344.14 76.6484C343.718 77.2359 343.288 77.7406 342.852 78.1607C342.415 78.5795 341.805 79.0501 341.024 79.5736C339.253 80.7591 337.284 81.6245 335.12 82.1684C332.956 82.7123 330.806 82.935 328.669 82.8359C326.531 82.738 324.51 82.3233 322.608 81.5929C320.705 80.8637 319.113 79.8286 317.834 78.4882C316.202 76.7802 315.511 74.8943 315.763 72.8299C313.624 73.228 311.679 74.0126 309.928 75.1846C309.234 75.6487 308.659 76.1212 308.199 76.5998C307.743 77.0793 307.309 77.6492 306.901 78.3093L306.493 78.1943C307.098 77.2729 307.638 76.5559 308.114 76.044C308.589 75.5317 309.175 75.0431 309.869 74.5781ZM384.234 68.3579C383.733 67.8331 382.973 67.4369 381.952 67.1722C380.932 66.9076 379.772 66.7797 378.469 66.7891C377.168 66.7989 375.78 66.9521 374.307 67.2491C372.834 67.5453 371.38 67.9798 369.947 68.552C370.835 69.896 371.426 71.267 371.72 72.6632C372.015 74.0601 372.02 75.543 371.736 77.1112C374.21 76.7478 376.215 76.3218 377.751 75.832C379.288 75.3424 380.69 74.6726 381.958 73.8244C383.407 72.8544 384.331 71.8913 384.729 70.9358C385.127 69.9799 384.963 69.121 384.234 68.3579ZM322.036 65.4008C319.168 67.3202 317.463 69.4739 316.923 71.8611C317.807 71.6996 318.512 71.5826 319.037 71.5105C319.564 71.4398 320.248 71.3788 321.092 71.3308C321.852 71.2971 322.597 71.2612 323.328 71.2239C324.06 71.1862 324.818 71.1639 325.601 71.1564C327.422 71.1447 329.14 71.2341 330.755 71.4232C332.37 71.612 334.262 71.9087 336.427 72.3116C337.222 72.4693 337.952 72.6261 338.621 72.7825C339.29 72.9384 339.923 73.0961 340.52 73.2558L343.866 74.1172L344.809 74.3267C345.872 72.2796 345.639 70.4545 344.108 68.8506C343.204 67.9044 342.099 67.2132 340.789 66.7747C339.48 66.3367 338.087 66.2245 336.609 66.4386L336.519 66.1106C338.168 65.8693 339.711 65.9568 341.148 66.373C342.585 66.7901 343.78 67.4981 344.733 68.4966C346.366 70.2056 346.621 72.2092 345.502 74.5088L346.241 74.6605L349.466 75.4742C349.794 75.5576 350.217 75.6505 350.736 75.7546C351.257 75.8588 351.874 75.9746 352.588 76.0996C353.356 76.231 354.016 76.3384 354.566 76.423C355.116 76.5071 355.569 76.5808 355.926 76.6429C356.038 76.6554 356.155 76.6742 356.277 76.6993C356.401 76.7242 356.573 76.7498 356.793 76.7736C357.126 76.2926 357.475 75.8553 357.839 75.4594C358.204 75.0648 358.587 74.6895 358.99 74.3336C359.394 73.9781 359.854 73.6166 360.369 73.2502C360.884 72.8833 361.489 72.4676 362.183 72.0026C363.3 71.2553 364.291 70.635 365.156 70.1415C366.022 69.6496 367.098 69.1441 368.385 68.6276C368.14 68.3182 367.957 68.0741 367.836 67.8962C367.716 67.7182 367.556 67.5242 367.355 67.314C365.623 65.5005 363.547 64.0255 361.126 62.889C358.704 61.7525 355.753 60.8632 352.269 60.2212C349.582 59.7379 347.045 59.4643 344.66 59.4028C342.275 59.3398 339.787 59.5079 337.198 59.9051C334.237 60.3794 331.454 61.0907 328.845 62.0388C326.238 62.9872 323.968 64.1079 322.036 65.4008ZM362.024 72.6911C360.968 73.3982 360.112 74.0573 359.458 74.6677C358.803 75.2771 358.152 75.993 357.502 76.8163L358.451 76.9558C360.132 77.2115 361.525 77.3765 362.635 77.451C363.746 77.5261 364.833 77.5755 365.893 77.5981C366.759 77.6217 367.521 77.6175 368.182 77.5849C368.843 77.5516 369.781 77.4729 370.998 77.3472C371.089 76.5106 371.139 75.8634 371.148 75.4057C371.156 74.948 371.083 74.4049 370.927 73.7756C370.769 72.9351 370.517 72.1546 370.176 71.4355C369.836 70.7156 369.375 69.9469 368.793 69.1306C367.566 69.607 366.418 70.128 365.348 70.6922C364.28 71.2567 363.172 71.9229 362.024 72.6911ZM359.309 78.7091C358.751 78.6943 358.271 78.6826 357.865 78.6731C357.461 78.6644 356.885 78.6301 356.136 78.5714C355.415 79.7862 355.085 81.0089 355.146 82.2382C355.207 83.4687 355.664 84.5299 356.518 85.4242C357.647 86.6064 359 87.2192 360.575 87.2632C362.152 87.3076 363.8 86.7538 365.52 85.6016C366.878 84.6926 367.965 83.6419 368.782 82.4496C369.598 81.257 370.224 79.8263 370.658 78.1568L369.933 78.2536C368.938 78.4029 368.017 78.5132 367.169 78.5845C366.323 78.6569 365.492 78.7058 364.677 78.7344C363.863 78.7624 363.022 78.7754 362.155 78.7748C361.289 78.7732 360.34 78.7516 359.309 78.7091ZM324.597 72.2812C323.351 72.1678 322.026 72.1394 320.62 72.1967C319.216 72.2535 317.985 72.3771 316.929 72.5665C316.984 73.3492 317.118 73.9696 317.333 74.4289C317.55 74.8882 317.971 75.4456 318.598 76.1026C319.2 76.7332 319.911 77.3349 320.729 77.9075C321.548 78.4796 322.428 78.999 323.37 79.4674C324.312 79.9358 325.283 80.3308 326.282 80.6525C327.283 80.9745 328.278 81.2138 329.267 81.3691C333.503 82.0225 337.297 81.2285 340.648 78.9857C341.161 78.6424 341.605 78.2908 341.98 77.9325C342.356 77.5745 342.815 77.0835 343.358 76.4603C342.841 76.3333 342.399 76.2205 342.031 76.1203C341.665 76.0218 341.298 75.9231 340.931 75.8237C340.565 75.7241 340.157 75.621 339.706 75.5127C339.257 75.4042 338.733 75.2708 338.135 75.1099C336.995 74.7975 336.024 74.5315 335.222 74.3137C334.421 74.0967 333.687 73.9101 333.017 73.7537C332.349 73.5983 331.694 73.4561 331.05 73.3259C330.407 73.197 329.689 73.0525 328.894 72.8947C328.015 72.7512 327.211 72.621 326.482 72.506C325.753 72.3901 325.125 72.3155 324.597 72.2812Z" fill="#F6D4BA" fill-opacity="0.9"/>
<path d="M301.664 66.3714C302.258 66.4371 302.855 66.4252 303.456 66.3336C304.516 66.173 305.244 65.7421 305.643 65.0424C306.041 64.3417 306.084 63.3837 305.773 62.1667C305.565 61.355 305.225 60.5294 304.753 59.6872C304.281 58.8459 303.698 58.0408 303.006 57.272C302.677 56.9161 302.299 56.5481 301.871 56.1682C301.443 55.7883 300.979 55.4102 300.479 55.0333C299.98 54.6558 299.459 54.2865 298.917 53.9239C298.374 53.5617 297.824 53.2198 297.265 52.899C296.232 52.3061 295.175 51.779 294.095 51.3186C293.014 50.8589 291.939 50.475 290.87 50.169C289.859 49.8697 288.944 49.6851 288.128 49.6136C287.312 49.5419 286.524 49.5639 285.765 49.6791C283.399 50.0379 282.512 51.3741 283.105 53.6874C283.212 54.1083 283.37 54.5292 283.579 54.95C283.788 55.3713 284.076 55.8344 284.444 56.3406C284.662 56.6198 284.879 56.8912 285.093 57.1555C285.307 57.4189 285.531 57.6822 285.763 57.9433C286.063 58.2566 286.358 58.5478 286.647 58.8157C286.935 59.0845 287.244 59.3574 287.571 59.6355C287.9 59.9136 288.266 60.1977 288.671 60.4873C289.075 60.7775 289.531 61.0946 290.042 61.4383C290.509 61.7573 290.922 62.0307 291.283 62.2568C291.644 62.4833 291.998 62.6868 292.348 62.8676C292.696 63.0492 293.061 63.2198 293.442 63.3808C293.822 63.5416 294.268 63.7238 294.779 63.9274C295.249 64.1211 295.677 64.2824 296.058 64.4124C296.439 64.5413 296.779 64.6461 297.074 64.7267C297.822 64.9251 298.565 65.0538 299.305 65.1137C300.045 65.1729 300.697 65.1601 301.263 65.0747C302.834 64.8364 303.442 64.0255 303.089 62.6443C302.97 62.1782 302.732 61.683 302.378 61.1596C302.024 60.6358 301.575 60.1028 301.034 59.5608C300.492 59.0191 299.874 58.4881 299.182 57.9686C298.489 57.4499 297.738 56.9702 296.929 56.5308C296.262 56.1487 295.594 55.8126 294.924 55.5243C294.254 55.2354 293.616 55.0007 293.01 54.8196C292.404 54.6382 291.84 54.513 291.319 54.4436C290.795 54.3744 290.35 54.3687 289.979 54.4249C289.008 54.5718 288.642 55.1112 288.88 56.0423C288.984 56.4483 289.261 56.8862 289.712 57.3564C290.162 57.8261 290.771 58.3075 291.539 58.8C292.372 59.3293 293.168 59.7156 293.927 59.9592C294.687 60.2031 295.367 60.2799 295.967 60.1885C296.055 60.1753 296.209 60.1284 296.426 60.0486L296.504 60.2477C296.35 60.2865 296.219 60.3146 296.113 60.33C296.025 60.3435 295.928 60.3583 295.822 60.3746C295.24 60.463 294.59 60.417 293.875 60.2369C293.159 60.056 292.425 59.7507 291.672 59.318C291.286 59.0962 290.923 58.8466 290.586 58.5699C290.25 58.2932 289.947 58.0072 289.679 57.7122C289.411 57.417 289.183 57.1203 288.997 56.821C288.81 56.5217 288.68 56.229 288.607 55.9438C288.453 55.3426 288.519 54.8484 288.805 54.462C289.092 54.0751 289.588 53.8286 290.294 53.7211C290.912 53.6279 291.629 53.6701 292.446 53.8494C293.262 54.0291 294.138 54.3356 295.075 54.7695C296.075 55.2395 297.043 55.7929 297.976 56.4294C298.909 57.0658 299.751 57.7386 300.501 58.449C301.252 59.1598 301.89 59.8795 302.416 60.6084C302.942 61.3376 303.288 62.0239 303.452 62.6675C303.648 63.4312 303.51 64.0741 303.039 64.5968C302.567 65.1191 301.793 65.4624 300.716 65.6254C299.586 65.7973 298.302 65.6917 296.866 65.3105C295.429 64.9285 293.887 64.2791 292.24 63.3607C291.083 62.711 289.975 61.9838 288.916 61.1792C287.857 60.3744 286.906 59.5413 286.062 58.6809C285.217 57.8201 284.513 56.9654 283.947 56.1173C283.382 55.2685 283.002 54.4709 282.81 53.7212C282.715 53.3466 282.654 52.9859 282.63 52.6385C282.606 52.2923 282.61 51.9685 282.643 51.6683C282.712 50.8627 283.093 50.1673 283.786 49.5792C284.479 48.9917 285.373 48.6149 286.468 48.4488C287.315 48.3207 288.287 48.3522 289.381 48.5451C290.476 48.7374 291.623 49.0627 292.823 49.5198C294.021 49.9771 295.227 50.5464 296.438 51.228C297.648 51.91 298.796 52.6824 299.879 53.5479C300.732 54.2288 301.515 54.9241 302.229 55.6349C302.943 56.3455 303.543 57.0372 304.027 57.7125C304.511 58.3875 304.936 59.1138 305.301 59.8927C305.665 60.6714 305.94 61.421 306.124 62.1414C306.462 63.4619 306.417 64.5213 305.989 65.3187C305.56 66.1166 304.789 66.5996 303.677 66.7685C302.388 66.9641 301.133 66.7561 299.913 66.1454L300.026 65.9408C300.523 66.1614 301.069 66.3057 301.664 66.3714Z" fill="#F6D4BA" fill-opacity="0.9"/>
<path d="M312.748 66.1597L312.869 66.3671C311.677 66.9395 310.43 67.1072 309.131 66.8695C308.01 66.6649 307.218 66.1564 306.753 65.3447C306.287 64.5323 306.195 63.4712 306.473 62.1598C306.625 61.4457 306.866 60.7044 307.196 59.9368C307.525 59.1688 307.917 58.4552 308.371 57.7955C308.826 57.1362 309.394 56.4628 310.077 55.7747C310.759 55.0866 311.511 54.4158 312.335 53.7617C313.379 52.9312 314.491 52.1948 315.673 51.5518C316.854 50.9083 318.034 50.3776 319.214 49.9588C320.393 49.5395 321.526 49.2513 322.613 49.0947C323.7 48.937 324.67 48.9362 325.525 49.0922C326.628 49.2937 327.539 49.6994 328.259 50.3095C328.98 50.92 329.393 51.6289 329.497 52.4374C329.545 52.7389 329.563 53.0628 329.555 53.4089C329.545 53.7549 329.502 54.1145 329.422 54.4862C329.265 55.2297 328.921 56.0164 328.394 56.847C327.866 57.6783 327.2 58.5101 326.393 59.3446C325.589 60.1788 324.674 60.9823 323.65 61.7523C322.627 62.5236 321.551 63.2158 320.422 63.8281C318.816 64.6942 317.302 65.2946 315.881 65.63C314.461 65.9653 313.182 66.0294 312.043 65.8218C310.958 65.6233 310.168 65.2551 309.672 64.7174C309.176 64.1786 309.01 63.5308 309.171 62.7734C309.306 62.1341 309.621 61.4581 310.114 60.7464C310.608 60.0334 311.214 59.334 311.933 58.6464C312.651 57.9597 313.464 57.3133 314.369 56.7074C315.274 56.1004 316.217 55.5779 317.197 55.1397C318.115 54.7357 318.977 54.4575 319.787 54.3037C320.595 54.1504 321.311 54.1312 321.934 54.2454C322.646 54.3746 323.153 54.6378 323.457 55.034C323.761 55.4308 323.849 55.9265 323.722 56.5231C323.662 56.8063 323.545 57.095 323.373 57.3891C323.199 57.6822 322.985 57.9716 322.73 58.2584C322.475 58.5453 322.185 58.822 321.861 59.0873C321.536 59.3535 321.185 59.5914 320.807 59.8008C320.074 60.2092 319.353 60.4922 318.644 60.6495C317.938 60.8064 317.289 60.8315 316.703 60.7243C316.596 60.7051 316.498 60.6873 316.409 60.6708C316.302 60.6519 316.17 60.6192 316.013 60.5757L316.082 60.3789C316.304 60.4658 316.46 60.518 316.549 60.5339C317.154 60.6443 317.831 60.5894 318.58 60.3703C319.33 60.1508 320.108 59.7898 320.918 59.2872C321.663 58.8188 322.252 58.3572 322.681 57.9015C323.111 57.4456 323.368 57.0161 323.453 56.6134C323.65 55.6889 323.26 55.1376 322.281 54.9588C321.907 54.8908 321.461 54.8821 320.941 54.9346C320.423 54.987 319.864 55.0944 319.265 55.2561C318.667 55.4177 318.04 55.6324 317.382 55.8999C316.725 56.1667 316.071 56.4814 315.422 56.8428C314.631 57.2556 313.901 57.7112 313.232 58.2085C312.563 58.7057 311.969 59.2173 311.45 59.7421C310.933 60.2665 310.508 60.786 310.177 61.2991C309.847 61.8114 309.631 62.2987 309.533 62.761C309.242 64.1324 309.887 64.9633 311.471 65.2528C312.04 65.3561 312.694 65.3903 313.431 65.3547C314.168 65.3186 314.907 65.2141 315.647 65.0392C315.939 64.9681 316.273 64.875 316.65 64.7577C317.025 64.6401 317.445 64.492 317.907 64.3132C318.41 64.1268 318.847 63.9583 319.22 63.81C319.594 63.6608 319.951 63.5021 320.293 63.3317C320.634 63.162 320.979 62.9699 321.331 62.7544C321.681 62.5394 322.083 62.28 322.536 61.9757C323.03 61.6477 323.474 61.3455 323.865 61.0677C324.256 60.7912 324.61 60.5189 324.926 60.2515C325.242 59.9836 325.537 59.7202 325.814 59.461C326.091 59.2013 326.373 58.9195 326.659 58.6162C326.88 58.3619 327.091 58.1069 327.294 57.8494C327.497 57.5923 327.701 57.327 327.906 57.0551C328.252 56.5601 328.52 56.106 328.709 55.6913C328.899 55.2767 329.038 54.8604 329.126 54.4434C329.615 52.1469 328.667 50.7813 326.284 50.3462C325.518 50.2066 324.729 50.1586 323.915 50.2041C323.102 50.2488 322.196 50.4048 321.196 50.6712C320.141 50.9434 319.082 51.2917 318.022 51.7184C316.961 52.1439 315.928 52.6367 314.921 53.1963C314.377 53.4999 313.841 53.8244 313.314 54.1695C312.789 54.5152 312.283 54.8679 311.8 55.2289C311.317 55.5899 310.87 55.9539 310.46 56.3204C310.048 56.6864 309.686 57.0419 309.373 57.3881C308.715 58.135 308.169 58.9222 307.734 59.7492C307.3 60.5759 306.997 61.3918 306.826 62.1971C306.569 63.4052 306.656 64.3647 307.086 65.079C307.517 65.7928 308.266 66.2474 309.333 66.4418C309.938 66.5522 310.536 66.5843 311.128 66.5377C311.721 66.4909 312.26 66.3647 312.748 66.1597Z" fill="#F6D4BA" fill-opacity="0.9"/>
<path d="M277.162 65.1745C277.174 65.6914 276.687 66.1032 276.074 66.0932C275.462 66.0834 274.956 65.656 274.944 65.1385C274.933 64.6219 275.42 64.2105 276.031 64.2204C276.644 64.2302 277.15 64.6579 277.162 65.1745Z" fill="#69DBEF"/>
<path d="M297.356 60.1181C297.364 60.4794 297.024 60.7677 296.595 60.761C296.166 60.7536 295.812 60.4549 295.805 60.0926C295.796 59.7308 296.137 59.4432 296.565 59.4503C296.994 59.4573 297.348 59.756 297.356 60.1181Z" fill="#69DBEF"/>
<path d="M316.774 60.5605C316.782 60.922 316.442 61.2103 316.013 61.2032C315.584 61.196 315.231 60.8971 315.222 60.5353C315.214 60.1739 315.555 59.8861 315.984 59.8929C316.412 59.8999 316.766 60.1983 316.774 60.5605Z" fill="#69DBEF"/>
<path d="M337.713 66.4578C337.725 66.9742 337.238 67.386 336.626 67.3758C336.013 67.366 335.507 66.9386 335.495 66.4217C335.484 65.9048 335.971 65.4934 336.583 65.5034C337.195 65.5133 337.701 65.9405 337.713 66.4578Z" fill="#69DBEF"/>
<path d="M305.143 609.743C305.643 610.271 306.216 611.006 306.862 611.947L306.46 612.05C306.022 611.376 305.562 610.792 305.083 610.297C304.602 609.803 304.004 609.312 303.289 608.825C301.483 607.596 299.502 606.748 297.343 606.281C297.688 608.354 297.083 610.22 295.528 611.876C294.308 613.176 292.762 614.16 290.89 614.829C289.019 615.498 287.015 615.848 284.882 615.877C282.746 615.907 280.585 615.615 278.395 615.001C276.204 614.387 274.195 613.457 272.369 612.214C271.563 611.665 270.933 611.175 270.476 610.741C270.02 610.306 269.567 609.788 269.118 609.186C268.575 609.279 268.147 609.355 267.836 609.416C267.525 609.478 267.042 609.559 266.388 609.659C265.654 609.789 264.998 609.889 264.423 609.96C263.846 610.03 263.305 610.091 262.796 610.144C262.287 610.197 261.785 610.243 261.288 610.283C260.791 610.323 260.255 610.377 259.68 610.447L258.568 610.572L257.941 610.588C258.924 612.476 259.436 614.063 259.477 615.352C259.517 616.64 259.093 617.759 258.203 618.707C257.096 619.886 255.589 620.392 253.679 620.226C251.77 620.058 249.741 619.244 247.593 617.782C246.659 617.146 245.858 616.463 245.189 615.737C244.52 615.009 243.94 614.226 243.451 613.389C243.19 612.96 242.928 612.465 242.662 611.907C242.395 611.348 242.083 610.607 241.721 609.689C239.508 609.275 237.44 608.718 235.52 608.02C233.599 607.321 231.954 606.505 230.585 605.573C228.811 604.365 227.692 603.164 227.23 601.972C226.768 600.78 226.992 599.7 227.901 598.731C228.906 597.66 230.638 597.21 233.1 597.382C235.56 597.554 238.68 598.258 242.46 599.494L243.338 599.779C243.641 599.401 243.878 599.122 244.046 598.944C244.236 598.74 244.415 598.549 244.584 598.37C246.354 596.484 248.45 594.997 250.871 593.908C253.292 592.821 256.303 592.04 259.905 591.567C262.688 591.206 265.308 591.058 267.767 591.124C270.226 591.19 272.789 591.483 275.457 592.004C281.48 593.182 286.526 595.155 290.597 597.926C292.428 599.174 293.91 600.444 295.041 601.735C296.169 603.027 296.883 604.275 297.179 605.478C299.561 606.141 301.608 607.054 303.321 608.22C304.036 608.708 304.644 609.215 305.143 609.743ZM228.241 602.159C228.683 603.129 229.651 604.122 231.145 605.14C232.453 606.03 233.886 606.745 235.445 607.285C237.005 607.824 239.031 608.316 241.523 608.759C241.168 607.18 241.105 605.697 241.338 604.308C241.569 602.921 242.099 601.567 242.926 600.25C241.466 599.632 239.992 599.151 238.504 598.807C237.016 598.462 235.621 598.264 234.318 598.212C233.014 598.16 231.858 598.251 230.85 598.482C229.84 598.715 229.098 599.087 228.62 599.597C227.925 600.336 227.799 601.191 228.241 602.159ZM283.764 595.059C281.11 594.026 278.293 593.225 275.307 592.654C272.698 592.174 270.202 591.925 267.818 591.911C265.434 591.896 262.908 592.087 260.239 592.485C256.783 593.014 253.869 593.809 251.498 594.868C249.126 595.927 247.115 597.337 245.464 599.096C245.273 599.3 245.121 599.488 245.009 599.663C244.896 599.837 244.724 600.075 244.492 600.377C245.803 600.936 246.903 601.476 247.792 601.997C248.68 602.518 249.7 603.171 250.851 603.955C251.567 604.443 252.192 604.878 252.724 605.261C253.256 605.645 253.733 606.022 254.152 606.391C254.571 606.76 254.972 607.147 255.355 607.555C255.737 607.962 256.107 608.411 256.462 608.903C256.681 608.886 256.852 608.866 256.975 608.846C257.096 608.824 257.212 608.809 257.323 608.8C257.677 608.749 258.128 608.69 258.675 608.624C259.222 608.557 259.876 608.471 260.64 608.364C261.348 608.262 261.961 608.166 262.477 608.079C262.992 607.991 263.411 607.911 263.735 607.839L266.926 607.129L267.659 607.001C266.435 604.663 266.6 602.667 268.155 601.009C269.065 600.04 270.228 599.371 271.648 599C273.067 598.629 274.607 598.592 276.268 598.887L276.193 599.212C274.704 598.95 273.315 599.018 272.025 599.413C270.735 599.81 269.659 600.467 268.798 601.384C267.338 602.939 267.187 604.759 268.344 606.841L269.278 606.662L272.588 605.907C273.178 605.767 273.805 605.63 274.467 605.495C275.128 605.36 275.852 605.227 276.641 605.095C278.79 604.762 280.668 604.526 282.278 604.389C283.885 604.252 285.6 604.218 287.421 604.288C288.206 604.321 288.966 604.368 289.7 604.429C290.434 604.49 291.181 604.55 291.942 604.609C292.789 604.684 293.477 604.767 294.006 604.855C294.536 604.944 295.246 605.083 296.14 605.273C295.489 602.867 293.686 600.656 290.73 598.643C288.738 597.287 286.416 596.093 283.764 595.059ZM247.625 602.541C246.53 601.941 245.357 601.383 244.108 600.867C243.562 601.665 243.135 602.42 242.827 603.128C242.518 603.837 242.303 604.611 242.181 605.447C242.055 606.072 242.006 606.612 242.035 607.071C242.064 607.529 242.143 608.179 242.272 609.019C243.495 609.184 244.438 609.293 245.102 609.347C245.764 609.402 246.528 609.431 247.393 609.434C248.453 609.446 249.537 609.432 250.646 609.393C251.754 609.354 253.141 609.233 254.81 609.032L255.754 608.923C255.067 608.078 254.382 607.341 253.7 606.709C253.017 606.077 252.131 605.39 251.042 604.649C249.859 603.843 248.72 603.141 247.625 602.541ZM251.186 610.732C250.319 610.705 249.476 610.665 248.66 610.611C247.844 610.556 247.01 610.48 246.16 610.381C245.308 610.282 244.381 610.141 243.379 609.961L242.65 609.84C243.16 611.525 243.85 612.977 244.722 614.196C245.592 615.416 246.728 616.502 248.128 617.456C249.902 618.664 251.576 619.272 253.151 619.278C254.726 619.285 256.052 618.716 257.128 617.568C257.942 616.702 258.352 615.654 258.357 614.425C258.363 613.196 257.977 611.962 257.202 610.724C256.454 610.758 255.878 610.773 255.475 610.77C255.069 610.766 254.589 610.762 254.031 610.758C253.001 610.768 252.053 610.759 251.186 610.732ZM286.602 605.61C285.877 605.702 285.079 605.806 284.206 605.921C283.418 606.054 282.705 606.175 282.067 606.283C281.429 606.392 280.78 606.514 280.119 606.648C279.456 606.783 278.729 606.946 277.937 607.137C277.145 607.33 276.185 607.564 275.058 607.841C274.467 607.982 273.949 608.098 273.504 608.193C273.058 608.286 272.654 608.377 272.292 608.464C271.929 608.552 271.567 608.639 271.205 608.726C270.842 608.814 270.404 608.913 269.893 609.023C270.464 609.663 270.946 610.171 271.338 610.541C271.729 610.911 272.19 611.277 272.719 611.638C276.174 613.99 280.006 614.907 284.217 614.39C285.199 614.266 286.183 614.059 287.171 613.77C288.156 613.48 289.11 613.116 290.031 612.678C290.953 612.239 291.81 611.747 292.603 611.201C293.396 610.655 294.08 610.076 294.654 609.464C295.253 608.827 295.649 608.282 295.844 607.83C296.039 607.377 296.145 606.761 296.165 605.98C295.099 605.755 293.862 605.592 292.454 605.49C291.045 605.387 289.719 605.373 288.478 605.446C287.951 605.464 287.326 605.518 286.602 605.61Z" fill="#F6D4BA" fill-opacity="0.9"/>
<path d="M309.693 608.319C311.353 607.208 313.361 606.36 315.716 605.775C315.957 604.579 316.615 603.354 317.686 602.097C318.758 600.841 320.183 599.617 321.96 598.428C325.908 595.786 330.869 593.974 336.843 592.99C339.489 592.555 342.041 592.344 344.499 592.358C346.956 592.372 349.586 592.604 352.387 593.055C356.013 593.645 359.062 594.523 361.533 595.689C364.006 596.857 366.17 598.413 368.027 600.358C368.203 600.542 368.391 600.739 368.592 600.949C368.768 601.133 369.016 601.419 369.337 601.807L370.203 601.551C373.93 600.436 377.02 599.831 379.475 599.739C381.929 599.647 383.684 600.153 384.738 601.257C385.692 602.256 385.964 603.344 385.555 604.522C385.147 605.701 384.082 606.866 382.362 608.017C381.033 608.906 379.424 609.669 377.533 610.307C375.643 610.943 373.6 611.434 371.404 611.777C371.084 612.685 370.804 613.414 370.563 613.966C370.321 614.517 370.081 615.003 369.84 615.424C369.388 616.246 368.844 617.009 368.207 617.718C367.57 618.422 366.8 619.08 365.893 619.686C363.81 621.08 361.817 621.829 359.915 621.935C358.011 622.041 356.479 621.485 355.318 620.27C354.385 619.292 353.909 618.159 353.891 616.871C353.874 615.583 354.315 614.01 355.212 612.153L354.585 612.118L353.466 611.956C352.888 611.868 352.348 611.796 351.849 611.74C351.351 611.684 350.846 611.621 350.334 611.552C349.822 611.483 349.277 611.404 348.698 611.315C348.119 611.226 347.457 611.105 346.717 610.951C346.058 610.829 345.572 610.733 345.257 610.661C344.943 610.59 344.512 610.499 343.963 610.39C343.541 610.977 343.111 611.482 342.676 611.902C342.239 612.321 341.629 612.791 340.848 613.315C339.076 614.5 337.108 615.366 334.943 615.91C332.78 616.453 330.63 616.676 328.492 616.577C326.355 616.479 324.334 616.065 322.432 615.334C320.529 614.605 318.937 613.57 317.657 612.229C316.025 610.521 315.335 608.636 315.586 606.571C313.448 606.969 311.503 607.754 309.752 608.926C309.058 609.39 308.483 609.862 308.023 610.341C307.566 610.82 307.132 611.39 306.724 612.05L306.317 611.936C306.922 611.014 307.462 610.297 307.938 609.785C308.413 609.273 308.999 608.784 309.693 608.319ZM384.058 602.099C383.557 601.574 382.796 601.178 381.775 600.913C380.756 600.649 379.596 600.521 378.293 600.53C376.992 600.54 375.604 600.693 374.131 600.99C372.658 601.287 371.204 601.721 369.771 602.293C370.658 603.637 371.25 605.008 371.544 606.404C371.839 607.801 371.844 609.284 371.56 610.852C374.034 610.489 376.039 610.063 377.575 609.573C379.111 609.084 380.513 608.414 381.782 607.566C383.231 606.596 384.155 605.633 384.553 604.677C384.951 603.721 384.787 602.862 384.058 602.099ZM321.859 599.142C318.991 601.061 317.287 603.215 316.746 605.602C317.63 605.441 318.336 605.324 318.861 605.252C319.387 605.181 320.072 605.12 320.916 605.072C321.676 605.038 322.421 605.002 323.152 604.965C323.883 604.927 324.642 604.905 325.425 604.898C327.246 604.886 328.963 604.975 330.579 605.164C332.194 605.353 334.085 605.65 336.251 606.053C337.045 606.211 337.776 606.367 338.445 606.524C339.113 606.68 339.746 606.837 340.344 606.997L343.689 607.858L344.633 608.068C345.696 606.021 345.463 604.196 343.932 602.592C343.028 601.646 341.922 600.954 340.612 600.516C339.304 600.078 337.911 599.966 336.433 600.18L336.343 599.852C337.991 599.611 339.535 599.698 340.971 600.114C342.408 600.531 343.604 601.239 344.557 602.238C346.189 603.947 346.444 605.95 345.326 608.25L346.064 608.402L349.29 609.215C349.618 609.299 350.041 609.392 350.56 609.496C351.081 609.6 351.698 609.716 352.412 609.841C353.18 609.972 353.84 610.08 354.39 610.164C354.94 610.248 355.393 610.322 355.75 610.384C355.861 610.397 355.978 610.415 356.1 610.44C356.224 610.465 356.396 610.491 356.617 610.515C356.95 610.034 357.299 609.596 357.663 609.201C358.028 608.806 358.411 608.431 358.814 608.075C359.217 607.719 359.677 607.358 360.193 606.991C360.708 606.624 361.313 606.209 362.007 605.744C363.124 604.997 364.115 604.376 364.98 603.883C365.846 603.391 366.922 602.885 368.209 602.369C367.964 602.059 367.78 601.815 367.66 601.637C367.539 601.459 367.379 601.265 367.178 601.055C365.447 599.242 363.37 597.767 360.95 596.63C358.528 595.494 355.576 594.604 352.093 593.962C349.406 593.479 346.868 593.205 344.484 593.144C342.099 593.081 339.611 593.249 337.022 593.646C334.061 594.121 331.277 594.832 328.668 595.78C326.062 596.728 323.792 597.849 321.859 599.142ZM361.848 606.432C360.792 607.139 359.936 607.799 359.282 608.409C358.627 609.018 357.975 609.734 357.326 610.558L358.275 610.697C359.956 610.953 361.349 611.118 362.459 611.192C363.57 611.267 364.657 611.317 365.717 611.339C366.582 611.363 367.344 611.359 368.005 611.326C368.667 611.293 369.605 611.214 370.822 611.088C370.913 610.252 370.963 609.605 370.971 609.147C370.98 608.689 370.906 608.146 370.751 607.517C370.592 606.676 370.341 605.896 370 605.177C369.659 604.457 369.199 603.688 368.616 602.872C367.389 603.348 366.241 603.869 365.172 604.433C364.103 604.998 362.995 605.664 361.848 606.432ZM359.133 612.45C358.575 612.436 358.094 612.424 357.689 612.414C357.285 612.406 356.709 612.371 355.959 612.313C355.239 613.527 354.909 614.75 354.97 615.979C355.031 617.21 355.488 618.271 356.342 619.165C357.471 620.348 358.824 620.96 360.399 621.004C361.975 621.049 363.623 620.495 365.343 619.343C366.701 618.434 367.789 617.383 368.605 616.191C369.422 614.998 370.047 613.567 370.482 611.898L369.757 611.995C368.762 612.144 367.841 612.254 366.993 612.326C366.147 612.398 365.316 612.447 364.501 612.476C363.687 612.504 362.846 612.517 361.979 612.516C361.113 612.514 360.164 612.493 359.133 612.45ZM324.421 606.022C323.175 605.909 321.849 605.881 320.444 605.938C319.04 605.995 317.808 606.118 316.752 606.308C316.808 607.09 316.942 607.711 317.157 608.17C317.373 608.629 317.795 609.187 318.422 609.844C319.024 610.474 319.735 611.076 320.553 611.649C321.372 612.221 322.252 612.74 323.194 613.209C324.135 613.677 325.107 614.072 326.106 614.394C327.107 614.716 328.101 614.955 329.091 615.11C333.327 615.764 337.121 614.97 340.471 612.727C340.985 612.384 341.429 612.032 341.803 611.674C342.18 611.316 342.638 610.825 343.182 610.202C342.665 610.075 342.223 609.962 341.854 609.861C341.489 609.763 341.122 609.664 340.755 609.565C340.389 609.465 339.981 609.362 339.53 609.254C339.081 609.145 338.557 609.012 337.958 608.851C336.818 608.539 335.847 608.273 335.045 608.055C334.244 607.838 333.51 607.651 332.841 607.495C332.173 607.34 331.517 607.197 330.874 607.067C330.231 606.938 329.512 606.794 328.718 606.636C327.838 606.492 327.035 606.362 326.305 606.247C325.577 606.131 324.948 606.057 324.421 606.022Z" fill="#F6D4BA" fill-opacity="0.9"/>
<path d="M301.488 600.113C302.082 600.178 302.679 600.167 303.28 600.075C304.339 599.914 305.068 599.483 305.467 598.784C305.865 598.083 305.908 597.125 305.597 595.908C305.389 595.096 305.049 594.271 304.577 593.429C304.104 592.587 303.522 591.782 302.83 591.013C302.5 590.657 302.122 590.289 301.694 589.91C301.267 589.53 300.803 589.152 300.303 588.775C299.803 588.397 299.282 588.028 298.74 587.665C298.198 587.303 297.647 586.961 297.088 586.64C296.056 586.047 294.999 585.52 293.919 585.06C292.838 584.6 291.763 584.216 290.694 583.91C289.682 583.611 288.768 583.426 287.952 583.355C287.136 583.283 286.348 583.305 285.588 583.42C283.223 583.779 282.336 585.115 282.929 587.429C283.036 587.85 283.194 588.271 283.403 588.691C283.612 589.113 283.9 589.576 284.268 590.082C284.486 590.361 284.703 590.633 284.917 590.897C285.131 591.16 285.355 591.424 285.587 591.685C285.886 591.998 286.181 592.289 286.47 592.557C286.759 592.826 287.067 593.099 287.395 593.377C287.724 593.655 288.09 593.939 288.494 594.229C288.898 594.519 289.355 594.836 289.865 595.18C290.332 595.499 290.746 595.772 291.107 595.998C291.467 596.225 291.822 596.428 292.171 596.609C292.52 596.791 292.885 596.961 293.266 597.122C293.646 597.283 294.092 597.465 294.602 597.669C295.073 597.862 295.5 598.024 295.882 598.154C296.263 598.283 296.603 598.387 296.898 598.468C297.646 598.666 298.389 598.795 299.129 598.855C299.869 598.914 300.521 598.901 301.086 598.816C302.657 598.578 303.266 597.767 302.913 596.386C302.793 595.92 302.556 595.424 302.202 594.901C301.848 594.377 301.399 593.844 300.858 593.302C300.316 592.76 299.698 592.229 299.006 591.71C298.313 591.191 297.562 590.712 296.753 590.272C296.086 589.89 295.417 589.554 294.748 589.266C294.078 588.977 293.44 588.742 292.834 588.561C292.228 588.379 291.664 588.254 291.142 588.185C290.619 588.116 290.173 588.11 289.803 588.166C288.832 588.313 288.466 588.852 288.704 589.784C288.807 590.19 289.085 590.627 289.536 591.098C289.986 591.567 290.595 592.049 291.363 592.541C292.196 593.071 292.991 593.457 293.751 593.701C294.511 593.944 295.19 594.021 295.791 593.93C295.879 593.917 296.032 593.87 296.25 593.79L296.328 593.989C296.174 594.028 296.043 594.056 295.937 594.071C295.849 594.085 295.752 594.1 295.646 594.116C295.063 594.204 294.414 594.158 293.699 593.978C292.983 593.797 292.249 593.492 291.496 593.059C291.109 592.838 290.747 592.588 290.41 592.311C290.073 592.035 289.771 591.749 289.503 591.454C289.235 591.158 289.007 590.862 288.821 590.562C288.634 590.263 288.504 589.97 288.431 589.685C288.277 589.084 288.343 588.59 288.629 588.203C288.916 587.816 289.412 587.57 290.118 587.462C290.736 587.369 291.453 587.411 292.269 587.591C293.086 587.77 293.962 588.077 294.898 588.511C295.899 588.981 296.866 589.534 297.8 590.171C298.733 590.807 299.575 591.48 300.325 592.19C301.076 592.901 301.714 593.621 302.24 594.35C302.766 595.079 303.111 595.765 303.276 596.409C303.472 597.173 303.334 597.815 302.863 598.338C302.391 598.86 301.617 599.204 300.54 599.367C299.409 599.539 298.126 599.433 296.69 599.052C295.253 598.67 293.71 598.02 292.064 597.102C290.907 596.452 289.799 595.725 288.74 594.921C287.681 594.116 286.729 593.283 285.885 592.422C285.041 591.561 284.336 590.707 283.771 589.859C283.206 589.01 282.826 588.212 282.634 587.463C282.538 587.088 282.478 586.727 282.454 586.38C282.429 586.034 282.434 585.71 282.466 585.41C282.536 584.604 282.916 583.909 283.609 583.321C284.303 582.733 285.197 582.356 286.292 582.19C287.139 582.062 288.11 582.094 289.205 582.286C290.3 582.479 291.446 582.804 292.646 583.261C293.845 583.718 295.05 584.288 296.262 584.969C297.472 585.651 298.619 586.424 299.703 587.289C300.556 587.97 301.339 588.665 302.053 589.376C302.767 590.087 303.366 590.779 303.85 591.454C304.335 592.129 304.76 592.855 305.124 593.634C305.489 594.413 305.764 595.162 305.948 595.883C306.286 597.203 306.241 598.263 305.813 599.06C305.383 599.858 304.613 600.341 303.501 600.51C302.212 600.705 300.957 600.497 299.737 599.887L299.85 599.682C300.346 599.903 300.892 600.047 301.488 600.113Z" fill="#F6D4BA" fill-opacity="0.9"/>
<path d="M312.571 599.901L312.693 600.108C311.5 600.681 310.254 600.848 308.954 600.611C307.834 600.406 307.041 599.898 306.576 599.086C306.111 598.274 306.018 597.212 306.297 595.901C306.449 595.187 306.69 594.446 307.019 593.678C307.348 592.91 307.741 592.197 308.195 591.537C308.65 590.878 309.218 590.204 309.9 589.516C310.582 588.828 311.335 588.157 312.158 587.503C313.203 586.672 314.315 585.936 315.496 585.293C316.678 584.65 317.858 584.119 319.037 583.7C320.217 583.281 321.35 582.993 322.437 582.836C323.524 582.678 324.494 582.677 325.348 582.834C326.451 583.035 327.363 583.441 328.083 584.051C328.803 584.661 329.216 585.37 329.321 586.179C329.368 586.48 329.387 586.804 329.379 587.15C329.369 587.496 329.326 587.856 329.246 588.227C329.088 588.971 328.745 589.758 328.217 590.588C327.69 591.42 327.024 592.251 326.217 593.086C325.413 593.92 324.498 594.724 323.474 595.494C322.451 596.265 321.375 596.957 320.246 597.569C318.64 598.435 317.126 599.036 315.705 599.371C314.285 599.707 313.006 599.771 311.867 599.563C310.782 599.365 309.991 598.996 309.495 598.459C309 597.92 308.833 597.272 308.994 596.515C309.13 595.875 309.444 595.199 309.938 594.488C310.432 593.775 311.038 593.075 311.757 592.388C312.475 591.701 313.287 591.055 314.192 590.449C315.098 589.842 316.04 589.319 317.02 588.881C317.939 588.477 318.801 588.199 319.611 588.045C320.419 587.892 321.135 587.872 321.758 587.987C322.469 588.116 322.977 588.379 323.281 588.775C323.585 589.172 323.673 589.668 323.546 590.264C323.485 590.548 323.369 590.836 323.197 591.13C323.023 591.423 322.809 591.713 322.554 592C322.299 592.287 322.009 592.563 321.685 592.829C321.359 593.095 321.009 593.333 320.631 593.542C319.898 593.95 319.177 594.233 318.468 594.391C317.761 594.548 317.113 594.573 316.526 594.466C316.419 594.446 316.322 594.429 316.232 594.412C316.126 594.393 315.994 594.361 315.837 594.317L315.906 594.12C316.128 594.207 316.284 594.259 316.373 594.275C316.977 594.386 317.655 594.331 318.404 594.112C319.154 593.892 319.932 593.531 320.741 593.029C321.487 592.56 322.076 592.098 322.504 591.643C322.934 591.187 323.192 590.757 323.277 590.355C323.474 589.43 323.083 588.879 322.105 588.7C321.731 588.632 321.285 588.623 320.765 588.676C320.246 588.728 319.687 588.836 319.089 588.997C318.491 589.159 317.863 589.374 317.206 589.641C316.549 589.908 315.895 590.223 315.245 590.584C314.454 590.997 313.725 591.452 313.056 591.95C312.386 592.447 311.793 592.959 311.274 593.483C310.756 594.008 310.331 594.527 310 595.04C309.67 595.553 309.455 596.04 309.357 596.502C309.065 597.874 309.711 598.705 311.295 598.994C311.864 599.097 312.517 599.132 313.255 599.096C313.992 599.06 314.731 598.955 315.471 598.78C315.763 598.709 316.097 598.616 316.473 598.499C316.849 598.381 317.269 598.233 317.731 598.054C318.233 597.868 318.671 597.7 319.044 597.551C319.418 597.402 319.775 597.243 320.117 597.073C320.457 596.903 320.803 596.711 321.154 596.496C321.505 596.281 321.906 596.021 322.36 595.717C322.854 595.389 323.298 595.087 323.688 594.809C324.08 594.532 324.434 594.26 324.75 593.993C325.066 593.725 325.361 593.461 325.638 593.202C325.915 592.943 326.197 592.661 326.482 592.357C326.704 592.103 326.915 591.848 327.117 591.591C327.321 591.334 327.524 591.068 327.73 590.796C328.075 590.301 328.344 589.847 328.532 589.433C328.723 589.018 328.862 588.602 328.95 588.185C329.438 585.888 328.491 584.523 326.108 584.087C325.342 583.948 324.553 583.9 323.739 583.945C322.926 583.99 322.02 584.146 321.02 584.413C319.965 584.685 318.906 585.033 317.845 585.46C316.785 585.885 315.751 586.378 314.745 586.938C314.2 587.241 313.665 587.566 313.138 587.911C312.613 588.256 312.107 588.609 311.623 588.97C311.141 589.331 310.694 589.695 310.284 590.062C309.872 590.428 309.51 590.783 309.196 591.129C308.539 591.876 307.993 592.663 307.558 593.49C307.124 594.317 306.82 595.133 306.65 595.938C306.393 597.146 306.48 598.106 306.909 598.82C307.34 599.534 308.089 599.989 309.156 600.183C309.762 600.293 310.36 600.326 310.952 600.279C311.545 600.232 312.084 600.106 312.571 599.901Z" fill="#F6D4BA" fill-opacity="0.9"/>
<path d="M276.986 598.916C276.997 599.433 276.51 599.844 275.898 599.835C275.286 599.825 274.779 599.397 274.768 598.88C274.756 598.363 275.244 597.952 275.855 597.962C276.468 597.971 276.974 598.399 276.986 598.916Z" fill="#69DBEF"/>
<path d="M297.18 593.859C297.188 594.221 296.847 594.509 296.419 594.502C295.99 594.495 295.636 594.196 295.628 593.834C295.62 593.472 295.961 593.184 296.389 593.192C296.818 593.199 297.171 593.497 297.18 593.859Z" fill="#69DBEF"/>
<path d="M316.598 594.302C316.606 594.663 316.265 594.952 315.837 594.944C315.408 594.937 315.055 594.638 315.046 594.276C315.038 593.915 315.379 593.627 315.808 593.634C316.236 593.641 316.589 593.94 316.598 594.302Z" fill="#69DBEF"/>
<path d="M337.537 600.199C337.548 600.715 337.061 601.127 336.45 601.117C335.837 601.107 335.331 600.68 335.319 600.163C335.307 599.646 335.794 599.235 336.407 599.245C337.019 599.255 337.525 599.682 337.537 600.199Z" fill="#69DBEF"/>
<path d="M17.0729 265.934L8.37339 273.346L0 266.212L0.128474 266.103L8.69948 258.8L17.0729 265.934ZM16.5692 265.942L8.68967 259.229L0.503549 266.204L8.38298 272.917L16.5692 265.942Z" fill="#69DBEF"/>
<path d="M15.3944 265.96L8.40449 271.915L8.28113 271.81L1.67725 266.184L8.66619 260.229L15.3944 265.96ZM14.8906 265.969L8.65657 260.658L2.1805 266.176L8.41372 271.486L14.8906 265.969Z" fill="#69DBEF"/>
<path d="M13.7175 265.988L8.43685 270.486L8.31355 270.381L3.35498 266.157L8.63468 261.659L13.7175 265.988ZM13.2137 265.997L8.62528 262.088L3.85914 266.149L8.44674 270.057L13.2137 265.997Z" fill="#69DBEF"/>
<path d="M17.0729 288.479L8.37339 295.891L0 288.757L0.128474 288.648L8.69948 281.346L17.0729 288.479ZM16.5692 288.488L8.68967 281.775L0.503549 288.749L8.38298 295.462L16.5692 288.488Z" fill="#69DBEF"/>
<path d="M15.3944 288.506L8.40449 294.461L8.28113 294.356L1.67725 288.729L8.66619 282.775L15.3944 288.506ZM14.8906 288.514L8.65657 283.203L2.1805 288.721L8.41372 294.032L14.8906 288.514Z" fill="#69DBEF"/>
<path d="M13.7175 288.534L8.43685 293.032L8.31355 292.926L3.35498 288.703L8.63468 284.205L13.7175 288.534ZM13.2137 288.542L8.62528 284.633L3.85914 288.694L8.44674 292.603L13.2137 288.542Z" fill="#69DBEF"/>
<path d="M17.0729 311.025L8.37339 318.437L0 311.303L0.128474 311.194L8.69948 303.891L17.0729 311.025ZM16.5692 311.033L8.68967 304.32L0.503549 311.295L8.38298 318.008L16.5692 311.033Z" fill="#69DBEF"/>
<path d="M15.3944 311.052L8.40449 317.006L8.28113 316.901L1.67725 311.275L8.66619 305.32L15.3944 311.052ZM14.8906 311.06L8.65657 305.749L2.1805 311.267L8.41372 316.577L14.8906 311.06Z" fill="#69DBEF"/>
<path d="M13.7175 311.079L8.43685 315.577L8.31355 315.472L3.35498 311.248L8.63468 306.75L13.7175 311.079ZM13.2137 311.088L8.62528 307.179L3.85914 311.24L8.44674 315.148L13.2137 311.088Z" fill="#69DBEF"/>
<path d="M17.0729 333.571L8.37339 340.982L0 333.848L0.128474 333.739L8.69948 326.437L17.0729 333.571ZM16.5692 333.579L8.68967 326.866L0.503549 333.84L8.38298 340.553L16.5692 333.579Z" fill="#69DBEF"/>
<path d="M15.3944 333.597L8.40449 339.552L8.28113 339.447L1.67725 333.821L8.66619 327.866L15.3944 333.597ZM14.8906 333.605L8.65657 328.295L2.1805 333.813L8.41372 339.123L14.8906 333.605Z" fill="#69DBEF"/>
<path d="M13.7175 333.625L8.43685 338.123L8.31355 338.018L3.35498 333.794L8.63468 329.296L13.7175 333.625ZM13.2137 333.633L8.62528 329.725L3.85914 333.786L8.44674 337.694L13.2137 333.633Z" fill="#69DBEF"/>
<path d="M17.0729 356.116L8.37339 363.528L0 356.394L0.128474 356.285L8.69948 348.982L17.0729 356.116ZM16.5692 356.125L8.68967 349.411L0.503549 356.386L8.38298 363.099L16.5692 356.125Z" fill="#69DBEF"/>
<path d="M15.3944 356.143L8.40449 362.098L8.28113 361.992L1.67725 356.366L8.66619 350.411L15.3944 356.143ZM14.8906 356.151L8.65657 350.84L2.1805 356.358L8.41372 361.669L14.8906 356.151Z" fill="#69DBEF"/>
<path d="M13.7175 356.171L8.43685 360.668L8.31355 360.563L3.35498 356.339L8.63468 351.842L13.7175 356.171ZM13.2137 356.179L8.62528 352.27L3.85914 356.331L8.44674 360.239L13.2137 356.179Z" fill="#69DBEF"/>
<path d="M17.0729 378.662L8.37339 386.074L0 378.94L0.128474 378.831L8.69948 371.528L17.0729 378.662ZM16.5692 378.67L8.68967 371.957L0.503549 378.932L8.38298 385.645L16.5692 378.67Z" fill="#69DBEF"/>
<path d="M15.3944 378.689L8.40449 384.643L8.28113 384.538L1.67725 378.912L8.66619 372.957L15.3944 378.689ZM14.8906 378.697L8.65657 373.386L2.1805 378.904L8.41372 384.214L14.8906 378.697Z" fill="#69DBEF"/>
<path d="M13.7175 378.716L8.43685 383.214L8.31355 383.109L3.35498 378.885L8.63468 374.387L13.7175 378.716ZM13.2137 378.725L8.62528 374.816L3.85914 378.877L8.44674 382.785L13.2137 378.725Z" fill="#69DBEF"/>
<path d="M17.0729 401.207L8.37339 408.619L0 401.485L0.128474 401.376L8.69948 394.074L17.0729 401.207ZM16.5692 401.216L8.68967 394.503L0.503549 401.477L8.38298 408.19L16.5692 401.216Z" fill="#69DBEF"/>
<path d="M15.3944 401.234L8.40449 407.189L8.28113 407.084L1.67725 401.457L8.66619 395.503L15.3944 401.234ZM14.8906 401.242L8.65657 395.931L2.1805 401.449L8.41372 406.76L14.8906 401.242Z" fill="#69DBEF"/>
<path d="M13.7175 401.262L8.43685 405.76L8.31355 405.654L3.35498 401.431L8.63468 396.933L13.7175 401.262ZM13.2137 401.27L8.62528 397.361L3.85914 401.422L8.44674 405.331L13.2137 401.27Z" fill="#69DBEF"/>
<path d="M614.57 266.134L605.87 273.546L597.497 266.412L597.625 266.303L606.196 259L614.57 266.134ZM614.066 266.142L606.186 259.429L598 266.404L605.88 273.117L614.066 266.142Z" fill="#69DBEF"/>
<path d="M612.891 266.16L605.901 272.115L605.778 272.01L599.174 266.384L606.163 260.429L612.891 266.16ZM612.387 266.169L606.153 260.858L599.677 266.376L605.911 271.686L612.387 266.169Z" fill="#69DBEF"/>
<path d="M611.214 266.188L605.934 270.686L605.81 270.581L600.852 266.357L606.132 261.859L611.214 266.188ZM610.711 266.197L606.122 262.288L601.356 266.349L605.944 270.257L610.711 266.197Z" fill="#69DBEF"/>
<path d="M614.57 288.679L605.87 296.091L597.497 288.957L597.625 288.848L606.196 281.546L614.57 288.679ZM614.066 288.688L606.186 281.975L598 288.949L605.88 295.662L614.066 288.688Z" fill="#69DBEF"/>
<path d="M612.891 288.706L605.901 294.661L605.778 294.556L599.174 288.929L606.163 282.975L612.891 288.706ZM612.387 288.714L606.153 283.403L599.677 288.921L605.911 294.232L612.387 288.714Z" fill="#69DBEF"/>
<path d="M611.214 288.734L605.934 293.232L605.81 293.127L600.852 288.903L606.132 284.405L611.214 288.734ZM610.711 288.742L606.122 284.834L601.356 288.894L605.944 292.803L610.711 288.742Z" fill="#69DBEF"/>
<path d="M614.57 311.225L605.87 318.637L597.497 311.503L597.625 311.394L606.196 304.091L614.57 311.225ZM614.066 311.233L606.186 304.52L598 311.495L605.88 318.208L614.066 311.233Z" fill="#69DBEF"/>
<path d="M612.891 311.252L605.901 317.206L605.778 317.101L599.174 311.475L606.163 305.52L612.891 311.252ZM612.387 311.26L606.153 305.949L599.677 311.467L605.911 316.778L612.387 311.26Z" fill="#69DBEF"/>
<path d="M611.214 311.279L605.934 315.777L605.81 315.672L600.852 311.448L606.132 306.95L611.214 311.279ZM610.711 311.288L606.122 307.379L601.356 311.44L605.944 315.348L610.711 311.288Z" fill="#69DBEF"/>
<path d="M614.57 333.771L605.87 341.182L597.497 334.048L597.625 333.94L606.196 326.637L614.57 333.771ZM614.066 333.779L606.186 327.066L598 334.04L605.88 340.753L614.066 333.779Z" fill="#69DBEF"/>
<path d="M612.891 333.797L605.901 339.752L605.778 339.647L599.174 334.021L606.163 328.066L612.891 333.797ZM612.387 333.806L606.153 328.495L599.677 334.013L605.911 339.323L612.387 333.806Z" fill="#69DBEF"/>
<path d="M611.214 333.825L605.934 338.323L605.81 338.218L600.852 333.994L606.132 329.496L611.214 333.825ZM610.711 333.834L606.122 329.925L601.356 333.986L605.944 337.894L610.711 333.834Z" fill="#69DBEF"/>
<path d="M614.57 356.316L605.87 363.728L597.497 356.594L597.625 356.485L606.196 349.182L614.57 356.316ZM614.066 356.325L606.186 349.611L598 356.586L605.88 363.299L614.066 356.325Z" fill="#69DBEF"/>
<path d="M612.891 356.343L605.901 362.298L605.778 362.193L599.174 356.566L606.163 350.611L612.891 356.343ZM612.387 356.351L606.153 351.04L599.677 356.558L605.911 361.869L612.387 356.351Z" fill="#69DBEF"/>
<path d="M611.214 356.371L605.934 360.868L605.81 360.763L600.852 356.54L606.132 352.042L611.214 356.371ZM610.711 356.379L606.122 352.47L601.356 356.531L605.944 360.439L610.711 356.379Z" fill="#69DBEF"/>
<path d="M614.57 378.862L605.87 386.274L597.497 379.14L597.625 379.031L606.196 371.728L614.57 378.862ZM614.066 378.87L606.186 372.157L598 379.132L605.88 385.845L614.066 378.87Z" fill="#69DBEF"/>
<path d="M612.891 378.889L605.901 384.843L605.778 384.738L599.174 379.112L606.163 373.157L612.891 378.889ZM612.387 378.897L606.153 373.586L599.677 379.104L605.911 384.414L612.387 378.897Z" fill="#69DBEF"/>
<path d="M611.214 378.916L605.934 383.414L605.81 383.309L600.852 379.085L606.132 374.587L611.214 378.916ZM610.711 378.925L606.122 375.016L601.356 379.077L605.944 382.985L610.711 378.925Z" fill="#69DBEF"/>
<path d="M614.57 401.407L605.87 408.819L597.497 401.685L597.625 401.576L606.196 394.274L614.57 401.407ZM614.066 401.416L606.186 394.703L598 401.677L605.88 408.39L614.066 401.416Z" fill="#69DBEF"/>
<path d="M612.891 401.434L605.901 407.389L605.778 407.284L599.174 401.657L606.163 395.703L612.891 401.434ZM612.387 401.442L606.153 396.132L599.677 401.65L605.911 406.96L612.387 401.442Z" fill="#69DBEF"/>
<path d="M611.214 401.462L605.934 405.96L605.81 405.855L600.852 401.631L606.132 397.133L611.214 401.462ZM610.711 401.47L606.122 397.562L601.356 401.622L605.944 405.531L610.711 401.47Z" fill="#69DBEF"/>
<defs>
<linearGradient id="paint0_linear_298_4390" x1="306" y1="66" x2="306" y2="604" gradientUnits="userSpaceOnUse">
<stop stop-color="#F6D4BA"/>
<stop offset="1" stop-color="#F6D4BA" stop-opacity="0.45"/>
</linearGradient>
</defs>
</svg>
