<svg width="614" height="625" viewBox="0 0 614 625" fill="none" xmlns="http://www.w3.org/2000/svg">
<path d="M305.668 28.0018C306.167 28.5304 306.738 29.2653 307.383 30.2063L306.982 30.3094C306.545 29.6345 306.086 29.0505 305.608 28.5562C305.128 28.0622 304.532 27.571 303.819 27.0838C302.017 25.8548 300.041 25.0068 297.887 24.5398C298.231 26.6132 297.628 28.4785 296.076 30.1351C294.859 31.4352 293.317 32.4191 291.45 33.0877C289.583 33.7567 287.584 34.1067 285.456 34.1358C283.325 34.166 281.169 33.874 278.984 33.26C276.799 32.6458 274.795 31.7161 272.973 30.4733C272.169 29.9243 271.54 29.4335 271.085 28.9994C270.63 28.5653 270.178 28.0468 269.73 27.4451C269.188 27.5375 268.762 27.614 268.451 27.6751C268.141 27.7368 267.659 27.8176 267.007 27.9178C266.274 28.0481 265.62 28.1482 265.046 28.2186C264.471 28.2885 263.931 28.3494 263.424 28.4026C262.916 28.4558 262.414 28.5019 261.919 28.5419C261.424 28.5821 260.888 28.6363 260.315 28.7061L259.205 28.8311L258.58 28.8466C259.561 30.7344 260.071 32.3221 260.113 33.6107C260.152 34.8989 259.729 36.018 258.841 36.9662C257.737 38.1453 256.233 38.6512 254.328 38.4845C252.423 38.3174 250.399 37.5028 248.257 36.0405C247.325 35.4045 246.526 34.722 245.858 33.9957C245.192 33.2674 244.613 32.4853 244.125 31.6477C243.865 31.2189 243.603 30.7242 243.338 30.1655C243.072 29.6065 242.76 28.8664 242.399 27.9482C240.191 27.5337 238.128 26.977 236.213 26.2791C234.297 25.5798 232.656 24.7641 231.29 23.832C229.521 22.624 228.404 21.4233 227.943 20.2313C227.482 19.0391 227.705 17.9588 228.612 16.99C229.615 15.9191 231.343 15.469 233.798 15.6408C236.253 15.8125 239.365 16.5167 243.136 17.7532L244.012 18.0381C244.315 17.6596 244.551 17.3814 244.718 17.2031C244.908 16.9992 245.087 16.808 245.255 16.6293C247.021 14.7431 249.111 13.2554 251.527 12.1672C253.942 11.0796 256.946 10.2991 260.539 9.82613C263.315 9.46498 265.93 9.31734 268.382 9.3825C270.835 9.44855 273.392 9.74208 276.053 10.2629C282.063 11.4404 287.096 13.4136 291.157 16.1846C292.984 17.4332 294.462 18.703 295.59 19.9942C296.716 21.2859 297.428 22.5336 297.723 23.7373C300.099 24.4002 302.142 25.313 303.851 26.4788C304.564 26.9665 305.17 27.4741 305.668 28.0018ZM228.952 20.4183C229.392 21.3877 230.359 22.3814 231.848 23.3987C233.153 24.2885 234.582 25.0038 236.139 25.5435C237.694 26.0827 239.715 26.5745 242.201 27.0178C241.847 25.4387 241.785 23.9554 242.017 22.567C242.247 21.1794 242.776 19.8263 243.601 18.5094C242.145 17.8912 240.674 17.4098 239.19 17.0658C237.706 16.7211 236.314 16.5228 235.014 16.4711C233.713 16.4194 232.56 16.5097 231.554 16.7414C230.547 16.9738 229.806 17.3455 229.329 17.8556C228.636 18.5952 228.51 19.4494 228.952 20.4183ZM284.34 13.3182C281.693 12.2851 278.883 11.4838 275.904 10.9131C273.302 10.4325 270.811 10.184 268.433 10.1695C266.055 10.1549 263.535 10.3462 260.873 10.7439C257.425 11.2725 254.518 12.0682 252.152 13.1273C249.787 14.1863 247.78 15.5957 246.133 17.3549C245.942 17.5585 245.79 17.7472 245.679 17.922C245.566 18.0961 245.394 18.3337 245.163 18.6358C246.472 19.1947 247.569 19.7352 248.455 20.2557C249.341 20.7772 250.359 21.4301 251.507 22.214C252.222 22.7016 252.845 23.137 253.376 23.5199C253.906 23.9036 254.382 24.2806 254.8 24.6497C255.218 25.0187 255.618 25.4058 256 25.8135C256.382 26.2208 256.75 26.6695 257.104 27.1617C257.323 27.1447 257.494 27.1253 257.616 27.1044C257.737 27.0832 257.853 27.0682 257.963 27.0592C258.317 27.0083 258.766 26.9484 259.312 26.8831C259.858 26.8161 260.511 26.73 261.272 26.6232C261.979 26.521 262.59 26.4252 263.105 26.3383C263.618 26.2504 264.037 26.1699 264.36 26.0976L267.543 25.3879L268.274 25.2602C267.053 22.922 267.218 20.9257 268.77 19.2683C269.677 18.2993 270.838 17.6301 272.254 17.2588C273.67 16.8881 275.206 16.8504 276.863 17.1458L276.788 17.4707C275.302 17.2089 273.917 17.2765 272.63 17.6719C271.343 18.0687 270.27 18.7255 269.411 19.6429C267.955 21.198 267.803 23.0174 268.958 25.1001L269.889 24.9205L273.191 24.1663C273.78 24.0264 274.405 23.8887 275.066 23.7538C275.726 23.6192 276.448 23.4862 277.234 23.3539C279.378 23.0209 281.252 22.785 282.858 22.648C284.462 22.5108 286.172 22.4767 287.989 22.5473C288.772 22.5802 289.53 22.6271 290.263 22.6878C290.994 22.749 291.739 22.809 292.499 22.8677C293.344 22.9429 294.031 23.0254 294.558 23.1137C295.086 23.2025 295.795 23.3418 296.687 23.5322C296.038 21.1258 294.239 18.9153 291.29 16.9021C289.302 15.5459 286.986 14.3514 284.34 13.3182ZM248.289 20.8003C247.196 20.2003 246.026 19.6422 244.78 19.126C244.236 19.9243 243.81 20.6786 243.502 21.3872C243.194 22.0962 242.979 22.8702 242.858 23.7063C242.732 24.3307 242.683 24.8714 242.712 25.33C242.741 25.7879 242.82 26.4377 242.949 27.2778C244.169 27.4425 245.11 27.5515 245.772 27.6061C246.433 27.6605 247.194 27.6899 248.057 27.6933C249.114 27.7045 250.197 27.6907 251.302 27.6519C252.408 27.6124 253.792 27.4922 255.457 27.2908L256.398 27.1819C255.713 26.3373 255.029 25.5998 254.349 24.9679C253.667 24.3364 252.784 23.6493 251.698 22.9076C250.518 22.1022 249.381 21.4 248.289 20.8003ZM251.842 28.9911C250.976 28.9643 250.135 28.9241 249.322 28.8698C248.507 28.8152 247.675 28.7389 246.827 28.6401C245.978 28.5409 245.053 28.4003 244.053 28.2195L243.325 28.0988C243.834 29.784 244.523 31.2355 245.392 32.4554C246.261 33.6746 247.394 34.7612 248.79 35.7152C250.56 36.9232 252.23 37.5306 253.802 37.5373C255.373 37.5437 256.695 36.9746 257.769 35.8272C258.581 34.9608 258.99 33.9128 258.995 32.6838C259.001 31.455 258.616 30.2212 257.842 28.9824C257.097 29.0169 256.522 29.032 256.12 29.0285C255.715 29.0251 255.236 29.021 254.679 29.0173C253.652 29.0264 252.706 29.0178 251.842 28.9911ZM287.172 23.8692C286.448 23.961 285.652 24.0649 284.782 24.1798C283.995 24.3125 283.284 24.4339 282.648 24.542C282.012 24.651 281.363 24.7732 280.704 24.9071C280.043 25.0417 279.318 25.2047 278.528 25.3963C277.738 25.5884 276.78 25.8227 275.656 26.0994C275.066 26.2406 274.549 26.3567 274.105 26.4515C273.661 26.5453 273.258 26.6357 272.896 26.7231C272.535 26.811 272.173 26.8978 271.812 26.9848C271.45 27.0728 271.013 27.1719 270.503 27.2823C271.073 27.9222 271.554 28.4295 271.945 28.7998C272.335 29.1702 272.794 29.5363 273.322 29.8965C276.769 32.2493 280.591 33.1661 284.792 32.6488C285.772 32.5247 286.754 32.3177 287.739 32.0287C288.722 31.7384 289.674 31.3744 290.593 30.9366C291.512 30.4983 292.367 30.0055 293.159 29.46C293.949 28.9136 294.632 28.3347 295.204 27.7228C295.802 27.0859 296.197 26.5408 296.392 26.0887C296.586 25.6359 296.692 25.0197 296.712 24.2385C295.648 24.0138 294.414 23.8512 293.01 23.7491C291.604 23.6462 290.282 23.632 289.043 23.7053C288.517 23.7225 287.894 23.777 287.172 23.8692Z" fill="#F6D4BA" fill-opacity="0.9"/>
<path d="M310.206 26.5781C311.862 25.467 313.866 24.6187 316.215 24.0334C316.456 22.838 317.112 21.6125 318.18 20.356C319.25 19.0999 320.671 17.8762 322.444 16.687C326.383 14.0449 331.331 12.233 337.291 11.2492C339.931 10.8139 342.477 10.6029 344.928 10.6168C347.38 10.6303 350.003 10.8627 352.798 11.3139C356.415 11.9039 359.456 12.7817 361.922 13.9481C364.389 15.1156 366.547 16.6715 368.4 18.6168C368.576 18.801 368.764 18.9982 368.964 19.2081C369.139 19.3921 369.387 19.6783 369.707 20.066L370.57 19.8097C374.289 18.6948 377.371 18.0902 379.82 17.9979C382.269 17.9053 384.02 18.4114 385.071 19.5158C386.022 20.5146 386.294 21.6028 385.886 22.7807C385.479 23.9595 384.416 25.1248 382.7 26.2761C381.375 27.165 379.769 27.928 377.884 28.5654C375.998 29.202 373.96 29.6927 371.769 30.0354C371.449 30.9438 371.17 31.6732 370.93 32.2248C370.689 32.7754 370.449 33.2616 370.209 33.6828C369.758 34.5048 369.215 35.2681 368.58 35.9764C367.944 36.6813 367.176 37.3385 366.272 37.9444C364.194 39.3392 362.205 40.0879 360.307 40.1937C358.408 40.2995 356.88 39.7442 355.721 38.5284C354.791 37.5508 354.316 36.4179 354.298 35.1296C354.281 33.8418 354.721 32.2692 355.616 30.4115L354.99 30.3764L353.874 30.2152C353.297 30.127 352.759 30.0549 352.261 29.999C351.764 29.9428 351.26 29.8803 350.75 29.8111C350.239 29.7415 349.695 29.6625 349.117 29.5739C348.54 29.485 347.88 29.364 347.141 29.2095C346.483 29.088 345.999 28.9916 345.685 28.9203C345.372 28.8487 344.942 28.7583 344.394 28.6484C343.973 29.236 343.544 29.7406 343.11 30.1607C342.674 30.5795 342.066 31.0501 341.287 31.5736C339.519 32.7591 337.555 33.6245 335.396 34.1684C333.238 34.7123 331.093 34.9351 328.961 34.8359C326.828 34.738 324.812 34.3234 322.915 33.593C321.016 32.8637 319.428 31.8286 318.152 30.4883C316.524 28.7803 315.835 26.8943 316.086 24.8299C313.952 25.228 312.012 26.0127 310.266 27.1846C309.573 27.6487 308.999 28.1213 308.54 28.5998C308.085 29.0793 307.652 29.6492 307.245 30.3093L306.839 30.1944C307.442 29.2729 307.981 28.5559 308.455 28.044C308.93 27.5317 309.514 27.0431 310.206 26.5781ZM384.392 20.3579C383.893 19.8331 383.134 19.4369 382.115 19.1723C381.098 18.9076 379.941 18.7797 378.641 18.7891C377.343 18.7989 375.958 18.9521 374.489 19.2491C373.02 19.5454 371.569 19.9799 370.139 20.552C371.025 21.896 371.615 23.267 371.908 24.6632C372.203 26.0601 372.208 27.543 371.925 29.1113C374.393 28.7478 376.393 28.3218 377.925 27.832C379.458 27.3425 380.856 26.6727 382.121 25.8244C383.567 24.8544 384.489 23.8913 384.886 22.9358C385.283 21.9799 385.12 21.1211 384.392 20.3579ZM322.344 17.4009C319.483 19.3202 317.782 21.4739 317.243 23.8611C318.125 23.6997 318.829 23.5826 319.353 23.5105C319.878 23.4398 320.56 23.3788 321.402 23.3308C322.16 23.2972 322.904 23.2612 323.633 23.2239C324.363 23.1862 325.119 23.164 325.901 23.1564C327.717 23.1447 329.431 23.2341 331.042 23.4233C332.653 23.612 334.54 23.9088 336.7 24.3116C337.493 24.4694 338.222 24.6261 338.889 24.7825C339.556 24.9384 340.187 25.0961 340.784 25.2559L344.121 26.1173L345.062 26.3268C346.123 24.2797 345.89 22.4545 344.363 20.8507C343.461 19.9044 342.358 19.2133 341.051 18.7748C339.746 18.3367 338.356 18.2245 336.882 18.4386L336.792 18.1107C338.437 17.8693 339.977 17.9569 341.409 18.373C342.843 18.7901 344.036 19.4981 344.987 20.4967C346.615 22.2056 346.869 24.2092 345.754 26.5089L346.49 26.6605L349.708 27.4743C350.035 27.5576 350.457 27.6505 350.975 27.7546C351.495 27.8589 352.11 27.9746 352.822 28.0996C353.589 28.231 354.247 28.3384 354.795 28.4231C355.345 28.5071 355.797 28.5809 356.153 28.643C356.264 28.6555 356.38 28.6742 356.502 28.6993C356.626 28.7242 356.797 28.7498 357.017 28.7736C357.35 28.2926 357.698 27.8553 358.061 27.4595C358.425 27.0648 358.807 26.6895 359.209 26.3336C359.611 25.9781 360.071 25.6166 360.584 25.2502C361.098 24.8833 361.702 24.4676 362.395 24.0027C363.508 23.2554 364.497 22.635 365.36 22.1415C366.224 21.6496 367.297 21.1441 368.582 20.6276C368.337 20.3182 368.154 20.0742 368.034 19.8963C367.914 19.7183 367.754 19.5242 367.554 19.314C365.826 17.5005 363.755 16.0255 361.34 14.889C358.924 13.7525 355.979 12.8633 352.504 12.2212C349.823 11.7379 347.292 11.4643 344.914 11.4029C342.534 11.3399 340.052 11.5079 337.469 11.9052C334.516 12.3794 331.739 13.0907 329.136 14.0388C326.536 14.9873 324.271 16.1079 322.344 17.4009ZM362.235 24.6912C361.183 25.3982 360.329 26.0574 359.676 26.6677C359.023 27.2771 358.373 27.993 357.724 28.8163L358.672 28.9558C360.348 29.2115 361.738 29.3765 362.846 29.451C363.954 29.5262 365.038 29.5755 366.096 29.5981C366.959 29.6217 367.719 29.6175 368.378 29.5849C369.039 29.5516 369.974 29.4729 371.188 29.3472C371.279 28.5106 371.329 27.8635 371.337 27.4057C371.346 26.948 371.272 26.4049 371.118 25.7757C370.959 24.9352 370.709 24.1546 370.368 23.4355C370.028 22.7157 369.569 21.9469 368.988 21.1306C367.764 21.607 366.619 22.128 365.552 22.6922C364.486 23.2568 363.38 23.9229 362.235 24.6912ZM359.527 30.7091C358.97 30.6943 358.491 30.6826 358.087 30.6732C357.684 30.6644 357.109 30.6302 356.361 30.5714C355.643 31.7862 355.314 33.009 355.374 34.2382C355.435 35.4687 355.891 36.5299 356.743 37.4242C357.869 38.6064 359.219 39.2193 360.79 39.2632C362.363 39.3076 364.007 38.7538 365.723 37.6016C367.078 36.6926 368.162 35.642 368.977 34.4497C369.791 33.2571 370.416 31.8263 370.849 30.1568L370.126 30.2536C369.133 30.4029 368.214 30.5132 367.368 30.5846C366.525 30.657 365.695 30.7059 364.882 30.7344C364.07 30.7624 363.232 30.7754 362.366 30.7748C361.503 30.7733 360.556 30.7517 359.527 30.7091ZM324.899 24.2812C323.656 24.1679 322.334 24.1394 320.932 24.1968C319.531 24.2535 318.302 24.3772 317.249 24.5665C317.304 25.3492 317.438 25.9696 317.652 26.4289C317.868 26.8882 318.289 27.4457 318.914 28.1026C319.515 28.7332 320.224 29.3349 321.04 29.9076C321.857 30.4797 322.735 30.999 323.675 31.4674C324.614 31.9358 325.583 32.3308 326.58 32.6525C327.578 32.9745 328.571 33.2138 329.558 33.3691C333.783 34.0226 337.568 33.2286 340.911 30.9857C341.423 30.6425 341.866 30.2908 342.24 29.9325C342.615 29.5746 343.073 29.0835 343.615 28.4604C343.099 28.3333 342.658 28.2205 342.29 28.1203C341.926 28.0218 341.56 27.9232 341.194 27.8238C340.828 27.7242 340.421 27.621 339.972 27.5127C339.524 27.4043 339.001 27.2708 338.404 27.11C337.267 26.7975 336.298 26.5315 335.498 26.3137C334.699 26.0968 333.966 25.9101 333.299 25.7538C332.632 25.5983 331.978 25.4561 331.336 25.326C330.695 25.197 329.978 25.0525 329.186 24.8947C328.308 24.7512 327.507 24.6211 326.779 24.506C326.052 24.3902 325.425 24.3155 324.899 24.2812Z" fill="#F6D4BA" fill-opacity="0.9"/>
<path d="M302.021 18.3715C302.614 18.4371 303.21 18.4252 303.809 18.3336C304.866 18.173 305.593 17.7422 305.991 17.0424C306.388 16.3417 306.431 15.3838 306.12 14.1668C305.913 13.3551 305.574 12.5294 305.103 11.6872C304.631 10.8459 304.051 10.0408 303.36 9.27203C303.031 8.91612 302.654 8.54811 302.227 8.16824C301.801 7.78831 301.338 7.41021 300.839 7.0333C300.341 6.65587 299.821 6.28651 299.28 5.92392C298.739 5.5617 298.19 5.21983 297.632 4.89898C296.602 4.30613 295.548 3.77898 294.471 3.31867C293.392 2.85896 292.32 2.47503 291.253 2.16907C290.244 1.86971 289.332 1.68517 288.518 1.61364C287.704 1.5419 286.918 1.56392 286.16 1.67915C283.8 2.03789 282.915 3.37413 283.507 5.68746C283.614 6.10831 283.772 6.52925 283.98 6.95003C284.188 7.37133 284.476 7.83443 284.843 8.34062C285.061 8.61978 285.277 8.89126 285.49 9.15553C285.704 9.41889 285.927 9.68224 286.159 9.94335C286.458 10.2566 286.752 10.5478 287.04 10.8158C287.328 11.0846 287.635 11.3575 287.963 11.6355C288.29 11.9136 288.655 12.1977 289.059 12.4873C289.462 12.7775 289.918 13.0946 290.427 13.4383C290.893 13.7573 291.305 14.0307 291.665 14.2568C292.025 14.4834 292.379 14.6869 292.727 14.8676C293.075 15.0492 293.439 15.2198 293.819 15.3808C294.198 15.5416 294.643 15.7238 295.152 15.9274C295.622 16.1211 296.048 16.2825 296.429 16.4124C296.809 16.5413 297.148 16.6461 297.442 16.7267C298.189 16.9251 298.93 17.0539 299.668 17.1138C300.406 17.1729 301.057 17.1601 301.621 17.0748C303.188 16.8365 303.795 16.0255 303.443 14.6443C303.324 14.1782 303.087 13.683 302.734 13.1596C302.38 12.6358 301.933 12.1028 301.392 11.5608C300.852 11.0192 300.235 10.4881 299.545 9.96859C298.854 9.4499 298.105 8.97025 297.298 8.53078C296.632 8.1487 295.965 7.81265 295.298 7.52436C294.629 7.23544 293.993 7.00074 293.389 6.81961C292.783 6.63818 292.221 6.51299 291.701 6.44362C291.179 6.37442 290.734 6.36877 290.364 6.42494C289.396 6.57184 289.031 7.11119 289.268 8.04235C289.371 8.44835 289.648 8.88618 290.098 9.35647C290.547 9.82611 291.155 10.3075 291.921 10.8001C292.751 11.3294 293.545 11.7156 294.303 11.9592C295.061 12.2032 295.739 12.2799 296.338 12.1885C296.426 12.1754 296.579 12.1284 296.796 12.0486L296.874 12.2478C296.72 12.2865 296.59 12.3146 296.484 12.33C296.396 12.3435 296.299 12.3583 296.194 12.3746C295.612 12.463 294.964 12.417 294.251 12.237C293.537 12.056 292.804 11.7507 292.054 11.3181C291.668 11.0962 291.306 10.8466 290.97 10.5699C290.634 10.2932 290.333 10.0072 290.065 9.71226C289.798 9.41701 289.57 9.12031 289.385 8.821C289.199 8.5217 289.069 8.22904 288.996 7.94379C288.842 7.34261 288.908 6.84841 289.193 6.46204C289.48 6.07512 289.974 5.82859 290.679 5.72115C291.295 5.62789 292.011 5.67014 292.825 5.84941C293.64 6.02912 294.514 6.33563 295.448 6.7695C296.446 7.23954 297.411 7.79292 298.342 8.4294C299.273 9.0658 300.113 9.73862 300.861 10.449C301.61 11.1598 302.247 11.8795 302.772 12.6084C303.296 13.3376 303.641 14.0239 303.805 14.6676C304 15.4313 303.863 16.0741 303.393 16.5968C302.922 17.1191 302.15 17.4624 301.075 17.6254C299.948 17.7974 298.668 17.6917 297.235 17.3105C295.801 16.9285 294.263 16.2792 292.62 15.3607C291.466 14.711 290.36 13.9839 289.304 13.1792C288.247 12.3744 287.298 11.5413 286.456 10.6809C285.614 9.82008 284.911 8.96545 284.347 8.11729C283.783 7.26848 283.404 6.47097 283.213 5.72126C283.117 5.34665 283.057 4.98591 283.033 4.63849C283.009 4.29228 283.013 3.96856 283.046 3.66833C283.115 2.86272 283.494 2.16734 284.186 1.57927C284.878 0.99168 285.769 0.614932 286.862 0.448808C287.707 0.320698 288.676 0.352273 289.768 0.545116C290.86 0.73741 292.004 1.06272 293.201 1.51979C294.397 1.97709 295.599 2.54647 296.808 3.22802C298.015 3.91 299.16 4.6824 300.241 5.5479C301.091 6.22883 301.873 6.92409 302.585 7.63497C303.297 8.34549 303.895 9.03726 304.378 9.71251C304.861 10.3875 305.285 11.1138 305.649 11.8927C306.012 12.6714 306.287 13.421 306.47 14.1414C306.808 15.4619 306.763 16.5214 306.336 17.3187C305.908 18.1166 305.139 18.5996 304.029 18.7685C302.744 18.9642 301.492 18.7562 300.275 18.1454L300.387 17.9409C300.882 18.1614 301.427 18.3058 302.021 18.3715Z" fill="#F6D4BA" fill-opacity="0.9"/>
<path d="M313.078 18.1597L313.199 18.3671C312.01 18.9396 310.766 19.1072 309.47 18.8696C308.352 18.6649 307.562 18.1564 307.098 17.3447C306.633 16.5324 306.541 15.4712 306.818 14.1598C306.97 13.4457 307.211 12.7045 307.539 11.9368C307.868 11.1689 308.259 10.4553 308.712 9.79551C309.166 9.13626 309.733 8.46279 310.413 7.77476C311.094 7.08665 311.844 6.41581 312.666 5.7617C313.708 4.9312 314.818 4.19481 315.996 3.55184C317.174 2.90837 318.352 2.37766 319.528 1.95882C320.705 1.53952 321.836 1.25128 322.92 1.09471C324.004 0.937075 324.972 0.936241 325.824 1.09227C326.925 1.29376 327.834 1.69939 328.552 2.30953C329.271 2.92005 329.683 3.62894 329.787 4.4374C329.834 4.73889 329.853 5.06278 329.845 5.40897C329.835 5.75492 329.792 6.11448 329.712 6.48625C329.555 7.22975 329.213 8.0164 328.686 8.84706C328.16 9.67828 327.496 10.5101 326.691 11.3447C325.888 12.1789 324.975 12.9823 323.954 13.7524C322.934 14.5236 321.861 15.2158 320.734 15.8281C319.132 16.6942 317.621 17.2946 316.204 17.63C314.788 17.9653 313.511 18.0294 312.375 17.8218C311.293 17.6233 310.504 17.2551 310.01 16.7174C309.515 16.1786 309.349 15.5308 309.51 14.7735C309.645 14.1341 309.959 13.4582 310.451 12.7464C310.944 12.0335 311.548 11.334 312.265 10.6465C312.982 9.95969 313.792 9.31335 314.695 8.70738C315.598 8.10047 316.539 7.57792 317.516 7.1397C318.432 6.73571 319.293 6.45757 320.1 6.30373C320.907 6.15039 321.621 6.13124 322.242 6.24544C322.952 6.3746 323.458 6.63781 323.762 7.034C324.065 7.43081 324.153 7.92655 324.026 8.52312C323.966 8.80635 323.85 9.09499 323.678 9.3891C323.504 9.68222 323.291 9.97165 323.036 10.2584C322.782 10.5453 322.493 10.822 322.169 11.0874C321.845 11.3535 321.495 11.5914 321.118 11.8008C320.387 12.2092 319.668 12.4922 318.961 12.6496C318.256 12.8064 317.609 12.8316 317.023 12.7244C316.917 12.7051 316.82 12.6873 316.73 12.6709C316.624 12.6519 316.493 12.6193 316.336 12.5758L316.405 12.3789C316.626 12.4658 316.782 12.518 316.871 12.534C317.474 12.6443 318.149 12.5894 318.897 12.3703C319.644 12.1508 320.421 11.7899 321.228 11.2873C321.972 10.8188 322.56 10.3572 322.987 9.90149C323.416 9.4456 323.673 9.01611 323.758 8.61347C323.955 7.68895 323.565 7.13763 322.588 6.95885C322.216 6.89082 321.771 6.8821 321.252 6.93458C320.735 6.98707 320.177 7.09438 319.58 7.25611C318.984 7.41771 318.357 7.63244 317.701 7.89993C317.046 8.16674 316.394 8.4814 315.746 8.84284C314.956 9.25558 314.229 9.71125 313.561 10.2086C312.893 10.7058 312.301 11.2173 311.784 11.7422C311.267 12.2665 310.844 12.786 310.513 13.2991C310.184 13.8114 309.969 14.2988 309.872 14.761C309.581 16.1324 310.225 16.9633 311.805 17.2528C312.373 17.3562 313.024 17.3903 313.76 17.3547C314.495 17.3187 315.233 17.2141 315.97 17.0392C316.262 16.9681 316.595 16.875 316.971 16.7578C317.345 16.6401 317.765 16.4921 318.225 16.3132C318.727 16.1268 319.163 15.9583 319.535 15.81C319.908 15.6608 320.264 15.5021 320.605 15.3317C320.945 15.162 321.29 14.9699 321.64 14.7544C321.99 14.5394 322.391 14.2801 322.843 13.9757C323.336 13.6477 323.778 13.3455 324.168 13.0678C324.559 12.7912 324.912 12.5189 325.227 12.2516C325.542 11.9837 325.837 11.7202 326.113 11.4611C326.39 11.2013 326.671 10.9195 326.956 10.6162C327.176 10.3619 327.387 10.1069 327.589 9.84943C327.792 9.59237 327.995 9.32707 328.2 9.05508C328.545 8.5601 328.812 8.10603 329.001 7.69128C329.19 7.27673 329.329 6.86048 329.417 6.4434C329.904 4.14692 328.959 2.78129 326.582 2.34623C325.818 2.20664 325.03 2.15866 324.219 2.20411C323.408 2.24881 322.504 2.40479 321.506 2.67126C320.454 2.94341 319.398 3.29169 318.339 3.71848C317.281 4.14394 316.251 4.63677 315.247 5.19638C314.703 5.49995 314.169 5.82441 313.643 6.16952C313.119 6.51519 312.615 6.86791 312.132 7.22889C311.651 7.58993 311.205 7.95397 310.796 8.32046C310.385 8.68641 310.024 9.04195 309.711 9.38814C309.055 10.135 308.51 10.9223 308.077 11.7492C307.644 12.5759 307.341 13.3918 307.171 14.1971C306.915 15.4052 307.001 16.3647 307.43 17.079C307.86 17.7928 308.607 18.2474 309.671 18.4418C310.276 18.5522 310.872 18.5843 311.462 18.5378C312.054 18.4909 312.592 18.3647 313.078 18.1597Z" fill="#F6D4BA" fill-opacity="0.9"/>
<path d="M277.578 17.1745C277.59 17.6914 277.104 18.1032 276.493 18.0933C275.882 18.0834 275.377 17.656 275.366 17.1386C275.354 16.6219 275.84 16.2105 276.45 16.2204C277.061 16.2302 277.566 16.6579 277.578 17.1745Z" fill="#69DBEF"/>
<path d="M297.723 12.1181C297.731 12.4795 297.392 12.7677 296.965 12.761C296.536 12.7537 296.184 12.4549 296.176 12.0926C296.168 11.7308 296.507 11.4433 296.934 11.4503C297.362 11.4573 297.715 11.7561 297.723 12.1181Z" fill="#69DBEF"/>
<path d="M317.095 12.5607C317.103 12.9222 316.763 13.2105 316.336 13.2033C315.908 13.1962 315.555 12.8972 315.547 12.5354C315.539 12.174 315.879 11.8862 316.306 11.8931C316.734 11.9 317.086 12.1985 317.095 12.5607Z" fill="#69DBEF"/>
<path d="M337.983 18.4578C337.995 18.9741 337.509 19.386 336.899 19.3757C336.287 19.366 335.783 18.9386 335.771 18.4217C335.759 17.9048 336.245 17.4934 336.856 17.5033C337.467 17.5133 337.971 17.9404 337.983 18.4578Z" fill="#69DBEF"/>
<path d="M305.668 563.002C306.167 563.531 306.739 564.266 307.383 565.207L306.982 565.31C306.545 564.635 306.086 564.051 305.608 563.557C305.128 563.063 304.532 562.571 303.819 562.084C302.017 560.855 300.041 560.007 297.887 559.54C298.231 561.614 297.628 563.479 296.076 565.136C294.859 566.436 293.317 567.42 291.45 568.088C289.583 568.757 287.584 569.107 285.456 569.136C283.325 569.166 281.169 568.874 278.985 568.26C276.799 567.646 274.795 566.717 272.973 565.474C272.169 564.925 271.54 564.434 271.085 564C270.63 563.566 270.178 563.047 269.73 562.446C269.188 562.538 268.762 562.614 268.451 562.676C268.141 562.737 267.659 562.818 267.007 562.918C266.275 563.049 265.62 563.149 265.046 563.219C264.471 563.289 263.931 563.35 263.424 563.403C262.916 563.456 262.414 563.502 261.919 563.542C261.424 563.583 260.888 563.637 260.315 563.707L259.205 563.832L258.58 563.847C259.561 565.735 260.071 567.323 260.113 568.611C260.153 569.899 259.729 571.018 258.841 571.967C257.737 573.146 256.233 573.652 254.328 573.485C252.424 573.318 250.4 572.503 248.257 571.041C247.325 570.405 246.526 569.723 245.858 568.996C245.192 568.268 244.613 567.486 244.125 566.648C243.865 566.219 243.603 565.725 243.338 565.166C243.072 564.607 242.76 563.867 242.399 562.949C240.191 562.534 238.128 561.978 236.214 561.28C234.297 560.58 232.656 559.765 231.29 558.832C229.521 557.624 228.404 556.424 227.943 555.232C227.482 554.04 227.705 552.959 228.612 551.991C229.615 550.92 231.343 550.469 233.799 550.641C236.253 550.813 239.365 551.517 243.137 552.754L244.012 553.039C244.315 552.66 244.551 552.382 244.718 552.204C244.908 552 245.087 551.808 245.255 551.63C247.021 549.744 249.111 548.256 251.527 547.168C253.942 546.08 256.946 545.3 260.539 544.827C263.316 544.465 265.93 544.318 268.382 544.383C270.836 544.449 273.392 544.743 276.054 545.263C282.063 546.441 287.096 548.414 291.157 551.185C292.984 552.434 294.463 553.703 295.59 554.995C296.716 556.286 297.428 557.534 297.723 558.738C300.1 559.401 302.142 560.313 303.851 561.479C304.564 561.967 305.17 562.475 305.668 563.002ZM228.952 555.419C229.392 556.388 230.359 557.382 231.849 558.399C233.153 559.289 234.583 560.004 236.139 560.544C237.694 561.083 239.715 561.575 242.201 562.018C241.847 560.439 241.785 558.956 242.017 557.567C242.248 556.18 242.776 554.827 243.601 553.51C242.145 552.892 240.674 552.41 239.19 552.066C237.706 551.722 236.314 551.523 235.014 551.472C233.714 551.42 232.56 551.51 231.555 551.742C230.547 551.974 229.806 552.346 229.329 552.856C228.636 553.596 228.511 554.45 228.952 555.419ZM284.34 548.319C281.694 547.286 278.883 546.484 275.904 545.914C273.302 545.433 270.811 545.185 268.433 545.17C266.055 545.155 263.535 545.347 260.873 545.744C257.425 546.273 254.518 547.069 252.153 548.128C249.787 549.187 247.78 550.596 246.134 552.355C245.942 552.559 245.791 552.748 245.679 552.922C245.566 553.097 245.394 553.334 245.163 553.636C246.472 554.195 247.569 554.736 248.455 555.256C249.341 555.778 250.359 556.431 251.507 557.214C252.222 557.702 252.845 558.137 253.376 558.52C253.906 558.904 254.382 559.281 254.8 559.65C255.218 560.019 255.618 560.406 256 560.814C256.382 561.221 256.75 561.67 257.104 562.162C257.323 562.145 257.494 562.126 257.616 562.105C257.737 562.084 257.853 562.069 257.963 562.06C258.317 562.009 258.766 561.949 259.312 561.884C259.858 561.817 260.511 561.73 261.272 561.624C261.979 561.522 262.59 561.426 263.105 561.339C263.618 561.251 264.037 561.17 264.36 561.098L267.543 560.388L268.274 560.261C267.054 557.922 267.218 555.926 268.77 554.269C269.677 553.3 270.838 552.631 272.254 552.259C273.67 551.889 275.206 551.851 276.863 552.146L276.789 552.471C275.303 552.209 273.917 552.277 272.631 552.672C271.343 553.069 270.27 553.726 269.411 554.643C267.955 556.198 267.803 558.018 268.958 560.101L269.889 559.921L273.192 559.167C273.78 559.027 274.406 558.889 275.066 558.754C275.726 558.62 276.448 558.487 277.235 558.354C279.379 558.021 281.252 557.785 282.858 557.648C284.462 557.511 286.172 557.477 287.989 557.548C288.772 557.581 289.53 557.628 290.263 557.688C290.994 557.749 291.739 557.81 292.499 557.868C293.345 557.943 294.031 558.026 294.559 558.114C295.087 558.203 295.795 558.342 296.687 558.533C296.038 556.126 294.239 553.916 291.29 551.903C289.303 550.546 286.986 549.352 284.34 548.319ZM248.289 555.801C247.196 555.201 246.026 554.643 244.78 554.126C244.236 554.925 243.81 555.679 243.503 556.388C243.194 557.097 242.979 557.871 242.858 558.707C242.732 559.331 242.683 559.872 242.713 560.33C242.742 560.788 242.821 561.438 242.949 562.278C244.169 562.443 245.11 562.552 245.772 562.607C246.433 562.661 247.194 562.69 248.057 562.694C249.115 562.705 250.197 562.691 251.302 562.652C252.408 562.613 253.792 562.493 255.457 562.291L256.399 562.182C255.713 561.338 255.029 560.6 254.349 559.968C253.668 559.337 252.784 558.65 251.698 557.908C250.518 557.103 249.381 556.4 248.289 555.801ZM251.842 563.992C250.976 563.965 250.136 563.925 249.322 563.87C248.507 563.816 247.675 563.739 246.827 563.641C245.978 563.541 245.053 563.401 244.053 563.22L243.326 563.099C243.834 564.784 244.523 566.236 245.393 567.456C246.261 568.675 247.394 569.762 248.79 570.716C250.56 571.924 252.231 572.531 253.802 572.538C255.373 572.544 256.696 571.975 257.769 570.828C258.581 569.961 258.99 568.913 258.995 567.684C259.001 566.455 258.616 565.222 257.842 563.983C257.097 564.017 256.522 564.032 256.12 564.029C255.715 564.026 255.236 564.021 254.68 564.018C253.652 564.027 252.706 564.018 251.842 563.992ZM287.172 558.87C286.449 558.961 285.652 559.065 284.782 559.18C283.995 559.313 283.284 559.434 282.648 559.542C282.012 559.651 281.364 559.774 280.705 559.908C280.043 560.042 279.318 560.205 278.528 560.397C277.738 560.589 276.78 560.823 275.656 561.1C275.066 561.241 274.549 561.357 274.105 561.452C273.661 561.546 273.258 561.636 272.896 561.724C272.535 561.811 272.173 561.898 271.812 561.985C271.45 562.073 271.013 562.172 270.503 562.283C271.073 562.923 271.554 563.43 271.945 563.8C272.335 564.171 272.794 564.537 273.323 564.897C276.769 567.25 280.592 568.167 284.792 567.649C285.772 567.525 286.754 567.318 287.739 567.029C288.722 566.739 289.674 566.375 290.593 565.937C291.512 565.499 292.367 565.006 293.159 564.46C293.949 563.914 294.632 563.335 295.205 562.723C295.802 562.086 296.197 561.541 296.392 561.089C296.586 560.636 296.692 560.02 296.712 559.239C295.649 559.014 294.414 558.852 293.01 558.75C291.604 558.647 290.282 558.632 289.043 558.706C288.517 558.723 287.894 558.777 287.172 558.87Z" fill="#F6D4BA" fill-opacity="0.9"/>
<path d="M310.206 561.579C311.862 560.467 313.866 559.619 316.215 559.034C316.455 557.838 317.112 556.613 318.18 555.356C319.25 554.1 320.671 552.877 322.444 551.687C326.383 549.045 331.331 547.233 337.291 546.25C339.931 545.814 342.476 545.603 344.928 545.617C347.38 545.631 350.003 545.863 352.797 546.314C356.415 546.904 359.456 547.782 361.922 548.949C364.388 550.116 366.547 551.672 368.4 553.617C368.575 553.801 368.763 553.999 368.963 554.209C369.139 554.393 369.387 554.679 369.707 555.066L370.57 554.81C374.289 553.695 377.371 553.091 379.82 552.998C382.269 552.906 384.02 553.412 385.071 554.516C386.022 555.515 386.294 556.603 385.886 557.781C385.479 558.96 384.416 560.125 382.7 561.277C381.375 562.165 379.769 562.928 377.883 563.566C375.998 564.203 373.96 564.693 371.769 565.036C371.449 565.944 371.17 566.674 370.93 567.225C370.689 567.776 370.449 568.262 370.208 568.683C369.758 569.505 369.215 570.269 368.58 570.977C367.944 571.682 367.176 572.339 366.271 572.945C364.194 574.34 362.205 575.088 360.307 575.194C358.408 575.3 356.88 574.745 355.721 573.529C354.79 572.551 354.316 571.418 354.298 570.13C354.281 568.842 354.721 567.27 355.616 565.412L354.99 565.377L353.874 565.216C353.297 565.127 352.759 565.055 352.261 564.999C351.764 564.943 351.26 564.881 350.75 564.812C350.239 564.742 349.695 564.663 349.117 564.574C348.54 564.486 347.88 564.364 347.141 564.21C346.483 564.088 345.999 563.992 345.685 563.921C345.372 563.849 344.941 563.759 344.394 563.649C343.973 564.236 343.544 564.741 343.11 565.161C342.674 565.58 342.066 566.051 341.287 566.574C339.519 567.76 337.555 568.625 335.396 569.169C333.237 569.713 331.093 569.936 328.96 569.836C326.828 569.738 324.812 569.324 322.914 568.593C321.016 567.864 319.428 566.829 318.152 565.489C316.524 563.781 315.835 561.895 316.086 559.83C313.952 560.228 312.012 561.013 310.266 562.185C309.573 562.649 308.999 563.122 308.54 563.6C308.085 564.08 307.652 564.65 307.245 565.31L306.839 565.195C307.442 564.273 307.981 563.556 308.455 563.044C308.93 562.532 309.514 562.044 310.206 561.579ZM384.392 555.358C383.892 554.834 383.134 554.437 382.115 554.173C381.098 553.908 379.941 553.78 378.641 553.79C377.343 553.799 375.958 553.953 374.489 554.25C373.02 554.546 371.569 554.98 370.139 555.552C371.025 556.896 371.615 558.267 371.908 559.664C372.203 561.061 372.208 562.543 371.925 564.112C374.393 563.748 376.393 563.322 377.925 562.832C379.458 562.343 380.856 561.673 382.121 560.825C383.567 559.855 384.489 558.892 384.886 557.936C385.283 556.98 385.119 556.122 384.392 555.358ZM322.344 552.401C319.482 554.321 317.782 556.474 317.243 558.862C318.125 558.7 318.828 558.583 319.352 558.511C319.877 558.44 320.56 558.379 321.402 558.331C322.16 558.298 322.904 558.262 323.633 558.224C324.363 558.187 325.119 558.164 325.9 558.157C327.717 558.145 329.43 558.235 331.042 558.424C332.653 558.612 334.54 558.909 336.7 559.312C337.493 559.47 338.222 559.627 338.889 559.783C339.556 559.939 340.187 560.097 340.784 560.256L344.121 561.118L345.062 561.327C346.123 559.28 345.89 557.455 344.363 555.851C343.461 554.905 342.358 554.214 341.051 553.775C339.746 553.337 338.356 553.225 336.882 553.439L336.792 553.111C338.437 552.87 339.977 552.957 341.409 553.373C342.843 553.791 344.035 554.499 344.986 555.497C346.615 557.206 346.869 559.21 345.753 561.509L346.49 561.661L349.708 562.475C350.035 562.558 350.457 562.651 350.975 562.755C351.495 562.859 352.11 562.975 352.822 563.1C353.589 563.231 354.247 563.339 354.795 563.424C355.345 563.508 355.796 563.581 356.153 563.643C356.264 563.656 356.38 563.675 356.502 563.7C356.626 563.725 356.797 563.75 357.017 563.774C357.349 563.293 357.698 562.856 358.061 562.46C358.425 562.065 358.807 561.69 359.209 561.334C359.611 560.979 360.07 560.617 360.584 560.251C361.098 559.884 361.702 559.468 362.394 559.003C363.508 558.256 364.497 557.635 365.36 557.142C366.224 556.65 367.297 556.145 368.582 555.628C368.337 555.319 368.154 555.075 368.034 554.897C367.914 554.719 367.754 554.525 367.553 554.314C365.826 552.501 363.755 551.026 361.34 549.889C358.924 548.753 355.979 547.864 352.504 547.222C349.823 546.738 347.292 546.465 344.914 546.403C342.534 546.34 340.052 546.508 337.469 546.906C334.515 547.38 331.739 548.091 329.136 549.039C326.536 549.988 324.271 551.108 322.344 552.401ZM362.235 559.692C361.182 560.399 360.328 561.058 359.676 561.668C359.023 562.278 358.373 562.994 357.724 563.817L358.672 563.956C360.348 564.212 361.738 564.377 362.845 564.451C363.953 564.527 365.038 564.576 366.096 564.599C366.959 564.622 367.719 564.618 368.378 564.585C369.038 564.552 369.974 564.473 371.188 564.348C371.279 563.511 371.329 562.864 371.337 562.406C371.345 561.948 371.272 561.405 371.117 560.776C370.959 559.936 370.709 559.155 370.368 558.436C370.028 557.716 369.569 556.947 368.988 556.131C367.764 556.607 366.619 557.128 365.552 557.693C364.486 558.257 363.38 558.923 362.235 559.692ZM359.527 565.71C358.97 565.695 358.491 565.683 358.087 565.674C357.684 565.665 357.109 565.631 356.361 565.572C355.642 566.787 355.314 568.009 355.374 569.239C355.435 570.469 355.891 571.53 356.743 572.425C357.869 573.607 359.219 574.22 360.79 574.264C362.363 574.308 364.007 573.754 365.723 572.602C367.077 571.693 368.162 570.642 368.977 569.45C369.791 568.258 370.415 566.827 370.849 565.157L370.126 565.254C369.133 565.403 368.214 565.514 367.368 565.585C366.525 565.657 365.695 565.706 364.882 565.735C364.07 565.763 363.231 565.776 362.366 565.775C361.503 565.774 360.556 565.752 359.527 565.71ZM324.899 559.282C323.656 559.168 322.334 559.14 320.932 559.197C319.531 559.254 318.302 559.378 317.249 559.567C317.304 560.35 317.438 560.97 317.652 561.429C317.868 561.889 318.289 562.446 318.914 563.103C319.515 563.734 320.224 564.335 321.04 564.908C321.857 565.48 322.735 565.999 323.675 566.468C324.614 566.936 325.583 567.331 326.58 567.653C327.578 567.975 328.571 568.214 329.558 568.37C333.783 569.023 337.568 568.229 340.911 565.986C341.423 565.643 341.866 565.291 342.24 564.933C342.615 564.575 343.073 564.084 343.614 563.461C343.099 563.334 342.658 563.221 342.29 563.121C341.926 563.022 341.56 562.924 341.194 562.824C340.828 562.725 340.421 562.621 339.972 562.513C339.524 562.405 339.001 562.271 338.404 562.11C337.267 561.798 336.298 561.532 335.498 561.314C334.699 561.097 333.966 560.911 333.298 560.754C332.632 560.599 331.978 560.457 331.336 560.326C330.695 560.198 329.978 560.053 329.185 559.895C328.308 559.752 327.507 559.622 326.779 559.506C326.052 559.391 325.425 559.316 324.899 559.282Z" fill="#F6D4BA" fill-opacity="0.9"/>
<path d="M302.021 553.372C302.614 553.438 303.21 553.426 303.809 553.334C304.866 553.173 305.592 552.743 305.991 552.043C306.388 551.342 306.431 550.384 306.12 549.167C305.913 548.356 305.574 547.53 305.103 546.688C304.631 545.846 304.051 545.041 303.36 544.272C303.031 543.917 302.654 543.549 302.227 543.169C301.801 542.789 301.338 542.411 300.839 542.034C300.341 541.656 299.821 541.287 299.28 540.924C298.739 540.562 298.19 540.22 297.632 539.899C296.602 539.307 295.548 538.779 294.47 538.319C293.392 537.859 292.32 537.475 291.253 537.17C290.244 536.87 289.332 536.686 288.518 536.614C287.704 536.542 286.918 536.564 286.16 536.68C283.8 537.038 282.915 538.375 283.507 540.688C283.614 541.109 283.772 541.53 283.98 541.95C284.188 542.372 284.476 542.835 284.843 543.341C285.061 543.62 285.277 543.892 285.49 544.156C285.704 544.419 285.927 544.683 286.159 544.944C286.458 545.257 286.752 545.548 287.04 545.816C287.328 546.085 287.635 546.358 287.963 546.636C288.29 546.914 288.655 547.198 289.059 547.488C289.462 547.778 289.918 548.095 290.427 548.439C290.893 548.758 291.305 549.031 291.665 549.257C292.025 549.484 292.379 549.687 292.727 549.868C293.075 550.05 293.439 550.22 293.819 550.381C294.198 550.542 294.643 550.724 295.152 550.928C295.622 551.122 296.048 551.283 296.429 551.413C296.809 551.542 297.148 551.647 297.442 551.727C298.189 551.926 298.93 552.054 299.668 552.114C300.406 552.173 301.057 552.161 301.621 552.075C303.188 551.837 303.795 551.026 303.443 549.645C303.324 549.179 303.087 548.683 302.734 548.16C302.38 547.636 301.933 547.103 301.392 546.561C300.852 546.02 300.235 545.489 299.545 544.969C298.854 544.45 298.105 543.971 297.298 543.531C296.632 543.149 295.965 542.813 295.298 542.525C294.629 542.236 293.993 542.001 293.388 541.82C292.783 541.639 292.221 541.513 291.701 541.444C291.179 541.375 290.734 541.369 290.364 541.425C289.396 541.572 289.031 542.112 289.268 543.043C289.371 543.449 289.648 543.887 290.098 544.357C290.547 544.827 291.155 545.308 291.921 545.801C292.751 546.33 293.545 546.716 294.303 546.96C295.061 547.204 295.739 547.28 296.338 547.189C296.426 547.176 296.579 547.129 296.796 547.049L296.874 547.248C296.72 547.287 296.59 547.315 296.484 547.33C296.396 547.344 296.299 547.359 296.194 547.375C295.612 547.463 294.964 547.417 294.251 547.237C293.537 547.056 292.804 546.751 292.054 546.319C291.668 546.097 291.306 545.847 290.97 545.57C290.634 545.294 290.333 545.008 290.065 544.713C289.798 544.417 289.57 544.121 289.384 543.821C289.199 543.522 289.069 543.23 288.996 542.944C288.842 542.343 288.908 541.849 289.193 541.463C289.48 541.076 289.974 540.829 290.679 540.722C291.295 540.628 292.011 540.671 292.825 540.85C293.639 541.03 294.514 541.336 295.448 541.77C296.446 542.24 297.411 542.793 298.342 543.43C299.273 544.066 300.113 544.739 300.861 545.449C301.61 546.16 302.247 546.88 302.772 547.609C303.296 548.338 303.641 549.024 303.805 549.668C304 550.432 303.863 551.075 303.393 551.597C302.922 552.12 302.15 552.463 301.075 552.626C299.948 552.798 298.668 552.692 297.235 552.311C295.801 551.929 294.263 551.28 292.62 550.361C291.466 549.711 290.36 548.984 289.304 548.18C288.247 547.375 287.298 546.542 286.456 545.681C285.614 544.821 284.911 543.966 284.347 543.118C283.783 542.269 283.404 541.471 283.213 540.722C283.117 540.347 283.057 539.986 283.033 539.639C283.009 539.293 283.013 538.969 283.046 538.669C283.115 537.863 283.494 537.168 284.186 536.58C284.878 535.992 285.769 535.615 286.862 535.449C287.707 535.321 288.676 535.353 289.768 535.546C290.86 535.738 292.004 536.063 293.201 536.52C294.397 536.978 295.599 537.547 296.808 538.228C298.015 538.91 299.16 539.683 300.241 540.548C301.091 541.229 301.873 541.925 302.585 542.635C303.297 543.346 303.895 544.038 304.378 544.713C304.861 545.388 305.285 546.114 305.649 546.893C306.012 547.672 306.287 548.421 306.47 549.142C306.808 550.462 306.763 551.522 306.336 552.319C305.907 553.117 305.139 553.6 304.029 553.769C302.744 553.965 301.492 553.757 300.275 553.146L300.387 552.941C300.882 553.162 301.427 553.306 302.021 553.372Z" fill="#F6D4BA" fill-opacity="0.9"/>
<path d="M313.078 553.16L313.199 553.368C312.009 553.94 310.766 554.108 309.469 553.87C308.352 553.665 307.561 553.157 307.097 552.345C306.633 551.533 306.541 550.472 306.818 549.16C306.97 548.446 307.211 547.705 307.539 546.937C307.868 546.169 308.259 545.456 308.712 544.796C309.166 544.137 309.732 543.463 310.413 542.775C311.094 542.087 311.844 541.416 312.666 540.762C313.708 539.932 314.818 539.195 315.996 538.552C317.174 537.909 318.351 537.378 319.528 536.959C320.705 536.54 321.835 536.252 322.92 536.095C324.004 535.938 324.972 535.937 325.824 536.093C326.924 536.294 327.834 536.7 328.552 537.31C329.271 537.921 329.683 538.629 329.787 539.438C329.834 539.739 329.853 540.063 329.845 540.409C329.835 540.755 329.792 541.115 329.712 541.487C329.555 542.23 329.212 543.017 328.686 543.848C328.16 544.679 327.495 545.511 326.691 546.345C325.888 547.179 324.975 547.983 323.954 548.753C322.933 549.524 321.86 550.216 320.734 550.829C319.132 551.695 317.621 552.295 316.204 552.63C314.787 552.966 313.511 553.03 312.375 552.822C311.293 552.624 310.504 552.256 310.009 551.718C309.515 551.179 309.349 550.531 309.51 549.774C309.645 549.135 309.958 548.459 310.451 547.747C310.944 547.034 311.548 546.334 312.265 545.647C312.982 544.96 313.792 544.314 314.695 543.708C315.598 543.101 316.538 542.578 317.516 542.14C318.432 541.736 319.293 541.458 320.1 541.304C320.906 541.151 321.621 541.132 322.242 541.246C322.952 541.375 323.458 541.638 323.762 542.034C324.065 542.431 324.153 542.927 324.026 543.524C323.966 543.807 323.849 544.095 323.677 544.39C323.504 544.683 323.291 544.972 323.036 545.259C322.782 545.546 322.493 545.822 322.169 546.088C321.845 546.354 321.495 546.592 321.118 546.801C320.387 547.21 319.668 547.493 318.96 547.65C318.255 547.807 317.608 547.832 317.023 547.725C316.917 547.706 316.82 547.688 316.73 547.671C316.624 547.652 316.492 547.62 316.335 547.576L316.404 547.379C316.626 547.466 316.781 547.518 316.871 547.534C317.473 547.645 318.149 547.59 318.896 547.371C319.644 547.151 320.42 546.79 321.228 546.288C321.972 545.819 322.559 545.358 322.987 544.902C323.416 544.446 323.673 544.017 323.757 543.614C323.954 542.689 323.565 542.138 322.588 541.959C322.216 541.891 321.771 541.883 321.251 541.935C320.734 541.988 320.177 542.095 319.58 542.257C318.983 542.418 318.357 542.633 317.701 542.9C317.046 543.167 316.393 543.482 315.745 543.843C314.956 544.256 314.229 544.712 313.561 545.209C312.893 545.706 312.301 546.218 311.783 546.743C311.267 547.267 310.843 547.786 310.513 548.3C310.184 548.812 309.969 549.299 309.871 549.761C309.58 551.133 310.224 551.964 311.805 552.253C312.372 552.357 313.024 552.391 313.76 552.355C314.495 552.319 315.232 552.215 315.97 552.04C316.262 551.969 316.595 551.876 316.97 551.758C317.345 551.641 317.764 551.493 318.225 551.314C318.726 551.127 319.163 550.959 319.535 550.811C319.908 550.661 320.264 550.503 320.605 550.332C320.945 550.162 321.29 549.97 321.64 549.755C321.99 549.54 322.39 549.281 322.842 548.976C323.336 548.648 323.778 548.346 324.168 548.068C324.559 547.792 324.912 547.519 325.227 547.252C325.542 546.984 325.837 546.721 326.113 546.462C326.389 546.202 326.67 545.92 326.955 545.617C327.176 545.362 327.387 545.107 327.589 544.85C327.792 544.593 327.995 544.328 328.2 544.056C328.544 543.561 328.812 543.106 329 542.692C329.19 542.277 329.329 541.861 329.417 541.444C329.904 539.147 328.959 537.782 326.581 537.347C325.818 537.207 325.03 537.159 324.218 537.205C323.408 537.249 322.504 537.405 321.506 537.672C320.454 537.944 319.397 538.292 318.339 538.719C317.281 539.144 316.25 539.637 315.246 540.197C314.703 540.5 314.169 540.825 313.643 541.17C313.119 541.516 312.615 541.868 312.132 542.229C311.651 542.59 311.205 542.954 310.796 543.321C310.385 543.687 310.024 544.042 309.711 544.389C309.055 545.135 308.51 545.923 308.077 546.75C307.643 547.576 307.341 548.392 307.17 549.198C306.914 550.406 307.001 551.365 307.43 552.079C307.859 552.793 308.607 553.248 309.671 553.442C310.275 553.553 310.872 553.585 311.462 553.538C312.054 553.491 312.592 553.365 313.078 553.16Z" fill="#F6D4BA" fill-opacity="0.9"/>
<path d="M277.578 552.176C277.59 552.693 277.104 553.105 276.493 553.095C275.882 553.085 275.377 552.657 275.365 552.14C275.354 551.623 275.84 551.211 276.45 551.221C277.062 551.231 277.566 551.659 277.578 552.176Z" fill="#69DBEF"/>
<path d="M297.724 547.119C297.732 547.481 297.392 547.769 296.965 547.762C296.536 547.755 296.183 547.456 296.175 547.094C296.167 546.732 296.507 546.444 296.934 546.451C297.362 546.458 297.715 546.757 297.724 547.119Z" fill="#69DBEF"/>
<path d="M317.096 547.562C317.104 547.923 316.763 548.212 316.336 548.205C315.908 548.197 315.555 547.898 315.547 547.536C315.539 547.175 315.879 546.887 316.307 546.894C316.734 546.901 317.087 547.199 317.096 547.562Z" fill="#69DBEF"/>
<path d="M337.984 553.459C337.995 553.975 337.509 554.387 336.899 554.377C336.287 554.367 335.782 553.94 335.77 553.423C335.759 552.906 336.245 552.494 336.856 552.504C337.467 552.514 337.972 552.941 337.984 553.459Z" fill="#69DBEF"/>
<path d="M17.0729 220.134L8.37339 227.546L0 220.412L0.128474 220.303L8.69948 213L17.0729 220.134ZM16.5692 220.142L8.68967 213.429L0.503549 220.404L8.38298 227.117L16.5692 220.142Z" fill="#69DBEF"/>
<path d="M15.3944 220.16L8.40449 226.115L8.28113 226.01L1.67725 220.384L8.66619 214.429L15.3944 220.16ZM14.8906 220.169L8.65657 214.858L2.1805 220.376L8.41372 225.686L14.8906 220.169Z" fill="#69DBEF"/>
<path d="M13.7175 220.188L8.43685 224.686L8.31355 224.581L3.35498 220.357L8.63468 215.859L13.7175 220.188ZM13.2137 220.197L8.62528 216.288L3.85914 220.349L8.44674 224.257L13.2137 220.197Z" fill="#69DBEF"/>
<path d="M17.0729 242.679L8.37339 250.091L0 242.957L0.128474 242.848L8.69948 235.546L17.0729 242.679ZM16.5692 242.688L8.68967 235.975L0.503549 242.949L8.38298 249.662L16.5692 242.688Z" fill="#69DBEF"/>
<path d="M15.3944 242.706L8.40449 248.661L8.28113 248.556L1.67725 242.929L8.66619 236.975L15.3944 242.706ZM14.8906 242.714L8.65657 237.403L2.1805 242.921L8.41372 248.232L14.8906 242.714Z" fill="#69DBEF"/>
<path d="M13.7175 242.734L8.43685 247.232L8.31355 247.127L3.35498 242.903L8.63468 238.405L13.7175 242.734ZM13.2137 242.742L8.62528 238.834L3.85914 242.895L8.44674 246.803L13.2137 242.742Z" fill="#69DBEF"/>
<path d="M17.0729 265.225L8.37339 272.637L0 265.503L0.128474 265.394L8.69948 258.091L17.0729 265.225ZM16.5692 265.233L8.68967 258.52L0.503549 265.495L8.38298 272.208L16.5692 265.233Z" fill="#69DBEF"/>
<path d="M15.3944 265.252L8.40449 271.206L8.28113 271.101L1.67725 265.475L8.66619 259.52L15.3944 265.252ZM14.8906 265.26L8.65657 259.949L2.1805 265.467L8.41372 270.778L14.8906 265.26Z" fill="#69DBEF"/>
<path d="M13.7175 265.28L8.43685 269.777L8.31355 269.672L3.35498 265.448L8.63468 260.951L13.7175 265.28ZM13.2137 265.288L8.62528 261.379L3.85914 265.44L8.44674 269.348L13.2137 265.288Z" fill="#69DBEF"/>
<path d="M17.0729 287.771L8.37339 295.182L0 288.048L0.128474 287.939L8.69948 280.637L17.0729 287.771ZM16.5692 287.779L8.68967 281.066L0.503549 288.04L8.38298 294.753L16.5692 287.779Z" fill="#69DBEF"/>
<path d="M15.3944 287.797L8.40449 293.752L8.28113 293.647L1.67725 288.02L8.66619 282.066L15.3944 287.797ZM14.8906 287.805L8.65657 282.495L2.1805 288.013L8.41372 293.323L14.8906 287.805Z" fill="#69DBEF"/>
<path d="M13.7175 287.825L8.43685 292.323L8.31355 292.218L3.35498 287.994L8.63468 283.496L13.7175 287.825ZM13.2137 287.834L8.62528 283.925L3.85914 287.986L8.44674 291.894L13.2137 287.834Z" fill="#69DBEF"/>
<path d="M17.0729 310.316L8.37339 317.728L0 310.594L0.128474 310.485L8.69948 303.182L17.0729 310.316ZM16.5692 310.325L8.68967 303.611L0.503549 310.586L8.38298 317.299L16.5692 310.325Z" fill="#69DBEF"/>
<path d="M15.3944 310.343L8.40449 316.298L8.28113 316.192L1.67725 310.566L8.66619 304.611L15.3944 310.343ZM14.8906 310.351L8.65657 305.04L2.1805 310.558L8.41372 315.869L14.8906 310.351Z" fill="#69DBEF"/>
<path d="M13.7175 310.371L8.43685 314.868L8.31355 314.763L3.35498 310.54L8.63468 306.042L13.7175 310.371ZM13.2137 310.379L8.62528 306.47L3.85914 310.531L8.44674 314.439L13.2137 310.379Z" fill="#69DBEF"/>
<path d="M17.0729 332.862L8.37339 340.274L0 333.14L0.128474 333.031L8.69948 325.728L17.0729 332.862ZM16.5692 332.87L8.68967 326.157L0.503549 333.132L8.38298 339.845L16.5692 332.87Z" fill="#69DBEF"/>
<path d="M15.3944 332.888L8.40449 338.843L8.28113 338.738L1.67725 333.112L8.66619 327.157L15.3944 332.888ZM14.8906 332.897L8.65657 327.586L2.1805 333.104L8.41372 338.414L14.8906 332.897Z" fill="#69DBEF"/>
<path d="M13.7175 332.916L8.43685 337.414L8.31355 337.309L3.35498 333.085L8.63468 328.587L13.7175 332.916ZM13.2137 332.925L8.62528 329.016L3.85914 333.077L8.44674 336.985L13.2137 332.925Z" fill="#69DBEF"/>
<path d="M17.0729 355.407L8.37339 362.819L0 355.685L0.128474 355.576L8.69948 348.274L17.0729 355.407ZM16.5692 355.416L8.68967 348.703L0.503549 355.677L8.38298 362.39L16.5692 355.416Z" fill="#69DBEF"/>
<path d="M15.3944 355.434L8.40449 361.389L8.28113 361.284L1.67725 355.657L8.66619 349.703L15.3944 355.434ZM14.8906 355.442L8.65657 350.132L2.1805 355.65L8.41372 360.96L14.8906 355.442Z" fill="#69DBEF"/>
<path d="M13.7175 355.462L8.43685 359.96L8.31355 359.855L3.35498 355.631L8.63468 351.133L13.7175 355.462ZM13.2137 355.471L8.62528 351.562L3.85914 355.623L8.44674 359.531L13.2137 355.471Z" fill="#69DBEF"/>
<path d="M613.607 220.134L604.908 227.546L596.534 220.412L596.663 220.303L605.234 213L613.607 220.134ZM613.104 220.142L605.224 213.429L597.038 220.404L604.917 227.117L613.104 220.142Z" fill="#69DBEF"/>
<path d="M611.929 220.16L604.939 226.115L604.816 226.01L598.212 220.384L605.201 214.429L611.929 220.16ZM611.425 220.169L605.191 214.858L598.715 220.376L604.948 225.686L611.425 220.169Z" fill="#69DBEF"/>
<path d="M610.252 220.188L604.971 224.686L604.848 224.581L599.889 220.357L605.169 215.859L610.252 220.188ZM609.748 220.197L605.16 216.288L600.394 220.349L604.981 224.257L609.748 220.197Z" fill="#69DBEF"/>
<path d="M613.607 242.679L604.908 250.091L596.534 242.957L596.663 242.848L605.234 235.546L613.607 242.679ZM613.104 242.688L605.224 235.975L597.038 242.949L604.917 249.662L613.104 242.688Z" fill="#69DBEF"/>
<path d="M611.929 242.706L604.939 248.661L604.816 248.556L598.212 242.929L605.201 236.975L611.929 242.706ZM611.425 242.714L605.191 237.403L598.715 242.921L604.948 248.232L611.425 242.714Z" fill="#69DBEF"/>
<path d="M610.252 242.734L604.971 247.232L604.848 247.127L599.889 242.903L605.169 238.405L610.252 242.734ZM609.748 242.742L605.16 238.834L600.394 242.895L604.981 246.803L609.748 242.742Z" fill="#69DBEF"/>
<path d="M613.607 265.225L604.908 272.637L596.534 265.503L596.663 265.394L605.234 258.091L613.607 265.225ZM613.104 265.233L605.224 258.52L597.038 265.495L604.917 272.208L613.104 265.233Z" fill="#69DBEF"/>
<path d="M611.929 265.252L604.939 271.206L604.816 271.101L598.212 265.475L605.201 259.52L611.929 265.252ZM611.425 265.26L605.191 259.949L598.715 265.467L604.948 270.778L611.425 265.26Z" fill="#69DBEF"/>
<path d="M610.252 265.28L604.971 269.777L604.848 269.672L599.889 265.448L605.169 260.951L610.252 265.28ZM609.748 265.288L605.16 261.379L600.394 265.44L604.981 269.348L609.748 265.288Z" fill="#69DBEF"/>
<path d="M613.607 287.771L604.908 295.182L596.534 288.048L596.663 287.939L605.234 280.637L613.607 287.771ZM613.104 287.779L605.224 281.066L597.038 288.04L604.917 294.753L613.104 287.779Z" fill="#69DBEF"/>
<path d="M611.929 287.797L604.939 293.752L604.816 293.647L598.212 288.02L605.201 282.066L611.929 287.797ZM611.425 287.805L605.191 282.495L598.715 288.013L604.948 293.323L611.425 287.805Z" fill="#69DBEF"/>
<path d="M610.252 287.825L604.971 292.323L604.848 292.218L599.889 287.994L605.169 283.496L610.252 287.825ZM609.748 287.834L605.16 283.925L600.394 287.986L604.981 291.894L609.748 287.834Z" fill="#69DBEF"/>
<path d="M613.607 310.316L604.908 317.728L596.534 310.594L596.663 310.485L605.234 303.182L613.607 310.316ZM613.104 310.325L605.224 303.611L597.038 310.586L604.917 317.299L613.104 310.325Z" fill="#69DBEF"/>
<path d="M611.929 310.343L604.939 316.298L604.816 316.192L598.212 310.566L605.201 304.611L611.929 310.343ZM611.425 310.351L605.191 305.04L598.715 310.558L604.948 315.869L611.425 310.351Z" fill="#69DBEF"/>
<path d="M610.252 310.371L604.971 314.868L604.848 314.763L599.889 310.54L605.169 306.042L610.252 310.371ZM609.748 310.379L605.16 306.47L600.394 310.531L604.981 314.439L609.748 310.379Z" fill="#69DBEF"/>
<path d="M613.607 332.862L604.908 340.274L596.534 333.14L596.663 333.031L605.234 325.728L613.607 332.862ZM613.104 332.87L605.224 326.157L597.038 333.132L604.917 339.845L613.104 332.87Z" fill="#69DBEF"/>
<path d="M611.929 332.888L604.939 338.843L604.816 338.738L598.212 333.112L605.201 327.157L611.929 332.888ZM611.425 332.897L605.191 327.586L598.715 333.104L604.948 338.414L611.425 332.897Z" fill="#69DBEF"/>
<path d="M610.252 332.916L604.971 337.414L604.848 337.309L599.889 333.085L605.169 328.587L610.252 332.916ZM609.748 332.925L605.16 329.016L600.394 333.077L604.981 336.985L609.748 332.925Z" fill="#69DBEF"/>
<path d="M613.607 355.407L604.908 362.819L596.534 355.685L596.663 355.576L605.234 348.274L613.607 355.407ZM613.104 355.416L605.224 348.703L597.038 355.677L604.917 362.39L613.104 355.416Z" fill="#69DBEF"/>
<path d="M611.929 355.434L604.939 361.389L604.816 361.284L598.212 355.657L605.201 349.703L611.929 355.434ZM611.425 355.442L605.191 350.132L598.715 355.65L604.948 360.96L611.425 355.442Z" fill="#69DBEF"/>
<path d="M610.252 355.462L604.971 359.96L604.848 359.855L599.889 355.631L605.169 351.133L610.252 355.462ZM609.748 355.471L605.16 351.562L600.394 355.623L604.981 359.531L609.748 355.471Z" fill="#69DBEF"/>
<path fill-rule="evenodd" clip-rule="evenodd" d="M589 20H389.696V19H589C597.837 19 605 26.1634 605 35V209H604V35C604 26.7157 597.284 20 589 20ZM604 367V541C604 549.284 597.284 556 589 556H389.696V557H589C597.837 557 605 549.837 605 541V367H604ZM223.825 556H24C15.7157 556 9.00001 549.284 9.00001 541L9.00001 367H8.00001V541C8.00001 549.837 15.1635 557 24 557H223.825V556ZM9.00001 35V209H8L8.00001 35C8.00001 26.1635 15.1635 19 24 19H223.825V20H24C15.7157 20 9.00001 26.7157 9.00001 35Z" fill="#D9D9D9"/>
</svg>
