<svg width="614" height="575" viewBox="0 0 614 575" fill="none" xmlns="http://www.w3.org/2000/svg">
<path d="M305.668 27.63C306.167 28.1585 306.738 28.8935 307.383 29.8345L306.982 29.9375C306.545 29.2626 306.086 28.6786 305.608 28.1843C305.128 27.6903 304.532 27.1992 303.819 26.712C302.017 25.483 300.041 24.635 297.887 24.168C298.231 26.2414 297.628 28.1067 296.076 29.7633C294.859 31.0633 293.317 32.0473 291.45 32.7159C289.583 33.3849 287.584 33.7349 285.456 33.7639C283.325 33.7942 281.169 33.5021 278.984 32.8882C276.799 32.274 274.795 31.3443 272.973 30.1014C272.169 29.5525 271.54 29.0617 271.085 28.6276C270.63 28.1935 270.178 27.675 269.73 27.0732C269.188 27.1657 268.762 27.2422 268.451 27.3033C268.141 27.3649 267.659 27.4458 267.007 27.546C266.274 27.6762 265.62 27.7764 265.046 27.8468C264.471 27.9167 263.931 27.9776 263.424 28.0308C262.916 28.084 262.414 28.13 261.919 28.1701C261.424 28.2103 260.888 28.2645 260.315 28.3343L259.205 28.4593L258.58 28.4747C259.561 30.3626 260.071 31.9503 260.113 33.2389C260.152 34.5271 259.729 35.6462 258.841 36.5943C257.737 37.7735 256.233 38.2794 254.328 38.1127C252.423 37.9455 250.399 37.1309 248.257 35.6687C247.325 35.0327 246.526 34.3502 245.858 33.6238C245.192 32.8956 244.613 32.1135 244.125 31.2759C243.865 30.8471 243.603 30.3524 243.338 29.7937C243.072 29.2347 242.76 28.4945 242.399 27.5763C240.191 27.1619 238.128 26.6052 236.213 25.9072C234.297 25.2079 232.656 24.3923 231.29 23.4602C229.521 22.2521 228.404 21.0515 227.943 19.8595C227.482 18.6673 227.705 17.587 228.612 16.6182C229.615 15.5473 231.343 15.0972 233.798 15.269C236.253 15.4406 239.365 16.1449 243.136 17.3814L244.012 17.6663C244.315 17.2878 244.551 17.0095 244.718 16.8313C244.908 16.6274 245.087 16.4362 245.255 16.2574C247.021 14.3712 249.111 12.8836 251.527 11.7954C253.942 10.7078 256.946 9.92725 260.539 9.45431C263.315 9.09315 265.93 8.94551 268.382 9.01068C270.835 9.07673 273.392 9.37026 276.053 9.8911C282.062 11.0686 287.096 13.0418 291.157 15.8128C292.984 17.0613 294.462 18.3312 295.59 19.6224C296.716 20.9141 297.428 22.1618 297.723 23.3655C300.099 24.0283 302.142 24.9412 303.851 26.107C304.564 26.5947 305.17 27.1023 305.668 27.63ZM228.952 20.0464C229.392 21.0158 230.359 22.0095 231.848 23.0268C233.153 23.9167 234.582 24.632 236.138 25.1717C237.694 25.7109 239.715 26.2026 242.201 26.646C241.847 25.0669 241.785 23.5836 242.017 22.1951C242.247 20.8076 242.776 19.4545 243.601 18.1376C242.145 17.5194 240.674 17.038 239.19 16.6939C237.706 16.3492 236.314 16.151 235.014 16.0992C233.713 16.0475 232.56 16.1379 231.554 16.3695C230.547 16.602 229.806 16.9737 229.329 17.4838C228.636 18.2234 228.51 19.0776 228.952 20.0464ZM284.34 12.9463C281.693 11.9132 278.883 11.1119 275.904 10.5413C273.302 10.0607 270.811 9.81222 268.433 9.79772C266.055 9.78312 263.535 9.97433 260.873 10.372C257.425 10.9007 254.518 11.6964 252.152 12.7555C249.787 13.8145 247.78 15.2239 246.133 16.9831C245.942 17.1867 245.79 17.3753 245.679 17.5502C245.566 17.7243 245.394 17.9618 245.163 18.264C246.472 18.8229 247.569 19.3634 248.455 19.8838C249.341 20.4054 250.359 21.0583 251.507 21.8422C252.222 22.3298 252.845 22.7652 253.376 23.1481C253.906 23.5318 254.382 23.9088 254.8 24.2779C255.218 24.6469 255.618 25.034 256 25.4417C256.381 25.849 256.75 26.2977 257.104 26.7899C257.323 26.7728 257.494 26.7534 257.616 26.7326C257.737 26.7114 257.853 26.6964 257.963 26.6874C258.317 26.6365 258.766 26.5766 259.312 26.5113C259.857 26.4443 260.511 26.3581 261.272 26.2514C261.979 26.1492 262.59 26.0534 263.105 25.9665C263.618 25.8785 264.037 25.7981 264.36 25.7258L267.543 25.016L268.274 24.8884C267.053 22.5502 267.218 20.5538 268.77 18.8965C269.677 17.9275 270.838 17.2582 272.254 16.887C273.67 16.5163 275.206 16.4786 276.863 16.7739L276.788 17.0989C275.302 16.837 273.917 16.9047 272.63 17.3001C271.343 17.6969 270.27 18.3537 269.411 19.2711C267.955 20.8261 267.803 22.6456 268.958 24.7283L269.889 24.5487L273.191 23.7945C273.78 23.6545 274.405 23.5168 275.066 23.382C275.726 23.2474 276.448 23.1144 277.234 22.9821C279.378 22.6491 281.252 22.4132 282.858 22.2762C284.462 22.139 286.172 22.1049 287.989 22.1755C288.772 22.2083 289.53 22.2552 290.263 22.316C290.994 22.3771 291.739 22.4372 292.499 22.4959C293.344 22.5711 294.031 22.6536 294.558 22.7419C295.086 22.8307 295.795 22.97 296.687 23.1604C296.038 20.754 294.239 18.5435 291.29 16.5303C289.302 15.1741 286.986 13.9796 284.34 12.9463ZM248.289 20.4284C247.196 19.8285 246.026 19.2704 244.78 18.7542C244.236 19.5524 243.81 20.3068 243.502 21.0154C243.194 21.7243 242.979 22.4984 242.858 23.3344C242.732 23.9588 242.683 24.4995 242.712 24.9581C242.741 25.4161 242.82 26.0659 242.949 26.9059C244.169 27.0706 245.109 27.1797 245.772 27.2343C246.433 27.2887 247.194 27.318 248.057 27.3215C249.114 27.3327 250.197 27.3189 251.302 27.2801C252.408 27.2406 253.792 27.1204 255.456 26.9189L256.398 26.8101C255.713 25.9655 255.029 25.2279 254.349 24.5961C253.667 23.9645 252.784 23.2775 251.698 22.5358C250.518 21.7304 249.381 21.0281 248.289 20.4284ZM251.842 28.6192C250.976 28.5925 250.135 28.5522 249.322 28.4979C248.507 28.4433 247.675 28.367 246.827 28.2682C245.978 28.1691 245.053 28.0285 244.053 27.8476L243.325 27.727C243.834 29.4121 244.523 30.8636 245.392 32.0835C246.261 33.3028 247.394 34.3894 248.79 35.3434C250.56 36.5514 252.23 37.1588 253.802 37.1655C255.373 37.1719 256.695 36.6027 257.769 35.4553C258.581 34.5889 258.99 33.541 258.995 32.312C259.001 31.0832 258.616 29.8494 257.842 28.6106C257.097 28.6451 256.522 28.6602 256.12 28.6567C255.715 28.6533 255.236 28.6492 254.679 28.6455C253.652 28.6546 252.706 28.646 251.842 28.6192ZM287.172 23.4973C286.448 23.5892 285.652 23.6931 284.782 23.808C283.995 23.9407 283.284 24.062 282.648 24.1702C282.012 24.2792 281.363 24.4013 280.704 24.5353C280.043 24.6698 279.318 24.8329 278.528 25.0244C277.738 25.2166 276.78 25.4508 275.656 25.7276C275.066 25.8688 274.549 25.9849 274.105 26.0796C273.661 26.1735 273.258 26.2639 272.896 26.3513C272.535 26.4391 272.173 26.526 271.812 26.6129C271.45 26.701 271.013 26.8 270.503 26.9105C271.073 27.5504 271.554 28.0577 271.945 28.428C272.334 28.7984 272.794 29.1644 273.322 29.5246C276.769 31.8775 280.591 32.7943 284.792 32.277C285.772 32.1529 286.754 31.9459 287.739 31.6568C288.722 31.3666 289.674 31.0026 290.593 30.5648C291.512 30.1265 292.367 29.6337 293.159 29.0882C293.949 28.5418 294.632 27.9629 295.204 27.351C295.802 26.7141 296.197 26.1689 296.392 25.7168C296.586 25.2641 296.692 24.6479 296.712 23.8667C295.648 23.642 294.414 23.4794 293.01 23.3773C291.604 23.2744 290.282 23.2601 289.043 23.3334C288.517 23.3507 287.894 23.4051 287.172 23.4973Z" fill="#F6D4BA" fill-opacity="0.9"/>
<path d="M310.206 26.2063C311.862 25.0952 313.866 24.2469 316.215 23.6616C316.455 22.4662 317.112 21.2406 318.18 19.9842C319.25 18.728 320.671 17.5044 322.444 16.3151C326.383 13.6731 331.331 11.8612 337.291 10.8773C339.931 10.4421 342.477 10.2311 344.928 10.245C347.38 10.2585 350.003 10.4908 352.798 10.9421C356.415 11.5321 359.456 12.4098 361.922 13.5763C364.389 14.7438 366.547 16.2997 368.4 18.245C368.575 18.4292 368.764 18.6264 368.964 18.8363C369.139 19.0203 369.387 19.3064 369.707 19.6941L370.57 19.4379C374.289 18.323 377.371 17.7183 379.82 17.6261C382.269 17.5335 384.02 18.0396 385.071 19.1439C386.022 20.1427 386.294 21.2309 385.886 22.4089C385.479 23.5877 384.416 24.753 382.7 25.9043C381.375 26.7932 379.769 27.5561 377.884 28.1936C375.998 28.8302 373.96 29.3208 371.769 29.6636C371.449 30.572 371.17 31.3014 370.93 31.853C370.689 32.4036 370.449 32.8898 370.208 33.311C369.758 34.133 369.215 34.8963 368.58 35.6045C367.944 36.3095 367.176 36.9666 366.272 37.5726C364.194 38.9674 362.205 39.7161 360.307 39.8218C358.408 39.9277 356.88 39.3724 355.721 38.1566C354.791 37.179 354.316 36.0461 354.298 34.7578C354.281 33.47 354.721 31.8974 355.616 30.0397L354.99 30.0045L353.874 29.8434C353.297 29.7551 352.759 29.6831 352.261 29.6272C351.764 29.571 351.26 29.5085 350.75 29.4392C350.239 29.3696 349.695 29.2906 349.117 29.2021C348.54 29.1132 347.88 28.9922 347.141 28.8377C346.483 28.7162 345.999 28.6197 345.685 28.5484C345.372 28.4769 344.942 28.3865 344.394 28.2766C343.973 28.8642 343.544 29.3688 343.11 29.7889C342.674 30.2077 342.066 30.6783 341.287 31.2018C339.519 32.3873 337.555 33.2527 335.396 33.7966C333.238 34.3405 331.093 34.5632 328.961 34.4641C326.828 34.3662 324.812 33.9515 322.915 33.2211C321.016 32.4919 319.428 31.4568 318.152 30.1164C316.524 28.4084 315.835 26.5225 316.086 24.4581C313.952 24.8562 312.012 25.6408 310.266 26.8128C309.573 27.2769 308.999 27.7494 308.54 28.228C308.085 28.7075 307.652 29.2774 307.245 29.9375L306.839 29.8225C307.442 28.9011 307.981 28.1841 308.455 27.6722C308.93 27.1599 309.514 26.6713 310.206 26.2063ZM384.392 19.9861C383.893 19.4613 383.134 19.0651 382.115 18.8004C381.098 18.5358 379.941 18.4079 378.641 18.4173C377.343 18.4271 375.958 18.5803 374.489 18.8773C373.02 19.1735 371.569 19.608 370.139 20.1802C371.025 21.5242 371.615 22.8952 371.908 24.2914C372.203 25.6883 372.208 27.1712 371.925 28.7394C374.393 28.376 376.393 27.95 377.925 27.4602C379.458 26.9706 380.856 26.3008 382.121 25.4526C383.567 24.4826 384.489 23.5195 384.886 22.564C385.283 21.6081 385.12 20.7492 384.392 19.9861ZM322.344 17.029C319.483 18.9484 317.782 21.1021 317.243 23.4893C318.125 23.3278 318.829 23.2108 319.353 23.1387C319.878 23.068 320.56 23.007 321.402 22.959C322.16 22.9253 322.904 22.8894 323.633 22.8521C324.363 22.8144 325.119 22.7921 325.901 22.7846C327.717 22.7729 329.43 22.8623 331.042 23.0514C332.653 23.2402 334.54 23.5369 336.7 23.9398C337.493 24.0975 338.222 24.2543 338.889 24.4107C339.556 24.5666 340.187 24.7243 340.784 24.884L344.121 25.7454L345.062 25.9549C346.123 23.9078 345.89 22.0827 344.363 20.4788C343.461 19.5326 342.358 18.8414 341.051 18.4029C339.746 17.9649 338.356 17.8527 336.882 18.0668L336.792 17.7388C338.437 17.4975 339.977 17.585 341.409 18.0012C342.843 18.4183 344.036 19.1263 344.987 20.1248C346.615 21.8338 346.869 23.8374 345.753 26.137L346.49 26.2887L349.708 27.1024C350.035 27.1858 350.457 27.2787 350.975 27.3828C351.495 27.487 352.11 27.6028 352.822 27.7278C353.589 27.8592 354.247 27.9666 354.795 28.0512C355.345 28.1353 355.797 28.209 356.153 28.2711C356.264 28.2836 356.38 28.3024 356.502 28.3275C356.626 28.3524 356.797 28.378 357.017 28.4018C357.35 27.9208 357.698 27.4835 358.061 27.0876C358.425 26.693 358.807 26.3177 359.209 25.9618C359.611 25.6063 360.071 25.2448 360.584 24.8784C361.098 24.5115 361.702 24.0958 362.395 23.6308C363.508 22.8835 364.497 22.2632 365.36 21.7697C366.224 21.2778 367.297 20.7723 368.582 20.2558C368.337 19.9464 368.154 19.7023 368.034 19.5244C367.914 19.3464 367.754 19.1524 367.553 18.9422C365.826 17.1287 363.755 15.6537 361.34 14.5172C358.924 13.3807 355.979 12.4914 352.504 11.8494C349.823 11.3661 347.292 11.0925 344.914 11.031C342.534 10.968 340.052 11.1361 337.469 11.5333C334.516 12.0076 331.739 12.7189 329.136 13.667C326.536 14.6154 324.271 15.736 322.344 17.029ZM362.235 24.3193C361.183 25.0264 360.329 25.6855 359.676 26.2959C359.023 26.9053 358.373 27.6212 357.724 28.4445L358.672 28.584C360.348 28.8397 361.738 29.0047 362.846 29.0792C363.954 29.1543 365.038 29.2037 366.096 29.2263C366.959 29.2499 367.719 29.2457 368.378 29.2131C369.039 29.1798 369.974 29.1011 371.188 28.9754C371.279 28.1388 371.329 27.4916 371.337 27.0339C371.345 26.5762 371.272 26.0331 371.118 25.4038C370.959 24.5633 370.709 23.7828 370.368 23.0637C370.028 22.3438 369.569 21.5751 368.988 20.7588C367.764 21.2352 366.619 21.7562 365.552 22.3204C364.486 22.8849 363.38 23.5511 362.235 24.3193ZM359.527 30.3373C358.97 30.3225 358.491 30.3108 358.087 30.3013C357.684 30.2926 357.109 30.2583 356.361 30.1996C355.643 31.4144 355.314 32.6371 355.374 33.8664C355.435 35.0969 355.891 36.1581 356.743 37.0524C357.869 38.2345 359.219 38.8474 360.79 38.8914C362.363 38.9358 364.007 38.382 365.723 37.2298C367.078 36.3208 368.162 35.2701 368.977 34.0778C369.791 32.8852 370.416 31.4545 370.849 29.785L370.126 29.8818C369.133 30.0311 368.214 30.1414 367.368 30.2127C366.525 30.2851 365.695 30.334 364.882 30.3626C364.07 30.3906 363.232 30.4036 362.366 30.403C361.503 30.4014 360.556 30.3798 359.527 30.3373ZM324.899 23.9094C323.656 23.796 322.334 23.7676 320.932 23.8249C319.531 23.8817 318.302 24.0053 317.249 24.1947C317.304 24.9774 317.438 25.5978 317.652 26.0571C317.868 26.5164 318.289 27.0738 318.914 27.7308C319.515 28.3614 320.224 28.9631 321.04 29.5357C321.857 30.1078 322.735 30.6272 323.675 31.0956C324.614 31.564 325.583 31.959 326.58 32.2807C327.578 32.6027 328.571 32.842 329.558 32.9973C333.783 33.6507 337.568 32.8567 340.911 30.6139C341.423 30.2706 341.866 29.919 342.24 29.5607C342.615 29.2027 343.073 28.7117 343.615 28.0885C343.099 27.9615 342.658 27.8487 342.29 27.7485C341.926 27.65 341.56 27.5513 341.194 27.4519C340.828 27.3523 340.421 27.2492 339.972 27.1409C339.524 27.0324 339.001 26.899 338.404 26.7381C337.267 26.4257 336.298 26.1597 335.498 25.9419C334.699 25.7249 333.966 25.5383 333.299 25.3819C332.632 25.2265 331.978 25.0843 331.336 24.9541C330.695 24.8252 329.978 24.6807 329.186 24.5229C328.308 24.3794 327.507 24.2492 326.779 24.1342C326.052 24.0183 325.425 23.9437 324.899 23.9094Z" fill="#F6D4BA" fill-opacity="0.9"/>
<path d="M302.021 17.9996C302.614 18.0653 303.21 18.0534 303.809 17.9618C304.866 17.8012 305.592 17.3703 305.991 16.6706C306.388 15.9699 306.431 15.0119 306.12 13.7949C305.913 12.9832 305.574 12.1576 305.103 11.3154C304.631 10.4741 304.051 9.66896 303.36 8.90021C303.031 8.54429 302.654 8.17629 302.227 7.79641C301.801 7.41648 301.338 7.03838 300.839 6.66148C300.341 6.28404 299.821 5.91468 299.28 5.55209C298.739 5.18988 298.19 4.848 297.632 4.52715C296.602 3.93431 295.548 3.40715 294.47 2.94684C293.392 2.48714 292.32 2.1032 291.253 1.79725C290.244 1.49788 289.332 1.31335 288.518 1.24182C287.704 1.17007 286.918 1.19209 286.16 1.30733C283.8 1.66607 282.915 3.00231 283.507 5.31563C283.614 5.73649 283.772 6.15742 283.98 6.5782C284.188 6.99951 284.476 7.46261 284.843 7.9688C285.061 8.24795 285.277 8.51943 285.49 8.7837C285.704 9.04706 285.927 9.31042 286.159 9.57152C286.458 9.88479 286.752 10.176 287.04 10.4439C287.328 10.7127 287.635 10.9856 287.963 11.2637C288.29 11.5418 288.655 11.8259 289.059 12.1155C289.462 12.4057 289.918 12.7228 290.427 13.0665C290.893 13.3855 291.305 13.6589 291.665 13.885C292.025 14.1115 292.379 14.315 292.727 14.4958C293.075 14.6774 293.439 14.848 293.819 15.009C294.198 15.1698 294.643 15.352 295.152 15.5556C295.622 15.7493 296.048 15.9106 296.429 16.0406C296.809 16.1695 297.148 16.2743 297.442 16.3549C298.188 16.5533 298.93 16.682 299.668 16.7419C300.406 16.8011 301.057 16.7883 301.621 16.7029C303.188 16.4646 303.795 15.6537 303.443 14.2725C303.324 13.8064 303.087 13.3112 302.734 12.7878C302.38 12.264 301.933 11.731 301.392 11.189C300.852 10.6473 300.235 10.1163 299.545 9.59677C298.854 9.07807 298.105 8.59842 297.298 8.15896C296.632 7.77687 295.965 7.44083 295.298 7.15254C294.629 6.86361 293.993 6.62891 293.388 6.44779C292.783 6.26635 292.221 6.14117 291.701 6.07179C291.179 6.0026 290.734 5.99694 290.364 6.05311C289.396 6.20001 289.031 6.73936 289.268 7.67052C289.371 8.07652 289.648 8.51435 290.098 8.98464C290.547 9.45428 291.155 9.9357 291.921 10.4282C292.751 10.9575 293.545 11.3438 294.303 11.5874C295.061 11.8313 295.739 11.9081 296.338 11.8167C296.426 11.8035 296.579 11.7566 296.796 11.6768L296.874 11.8759C296.72 11.9147 296.59 11.9428 296.484 11.9582C296.396 11.9717 296.299 11.9865 296.194 12.0028C295.612 12.0912 294.964 12.0452 294.251 11.8651C293.537 11.6842 292.804 11.3789 292.054 10.9462C291.668 10.7244 291.306 10.4748 290.97 10.1981C290.634 9.9214 290.333 9.6354 290.065 9.34044C289.798 9.04519 289.57 8.74849 289.384 8.44918C289.199 8.14987 289.068 7.85722 288.996 7.57196C288.842 6.97079 288.908 6.47659 289.193 6.09022C289.48 5.7033 289.974 5.45677 290.679 5.34932C291.295 5.25607 292.011 5.29832 292.825 5.47758C293.64 5.65729 294.514 5.9638 295.448 6.39767C296.446 6.86771 297.411 7.42109 298.342 8.05757C299.273 8.69397 300.113 9.36679 300.861 10.0772C301.61 10.788 302.247 11.5077 302.772 12.2366C303.296 12.9658 303.641 13.6521 303.805 14.2957C304 15.0594 303.863 15.7023 303.393 16.225C302.922 16.7473 302.15 17.0906 301.075 17.2536C299.948 17.4255 298.668 17.3199 297.235 16.9387C295.801 16.5567 294.263 15.9073 292.62 14.9889C291.466 14.3392 290.36 13.612 289.304 12.8074C288.247 12.0026 287.298 11.1695 286.456 10.3091C285.614 9.44826 284.911 8.59362 284.347 7.74546C283.783 6.89665 283.404 6.09914 283.213 5.34944C283.117 4.97483 283.057 4.61408 283.033 4.26666C283.009 3.92045 283.013 3.59673 283.046 3.2965C283.115 2.4909 283.494 1.79552 284.186 1.20745C284.878 0.619854 285.769 0.243106 286.862 0.0769819C287.707 -0.0511281 288.676 -0.019553 289.768 0.17329C290.86 0.365583 292.004 0.690892 293.201 1.14797C294.397 1.60526 295.599 2.17464 296.808 2.85619C298.015 3.53817 299.16 4.31057 300.241 5.17607C301.091 5.857 301.873 6.55226 302.585 7.26315C303.297 7.97367 303.895 8.66543 304.378 9.34068C304.861 10.0157 305.285 10.742 305.649 11.5209C306.012 12.2996 306.287 13.0492 306.47 13.7696C306.808 15.0901 306.763 16.1495 306.336 16.9469C305.907 17.7448 305.139 18.2278 304.029 18.3967C302.744 18.5923 301.492 18.3843 300.275 17.7736L300.387 17.569C300.882 17.7896 301.427 17.9339 302.021 17.9996Z" fill="#F6D4BA" fill-opacity="0.9"/>
<path d="M313.078 17.7879L313.199 17.9953C312.01 18.5677 310.766 18.7354 309.47 18.4977C308.352 18.2931 307.562 17.7846 307.098 16.9729C306.633 16.1605 306.541 15.0994 306.818 13.788C306.97 13.0739 307.211 12.3326 307.539 11.565C307.868 10.797 308.259 10.0834 308.712 9.42369C309.166 8.76443 309.733 8.09096 310.413 7.40293C311.094 6.71483 311.844 6.04398 312.666 5.38987C313.708 4.55937 314.818 3.82298 315.996 3.18001C317.174 2.53654 318.352 2.00584 319.528 1.58699C320.705 1.1677 321.836 0.879455 322.92 0.722885C324.004 0.565249 324.972 0.564415 325.824 0.720443C326.925 0.92193 327.834 1.32756 328.552 1.93771C329.271 2.54822 329.683 3.25711 329.787 4.06558C329.834 4.36707 329.853 4.69095 329.845 5.03714C329.835 5.3831 329.792 5.74266 329.712 6.11443C329.555 6.85793 329.213 7.64458 328.686 8.47523C328.16 9.30645 327.496 10.1383 326.691 10.9728C325.888 11.807 324.975 12.6105 323.954 13.3805C322.934 14.1518 321.861 14.844 320.734 15.4563C319.132 16.3224 317.621 16.9228 316.204 17.2582C314.788 17.5935 313.511 17.6576 312.375 17.45C311.293 17.2515 310.504 16.8833 310.01 16.3456C309.515 15.8068 309.349 15.159 309.51 14.4016C309.645 13.7623 309.959 13.0863 310.451 12.3746C310.944 11.6616 311.548 10.9622 312.265 10.2746C312.982 9.58787 313.792 8.94152 314.695 8.33555C315.598 7.72864 316.539 7.20609 317.516 6.76788C318.432 6.36389 319.293 6.08575 320.1 5.9319C320.907 5.77857 321.621 5.75941 322.242 5.87361C322.952 6.00277 323.458 6.26598 323.762 6.66217C324.065 7.05898 324.153 7.55473 324.026 8.1513C323.966 8.43452 323.849 8.72316 323.678 9.01728C323.504 9.31039 323.291 9.59982 323.036 9.88657C322.782 10.1735 322.493 10.4502 322.169 10.7155C321.845 10.9817 321.495 11.2196 321.118 11.429C320.387 11.8374 319.668 12.1204 318.961 12.2777C318.256 12.4346 317.609 12.4597 317.023 12.3525C316.917 12.3333 316.82 12.3155 316.73 12.299C316.624 12.2801 316.493 12.2474 316.336 12.2039L316.405 12.0071C316.626 12.094 316.782 12.1462 316.871 12.1621C317.474 12.2725 318.149 12.2176 318.897 11.9985C319.644 11.779 320.421 11.418 321.228 10.9154C321.972 10.447 322.56 9.98539 322.987 9.52966C323.416 9.07378 323.673 8.64429 323.758 8.24165C323.955 7.31712 323.565 6.76581 322.588 6.58702C322.216 6.51899 321.771 6.51027 321.252 6.56276C320.735 6.61524 320.177 6.72255 319.58 6.88428C318.984 7.04588 318.357 7.26062 317.701 7.5281C317.046 7.79492 316.394 8.10958 315.746 8.47101C314.956 8.88376 314.229 9.33942 313.561 9.83673C312.893 10.3339 312.301 10.8455 311.784 11.3703C311.267 11.8947 310.844 12.4142 310.513 12.9273C310.184 13.4396 309.969 13.9269 309.872 14.3892C309.581 15.7606 310.225 16.5915 311.805 16.881C312.373 16.9843 313.024 17.0185 313.76 16.9828C314.495 16.9468 315.233 16.8423 315.97 16.6674C316.262 16.5963 316.595 16.5032 316.971 16.3859C317.345 16.2683 317.764 16.1202 318.225 15.9414C318.726 15.755 319.163 15.5865 319.535 15.4382C319.908 15.289 320.264 15.1303 320.605 14.9599C320.945 14.7902 321.29 14.5981 321.64 14.3826C321.99 14.1676 322.391 13.9082 322.843 13.6039C323.336 13.2759 323.778 12.9737 324.168 12.6959C324.559 12.4194 324.912 12.1471 325.227 11.8797C325.542 11.6118 325.837 11.3484 326.113 11.0892C326.39 10.8295 326.671 10.5477 326.956 10.2444C327.176 9.99012 327.387 9.73507 327.589 9.47761C327.792 9.22054 327.995 8.95525 328.2 8.68326C328.545 8.18827 328.812 7.73421 329.001 7.31946C329.19 6.90491 329.329 6.48865 329.417 6.07157C329.904 3.77509 328.959 2.40947 326.582 1.97441C325.818 1.83481 325.03 1.78683 324.219 1.83228C323.408 1.87698 322.504 2.03296 321.506 2.29944C320.454 2.57158 319.397 2.91986 318.339 3.34665C317.281 3.77211 316.25 4.26494 315.247 4.82455C314.703 5.12813 314.169 5.45259 313.643 5.7977C313.119 6.14336 312.615 6.49608 312.132 6.85706C311.651 7.2181 311.205 7.58215 310.796 7.94864C310.385 8.31459 310.024 8.67012 309.711 9.01631C309.055 9.76317 308.51 10.5504 308.077 11.3774C307.643 12.2041 307.341 13.02 307.171 13.8253C306.915 15.0334 307.001 15.9929 307.43 16.7072C307.86 17.421 308.607 17.8756 309.671 18.07C310.276 18.1804 310.872 18.2125 311.462 18.1659C312.054 18.1191 312.592 17.9929 313.078 17.7879Z" fill="#F6D4BA" fill-opacity="0.9"/>
<path d="M277.578 16.8027C277.59 17.3196 277.104 17.7314 276.493 17.7214C275.882 17.7116 275.377 17.2842 275.366 16.7667C275.354 16.2501 275.84 15.8387 276.45 15.8486C277.061 15.8584 277.566 16.2861 277.578 16.8027Z" fill="#69DBEF"/>
<path d="M297.723 11.7463C297.731 12.1076 297.392 12.3959 296.965 12.3892C296.536 12.3818 296.184 12.0831 296.176 11.7208C296.168 11.359 296.507 11.0714 296.934 11.0785C297.362 11.0855 297.715 11.3842 297.723 11.7463Z" fill="#69DBEF"/>
<path d="M317.095 12.1888C317.103 12.5503 316.763 12.8387 316.336 12.8315C315.908 12.8244 315.555 12.5254 315.547 12.1636C315.539 11.8022 315.879 11.5144 316.306 11.5212C316.734 11.5282 317.086 11.8267 317.095 12.1888Z" fill="#69DBEF"/>
<path d="M337.983 18.0859C337.995 18.6023 337.509 19.0141 336.899 19.0039C336.287 18.9942 335.783 18.5667 335.771 18.0498C335.759 17.5329 336.245 17.1216 336.856 17.1315C337.467 17.1415 337.971 17.5686 337.983 18.0859Z" fill="#69DBEF"/>
<path d="M305.668 562.631C306.167 563.159 306.738 563.894 307.383 564.835L306.982 564.938C306.545 564.264 306.086 563.68 305.608 563.185C305.128 562.691 304.532 562.2 303.818 561.713C302.017 560.484 300.04 559.636 297.887 559.169C298.231 561.242 297.628 563.108 296.076 564.764C294.859 566.064 293.317 567.048 291.449 567.717C289.583 568.386 287.584 568.736 285.456 568.765C283.325 568.795 281.169 568.503 278.984 567.889C276.799 567.275 274.795 566.345 272.973 565.102C272.169 564.553 271.54 564.063 271.085 563.629C270.63 563.194 270.178 562.676 269.73 562.074C269.188 562.167 268.762 562.243 268.45 562.304C268.141 562.366 267.659 562.447 267.007 562.547C266.274 562.677 265.62 562.777 265.046 562.848C264.471 562.918 263.931 562.979 263.424 563.032C262.915 563.085 262.414 563.131 261.919 563.171C261.423 563.211 260.888 563.265 260.314 563.335L259.205 563.46L258.58 563.476C259.561 565.364 260.071 566.951 260.112 568.24C260.152 569.528 259.729 570.647 258.841 571.595C257.737 572.774 256.233 573.28 254.328 573.114C252.423 572.946 250.399 572.132 248.257 570.67C247.325 570.034 246.526 569.351 245.858 568.625C245.191 567.897 244.613 567.114 244.125 566.277C243.865 565.848 243.603 565.353 243.338 564.795C243.072 564.236 242.76 563.495 242.399 562.577C240.191 562.163 238.128 561.606 236.213 560.908C234.297 560.209 232.656 559.393 231.29 558.461C229.52 557.253 228.404 556.052 227.943 554.86C227.482 553.668 227.705 552.588 228.612 551.619C229.614 550.548 231.343 550.098 233.798 550.27C236.253 550.442 239.365 551.146 243.136 552.382L244.012 552.667C244.315 552.289 244.551 552.01 244.718 551.832C244.908 551.628 245.087 551.437 245.255 551.258C247.021 549.372 249.111 547.885 251.527 546.796C253.942 545.709 256.946 544.928 260.539 544.455C263.315 544.094 265.929 543.946 268.382 544.012C270.835 544.078 273.392 544.371 276.053 544.892C282.062 546.07 287.096 548.043 291.157 550.814C292.984 552.062 294.462 553.332 295.59 554.623C296.716 555.915 297.427 557.163 297.723 558.366C300.099 559.029 302.142 559.942 303.85 561.108C304.564 561.596 305.17 562.103 305.668 562.631ZM228.952 555.047C229.392 556.017 230.358 557.01 231.848 558.028C233.153 558.918 234.582 559.633 236.138 560.173C237.694 560.712 239.715 561.204 242.201 561.647C241.847 560.068 241.785 558.585 242.016 557.196C242.247 555.809 242.776 554.455 243.601 553.138C242.145 552.52 240.674 552.039 239.19 551.695C237.705 551.35 236.314 551.152 235.014 551.1C233.713 551.048 232.56 551.139 231.554 551.37C230.547 551.603 229.806 551.975 229.329 552.485C228.636 553.224 228.51 554.079 228.952 555.047ZM284.34 547.947C281.693 546.914 278.883 546.113 275.904 545.542C273.302 545.062 270.811 544.813 268.433 544.799C266.054 544.784 263.535 544.975 260.873 545.373C257.424 545.902 254.518 546.697 252.152 547.756C249.786 548.815 247.78 550.225 246.133 551.984C245.942 552.188 245.79 552.376 245.679 552.551C245.566 552.725 245.394 552.963 245.163 553.265C246.472 553.824 247.569 554.364 248.455 554.885C249.341 555.406 250.359 556.059 251.507 556.843C252.221 557.331 252.845 557.766 253.376 558.149C253.906 558.533 254.382 558.91 254.8 559.279C255.218 559.648 255.618 560.035 256 560.443C256.381 560.85 256.75 561.299 257.104 561.791C257.323 561.774 257.494 561.754 257.616 561.734C257.737 561.712 257.853 561.697 257.963 561.688C258.316 561.637 258.766 561.578 259.312 561.512C259.857 561.445 260.511 561.359 261.272 561.252C261.979 561.15 262.59 561.054 263.105 560.967C263.618 560.879 264.037 560.799 264.36 560.727L267.543 560.017L268.274 559.889C267.053 557.551 267.218 555.555 268.769 553.897C269.677 552.928 270.838 552.259 272.254 551.888C273.67 551.517 275.205 551.48 276.863 551.775L276.788 552.1C275.302 551.838 273.917 551.906 272.63 552.301C271.343 552.698 270.27 553.355 269.411 554.272C267.954 555.827 267.803 557.646 268.958 559.729L269.889 559.55L273.191 558.795C273.78 558.656 274.405 558.518 275.066 558.383C275.726 558.248 276.448 558.115 277.234 557.983C279.378 557.65 281.252 557.414 282.858 557.277C284.461 557.14 286.172 557.106 287.989 557.176C288.772 557.209 289.53 557.256 290.263 557.317C290.994 557.378 291.739 557.438 292.499 557.497C293.344 557.572 294.03 557.655 294.558 557.743C295.086 557.832 295.795 557.971 296.687 558.161C296.038 555.755 294.239 553.544 291.29 551.531C289.302 550.175 286.986 548.981 284.34 547.947ZM248.289 555.429C247.196 554.829 246.026 554.271 244.78 553.755C244.235 554.553 243.81 555.308 243.502 556.016C243.194 556.725 242.979 557.499 242.858 558.335C242.732 558.96 242.683 559.501 242.712 559.959C242.741 560.417 242.82 561.067 242.949 561.907C244.169 562.072 245.109 562.181 245.772 562.235C246.433 562.29 247.194 562.319 248.057 562.322C249.114 562.334 250.196 562.32 251.302 562.281C252.408 562.242 253.791 562.121 255.456 561.92L256.398 561.811C255.713 560.966 255.029 560.229 254.349 559.597C253.667 558.965 252.784 558.278 251.697 557.537C250.517 556.731 249.381 556.029 248.289 555.429ZM251.841 563.62C250.976 563.593 250.135 563.553 249.322 563.499C248.507 563.444 247.675 563.368 246.827 563.269C245.978 563.17 245.053 563.029 244.053 562.849L243.325 562.728C243.834 564.413 244.523 565.865 245.392 567.084C246.26 568.304 247.393 569.39 248.79 570.344C250.56 571.552 252.23 572.16 253.802 572.166C255.372 572.173 256.695 571.604 257.769 570.456C258.581 569.59 258.989 568.542 258.995 567.313C259.001 566.084 258.616 564.85 257.842 563.612C257.096 563.646 256.522 563.661 256.12 563.658C255.715 563.654 255.236 563.65 254.679 563.646C253.652 563.656 252.706 563.647 251.841 563.62ZM287.172 558.498C286.448 558.59 285.652 558.694 284.781 558.809C283.995 558.942 283.284 559.063 282.648 559.171C282.012 559.28 281.363 559.402 280.704 559.536C280.043 559.671 279.318 559.834 278.528 560.025C277.738 560.218 276.78 560.452 275.655 560.729C275.066 560.87 274.549 560.986 274.105 561.081C273.661 561.174 273.258 561.265 272.896 561.352C272.534 561.44 272.173 561.527 271.812 561.614C271.449 561.702 271.013 561.801 270.503 561.911C271.073 562.551 271.554 563.059 271.945 563.429C272.334 563.799 272.794 564.165 273.322 564.526C276.768 566.878 280.591 567.795 284.792 567.278C285.772 567.154 286.754 566.947 287.739 566.658C288.722 566.368 289.674 566.003 290.593 565.566C291.512 565.127 292.367 564.635 293.159 564.089C293.949 563.543 294.631 562.964 295.204 562.352C295.802 561.715 296.197 561.17 296.392 560.718C296.586 560.265 296.692 559.649 296.712 558.868C295.648 558.643 294.414 558.48 293.01 558.378C291.604 558.275 290.281 558.261 289.043 558.334C288.517 558.352 287.894 558.406 287.172 558.498Z" fill="#F6D4BA" fill-opacity="0.9"/>
<path d="M310.206 561.207C311.862 560.096 313.865 559.248 316.215 558.663C316.455 557.467 317.112 556.242 318.18 554.985C319.25 553.729 320.671 552.505 322.444 551.316C326.382 548.674 331.331 546.862 337.291 545.878C339.931 545.443 342.476 545.232 344.928 545.246C347.38 545.259 350.003 545.492 352.797 545.943C356.415 546.533 359.456 547.411 361.922 548.577C364.388 549.745 366.547 551.301 368.4 553.246C368.575 553.43 368.763 553.627 368.963 553.837C369.139 554.021 369.386 554.307 369.706 554.695L370.57 554.439C374.289 553.324 377.371 552.719 379.82 552.627C382.268 552.534 384.019 553.041 385.071 554.145C386.022 555.144 386.294 556.232 385.886 557.41C385.479 558.589 384.416 559.754 382.7 560.905C381.375 561.794 379.769 562.557 377.883 563.195C375.998 563.831 373.96 564.322 371.769 564.665C371.449 565.573 371.17 566.302 370.929 566.854C370.689 567.405 370.449 567.891 370.208 568.312C369.758 569.134 369.215 569.897 368.58 570.605C367.944 571.31 367.176 571.968 366.271 572.573C364.193 573.968 362.205 574.717 360.307 574.823C358.408 574.929 356.88 574.373 355.721 573.158C354.79 572.18 354.316 571.047 354.298 569.759C354.281 568.471 354.72 566.898 355.616 565.041L354.99 565.005L353.874 564.844C353.297 564.756 352.759 564.684 352.261 564.628C351.764 564.572 351.26 564.509 350.75 564.44C350.239 564.371 349.695 564.292 349.117 564.203C348.54 564.114 347.88 563.993 347.141 563.839C346.483 563.717 345.998 563.621 345.685 563.549C345.371 563.478 344.941 563.387 344.394 563.278C343.973 563.865 343.544 564.37 343.11 564.79C342.674 565.209 342.066 565.679 341.286 566.203C339.519 567.388 337.555 568.254 335.396 568.798C333.237 569.341 331.093 569.564 328.96 569.465C326.828 569.367 324.812 568.953 322.914 568.222C321.016 567.493 319.428 566.458 318.152 565.117C316.523 563.409 315.835 561.523 316.086 559.459C313.952 559.857 312.012 560.642 310.265 561.814C309.573 562.278 308.999 562.75 308.54 563.229C308.085 563.708 307.652 564.278 307.245 564.938L306.839 564.823C307.442 563.902 307.981 563.185 308.455 562.673C308.929 562.161 309.514 561.672 310.206 561.207ZM384.392 554.987C383.892 554.462 383.134 554.066 382.115 553.801C381.098 553.537 379.941 553.409 378.641 553.418C377.343 553.428 375.958 553.581 374.489 553.878C373.019 554.174 371.569 554.609 370.139 555.181C371.025 556.525 371.615 557.896 371.908 559.292C372.203 560.689 372.208 562.172 371.924 563.74C374.393 563.377 376.393 562.951 377.925 562.461C379.457 561.972 380.856 561.302 382.121 560.453C383.567 559.484 384.489 558.521 384.886 557.565C385.283 556.609 385.119 555.75 384.392 554.987ZM322.343 552.03C319.482 553.949 317.782 556.103 317.243 558.49C318.125 558.329 318.828 558.212 319.352 558.14C319.877 558.069 320.56 558.008 321.402 557.96C322.16 557.926 322.904 557.89 323.633 557.853C324.363 557.815 325.119 557.793 325.9 557.786C327.717 557.774 329.43 557.863 331.042 558.052C332.653 558.241 334.54 558.538 336.7 558.941C337.493 559.099 338.222 559.255 338.889 559.412C339.556 559.568 340.187 559.725 340.784 559.885L344.121 560.746L345.062 560.956C346.122 558.909 345.89 557.084 344.363 555.48C343.461 554.534 342.358 553.842 341.051 553.404C339.746 552.966 338.356 552.854 336.882 553.068L336.792 552.74C338.437 552.498 339.977 552.586 341.409 553.002C342.843 553.419 344.035 554.127 344.986 555.126C346.615 556.835 346.869 558.838 345.753 561.138L346.49 561.29L349.708 562.103C350.035 562.187 350.457 562.28 350.975 562.384C351.494 562.488 352.11 562.604 352.822 562.729C353.588 562.86 354.247 562.968 354.795 563.052C355.345 563.136 355.796 563.21 356.153 563.272C356.264 563.285 356.38 563.303 356.502 563.328C356.625 563.353 356.797 563.379 357.017 563.403C357.349 562.922 357.697 562.484 358.06 562.089C358.425 561.694 358.807 561.319 359.209 560.963C359.611 560.607 360.07 560.246 360.584 559.879C361.098 559.512 361.702 559.097 362.394 558.632C363.508 557.884 364.497 557.264 365.36 556.771C366.224 556.279 367.297 555.773 368.581 555.257C368.337 554.947 368.154 554.703 368.034 554.525C367.913 554.347 367.754 554.153 367.553 553.943C365.826 552.13 363.754 550.655 361.339 549.518C358.924 548.382 355.979 547.492 352.504 546.85C349.823 546.367 347.292 546.093 344.913 546.032C342.534 545.969 340.052 546.137 337.469 546.534C334.515 547.009 331.739 547.72 329.136 548.668C326.536 549.616 324.271 550.737 322.343 552.03ZM362.235 559.32C361.182 560.027 360.328 560.686 359.676 561.297C359.023 561.906 358.372 562.622 357.724 563.445L358.672 563.585C360.348 563.841 361.738 564.006 362.845 564.08C363.953 564.155 365.038 564.205 366.096 564.227C366.959 564.251 367.719 564.247 368.378 564.214C369.038 564.181 369.974 564.102 371.188 563.976C371.279 563.14 371.328 562.493 371.337 562.035C371.345 561.577 371.272 561.034 371.117 560.405C370.959 559.564 370.708 558.784 370.368 558.065C370.028 557.345 369.569 556.576 368.988 555.76C367.764 556.236 366.618 556.757 365.552 557.321C364.486 557.886 363.38 558.552 362.235 559.32ZM359.527 565.338C358.97 565.323 358.491 565.312 358.086 565.302C357.684 565.294 357.109 565.259 356.361 565.201C355.642 566.415 355.314 567.638 355.374 568.867C355.435 570.098 355.891 571.159 356.743 572.053C357.869 573.235 359.219 573.848 360.79 573.892C362.363 573.937 364.007 573.383 365.723 572.231C367.077 571.322 368.162 570.271 368.977 569.079C369.791 567.886 370.415 566.455 370.849 564.786L370.126 564.883C369.133 565.032 368.214 565.142 367.368 565.214C366.524 565.286 365.695 565.335 364.882 565.364C364.07 565.392 363.231 565.405 362.366 565.404C361.502 565.402 360.556 565.381 359.527 565.338ZM324.899 558.91C323.656 558.797 322.333 558.769 320.932 558.826C319.531 558.883 318.302 559.006 317.249 559.196C317.304 559.978 317.438 560.599 317.652 561.058C317.868 561.517 318.288 562.075 318.914 562.732C319.514 563.362 320.224 563.964 321.04 564.537C321.857 565.109 322.735 565.628 323.674 566.097C324.614 566.565 325.583 566.96 326.58 567.282C327.578 567.604 328.57 567.843 329.557 567.998C333.783 568.652 337.568 567.858 340.911 565.615C341.423 565.272 341.866 564.92 342.239 564.562C342.615 564.204 343.072 563.713 343.614 563.089C343.099 562.962 342.658 562.85 342.29 562.749C341.926 562.651 341.56 562.552 341.193 562.453C340.828 562.353 340.421 562.25 339.971 562.142C339.524 562.033 339.001 561.9 338.404 561.739C337.266 561.427 336.298 561.161 335.498 560.943C334.699 560.726 333.966 560.539 333.298 560.383C332.632 560.227 331.978 560.085 331.336 559.955C330.695 559.826 329.978 559.682 329.185 559.524C328.308 559.38 327.507 559.25 326.779 559.135C326.052 559.019 325.425 558.945 324.899 558.91Z" fill="#F6D4BA" fill-opacity="0.9"/>
<path d="M302.021 553.001C302.614 553.066 303.21 553.054 303.809 552.963C304.866 552.802 305.592 552.371 305.991 551.672C306.388 550.971 306.431 550.013 306.12 548.796C305.913 547.984 305.573 547.159 305.103 546.316C304.631 545.475 304.05 544.67 303.36 543.901C303.031 543.545 302.654 543.177 302.227 542.797C301.801 542.417 301.338 542.039 300.839 541.662C300.341 541.285 299.821 540.916 299.28 540.553C298.739 540.191 298.19 539.849 297.632 539.528C296.602 538.935 295.548 538.408 294.47 537.948C293.392 537.488 292.32 537.104 291.253 536.798C290.244 536.499 289.332 536.314 288.518 536.243C287.703 536.171 286.918 536.193 286.16 536.308C283.8 536.667 282.915 538.003 283.507 540.317C283.614 540.737 283.772 541.158 283.98 541.579C284.188 542 284.476 542.464 284.843 542.97C285.06 543.249 285.276 543.52 285.49 543.785C285.704 544.048 285.927 544.311 286.158 544.572C286.457 544.886 286.751 545.177 287.04 545.445C287.328 545.714 287.635 545.987 287.962 546.265C288.29 546.543 288.655 546.827 289.059 547.116C289.462 547.407 289.917 547.724 290.427 548.067C290.893 548.386 291.305 548.66 291.665 548.886C292.025 549.112 292.379 549.316 292.727 549.497C293.075 549.678 293.439 549.849 293.819 550.01C294.198 550.171 294.643 550.353 295.152 550.557C295.622 550.75 296.048 550.912 296.429 551.042C296.809 551.17 297.148 551.275 297.442 551.356C298.188 551.554 298.93 551.683 299.668 551.743C300.406 551.802 301.057 551.789 301.621 551.704C303.188 551.466 303.795 550.655 303.443 549.273C303.323 548.807 303.087 548.312 302.733 547.789C302.38 547.265 301.933 546.732 301.392 546.19C300.852 545.648 300.235 545.117 299.545 544.598C298.853 544.079 298.105 543.599 297.298 543.16C296.632 542.778 295.965 542.442 295.298 542.154C294.629 541.865 293.992 541.63 293.388 541.449C292.783 541.267 292.221 541.142 291.701 541.073C291.179 541.004 290.734 540.998 290.364 541.054C289.395 541.201 289.031 541.74 289.268 542.671C289.371 543.077 289.648 543.515 290.098 543.986C290.547 544.455 291.155 544.937 291.921 545.429C292.751 545.959 293.545 546.345 294.303 546.588C295.061 546.832 295.739 546.909 296.338 546.818C296.426 546.804 296.579 546.758 296.796 546.678L296.874 546.877C296.72 546.916 296.589 546.944 296.484 546.959C296.396 546.973 296.299 546.987 296.193 547.004C295.612 547.092 294.964 547.046 294.251 546.866C293.536 546.685 292.804 546.38 292.053 545.947C291.668 545.725 291.306 545.476 290.97 545.199C290.634 544.922 290.333 544.636 290.065 544.341C289.798 544.046 289.57 543.749 289.384 543.45C289.198 543.151 289.068 542.858 288.996 542.573C288.842 541.972 288.908 541.478 289.193 541.091C289.479 540.704 289.974 540.458 290.679 540.35C291.295 540.257 292.011 540.299 292.825 540.479C293.639 540.658 294.513 540.965 295.448 541.399C296.446 541.869 297.411 542.422 298.342 543.059C299.272 543.695 300.112 544.368 300.861 545.078C301.61 545.789 302.246 546.509 302.772 547.238C303.296 547.967 303.641 548.653 303.805 549.297C304 550.06 303.863 550.703 303.393 551.226C302.922 551.748 302.15 552.092 301.075 552.255C299.948 552.426 298.668 552.321 297.234 551.94C295.801 551.558 294.262 550.908 292.62 549.99C291.465 549.34 290.36 548.613 289.304 547.808C288.247 547.004 287.298 546.17 286.456 545.31C285.614 544.449 284.911 543.595 284.347 542.746C283.783 541.898 283.404 541.1 283.213 540.35C283.117 539.976 283.057 539.615 283.033 539.268C283.009 538.921 283.013 538.598 283.046 538.297C283.114 537.492 283.494 536.796 284.186 536.208C284.878 535.621 285.769 535.244 286.862 535.078C287.707 534.95 288.676 534.981 289.768 535.174C290.86 535.367 292.004 535.692 293.201 536.149C294.397 536.606 295.599 537.176 296.807 537.857C298.015 538.539 299.159 539.312 300.241 540.177C301.091 540.858 301.873 541.553 302.585 542.264C303.297 542.975 303.895 543.666 304.378 544.342C304.861 545.017 305.285 545.743 305.649 546.522C306.012 547.301 306.287 548.05 306.47 548.771C306.808 550.091 306.763 551.15 306.336 551.948C305.907 552.746 305.138 553.229 304.029 553.398C302.744 553.593 301.492 553.385 300.275 552.775L300.387 552.57C300.882 552.791 301.427 552.935 302.021 553.001Z" fill="#F6D4BA" fill-opacity="0.9"/>
<path d="M313.078 552.789L313.199 552.996C312.009 553.569 310.766 553.736 309.469 553.499C308.352 553.294 307.561 552.786 307.097 551.974C306.633 551.161 306.54 550.1 306.818 548.789C306.97 548.075 307.21 547.334 307.539 546.566C307.867 545.798 308.259 545.084 308.712 544.425C309.166 543.765 309.732 543.092 310.413 542.404C311.094 541.716 311.844 541.045 312.666 540.391C313.708 539.56 314.817 538.824 315.996 538.181C317.174 537.537 318.351 537.007 319.528 536.588C320.705 536.169 321.835 535.88 322.92 535.724C324.004 535.566 324.972 535.565 325.824 535.721C326.924 535.923 327.834 536.329 328.552 536.939C329.271 537.549 329.683 538.258 329.787 539.067C329.834 539.368 329.853 539.692 329.845 540.038C329.835 540.384 329.792 540.744 329.712 541.115C329.555 541.859 329.212 542.646 328.686 543.476C328.16 544.307 327.495 545.139 326.691 545.974C325.888 546.808 324.975 547.611 323.954 548.381C322.933 549.153 321.86 549.845 320.734 550.457C319.132 551.323 317.621 551.924 316.204 552.259C314.787 552.594 313.511 552.659 312.375 552.451C311.293 552.252 310.504 551.884 310.009 551.347C309.515 550.808 309.349 550.16 309.51 549.403C309.645 548.763 309.958 548.087 310.451 547.376C310.944 546.663 311.548 545.963 312.265 545.276C312.982 544.589 313.792 543.942 314.695 543.336C315.598 542.73 316.538 542.207 317.516 541.769C318.432 541.365 319.293 541.087 320.1 540.933C320.906 540.78 321.621 540.76 322.242 540.875C322.952 541.004 323.458 541.267 323.762 541.663C324.065 542.06 324.153 542.556 324.026 543.152C323.965 543.435 323.849 543.724 323.677 544.018C323.504 544.311 323.291 544.601 323.036 544.888C322.782 545.174 322.492 545.451 322.169 545.716C321.845 545.983 321.495 546.221 321.118 546.43C320.387 546.838 319.668 547.121 318.96 547.279C318.255 547.436 317.608 547.461 317.023 547.353C316.916 547.334 316.819 547.316 316.73 547.3C316.624 547.281 316.492 547.248 316.335 547.205L316.404 547.008C316.626 547.095 316.781 547.147 316.87 547.163C317.473 547.273 318.149 547.219 318.896 546.999C319.644 546.78 320.42 546.419 321.228 545.916C321.972 545.448 322.559 544.986 322.987 544.531C323.416 544.075 323.673 543.645 323.757 543.243C323.954 542.318 323.564 541.767 322.588 541.588C322.215 541.52 321.771 541.511 321.251 541.564C320.734 541.616 320.177 541.724 319.579 541.885C318.983 542.047 318.357 542.262 317.701 542.529C317.046 542.796 316.393 543.111 315.745 543.472C314.956 543.885 314.229 544.34 313.561 544.838C312.893 545.335 312.301 545.846 311.783 546.371C311.267 546.896 310.843 547.415 310.513 547.928C310.184 548.441 309.969 548.928 309.871 549.39C309.58 550.762 310.224 551.592 311.805 551.882C312.372 551.985 313.024 552.019 313.76 551.984C314.495 551.948 315.232 551.843 315.97 551.668C316.262 551.597 316.595 551.504 316.97 551.387C317.345 551.269 317.764 551.121 318.225 550.942C318.726 550.756 319.163 550.587 319.535 550.439C319.908 550.29 320.264 550.131 320.605 549.961C320.945 549.791 321.29 549.599 321.64 549.384C321.989 549.169 322.39 548.909 322.842 548.605C323.336 548.277 323.778 547.975 324.168 547.697C324.559 547.42 324.912 547.148 325.227 546.881C325.542 546.613 325.837 546.349 326.113 546.09C326.389 545.83 326.67 545.549 326.955 545.245C327.176 544.991 327.387 544.736 327.589 544.479C327.791 544.222 327.995 543.956 328.2 543.684C328.544 543.189 328.812 542.735 329 542.32C329.19 541.906 329.329 541.49 329.417 541.073C329.904 538.776 328.959 537.41 326.581 536.975C325.817 536.836 325.03 536.788 324.218 536.833C323.407 536.878 322.504 537.034 321.506 537.3C320.454 537.573 319.397 537.921 318.339 538.348C317.281 538.773 316.25 539.266 315.246 539.826C314.703 540.129 314.169 540.454 313.643 540.799C313.119 541.144 312.615 541.497 312.132 541.858C311.651 542.219 311.204 542.583 310.796 542.95C310.385 543.316 310.024 543.671 309.711 544.017C309.055 544.764 308.51 545.551 308.077 546.378C307.643 547.205 307.341 548.021 307.17 548.826C306.914 550.034 307.001 550.994 307.43 551.708C307.859 552.422 308.606 552.877 309.671 553.071C310.275 553.181 310.872 553.213 311.462 553.167C312.054 553.12 312.592 552.994 313.078 552.789Z" fill="#F6D4BA" fill-opacity="0.9"/>
<path d="M277.578 551.804C277.59 552.321 277.104 552.733 276.492 552.723C275.881 552.714 275.376 552.286 275.365 551.768C275.353 551.251 275.84 550.84 276.45 550.85C277.061 550.86 277.566 551.287 277.578 551.804Z" fill="#69DBEF"/>
<path d="M297.723 546.748C297.732 547.109 297.392 547.398 296.964 547.391C296.536 547.384 296.183 547.085 296.175 546.722C296.167 546.36 296.507 546.073 296.934 546.08C297.362 546.087 297.715 546.385 297.723 546.748Z" fill="#69DBEF"/>
<path d="M317.095 547.19C317.103 547.552 316.763 547.84 316.336 547.833C315.908 547.826 315.555 547.527 315.546 547.165C315.538 546.803 315.878 546.515 316.306 546.522C316.734 546.529 317.087 546.828 317.095 547.19Z" fill="#69DBEF"/>
<path d="M337.984 553.087C337.995 553.604 337.509 554.016 336.899 554.006C336.287 553.996 335.782 553.569 335.77 553.051C335.758 552.534 336.245 552.123 336.856 552.133C337.467 552.143 337.972 552.57 337.984 553.087Z" fill="#69DBEF"/>
<path d="M17.0729 219.762L8.37339 227.174L0 220.04L0.128474 219.931L8.69948 212.628L17.0729 219.762ZM16.5692 219.77L8.68967 213.057L0.503549 220.032L8.38298 226.745L16.5692 219.77Z" fill="#69DBEF"/>
<path d="M15.3943 219.789L8.40443 225.743L1.6772 220.012L8.66613 214.057L15.3943 219.789ZM14.8906 219.797L8.65652 214.486L2.18045 220.004L8.41366 225.315L14.8906 219.797Z" fill="#69DBEF"/>
<path d="M13.7176 219.816L8.4369 224.314L3.35504 219.985L8.63474 215.487L13.7176 219.816ZM13.2138 219.825L8.62534 215.916L3.8592 219.977L8.4468 223.885L13.2138 219.825Z" fill="#69DBEF"/>
<path d="M17.0729 242.308L8.37339 249.719L0 242.585L0.128474 242.477L8.69948 235.174L17.0729 242.308ZM16.5692 242.316L8.68967 235.603L0.503549 242.577L8.38298 249.29L16.5692 242.316Z" fill="#69DBEF"/>
<path d="M15.3943 242.334L8.40443 248.289L1.6772 242.558L8.66613 236.603L15.3943 242.334ZM14.8906 242.343L8.65652 237.032L2.18045 242.55L8.41366 247.86L14.8906 242.343Z" fill="#69DBEF"/>
<path d="M13.7176 242.362L8.4369 246.86L3.35504 242.531L8.63474 238.033L13.7176 242.362ZM13.2138 242.371L8.62534 238.462L3.8592 242.523L8.4468 246.431L13.2138 242.371Z" fill="#69DBEF"/>
<path d="M17.0729 264.853L8.37339 272.265L0 265.131L0.128474 265.022L8.69948 257.719L17.0729 264.853ZM16.5692 264.862L8.68967 258.148L0.503549 265.123L8.38298 271.836L16.5692 264.862Z" fill="#69DBEF"/>
<path d="M15.3943 264.88L8.40443 270.835L1.6772 265.103L8.66613 259.148L15.3943 264.88ZM14.8906 264.888L8.65652 259.577L2.18045 265.095L8.41366 270.406L14.8906 264.888Z" fill="#69DBEF"/>
<path d="M13.7176 264.908L8.4369 269.405L3.35504 265.077L8.63474 260.579L13.7176 264.908ZM13.2138 264.916L8.62534 261.007L3.8592 265.068L8.4468 268.976L13.2138 264.916Z" fill="#69DBEF"/>
<path d="M17.0729 287.399L8.37339 294.811L0 287.677L0.128474 287.568L8.69948 280.265L17.0729 287.399ZM16.5692 287.407L8.68967 280.694L0.503549 287.669L8.38298 294.382L16.5692 287.407Z" fill="#69DBEF"/>
<path d="M15.3943 287.426L8.40443 293.38L1.6772 287.649L8.66613 281.694L15.3943 287.426ZM14.8906 287.434L8.65652 282.123L2.18045 287.641L8.41366 292.951L14.8906 287.434Z" fill="#69DBEF"/>
<path d="M13.7176 287.453L8.4369 291.951L3.35504 287.622L8.63474 283.124L13.7176 287.453ZM13.2138 287.462L8.62534 283.553L3.8592 287.614L8.4468 291.522L13.2138 287.462Z" fill="#69DBEF"/>
<path d="M17.0729 309.944L8.37339 317.356L0 310.222L0.128474 310.113L8.69948 302.811L17.0729 309.944ZM16.5692 309.953L8.68967 303.24L0.503549 310.214L8.38298 316.927L16.5692 309.953Z" fill="#69DBEF"/>
<path d="M15.3943 309.971L8.40443 315.926L1.6772 310.194L8.66613 304.24L15.3943 309.971ZM14.8906 309.979L8.65652 304.669L2.18045 310.186L8.41366 315.497L14.8906 309.979Z" fill="#69DBEF"/>
<path d="M13.7176 309.999L8.4369 314.497L3.35504 310.168L8.63474 305.67L13.7176 309.999ZM13.2138 310.007L8.62534 306.099L3.8592 310.159L8.4468 314.068L13.2138 310.007Z" fill="#69DBEF"/>
<path d="M17.0729 332.49L8.37339 339.902L0 332.768L0.128474 332.659L8.69948 325.356L17.0729 332.49ZM16.5692 332.498L8.68967 325.785L0.503549 332.76L8.38298 339.473L16.5692 332.498Z" fill="#69DBEF"/>
<path d="M15.3943 332.517L8.40443 338.471L1.6772 332.74L8.66613 326.785L15.3943 332.517ZM14.8906 332.525L8.65652 327.214L2.18045 332.732L8.41366 338.043L14.8906 332.525Z" fill="#69DBEF"/>
<path d="M13.7176 332.544L8.4369 337.042L3.35504 332.713L8.63474 328.215L13.7176 332.544ZM13.2138 332.553L8.62534 328.644L3.8592 332.705L8.4468 336.613L13.2138 332.553Z" fill="#69DBEF"/>
<path d="M17.0729 355.036L8.37339 362.447L0 355.314L0.128474 355.205L8.69948 347.902L17.0729 355.036ZM16.5692 355.044L8.68967 348.331L0.503549 355.305L8.38298 362.018L16.5692 355.044Z" fill="#69DBEF"/>
<path d="M15.3943 355.062L8.40443 361.017L1.6772 355.286L8.66613 349.331L15.3943 355.062ZM14.8906 355.071L8.65652 349.76L2.18045 355.278L8.41366 360.588L14.8906 355.071Z" fill="#69DBEF"/>
<path d="M13.7176 355.09L8.4369 359.588L3.35504 355.259L8.63474 350.761L13.7176 355.09ZM13.2138 355.099L8.62534 351.19L3.8592 355.251L8.4468 359.159L13.2138 355.099Z" fill="#69DBEF"/>
<path d="M613.607 219.762L604.908 227.174L596.534 220.04L596.663 219.931L605.234 212.628L613.607 219.762ZM613.104 219.77L605.224 213.057L597.038 220.032L604.917 226.745L613.104 219.77Z" fill="#69DBEF"/>
<path d="M611.929 219.789L604.939 225.743L598.212 220.012L605.201 214.057L611.929 219.789ZM611.425 219.797L605.191 214.486L598.715 220.004L604.948 225.315L611.425 219.797Z" fill="#69DBEF"/>
<path d="M610.252 219.816L604.971 224.314L599.889 219.985L605.169 215.487L610.252 219.816ZM609.748 219.825L605.16 215.916L600.394 219.977L604.981 223.885L609.748 219.825Z" fill="#69DBEF"/>
<path d="M613.607 242.308L604.908 249.719L596.534 242.585L596.663 242.477L605.234 235.174L613.607 242.308ZM613.104 242.316L605.224 235.603L597.038 242.577L604.917 249.29L613.104 242.316Z" fill="#69DBEF"/>
<path d="M611.929 242.334L604.939 248.289L598.212 242.558L605.201 236.603L611.929 242.334ZM611.425 242.343L605.191 237.032L598.715 242.55L604.948 247.86L611.425 242.343Z" fill="#69DBEF"/>
<path d="M610.252 242.362L604.971 246.86L599.889 242.531L605.169 238.033L610.252 242.362ZM609.748 242.371L605.16 238.462L600.394 242.523L604.981 246.431L609.748 242.371Z" fill="#69DBEF"/>
<path d="M613.607 264.853L604.908 272.265L596.534 265.131L596.663 265.022L605.234 257.719L613.607 264.853ZM613.104 264.862L605.224 258.148L597.038 265.123L604.917 271.836L613.104 264.862Z" fill="#69DBEF"/>
<path d="M611.929 264.88L604.939 270.835L598.212 265.103L605.201 259.148L611.929 264.88ZM611.425 264.888L605.191 259.577L598.715 265.095L604.948 270.406L611.425 264.888Z" fill="#69DBEF"/>
<path d="M610.252 264.908L604.971 269.405L599.889 265.077L605.169 260.579L610.252 264.908ZM609.748 264.916L605.16 261.007L600.394 265.068L604.981 268.976L609.748 264.916Z" fill="#69DBEF"/>
<path d="M613.607 287.399L604.908 294.811L596.534 287.677L596.663 287.568L605.234 280.265L613.607 287.399ZM613.104 287.407L605.224 280.694L597.038 287.669L604.917 294.382L613.104 287.407Z" fill="#69DBEF"/>
<path d="M611.929 287.426L604.939 293.38L598.212 287.649L605.201 281.694L611.929 287.426ZM611.425 287.434L605.191 282.123L598.715 287.641L604.948 292.951L611.425 287.434Z" fill="#69DBEF"/>
<path d="M610.252 287.453L604.971 291.951L599.889 287.622L605.169 283.124L610.252 287.453ZM609.748 287.462L605.16 283.553L600.394 287.614L604.981 291.522L609.748 287.462Z" fill="#69DBEF"/>
<path d="M613.607 309.944L604.908 317.356L596.534 310.222L596.663 310.113L605.234 302.811L613.607 309.944ZM613.104 309.953L605.224 303.24L597.038 310.214L604.917 316.927L613.104 309.953Z" fill="#69DBEF"/>
<path d="M611.929 309.971L604.939 315.926L598.212 310.194L605.201 304.24L611.929 309.971ZM611.425 309.979L605.191 304.669L598.715 310.186L604.948 315.497L611.425 309.979Z" fill="#69DBEF"/>
<path d="M610.252 309.999L604.971 314.497L599.889 310.168L605.169 305.67L610.252 309.999ZM609.748 310.007L605.16 306.099L600.394 310.159L604.981 314.068L609.748 310.007Z" fill="#69DBEF"/>
<path d="M613.607 332.49L604.908 339.902L596.534 332.768L596.663 332.659L605.234 325.356L613.607 332.49ZM613.104 332.498L605.224 325.785L597.038 332.76L604.917 339.473L613.104 332.498Z" fill="#69DBEF"/>
<path d="M611.929 332.517L604.939 338.471L598.212 332.74L605.201 326.785L611.929 332.517ZM611.425 332.525L605.191 327.214L598.715 332.732L604.948 338.043L611.425 332.525Z" fill="#69DBEF"/>
<path d="M610.252 332.544L604.971 337.042L599.889 332.713L605.169 328.215L610.252 332.544ZM609.748 332.553L605.16 328.644L600.394 332.705L604.981 336.613L609.748 332.553Z" fill="#69DBEF"/>
<path d="M613.607 355.036L604.908 362.447L596.534 355.314L596.663 355.205L605.234 347.902L613.607 355.036ZM613.104 355.044L605.224 348.331L597.038 355.305L604.917 362.018L613.104 355.044Z" fill="#69DBEF"/>
<path d="M611.929 355.062L604.939 361.017L598.212 355.286L605.201 349.331L611.929 355.062ZM611.425 355.071L605.191 349.76L598.715 355.278L604.948 360.588L611.425 355.071Z" fill="#69DBEF"/>
<path d="M610.252 355.09L604.971 359.588L599.889 355.259L605.169 350.761L610.252 355.09ZM609.748 355.099L605.16 351.19L600.394 355.251L604.981 359.159L609.748 355.099Z" fill="#69DBEF"/>
<path fill-rule="evenodd" clip-rule="evenodd" d="M589 19.6282H389.696V18.6282H589C597.837 18.6282 605 25.7916 605 34.6282V208.628H604V34.6282C604 26.3439 597.284 19.6282 589 19.6282ZM604 366.628V540.628C604 548.912 597.284 555.628 589 555.628H389.696V556.628H589C597.837 556.628 605 549.465 605 540.628V366.628H604ZM223.825 555.628H24.0001C15.7159 555.628 9.00012 548.912 9.00012 540.628L9.00012 366.628H8.00012V540.628C8.00012 549.465 15.1636 556.628 24.0001 556.628H223.825V555.628ZM9.00012 34.6282V208.628H8.00011L8.00012 34.6282C8.00012 25.7916 15.1636 18.6282 24.0001 18.6282H223.825V19.6282H24.0001C15.7158 19.6282 9.00012 26.3439 9.00012 34.6282Z" fill="url(#paint0_linear_383_4598)"/>
<defs>
<linearGradient id="paint0_linear_383_4598" x1="306.804" y1="0" x2="306.804" y2="574.836" gradientUnits="userSpaceOnUse">
<stop stop-color="#F6D4BA"/>
<stop offset="1" stop-color="#F6D4BA" stop-opacity="0.45"/>
</linearGradient>
</defs>
</svg>
