<svg width="29" height="29" viewBox="0 0 29 29" fill="none" xmlns="http://www.w3.org/2000/svg">
<g clip-path="url(#clip0_53_2225)">
<path d="M28.0446 13.8373C27.7535 13.4903 27.3564 13.2648 26.9012 13.1806L26.6874 10.2785C26.8983 10.2765 27.0782 10.1246 27.1149 9.91638L27.1974 9.44875C27.2858 8.94749 27.1625 8.45267 26.8592 8.09124C26.5562 7.7302 26.1126 7.5313 25.6101 7.5313H22.3915L22.5482 6.6429C22.5927 6.39057 22.5282 6.13863 22.3715 5.95181C22.2163 5.76686 21.9829 5.66077 21.7313 5.66077H5.88803C5.41952 5.66077 4.98826 6.02526 4.90617 6.4907L3.50448 14.4405C3.46248 14.6789 3.62167 14.9063 3.86011 14.9483C3.88581 14.9528 3.91141 14.955 3.93673 14.955C4.14547 14.955 4.33048 14.8053 4.36794 14.5927L5.76969 6.6429C5.77893 6.59056 5.84631 6.53752 5.88798 6.53752L21.6764 6.53757L20.2829 14.4405C20.2408 14.6789 20.4 14.9063 20.6385 14.9483C20.8767 14.9902 21.1043 14.8311 21.1463 14.5927L21.2474 14.0196H26.4901C26.4902 14.0196 26.4905 14.0196 26.4907 14.0196C26.4909 14.0196 26.4911 14.0196 26.4913 14.0196C26.8536 14.0196 27.1667 14.155 27.3729 14.4007C27.5149 14.5699 27.5977 14.7804 27.6176 15.0133H26.1613C25.9485 15.0133 25.7665 15.1661 25.7295 15.3756L25.5647 16.3109C25.4982 16.6877 25.592 17.061 25.8221 17.3352C26.0489 17.6056 26.3933 17.7607 26.7667 17.7607H27.1795L26.8394 19.6896H25.6819C25.6057 19.3038 25.439 18.949 25.1863 18.6479C24.7379 18.1134 24.078 17.8192 23.3284 17.8192C22.1264 17.8192 20.9668 18.6056 20.4239 19.6897H20.2477L20.8166 16.4632C20.8586 16.2248 20.6994 15.9974 20.4609 15.9554C20.2226 15.9133 19.9951 16.0725 19.9531 16.311L19.3573 19.6898H11.2416C11.1654 19.3039 10.9987 18.9491 10.746 18.648C10.2975 18.1135 9.63774 17.8193 8.88808 17.8193C7.6861 17.8193 6.52645 18.6057 5.98357 19.6898L3.46915 19.6898L3.64437 18.6961H5.6147C5.85681 18.6961 6.05313 18.4998 6.05313 18.2576C6.05313 18.0155 5.85686 17.8192 5.6147 17.8192H0.93843C0.696328 17.8192 0.5 18.0155 0.5 18.2576C0.5 18.4998 0.696273 18.6961 0.93843 18.6961H2.75411L2.59743 19.5845C2.55297 19.8368 2.61739 20.0888 2.77413 20.2756C2.92933 20.4605 3.16268 20.5666 3.41435 20.5666H5.69887C5.58003 21.3103 5.75864 22.0109 6.20571 22.5436C6.65415 23.0781 7.31395 23.3724 8.06361 23.3724C9.5557 23.3724 10.9832 22.161 11.2458 20.6719C11.2519 20.6366 11.2568 20.6016 11.2617 20.5666H20.1392C20.0203 21.3102 20.1989 22.0108 20.6461 22.5436C21.0945 23.078 21.7543 23.3723 22.504 23.3723C23.996 23.3723 25.4236 22.1609 25.6861 20.6718C25.6923 20.6366 25.6972 20.6015 25.7021 20.5665H27.2074C27.4201 20.5665 27.6021 20.4138 27.6391 20.2042L28.4637 15.5279C28.5756 14.8931 28.4268 14.2927 28.0446 13.8373ZM21.4021 13.1429L21.9072 10.2787H25.8083L26.0194 13.1429H21.4021ZM26.3339 9.29656L26.3153 9.40188H22.0617L22.2369 8.40816H25.6101C25.8489 8.40816 26.054 8.49577 26.1874 8.65485C26.3258 8.81968 26.3779 9.04751 26.3339 9.29656ZM10.3823 20.5197C10.1902 21.6093 9.15003 22.4956 8.06361 22.4956C7.57766 22.4956 7.15634 22.3125 6.87738 21.9801C6.59038 21.638 6.48101 21.1735 6.56944 20.672C6.76156 19.5825 7.80171 18.6962 8.88813 18.6962C9.37409 18.6962 9.7954 18.8793 10.0744 19.2117C10.3614 19.5537 10.4707 20.0183 10.3823 20.5197ZM24.8226 20.5197C24.6305 21.6093 23.5903 22.4956 22.5039 22.4956C22.0179 22.4956 21.5966 22.3125 21.3177 21.9801C21.0307 21.638 20.9213 21.1735 21.0097 20.672C21.2018 19.5825 22.242 18.6961 23.3284 18.6961C23.8143 18.6961 24.2357 18.8792 24.5147 19.2117C24.8017 19.5537 24.911 20.0183 24.8226 20.5197ZM27.3341 16.8841H26.7667V16.884C26.6498 16.884 26.5554 16.8452 26.4937 16.7718C26.4298 16.6956 26.4065 16.586 26.4281 16.4634L26.5292 15.8904H27.5093L27.3341 16.8841Z" fill="black"/>
<path d="M9.19865 19.9809C9.04344 19.7959 8.81009 19.6898 8.55836 19.6898C8.08986 19.6898 7.65859 20.0543 7.5765 20.5198C7.53204 20.7721 7.59647 21.024 7.7532 21.2108C7.9084 21.3958 8.14175 21.5019 8.39343 21.5019C8.86193 21.5019 9.2932 21.1373 9.37529 20.672C9.4198 20.4196 9.35543 20.1677 9.19865 19.9809Z" fill="black"/>
<path d="M23.6397 19.9808C23.4845 19.7959 23.2511 19.6898 22.9995 19.6898C22.531 19.6898 22.0997 20.0543 22.0177 20.5196C21.9732 20.772 22.0375 21.0239 22.1943 21.2108C22.3495 21.3957 22.5829 21.5018 22.8345 21.5018C23.3031 21.5018 23.7343 21.1373 23.8164 20.6719C23.8609 20.4196 23.7965 20.1677 23.6397 19.9808Z" fill="black"/>
<path d="M18.1852 17.8193H12.6298C12.3877 17.8193 12.1914 18.0155 12.1914 18.2577C12.1914 18.4998 12.3877 18.6961 12.6298 18.6961H18.1852C18.4273 18.6961 18.6236 18.4999 18.6236 18.2577C18.6235 18.0155 18.4273 17.8193 18.1852 17.8193Z" fill="black"/>
<path d="M10.2916 15.9488H2.20405C1.96195 15.9488 1.76562 16.1451 1.76562 16.3872C1.76562 16.6293 1.96184 16.8257 2.20405 16.8257H10.2916C10.5337 16.8257 10.73 16.6294 10.73 16.3872C10.73 16.1451 10.5337 15.9488 10.2916 15.9488Z" fill="black"/>
<path d="M18.6638 14.185L17.0407 12.7821C16.8575 12.6238 16.5807 12.6439 16.4223 12.8271C16.2639 13.0103 16.2841 13.2871 16.4673 13.4455L17.1995 14.0783H6.08296C5.84086 14.0783 5.64453 14.2746 5.64453 14.5167C5.64453 14.7589 5.84081 14.9552 6.08296 14.9552H16.9214L16.0172 15.5542C15.8153 15.6879 15.7601 15.96 15.8938 16.1618C15.9781 16.2892 16.1176 16.3581 16.2596 16.3581C16.3428 16.3581 16.4269 16.3345 16.5014 16.2851L18.6193 14.8822C18.7337 14.8065 18.8059 14.6816 18.8146 14.5447C18.8234 14.4077 18.7676 14.2746 18.6638 14.185Z" fill="#00AB54"/>
</g>
<defs>
<clipPath id="clip0_53_2225">
<rect width="28" height="28" fill="white" transform="translate(0.5 0.516541)"/>
</clipPath>
</defs>
</svg>
