<svg width="53" height="52" viewBox="0 0 53 52" fill="none" xmlns="http://www.w3.org/2000/svg">
<g clip-path="url(#clip0_53_2103)">
<path d="M47.7616 43.3111H5.17903C2.75663 43.3111 0.785156 41.3402 0.785156 38.9172V37.0719C0.785156 36.7562 1.04087 36.5011 1.35594 36.5011H19.6226C19.9377 36.5011 20.1934 36.7562 20.1934 37.0719V38.7026H32.7472V37.0719C32.7472 36.7562 33.0023 36.5011 33.318 36.5011H51.5847C51.9003 36.5011 52.1555 36.7562 52.1555 37.0719V38.9172C52.1555 41.3402 50.1846 43.3111 47.7616 43.3111ZM1.92672 37.6421V38.9166C1.92672 40.71 3.38564 42.169 5.17903 42.169H47.7616C49.555 42.169 51.0139 40.7095 51.0139 38.9166V37.6421H33.8888V39.2728C33.8888 39.5885 33.6336 39.8436 33.318 39.8436H19.6226C19.3076 39.8436 19.0519 39.5885 19.0519 39.2728V37.6421H1.92672Z" fill="#323232"/>
<path d="M48.681 37.6421C48.3654 37.6421 48.1103 37.387 48.1103 37.0713V10.5066C48.1103 10.1014 47.7809 9.77144 47.3757 9.77144H5.56423C5.15897 9.77144 4.82906 10.1014 4.82906 10.5066V37.0713C4.82906 37.387 4.57335 37.6421 4.25828 37.6421C3.94321 37.6421 3.6875 37.387 3.6875 37.0713V10.5066C3.6875 9.47178 4.5294 8.62988 5.56423 8.62988H47.3757C48.4105 8.62988 49.2518 9.47178 49.2518 10.5066V37.0713C49.2518 37.387 48.9967 37.6421 48.681 37.6421Z" fill="#323232"/>
<path d="M45.5924 34.7883H7.35008C7.03501 34.7883 6.7793 34.5331 6.7793 34.2175V13.4924C6.7793 12.5152 7.5744 11.7207 8.551 11.7207H44.3909C45.3681 11.7207 46.1626 12.5158 46.1626 13.4924V34.2175C46.1632 34.5331 45.9081 34.7883 45.5924 34.7883ZM7.92086 33.6467H45.0216V13.4924C45.0216 13.1448 44.7391 12.8623 44.3915 12.8623H8.551C8.2034 12.8623 7.92086 13.1454 7.92086 13.4924V33.6467Z" fill="#323232"/>
<path d="M29.7934 32.2717H28.6518V23.0941H24.2882V32.2717H23.1466V22.9725C23.1466 22.4103 23.6038 21.9525 24.166 21.9525H28.7734C29.3356 21.9525 29.7928 22.4097 29.7928 22.9725L29.7934 32.2717Z" fill="#00AB54"/>
<path d="M21.0842 32.2716H19.9427V28.2317H15.5791V32.2716H14.4375V28.1095C14.4375 27.5473 14.8947 27.0901 15.4575 27.0901H20.0648C20.6271 27.0901 21.0842 27.5473 21.0842 28.1095V32.2716Z" fill="#00AB54"/>
<path d="M38.5022 32.2716H37.3607V17.957H32.997V32.2716H31.8555V17.8354C31.8555 17.2732 32.3127 16.8154 32.8749 16.8154H37.4822C38.0445 16.8154 38.5016 17.2726 38.5016 17.8354L38.5022 32.2716Z" fill="#00AB54"/>
</g>
<defs>
<clipPath id="clip0_53_2103">
<rect width="52" height="52" fill="white" transform="translate(0.5)"/>
</clipPath>
</defs>
</svg>
