<svg width="29" height="29" viewBox="0 0 29 29" fill="none" xmlns="http://www.w3.org/2000/svg">
<path d="M4.92664 1.55771C4.90258 1.56208 4.87852 1.56864 4.85664 1.57521C4.59633 1.63427 4.41258 1.86833 4.41914 2.13521V7.17521H9.45914C9.66039 7.17739 9.84852 7.07239 9.95133 6.89739C10.052 6.72239 10.052 6.50802 9.95133 6.33302C9.84852 6.15802 9.66039 6.05302 9.45914 6.05521H6.27414C8.39602 3.97927 11.2945 2.69521 14.4991 2.69521C21.0004 2.69521 26.2591 7.95396 26.2591 14.4552C26.2591 20.9565 21.0004 26.2152 14.4991 26.2152C7.99789 26.2152 2.73914 20.9565 2.73914 14.4552C2.73914 12.5105 3.2182 10.6796 4.05164 9.06521L3.05414 8.55771C2.13977 10.3252 1.61914 12.3311 1.61914 14.4552C1.61914 21.5624 7.39195 27.3352 14.4991 27.3352C21.6063 27.3352 27.3791 21.5624 27.3791 14.4552C27.3791 7.34802 21.6063 1.57521 14.4991 1.57521C11.0123 1.57521 7.85789 2.97739 5.53914 5.23271V2.13521C5.5457 1.97333 5.48008 1.81802 5.36414 1.70864C5.24602 1.59708 5.08633 1.54239 4.92664 1.55771ZM14.4991 3.25521C14.1907 3.25521 13.9391 3.50677 13.9391 3.81521C13.9391 4.12364 14.1907 4.37521 14.4991 4.37521C14.8076 4.37521 15.0591 4.12364 15.0591 3.81521C15.0591 3.50677 14.8076 3.25521 14.4991 3.25521ZM19.8191 4.67271C19.5107 4.67271 19.2591 4.92427 19.2591 5.23271C19.2591 5.54114 19.5107 5.79271 19.8191 5.79271C20.1276 5.79271 20.3791 5.54114 20.3791 5.23271C20.3791 4.92427 20.1276 4.67271 19.8191 4.67271ZM23.7216 8.57521C23.4132 8.57521 23.1616 8.82677 23.1616 9.13521C23.1616 9.44364 23.4132 9.69521 23.7216 9.69521C24.0301 9.69521 24.2816 9.44364 24.2816 9.13521C24.2816 8.82677 24.0301 8.57521 23.7216 8.57521ZM3.85914 13.8952C3.5507 13.8952 3.29914 14.1468 3.29914 14.4552C3.29914 14.7636 3.5507 15.0152 3.85914 15.0152C4.16758 15.0152 4.41914 14.7636 4.41914 14.4552C4.41914 14.1468 4.16758 13.8952 3.85914 13.8952ZM25.1391 13.8952C24.8307 13.8952 24.5791 14.1468 24.5791 14.4552C24.5791 14.7636 24.8307 15.0152 25.1391 15.0152C25.4476 15.0152 25.6991 14.7636 25.6991 14.4552C25.6991 14.1468 25.4476 13.8952 25.1391 13.8952ZM5.27664 19.2152C4.9682 19.2152 4.71664 19.4668 4.71664 19.7752C4.71664 20.0836 4.9682 20.3352 5.27664 20.3352C5.58508 20.3352 5.83664 20.0836 5.83664 19.7752C5.83664 19.4668 5.58508 19.2152 5.27664 19.2152ZM23.7216 19.2152C23.4132 19.2152 23.1616 19.4668 23.1616 19.7752C23.1616 20.0836 23.4132 20.3352 23.7216 20.3352C24.0301 20.3352 24.2816 20.0836 24.2816 19.7752C24.2816 19.4668 24.0301 19.2152 23.7216 19.2152ZM9.17914 23.1177C8.8707 23.1177 8.61914 23.3693 8.61914 23.6777C8.61914 23.9861 8.8707 24.2377 9.17914 24.2377C9.48758 24.2377 9.73914 23.9861 9.73914 23.6777C9.73914 23.3693 9.48758 23.1177 9.17914 23.1177ZM19.8191 23.1177C19.5107 23.1177 19.2591 23.3693 19.2591 23.6777C19.2591 23.9861 19.5107 24.2377 19.8191 24.2377C20.1276 24.2377 20.3791 23.9861 20.3791 23.6777C20.3791 23.3693 20.1276 23.1177 19.8191 23.1177ZM14.4991 24.5352C14.1907 24.5352 13.9391 24.7868 13.9391 25.0952C13.9391 25.4036 14.1907 25.6552 14.4991 25.6552C14.8076 25.6552 15.0591 25.4036 15.0591 25.0952C15.0591 24.7868 14.8076 24.5352 14.4991 24.5352Z" fill="#323232"/>
<path d="M8.12891 12.3902C8.12891 10.9355 9.23578 9.92273 10.7889 9.92273C12.2873 9.92273 13.3789 10.8787 13.3789 12.1802C13.3789 13.0159 12.9873 13.694 11.6639 15.0327L9.89641 16.8177V16.9052H13.5189V18.0077H8.19891V17.1152L10.8589 14.3502C11.9155 13.2499 12.1714 12.8299 12.1714 12.2502C12.1714 11.5284 11.5502 10.9902 10.7364 10.9902C9.86578 10.9902 9.28391 11.548 9.28391 12.3902V12.4077H8.12891V12.3902Z" fill="#00AB54"/>
<path fill-rule="evenodd" clip-rule="evenodd" d="M18.1914 10.1152C16.7848 12.2218 15.608 14.0571 14.9014 15.3477V16.4852H18.7514V18.0077H19.9239V16.4852H21.0264V15.3827H19.9239V10.1152H18.1914ZM18.7689 11.2002H18.6989C17.918 12.3312 17.0036 13.7159 16.0739 15.3302V15.4177H18.7689V11.2002Z" fill="#00AB54"/>
</svg>
