<svg width="54" height="54" viewBox="0 0 54 54" fill="none" xmlns="http://www.w3.org/2000/svg">
<path d="M26.6049 29.4932C26.7686 29.6983 26.9565 29.9835 27.1683 30.3487L27.0365 30.3887C26.8929 30.1268 26.7422 29.9002 26.585 29.7083C26.4275 29.5166 26.2317 29.326 25.9972 29.137C25.4054 28.66 24.7561 28.331 24.0488 28.1497C24.1617 28.9543 23.9635 29.6782 23.4538 30.3211C23.0539 30.8256 22.5474 31.2074 21.934 31.4669C21.3207 31.7265 20.6641 31.8623 19.9649 31.8736C19.265 31.8853 18.5567 31.772 17.839 31.5337C17.1211 31.2954 16.4628 30.9346 15.8643 30.4523C15.6002 30.2393 15.3935 30.0488 15.244 29.8803C15.0946 29.7119 14.946 29.5107 14.7989 29.2772C14.6209 29.313 14.4808 29.3427 14.3786 29.3664C14.2768 29.3904 14.1187 29.4217 13.9044 29.4606C13.6637 29.5112 13.4488 29.55 13.2602 29.5773C13.0713 29.6045 12.8939 29.6281 12.7272 29.6488C12.5603 29.6694 12.3956 29.6873 12.2329 29.7028C12.0702 29.7184 11.8942 29.7394 11.7059 29.7665L11.3414 29.815L11.136 29.821C11.4582 30.5536 11.6258 31.1698 11.6395 31.6698C11.6526 32.1697 11.5135 32.604 11.2218 32.972C10.8591 33.4296 10.3651 33.6259 9.73919 33.5612C9.11355 33.4963 8.44869 33.1802 7.74499 32.6128C7.43882 32.366 7.17621 32.1011 6.95684 31.8192C6.73786 31.5366 6.54768 31.2331 6.38744 30.908C6.30199 30.7416 6.21592 30.5497 6.12886 30.3329C6.04145 30.1159 5.93904 29.8287 5.82039 29.4724C5.09516 29.3115 4.41754 29.0955 3.78848 28.8247C3.15892 28.5533 2.61978 28.2368 2.17106 27.8751C1.58983 27.4062 1.22307 26.9403 1.07169 26.4778C0.920222 26.0151 0.993421 25.5959 1.29135 25.2199C1.6207 24.8043 2.18848 24.6297 2.99512 24.6963C3.80151 24.7629 4.8238 25.0362 6.06273 25.5161L6.35047 25.6266C6.4498 25.4798 6.52732 25.3718 6.58226 25.3026C6.64478 25.2235 6.70347 25.1493 6.75868 25.0799C7.33872 24.3479 8.02552 23.7706 8.81902 23.3484C9.61249 22.9263 10.5993 22.6234 11.7795 22.4399C12.6917 22.2997 13.5504 22.2424 14.3562 22.2677C15.162 22.2933 16.002 22.4072 16.8762 22.6094C18.8502 23.0663 20.5039 23.832 21.8378 24.9074C22.4381 25.3919 22.9237 25.8847 23.2941 26.3857C23.6641 26.887 23.8978 27.3712 23.9948 27.8383C24.7755 28.0955 25.4465 28.4498 26.0078 28.9022C26.242 29.0915 26.4412 29.2884 26.6049 29.4932ZM1.40303 26.5503C1.54762 26.9265 1.86511 27.3121 2.35456 27.7069C2.78306 28.0522 3.25267 28.3298 3.76386 28.5392C4.27486 28.7485 4.93878 28.9393 5.75547 29.1113C5.63915 28.4986 5.6187 27.9229 5.69485 27.3841C5.77068 26.8457 5.94444 26.3206 6.21541 25.8095C5.73695 25.5696 5.2538 25.3828 4.76635 25.2493C4.27867 25.1155 3.82152 25.0386 3.39445 25.0185C2.96719 24.9985 2.58829 25.0335 2.25794 25.1234C1.92701 25.2136 1.68359 25.3579 1.52696 25.5558C1.29928 25.8428 1.25797 26.1743 1.40303 26.5503ZM19.5985 23.795C18.729 23.3941 17.8057 23.0831 16.8272 22.8617C15.9722 22.6752 15.154 22.5787 14.3729 22.5731C13.5915 22.5675 12.7638 22.6417 11.8892 22.796C10.7565 23.0011 9.80164 23.3099 9.02453 23.7209C8.24737 24.1319 7.58821 24.6788 7.04724 25.3615C6.98437 25.4405 6.9346 25.5137 6.89788 25.5816C6.86089 25.6491 6.80446 25.7413 6.72856 25.8586C7.15838 26.0755 7.51878 26.2852 7.81002 26.4872C8.10102 26.6896 8.43532 26.943 8.8126 27.2472C9.04725 27.4364 9.25196 27.6053 9.42641 27.7539C9.60072 27.9028 9.75692 28.0491 9.8943 28.1924C10.0317 28.3356 10.163 28.4858 10.2886 28.644C10.4138 28.8021 10.5349 28.9762 10.6512 29.1672C10.7231 29.1606 10.7792 29.153 10.8195 29.145C10.8591 29.1367 10.8971 29.1309 10.9335 29.1274C11.0495 29.1077 11.1971 29.0844 11.3764 29.0591C11.5557 29.0331 11.7703 28.9996 12.0205 28.9582C12.2527 28.9186 12.4534 28.8814 12.6225 28.8476C12.7912 28.8135 12.9286 28.7823 13.0348 28.7543L14.0806 28.4788L14.3207 28.4293C13.9196 27.5219 13.9737 26.7472 14.4834 26.104C14.7814 25.728 15.1628 25.4683 15.6281 25.3242C16.0931 25.1804 16.5977 25.1657 17.1422 25.2803L17.1176 25.4065C16.6295 25.3048 16.1743 25.3311 15.7517 25.4845C15.3287 25.6385 14.9763 25.8934 14.6942 26.2494C14.2156 26.8529 14.166 27.5589 14.5454 28.3671L14.8512 28.2975L15.936 28.0048C16.1295 27.9505 16.3348 27.897 16.5519 27.8447C16.7686 27.7925 17.0059 27.7408 17.2642 27.6895C17.9685 27.5603 18.5841 27.4687 19.1115 27.4156C19.6383 27.3623 20.2003 27.3491 20.7972 27.3765C21.0544 27.3893 21.3033 27.4075 21.5441 27.431C21.7843 27.4548 22.0291 27.4781 22.2788 27.5008C22.5564 27.53 22.7818 27.5621 22.9552 27.5963C23.1287 27.6308 23.3615 27.6848 23.6544 27.7587C23.4412 26.8249 22.8503 25.9671 21.8815 25.1858C21.2286 24.6595 20.4676 24.1959 19.5985 23.795ZM7.75536 26.6985C7.39641 26.4657 7.01208 26.2491 6.60266 26.0488C6.42383 26.3586 6.28395 26.6513 6.18298 26.9263C6.0817 27.2014 6.01109 27.5018 5.97126 27.8262C5.92981 28.0686 5.91389 28.2784 5.92344 28.4564C5.93297 28.6341 5.95894 28.8862 6.00116 29.2122C6.4019 29.2761 6.7109 29.3185 6.92861 29.3397C7.14557 29.3608 7.39574 29.3721 7.67927 29.3735C8.02652 29.3778 8.38203 29.3725 8.74519 29.3574C9.1085 29.3421 9.56304 29.2954 10.11 29.2173L10.4194 29.175C10.1942 28.8473 9.96955 28.5611 9.74616 28.3159C9.52221 28.0708 9.232 27.8042 8.87513 27.5163C8.4875 27.2038 8.11423 26.9313 7.75536 26.6985ZM8.92241 29.8771C8.63815 29.8667 8.36194 29.8511 8.09465 29.83C7.82703 29.8088 7.55368 29.7792 7.2752 29.7409C6.99612 29.7024 6.69222 29.6479 6.3639 29.5777L6.12484 29.5308C6.29199 30.1848 6.51821 30.7481 6.80386 31.2215C7.08903 31.6946 7.46124 32.1163 7.92005 32.4865C8.50148 32.9553 9.05018 33.191 9.56635 33.1936C10.0824 33.1961 10.517 32.9752 10.8697 32.53C11.1363 32.1937 11.2706 31.7871 11.2724 31.3101C11.2742 30.8333 11.1478 30.3545 10.8937 29.8738C10.6487 29.8871 10.4601 29.893 10.3279 29.8916C10.1948 29.8903 10.0376 29.8887 9.8547 29.8873C9.51716 29.8908 9.20643 29.8875 8.92241 29.8771ZM20.5286 27.8895C20.291 27.9251 20.0294 27.9654 19.7435 28.01C19.4851 28.0615 19.2516 28.1086 19.0426 28.1506C18.8335 28.1929 18.6206 28.2403 18.4041 28.2923C18.1867 28.3445 17.9487 28.4078 17.6891 28.4821C17.4296 28.5567 17.1148 28.6476 16.7455 28.755C16.5519 28.8097 16.382 28.8548 16.2361 28.8916C16.0902 28.928 15.9578 28.9631 15.839 28.997C15.7202 29.0311 15.6015 29.0648 15.4828 29.0985C15.3638 29.1327 15.2203 29.1711 15.0527 29.214C15.2401 29.4623 15.3981 29.6592 15.5265 29.8029C15.6545 29.9466 15.8055 30.0887 15.9791 30.2285C17.1111 31.1415 18.367 31.4973 19.747 31.2966C20.0689 31.2484 20.3915 31.1681 20.7151 31.0559C21.038 30.9432 21.3507 30.802 21.6526 30.6321C21.9544 30.462 22.2354 30.2708 22.4954 30.0591C22.7551 29.847 22.9793 29.6224 23.1674 29.3849C23.3637 29.1378 23.4935 28.9262 23.5575 28.7508C23.6213 28.5751 23.6562 28.336 23.6627 28.0328C23.3133 27.9456 22.9078 27.8825 22.4466 27.8429C21.9846 27.803 21.5503 27.7974 21.1434 27.8259C20.9706 27.8325 20.7658 27.8537 20.5286 27.8895Z" fill="#F6D4BA" fill-opacity="0.9"/>
<path d="M28.0957 28.9407C28.6397 28.5096 29.2979 28.1804 30.0698 27.9532C30.1487 27.4894 30.3643 27.0138 30.7152 26.5262C31.0667 26.0387 31.5336 25.5638 32.1159 25.1023C33.4098 24.0771 35.0355 23.3739 36.9932 22.9921C37.8606 22.8232 38.6968 22.7413 39.5022 22.7467C40.3076 22.752 41.1694 22.8421 42.0873 23.0172C43.2756 23.2462 44.2747 23.5868 45.0847 24.0395C45.895 24.4926 46.6041 25.0963 47.2127 25.8512C47.2704 25.9227 47.3322 25.9992 47.3979 26.0807C47.4555 26.1521 47.5369 26.2632 47.642 26.4136L47.9258 26.3142C49.1473 25.8815 50.1599 25.6469 50.9645 25.6111C51.7688 25.5751 52.344 25.7715 52.6893 26.2001C53.0019 26.5877 53.0912 27.01 52.9571 27.4671C52.8234 27.9246 52.4743 28.3768 51.9104 28.8235C51.4751 29.1685 50.9477 29.4646 50.3282 29.712C49.7088 29.959 49.0393 30.1494 48.3195 30.2824C48.2146 30.6349 48.1228 30.918 48.0438 31.132C47.9647 31.3457 47.886 31.5344 47.8069 31.6979C47.6589 32.0168 47.4804 32.313 47.2719 32.5879C47.0631 32.8614 46.8106 33.1165 46.5136 33.3516C45.831 33.8929 45.1776 34.1834 44.5542 34.2245C43.9303 34.2655 43.4284 34.05 43.0478 33.5783C42.742 33.1989 42.5861 32.7592 42.5801 32.2593C42.5746 31.7595 42.719 31.1493 43.0131 30.4284L42.8076 30.4147L42.4411 30.3522C42.2515 30.3179 42.0746 30.29 41.911 30.2683C41.7478 30.2465 41.5822 30.2222 41.4147 30.1953C41.2469 30.1683 41.0682 30.1377 40.8783 30.1033C40.6888 30.0688 40.4718 30.0219 40.2292 29.9619C40.0131 29.9148 39.8538 29.8773 39.7509 29.8497C39.6478 29.8219 39.5065 29.7868 39.3268 29.7441C39.1885 29.9722 39.0475 30.168 38.9048 30.331C38.7617 30.4936 38.5618 30.6762 38.3059 30.8793C37.7253 31.3394 37.0801 31.6752 36.3708 31.8863C35.6617 32.0973 34.9571 32.1838 34.2567 32.1453C33.5562 32.1073 32.8939 31.9464 32.2705 31.663C31.6469 31.38 31.1251 30.9783 30.7059 30.4581C30.171 29.7953 29.9449 29.0635 30.0272 28.2623C29.3263 28.4168 28.6889 28.7213 28.1152 29.1761C27.8877 29.3562 27.6992 29.5396 27.5485 29.7253C27.3989 29.9114 27.2567 30.1325 27.1229 30.3887L26.9895 30.3441C27.1878 29.9865 27.3646 29.7083 27.5206 29.5096C27.6764 29.3108 27.8683 29.1212 28.0957 28.9407ZM52.4662 26.5269C52.3022 26.3233 52.053 26.1695 51.7184 26.0668C51.3842 25.9641 51.004 25.9145 50.5771 25.9181C50.1507 25.9219 49.6957 25.9814 49.213 26.0966C48.7304 26.2116 48.2539 26.3802 47.7842 26.6022C48.0751 27.1238 48.2689 27.6558 48.3653 28.1976C48.4621 28.7397 48.4637 29.3152 48.3707 29.9238C49.1814 29.7827 49.8385 29.6174 50.3419 29.4273C50.8453 29.2374 51.3047 28.9774 51.7204 28.6483C52.1954 28.2719 52.4981 27.8981 52.6285 27.5273C52.7591 27.1563 52.7053 26.8231 52.4662 26.5269ZM32.083 25.3794C31.1431 26.1242 30.5846 26.96 30.4074 27.8864C30.6971 27.8237 30.9282 27.7783 31.1004 27.7503C31.2728 27.7229 31.4972 27.6992 31.7737 27.6806C32.0227 27.6675 32.267 27.6536 32.5065 27.6391C32.7463 27.6245 32.9948 27.6158 33.2514 27.6129C33.8482 27.6084 34.411 27.6431 34.9404 27.7165C35.4698 27.7897 36.0896 27.9049 36.7992 28.0612C37.0597 28.1224 37.299 28.1832 37.5182 28.2439C37.7373 28.3044 37.9448 28.3656 38.1407 28.4276L39.237 28.7619L39.5461 28.8432C39.8945 28.0488 39.8181 27.3405 39.3164 26.7181C39.0202 26.3509 38.6579 26.0827 38.2286 25.9125C37.7999 25.7425 37.3433 25.699 36.8588 25.7821L36.8294 25.6548C37.3697 25.5612 37.8756 25.5951 38.3462 25.7566C38.8172 25.9185 39.2089 26.1932 39.5213 26.5807C40.0563 27.2439 40.1398 28.0215 39.7733 28.9139L40.0153 28.9727L41.0724 29.2885C41.1798 29.3209 41.3184 29.3569 41.4885 29.3973C41.6592 29.4378 41.8615 29.4827 42.0954 29.5312C42.3472 29.5822 42.5634 29.6239 42.7436 29.6567C42.924 29.6893 43.0725 29.718 43.1895 29.742C43.226 29.7469 43.2643 29.7542 43.3043 29.7639C43.3449 29.7736 43.4013 29.7835 43.4735 29.7927C43.5826 29.6061 43.697 29.4364 43.8163 29.2828C43.936 29.1296 44.0615 28.984 44.1936 28.8459C44.3257 28.7079 44.4765 28.5676 44.6453 28.4254C44.8141 28.283 45.0126 28.1217 45.2399 27.9413C45.6059 27.6513 45.9307 27.4106 46.2143 27.2191C46.4981 27.0282 46.8506 26.832 47.2725 26.6316C47.1921 26.5115 47.1319 26.4168 47.0926 26.3477C47.053 26.2787 47.0006 26.2034 46.9347 26.1218C46.3672 25.418 45.6867 24.8456 44.8934 24.4046C44.0998 23.9636 43.1325 23.6185 41.991 23.3693C41.1103 23.1818 40.2788 23.0756 39.4974 23.0518C38.7156 23.0273 37.9003 23.0925 37.0519 23.2467C36.0815 23.4307 35.1694 23.7068 34.3144 24.0747C33.4602 24.4427 32.7162 24.8776 32.083 25.3794ZM45.1877 28.2085C44.8418 28.4829 44.5613 28.7387 44.3468 28.9755C44.1323 29.212 43.9187 29.4898 43.7058 29.8093L44.017 29.8635C44.5677 29.9627 45.0243 30.0267 45.3881 30.0556C45.7521 30.0848 46.1084 30.1039 46.4558 30.1127C46.7394 30.1219 46.9891 30.1202 47.2057 30.1076C47.4226 30.0947 47.7299 30.0641 48.1286 30.0154C48.1585 29.6907 48.1749 29.4396 48.1777 29.2619C48.1804 29.0843 48.1564 28.8735 48.1055 28.6293C48.0535 28.3032 47.9712 28.0003 47.8594 27.7212C47.7477 27.4419 47.5968 27.1436 47.4059 26.8268C47.0038 27.0116 46.6276 27.2138 46.2772 27.4328C45.927 27.6519 45.5638 27.9104 45.1877 28.2085ZM44.2981 30.5439C44.1151 30.5381 43.9577 30.5336 43.8248 30.5299C43.6924 30.5265 43.5037 30.5132 43.258 30.4904C43.0219 30.9618 42.9139 31.4363 42.9337 31.9134C42.9538 32.3909 43.1036 32.8027 43.3833 33.1497C43.7534 33.6085 44.1967 33.8463 44.713 33.8634C45.2296 33.8806 45.7697 33.6657 46.3333 33.2186C46.7784 32.8658 47.1347 32.4581 47.4023 31.9954C47.6698 31.5326 47.8749 30.9774 48.0172 30.3295L47.7797 30.3671C47.4536 30.425 47.1517 30.4678 46.8738 30.4955C46.5967 30.5236 46.3243 30.5426 46.0572 30.5537C45.7905 30.5645 45.5149 30.5696 45.2306 30.5693C44.9469 30.5687 44.636 30.5604 44.2981 30.5439ZM32.9224 28.0494C32.5141 28.0054 32.0797 27.9944 31.6192 28.0166C31.1589 28.0387 30.7554 28.0866 30.4093 28.1601C30.4275 28.4638 30.4715 28.7046 30.5418 28.8828C30.6128 29.0611 30.7509 29.2774 30.9563 29.5324C31.1536 29.7771 31.3866 30.0106 31.6547 30.2328C31.9231 30.4548 32.2116 30.6564 32.5202 30.8381C32.8288 31.0199 33.1471 31.1732 33.4746 31.298C33.8026 31.423 34.1286 31.5158 34.4528 31.5761C35.841 31.8297 37.0843 31.5216 38.1824 30.6512C38.3507 30.518 38.4962 30.3815 38.6189 30.2425C38.7422 30.1036 38.8926 29.913 39.0706 29.6712C38.9012 29.6219 38.7563 29.5781 38.6356 29.5392C38.5159 29.501 38.3956 29.4627 38.2753 29.4241C38.1553 29.3855 38.0216 29.3455 37.8739 29.3034C37.7268 29.2614 37.555 29.2096 37.3588 29.1471C36.9853 29.0259 36.6671 28.9227 36.4042 28.8381C36.1417 28.754 35.9011 28.6815 35.6817 28.6208C35.4629 28.5605 35.248 28.5053 35.0371 28.4548C34.8264 28.4048 34.591 28.3487 34.3306 28.2875C34.0424 28.2318 33.7791 28.1813 33.54 28.1366C33.3013 28.0917 33.0953 28.0627 32.9224 28.0494Z" fill="#F6D4BA" fill-opacity="0.9"/>
<path d="M25.4069 25.7561C25.6017 25.7815 25.7974 25.7769 25.9944 25.7414C26.3415 25.679 26.5801 25.5119 26.7111 25.2403C26.8414 24.9684 26.8555 24.5966 26.7536 24.1244C26.6855 23.8094 26.5739 23.489 26.4193 23.1621C26.2644 22.8357 26.0736 22.5232 25.8468 22.2249C25.7388 22.0868 25.6149 21.944 25.4747 21.7965C25.3347 21.6491 25.1825 21.5024 25.0187 21.3561C24.855 21.2096 24.6842 21.0663 24.5066 20.9256C24.3287 20.785 24.1484 20.6524 23.9652 20.5279C23.6267 20.2978 23.2805 20.0932 22.9265 19.9146C22.5723 19.7362 22.22 19.5872 21.8697 19.4685C21.5381 19.3523 21.2385 19.2807 20.971 19.2529C20.7035 19.2251 20.4454 19.2336 20.1964 19.2784C19.4212 19.4176 19.1305 19.9361 19.3249 20.8338C19.36 20.9972 19.4119 21.1605 19.4803 21.3238C19.5486 21.4873 19.6431 21.667 19.7638 21.8634C19.8353 21.9718 19.9062 22.0771 19.9764 22.1797C20.0467 22.2819 20.1198 22.3841 20.196 22.4854C20.2942 22.607 20.3908 22.72 20.4855 22.824C20.5802 22.9283 20.6811 23.0342 20.7886 23.1421C20.8963 23.25 21.0162 23.3602 21.1488 23.4726C21.2812 23.5852 21.4308 23.7083 21.5981 23.8417C21.7512 23.9655 21.8867 24.0716 22.005 24.1593C22.1231 24.2472 22.2394 24.3262 22.3538 24.3963C22.4681 24.4668 22.5876 24.533 22.7124 24.5955C22.8371 24.6579 22.9831 24.7286 23.1505 24.8076C23.3048 24.8828 23.4448 24.9454 23.5698 24.9958C23.6947 25.0458 23.806 25.0865 23.9027 25.1178C24.1479 25.1948 24.3915 25.2448 24.6339 25.268C24.8764 25.291 25.0902 25.286 25.2754 25.2529C25.7902 25.1604 25.9897 24.8457 25.874 24.3097C25.8348 24.1288 25.7571 23.9366 25.641 23.7335C25.5249 23.5303 25.3779 23.3234 25.2004 23.1131C25.0228 22.9029 24.8203 22.6968 24.5935 22.4952C24.3664 22.2939 24.1204 22.1078 23.8552 21.9372C23.6366 21.789 23.4176 21.6586 23.1982 21.5467C22.9786 21.4346 22.7695 21.3435 22.5711 21.2732C22.3723 21.2028 22.1874 21.1542 22.0166 21.1273C21.8452 21.1004 21.6991 21.0982 21.5776 21.12C21.2594 21.177 21.1395 21.3863 21.2175 21.7477C21.2514 21.9052 21.3424 22.0752 21.49 22.2577C21.6377 22.4399 21.8373 22.6267 22.0889 22.8179C22.3618 23.0233 22.6225 23.1732 22.8715 23.2677C23.1204 23.3624 23.3432 23.3922 23.54 23.3567C23.5688 23.3516 23.6192 23.3333 23.6905 23.3024L23.7161 23.3797C23.6655 23.3947 23.6226 23.4056 23.5879 23.4116C23.5589 23.4168 23.5272 23.4226 23.4926 23.4289C23.3016 23.4632 23.0887 23.4453 22.8543 23.3755C22.6197 23.3053 22.3791 23.1868 22.1325 23.0189C22.0058 22.9328 21.8871 22.8359 21.7765 22.7285C21.6663 22.6212 21.5672 22.5102 21.4793 22.3957C21.3914 22.2811 21.3168 22.166 21.2557 22.0499C21.1946 21.9337 21.1519 21.8201 21.128 21.7094C21.0775 21.4761 21.0991 21.2844 21.1929 21.1344C21.287 20.9843 21.4494 20.8886 21.6809 20.8469C21.8833 20.8107 22.1185 20.8271 22.3859 20.8967C22.6535 20.9664 22.9406 21.0854 23.2475 21.2537C23.5754 21.4361 23.8925 21.6509 24.1984 21.8979C24.504 22.1449 24.78 22.406 25.026 22.6816C25.2719 22.9575 25.481 23.2368 25.6535 23.5196C25.8258 23.8026 25.9391 24.0689 25.993 24.3187C26.0571 24.6151 26.012 24.8646 25.8575 25.0674C25.7029 25.2701 25.4492 25.4033 25.0963 25.4666C24.7259 25.5333 24.3053 25.4923 23.8345 25.3444C23.3636 25.1961 22.8582 24.9441 22.3185 24.5877C21.9394 24.3356 21.5762 24.0534 21.2293 23.7411C20.8822 23.4288 20.5704 23.1055 20.2938 22.7716C20.0171 22.4376 19.7861 22.1059 19.6009 21.7768C19.4156 21.4474 19.2912 21.1379 19.2283 20.847C19.1969 20.7016 19.1772 20.5616 19.1692 20.4268C19.1612 20.2924 19.1626 20.1668 19.1734 20.0503C19.196 19.7377 19.3208 19.4678 19.5479 19.2396C19.7752 19.0116 20.0681 18.8654 20.427 18.8009C20.7047 18.7512 21.023 18.7634 21.3816 18.8383C21.7404 18.9129 22.1162 19.0391 22.5095 19.2165C22.9023 19.394 23.2973 19.6149 23.6943 19.8794C24.0909 20.1441 24.4669 20.4438 24.8221 20.7797C25.1014 21.0439 25.3582 21.3137 25.5922 21.5896C25.8261 21.8653 26.0226 22.1338 26.1812 22.3958C26.34 22.6578 26.4792 22.9396 26.5987 23.2419C26.7181 23.5441 26.8082 23.835 26.8685 24.1145C26.9794 24.627 26.9647 25.0381 26.8244 25.3475C26.6836 25.6572 26.431 25.8446 26.0667 25.9102C25.6443 25.9861 25.2331 25.9054 24.8333 25.6683L24.8701 25.589C25.0329 25.6746 25.2119 25.7306 25.4069 25.7561Z" fill="#F6D4BA" fill-opacity="0.9"/>
<path d="M29.0391 25.6739L29.0789 25.7544C28.6881 25.9765 28.2797 26.0416 27.8538 25.9493C27.4865 25.8699 27.2269 25.6726 27.0745 25.3576C26.922 25.0424 26.8916 24.6306 26.9828 24.1217C27.0326 23.8445 27.1117 23.5569 27.2197 23.259C27.3275 22.961 27.4561 22.684 27.6049 22.428C27.754 22.1722 27.9401 21.9108 28.1638 21.6438C28.3873 21.3768 28.6338 21.1165 28.9037 20.8626C29.246 20.5403 29.6106 20.2546 29.9977 20.0051C30.3848 19.7554 30.7716 19.5494 31.1581 19.3869C31.5446 19.2242 31.916 19.1123 32.2723 19.0515C32.6285 18.9904 32.9463 18.99 33.2264 19.0506C33.5878 19.1288 33.8866 19.2862 34.1224 19.523C34.3586 19.7599 34.4939 20.035 34.5283 20.3487C34.5437 20.4657 34.5498 20.5914 34.5472 20.7258C34.544 20.86 34.5299 20.9995 34.5036 21.1438C34.452 21.4323 34.3394 21.7376 34.1666 22.06C33.9938 22.3825 33.7754 22.7053 33.5111 23.0292C33.2474 23.3529 32.9475 23.6647 32.612 23.9635C32.2767 24.2628 31.9243 24.5314 31.5542 24.7691C31.0279 25.1052 30.5317 25.3382 30.066 25.4683C29.6007 25.5984 29.1815 25.6233 28.8082 25.5427C28.4528 25.4657 28.1936 25.3228 28.0311 25.1142C27.8688 24.9051 27.8141 24.6537 27.8669 24.3598C27.9113 24.1117 28.0143 23.8494 28.1761 23.5732C28.338 23.2965 28.5366 23.0251 28.7721 22.7582C29.0075 22.4917 29.2738 22.2409 29.5704 22.0058C29.8671 21.7702 30.1759 21.5674 30.4971 21.3974C30.7981 21.2406 31.0807 21.1327 31.346 21.073C31.6109 21.0135 31.8456 21.006 32.0496 21.0504C32.2828 21.1005 32.4491 21.2026 32.5488 21.3564C32.6485 21.5104 32.6774 21.7027 32.6356 21.9342C32.6158 22.0442 32.5776 22.1562 32.5212 22.2703C32.4642 22.3841 32.3942 22.4964 32.3105 22.6076C32.2269 22.719 32.1319 22.8264 32.0257 22.9293C31.9191 23.0326 31.8042 23.1249 31.6803 23.2062C31.4401 23.3647 31.2039 23.4745 30.9716 23.5356C30.74 23.5964 30.5274 23.6062 30.3352 23.5646C30.3002 23.5571 30.2683 23.5502 30.2389 23.5438C30.204 23.5365 30.1608 23.5238 30.1093 23.5069L30.1319 23.4305C30.2047 23.4643 30.2557 23.4845 30.2851 23.4907C30.4831 23.5335 30.7051 23.5122 30.9506 23.4272C31.1962 23.342 31.4512 23.202 31.7166 23.0069C31.961 22.8251 32.1539 22.646 32.2943 22.4691C32.4353 22.2922 32.5197 22.1256 32.5475 21.9693C32.6121 21.6105 32.4841 21.3966 32.1633 21.3272C32.0409 21.3008 31.8948 21.2974 31.7242 21.3178C31.5543 21.3382 31.3711 21.3798 31.175 21.4426C30.9791 21.5053 30.7734 21.5886 30.5579 21.6924C30.3427 21.7959 30.1283 21.9181 29.9154 22.0583C29.6562 22.2185 29.4172 22.3953 29.1978 22.5883C28.9785 22.7813 28.784 22.9798 28.6139 23.1835C28.4443 23.3869 28.3051 23.5885 28.1966 23.7876C28.0884 23.9864 28.0177 24.1756 27.9858 24.355C27.8902 24.8872 28.1018 25.2096 28.6209 25.3219C28.8074 25.362 29.0214 25.3753 29.2632 25.3615C29.5047 25.3475 29.7469 25.3069 29.9893 25.2391C30.0851 25.2115 30.1946 25.1753 30.3179 25.1298C30.4408 25.0842 30.5787 25.0267 30.7301 24.9573C30.8947 24.885 31.0381 24.8196 31.1603 24.762C31.2829 24.7041 31.3999 24.6426 31.5118 24.5764C31.6235 24.5106 31.7368 24.436 31.8519 24.3524C31.9667 24.269 32.0984 24.1683 32.2469 24.0502C32.409 23.9229 32.5543 23.8057 32.6824 23.6979C32.8107 23.5906 32.9267 23.4849 33.0302 23.3811C33.1337 23.2772 33.2306 23.1749 33.3213 23.0744C33.4121 22.9736 33.5044 22.8642 33.598 22.7465C33.6705 22.6478 33.7398 22.5489 33.8061 22.4489C33.8727 22.3492 33.9394 22.2462 34.0069 22.1407C34.12 21.9486 34.2079 21.7724 34.2698 21.6114C34.3321 21.4506 34.3778 21.289 34.4067 21.1272C34.5667 20.236 34.2561 19.706 33.4751 19.5372C33.2242 19.483 32.9655 19.4644 32.6989 19.4821C32.4325 19.4994 32.1356 19.5599 31.8079 19.6633C31.4621 19.769 31.1151 19.9041 30.7675 20.0697C30.4199 20.2348 30.0813 20.4261 29.7515 20.6433C29.573 20.7611 29.3975 20.887 29.2248 21.0209C29.0526 21.155 28.887 21.2919 28.7285 21.432C28.5704 21.5721 28.4237 21.7134 28.2895 21.8556C28.1544 21.9976 28.0359 22.1356 27.9331 22.2699C27.7175 22.5598 27.5386 22.8653 27.3962 23.1862C27.2538 23.507 27.1545 23.8236 27.0985 24.1361C27.0144 24.605 27.0429 24.9773 27.1836 25.2545C27.3248 25.5315 27.5703 25.7079 27.92 25.7833C28.1185 25.8262 28.3144 25.8386 28.5084 25.8206C28.7027 25.8024 28.8794 25.7534 29.0391 25.6739Z" fill="#F6D4BA" fill-opacity="0.9"/>
<path d="M17.3771 25.2915C17.3809 25.4921 17.2214 25.6519 17.0206 25.648C16.82 25.6442 16.6542 25.4783 16.6504 25.2776C16.6466 25.0771 16.8063 24.9174 17.0067 24.9213C17.2074 24.9251 17.3732 25.0911 17.3771 25.2915Z" fill="#69DBEF"/>
<path d="M23.9956 23.3295C23.9983 23.4698 23.8867 23.5817 23.7463 23.5791C23.6056 23.5762 23.4896 23.4603 23.487 23.3196C23.4844 23.1791 23.596 23.0675 23.7363 23.0702C23.8769 23.073 23.9929 23.1889 23.9956 23.3295Z" fill="#69DBEF"/>
<path d="M30.3589 23.5012C30.3615 23.6415 30.2498 23.7534 30.1094 23.7507C29.9687 23.7479 29.8528 23.6318 29.8501 23.4914C29.8474 23.3511 29.9591 23.2393 30.0997 23.242C30.2402 23.2447 30.3561 23.3606 30.3589 23.5012Z" fill="#69DBEF"/>
<path d="M37.2209 25.7895C37.2247 25.9899 37.0651 26.1497 36.8646 26.1457C36.6638 26.142 36.4979 25.9761 36.4941 25.7755C36.4903 25.5749 36.6499 25.4153 36.8507 25.4192C37.0512 25.423 37.217 25.5888 37.2209 25.7895Z" fill="#69DBEF"/>
</svg>
