<svg width="53" height="52" viewBox="0 0 53 52" fill="none" xmlns="http://www.w3.org/2000/svg">
<g clip-path="url(#clip0_53_2125)">
<path d="M38.4844 0.619532C35.6 1.3711 33.4875 3.40235 32.5734 6.29688C32.3703 6.94688 32.3398 7.27188 32.3398 8.48047C32.3398 10.1969 32.482 10.7859 33.2133 12.2789C33.65 13.1727 33.8633 13.4672 34.6047 14.2188C35.0922 14.7063 35.6203 15.1938 35.793 15.3055L36.0875 15.5188L35.1836 15.9758C32.7156 17.225 30.8875 19.0836 29.6992 21.5516C28.7852 23.4711 28.5312 24.832 28.5312 27.9398C28.5312 30.2555 28.582 30.5195 29.0898 30.7531C29.293 30.8445 32.0961 30.875 40.607 30.875H51.8602L52.1242 30.6313C52.2664 30.4992 52.4187 30.2656 52.4594 30.1133C52.4898 29.9711 52.5 28.7219 52.4695 27.3406C52.4289 25.0859 52.3984 24.7305 52.1648 23.8164C51.5453 21.4094 50.5094 19.632 48.732 17.9258C47.7773 17.0117 46.6094 16.1992 45.6344 15.7727C45.2789 15.6203 44.9844 15.468 44.9844 15.4375C44.9844 15.407 45.1164 15.3055 45.2687 15.2141C45.7562 14.9195 46.9242 13.7008 47.3711 13C50.4688 8.21641 47.9602 1.93984 42.4148 0.609377C41.2875 0.335157 39.5406 0.345314 38.4844 0.619532ZM41.7547 2.54922C42.0492 2.61016 42.6789 2.84375 43.1562 3.06719C44.5477 3.7375 45.7664 5.09844 46.2437 6.53047C46.5484 7.42422 46.65 8.45 46.518 9.30313C45.8984 13.5078 41.5719 15.8031 37.7734 13.9547C36.768 13.4672 35.5289 12.2383 35.0617 11.2633C34.5336 10.1969 34.3914 9.46563 34.4523 8.22656C34.5133 6.91641 34.757 6.16484 35.4578 5.11875C36.8086 3.09766 39.368 2.06172 41.7547 2.54922ZM42.9734 17.0422C45.6445 17.7633 48.0008 19.6625 49.2195 22.0898C50.0117 23.6438 50.2555 24.7508 50.3367 27.0359L50.3977 28.7422H40.5359H30.6641V27.1883C30.6641 26.3453 30.7148 25.35 30.7758 24.9844C30.9281 23.9688 31.4969 22.4352 32.0453 21.5008C32.7156 20.3734 34.2797 18.8094 35.407 18.1391C36.2906 17.6211 37.8445 17.032 38.7891 16.8695C39.7133 16.707 42.0695 16.8086 42.9734 17.0422Z" fill="#323232"/>
<path d="M22.4883 3.88984C22.2141 4.16406 22.1328 4.32656 22.1328 4.62109C22.1328 4.96641 22.2242 5.09844 23.0164 5.90078L23.9 6.80469H22.3258C21.4625 6.80469 20.3758 6.85547 19.9086 6.90625C15.8156 7.42422 12.525 10.5523 11.8242 14.5945C11.743 15.0719 11.6719 15.6711 11.6719 15.9148C11.6719 16.7172 12.0578 17.1539 12.7687 17.1641C13.1242 17.1641 13.2664 17.1031 13.5 16.8797C13.7336 16.6359 13.7945 16.4734 13.8555 15.8844C13.957 14.8383 14.0992 14.1375 14.3734 13.4672C15.1352 11.5883 16.75 10.075 18.7305 9.38438C19.5023 9.11016 19.6445 9.1 21.7266 9.05938L23.9102 9.01875L23.0266 9.93281C22.1937 10.7859 22.1328 10.8672 22.1328 11.2633C22.1328 11.893 22.5492 12.2891 23.2094 12.2891H23.6867L25.4539 10.532C26.4289 9.57734 27.2922 8.66328 27.3734 8.51094C27.4547 8.35859 27.5156 8.06406 27.5156 7.86094C27.5156 7.49531 27.4039 7.36328 25.6062 5.55547C23.8492 3.79844 23.6664 3.63594 23.2703 3.58516C22.8844 3.53438 22.8133 3.56484 22.4883 3.88984Z" fill="#00AB54"/>
<path d="M10.4539 21.3281C7.61016 22.0695 5.35547 24.2531 4.54297 27.0766C4.23828 28.1227 4.21797 30.2555 4.50234 31.2812C5.01016 33.1398 6.1375 34.7852 7.71172 35.9633L8.06719 36.2273L7.15313 36.6945C4.29922 38.1266 2.13594 40.5945 1.16094 43.5094C0.653125 45.0227 0.592188 45.5102 0.53125 48.3133L0.480469 50.9742L0.785156 51.2891L1.08984 51.5938H12.4141C23.6773 51.5938 23.7281 51.5938 23.9922 51.3805C24.1445 51.2688 24.3172 50.9844 24.3781 50.7508C24.5406 50.1617 24.4289 46.3328 24.2156 45.2156C23.5047 41.4781 20.9859 38.1977 17.6141 36.593L16.8625 36.2375L17.6039 35.6383C18.9344 34.5719 20.0313 32.8453 20.4578 31.1289C20.6914 30.2047 20.7016 28.4375 20.468 27.4828C19.7266 24.375 17.3398 22.0188 14.2016 21.2773C13.2672 21.0641 11.4086 21.0844 10.4539 21.3281ZM14.3133 23.5219C15.8367 23.9992 17.157 25.157 17.8578 26.6398C18.325 27.625 18.4773 28.275 18.4773 29.3313C18.4773 32.0328 16.5578 34.4906 13.907 35.1914C13.1758 35.3844 11.6727 35.3844 10.9211 35.1914C8.74766 34.6227 6.90938 32.693 6.44219 30.4992C5.61953 26.6398 8.84922 22.943 12.7898 23.2273C13.2063 23.2578 13.8969 23.3898 14.3133 23.5219ZM14.557 37.7406C17.543 38.4109 20.275 40.6758 21.4227 43.4383C22.0219 44.8805 22.1539 45.5813 22.2047 47.6633L22.2555 49.5625L12.4242 49.5422L2.58281 49.5117L2.55234 48.3945C2.49141 46.1602 2.84688 44.4031 3.7 42.7883C5.19297 39.9547 7.97578 38.0047 11.1141 37.5883C12.0281 37.4664 13.6227 37.5375 14.557 37.7406Z" fill="#323232"/>
<path d="M42.6489 33.7899C41.9888 33.993 41.7349 34.3891 41.7349 35.2219C41.7349 35.4961 41.6435 36.075 41.5318 36.5219C40.8919 39 39.2263 40.7875 36.7583 41.6508C36.1794 41.8539 35.8443 41.8844 33.9146 41.925L31.731 41.9657L32.6247 41.0414C33.4169 40.2188 33.5083 40.0868 33.5083 39.7414C33.5083 39.5282 33.4372 39.2438 33.3458 39.1118C33.1325 38.8172 32.6247 38.5938 32.2794 38.6649C32.0966 38.6954 31.345 39.386 30.0653 40.6657C27.4755 43.2657 27.4755 42.8696 30.0349 45.4188C31.2333 46.6172 32.0357 47.3383 32.2185 47.3789C32.9091 47.5516 33.5083 47.0743 33.5083 46.3329C33.5083 45.8961 33.4677 45.8352 32.6349 44.9922L31.7614 44.0985L33.9857 44.0579C36.5552 43.9969 37.2153 43.875 38.7591 43.1133C40.8411 42.0875 42.5068 40.2696 43.3091 38.1469C43.8068 36.8368 44.0607 35.0391 43.8271 34.4907C43.6036 33.9727 43.0755 33.6579 42.6489 33.7899Z" fill="#00AB54"/>
</g>
<defs>
<clipPath id="clip0_53_2125">
<rect width="52" height="52" fill="white" transform="translate(0.5)"/>
</clipPath>
</defs>
</svg>
