<svg width="180" height="178" viewBox="0 0 180 178" fill="none" xmlns="http://www.w3.org/2000/svg">
<rect x="5.35547" y="3.005" width="169.695" height="171.921" rx="23.5" fill="#FFF4E7" fill-opacity="0.4" stroke="black"/>
<path d="M4.85549 26.505C4.36006 10.4714 12.7134 3.95737 28.0381 2.69801M4.85549 26.505V26.505ZM26.8769 5.62255C51.4396 5.06688 84.2579 0.791149 152.07 0.600098M151.551 2.505C161.768 5.61237 175.947 15.9866 178.64 26.3914M172.848 25.3777C175.86 58.2483 174.424 80.7329 174.765 154.15M175.551 151.426C179.544 164.074 167.141 171.645 149.161 172.808M150.715 172.704C120.812 175.12 96.0546 174.359 25.8053 176.791M28.8555 175.426C15.1307 175.726 6.36807 166.874 0.887939 148.346M8.25026 148.449C3.82872 109.054 7.06925 71.2444 3.24706 24.6224" stroke="black" stroke-linecap="round"/>
</svg>
