<svg width="175" height="182" viewBox="0 0 175 182" fill="none" xmlns="http://www.w3.org/2000/svg">
<rect x="3.35547" y="2.06067" width="169.695" height="175.763" rx="23.5" fill="#FFF4E7" fill-opacity="0.4" stroke="black"/>
<path d="M2.85547 25.5607C1.50234 9.8902 12.187 -1.209 25.9414 1.71174M2.85547 25.5607V25.5607ZM28.0872 1.06982C60.5342 3.61545 90.9532 -1.60085 145.945 4.0036M149.551 1.56068C163.916 2.51478 171.534 9.0931 174.302 25.6811M172.904 23.3535C175.086 53.7146 173.127 79.3729 172.323 152.695M173.551 154.324C170.854 166.019 163.939 178.366 149.551 180.831M153.271 181.117C103.865 178.929 60.6532 177.559 25.6361 178.274M26.8555 178.324C13.0689 175.003 6.21142 164.738 5.16111 150.33M5.33588 154.78C0.829544 119.814 2.85553 88.4697 0.938599 26.312" stroke="black" stroke-linecap="round"/>
</svg>
