<svg width="177" height="186" viewBox="0 0 177 186" fill="none" xmlns="http://www.w3.org/2000/svg">
<rect x="2.35547" y="5.06067" width="169.695" height="175.763" rx="23.5" fill="#FFF4E7" fill-opacity="0.4" stroke="black"/>
<path d="M1.85543 28.5607C-1.83729 19.283 11.2004 7.25048 26.651 0.639099M1.85543 28.5607V28.5607ZM28.2452 5.65531C57.1923 2.38741 93.0755 3.67945 146.427 4.09795M148.551 4.56068C164.017 8.09972 176.283 17.0814 171.534 26.9916M170.39 24.7655C169.283 70.0241 169.159 112.498 176.227 160.465M172.551 157.324C170.164 169.965 164.672 182.773 146.418 177.69M149.49 184.724C119.956 177.047 97.4242 176.813 24.9161 178.372M25.8555 181.324C14.4505 180.942 3.56522 173.815 1.48025 159.105M3.90298 156.927C2.50625 124.174 0.6472 96.0867 4.09699 25.2481" stroke="black" stroke-linecap="round"/>
</svg>
