<svg width="279" height="277" viewBox="0 0 279 277" fill="none" xmlns="http://www.w3.org/2000/svg">
<rect x="1.5" y="3.5" width="273.966" height="270" rx="23.5" fill="#FFF4E7" fill-opacity="0.4" stroke="black"/>
<path d="M1 17.632C5.38967 11.0446 15.9187 2.5341 29.2889 1.31682M1 17.632V17.632ZM26.9804 1C82.6886 1.45854 144.231 1.84177 245.928 4.16236M246.376 3.25544C265.162 5.50276 275.53 11.628 270.716 19.9143M275.321 16.3597C277.442 111.868 280.204 204.81 275.107 261.898M275.529 260.835C276.23 270.134 267.133 275.492 248.648 276M245.964 273.52C178.745 272.03 111.729 272.659 26.6511 275.215M30.1535 275.211C17.0517 274.668 2.84623 268.316 4.5938 260.281M3.37631 262.014C6.89273 185.538 4.87375 110.648 1.26947 18.7984" stroke="black" stroke-linecap="round"/>
</svg>
