<svg width="174" height="186" viewBox="0 0 174 186" fill="none" xmlns="http://www.w3.org/2000/svg">
<rect x="2.35547" y="4.06067" width="169.695" height="175.763" rx="23.5" fill="#FFF4E7" fill-opacity="0.4" stroke="black"/>
<path d="M1.8554 49.673C3.9698 18.4704 10.3136 5.54398 16.3844 1M1.8554 49.673V49.673ZM18.9172 4.37187C53.2184 4.41199 94.6047 -1.00333 156.369 6.13524M157.545 3.56079C166.14 6.72278 173.861 25.1275 170.213 52.0547M170.453 42.943C173.413 87.2173 174.218 108.485 170.56 129.775M172.551 134.212C171.556 161.536 163.57 185.181 156.816 179.96M157.851 185C123.118 173.762 84.2676 170.352 16.0594 175.777M16.8616 180.324C8.18947 172.8 0.905555 154.084 2.47407 127.331M2.67942 126.835C2.40193 122.529 -0.458645 92.4586 1.97165 52.519" stroke="black" stroke-linecap="round"/>
</svg>
