<svg width="29" height="28" viewBox="0 0 29 28" fill="none" xmlns="http://www.w3.org/2000/svg">
<g clip-path="url(#clip0_53_2200)">
<path d="M26.2335 7.20949C26.2192 6.45353 26.2054 5.73938 26.2054 5.0485C26.2054 4.50724 25.7668 4.06843 25.2254 4.06843C21.0339 4.06843 17.8427 2.86385 15.1826 0.277507C14.8021 -0.0925678 14.1965 -0.0924371 13.8161 0.277507C11.1564 2.86385 7.96564 4.06843 3.77446 4.06843C3.2332 4.06843 2.79439 4.50724 2.79439 5.0485C2.79439 5.73951 2.7808 6.45392 2.76629 7.21001C2.63196 14.2451 2.44797 23.88 14.1784 27.946C14.2824 27.982 14.3909 28.0001 14.4993 28.0001C14.6078 28.0001 14.7164 27.982 14.8203 27.946C26.5516 23.8799 26.3679 14.2447 26.2335 7.20949ZM14.4993 26.5C4.43895 22.8454 4.20306 14.3188 4.33804 7.24673C4.34615 6.8223 4.35399 6.41093 4.35948 6.00766C8.28499 5.84196 11.8125 4.34093 14.4998 2C17.1872 4.34093 20.7926 5.84275 24.7184 6.00832C24.7239 6.41145 24.7317 6.82256 24.7398 7.24673C24.8747 14.3191 24.5605 22.8452 14.4993 26.5Z" fill="#323232"/>
<path d="M17.8748 10.5955L13.1445 15.3256L11.1259 13.307C10.7431 12.9244 10.1226 12.9244 9.73994 13.307C9.35719 13.6899 9.35719 14.3103 9.73994 14.6931L12.4515 17.4046C12.6428 17.5959 12.8937 17.6916 13.1445 17.6916C13.3952 17.6916 13.6461 17.5959 13.8374 17.4046L19.2606 11.9816C19.6435 11.5988 19.6435 10.9782 19.2608 10.5956C18.8781 10.2128 18.2576 10.2127 17.8748 10.5955Z" fill="#00AB54"/>
</g>
<defs>
<clipPath id="clip0_53_2200">
<rect width="28" height="28" fill="white" transform="translate(0.5)"/>
</clipPath>
</defs>
</svg>
