<svg width="614" height="575" fill="none" xmlns="http://www.w3.org/2000/svg"><path d="M305.668 27.63c.499.529 1.07 1.264 1.715 2.204l-.401.104a11.52 11.52 0 00-1.374-1.754 11.663 11.663 0 00-1.789-1.472 16.708 16.708 0 00-5.932-2.544c.344 2.073-.259 3.939-1.811 5.595-1.217 1.3-2.759 2.284-4.626 2.953-1.867.669-3.866 1.019-5.994 1.048-2.131.03-4.287-.262-6.472-.876a20.372 20.372 0 01-6.011-2.787c-.804-.549-1.433-1.04-1.888-1.473a12.272 12.272 0 01-1.355-1.555 55.29 55.29 0 00-1.279.23c-.31.062-.792.143-1.444.243-.733.13-1.387.23-1.961.3a70.877 70.877 0 01-3.127.325c-.495.04-1.031.094-1.604.163l-1.11.125-.625.016c.981 1.888 1.491 3.475 1.533 4.764.039 1.288-.384 2.407-1.272 3.355-1.104 1.18-2.608 1.685-4.513 1.519-1.905-.167-3.929-.982-6.071-2.444a13.827 13.827 0 01-2.399-2.045 13.674 13.674 0 01-1.733-2.348 16.58 16.58 0 01-.787-1.482c-.266-.56-.578-1.3-.939-2.218a39.125 39.125 0 01-6.186-1.669c-1.916-.7-3.557-1.515-4.923-2.447-1.769-1.208-2.886-2.409-3.347-3.6-.461-1.193-.238-2.273.669-3.242 1.003-1.07 2.731-1.52 5.186-1.349 2.455.172 5.567.876 9.338 2.112l.876.285c.303-.378.539-.657.706-.835l.537-.574c1.766-1.886 3.856-3.373 6.272-4.462 2.415-1.087 5.419-1.868 9.012-2.34 2.776-.362 5.391-.51 7.843-.444 2.453.066 5.01.36 7.671.88 6.009 1.178 11.043 3.15 15.104 5.922 1.827 1.248 3.305 2.518 4.433 3.81 1.126 1.291 1.838 2.539 2.133 3.742 2.376.663 4.419 1.576 6.128 2.742.713.488 1.319.995 1.817 1.523zm-76.716-7.584c.44.97 1.407 1.963 2.896 2.98a18.1 18.1 0 004.29 2.146c1.556.539 3.577 1.03 6.063 1.474-.354-1.58-.416-3.062-.184-4.45.23-1.388.759-2.742 1.584-4.058a26.72 26.72 0 00-4.411-1.444c-1.484-.345-2.876-.543-4.176-.595-1.301-.052-2.454.039-3.46.27-1.007.233-1.748.605-2.225 1.115-.693.74-.819 1.594-.377 2.562zm55.388-7.1c-2.647-1.033-5.457-1.834-8.436-2.405-2.602-.48-5.093-.729-7.471-.743-2.378-.015-4.898.176-7.56.574-3.448.529-6.355 1.324-8.721 2.383-2.365 1.06-4.372 2.469-6.019 4.228a3.938 3.938 0 00-.454.567c-.113.174-.285.412-.516.714 1.309.559 2.406 1.1 3.292 1.62a55.005 55.005 0 013.052 1.958c.715.488 1.338.923 1.869 1.306A17.637 17.637 0 01256 25.442c.381.407.75.856 1.104 1.348a6 6 0 00.512-.057 3.57 3.57 0 01.347-.046c.354-.05.803-.11 1.349-.176.545-.067 1.199-.153 1.96-.26a79.343 79.343 0 001.833-.285c.513-.088.932-.168 1.255-.24l3.183-.71.731-.128c-1.221-2.338-1.056-4.334.496-5.992.907-.969 2.068-1.638 3.484-2.009 1.416-.37 2.952-.408 4.609-.113l-.075.325c-1.486-.262-2.871-.194-4.158.201-1.287.397-2.36 1.054-3.219 1.971-1.456 1.555-1.608 3.375-.453 5.457l.931-.18 3.302-.753a59.75 59.75 0 014.043-.813c2.144-.333 4.018-.569 5.624-.706a41.424 41.424 0 015.131-.1c.783.032 1.541.08 2.274.14.731.061 1.476.121 2.236.18.845.075 1.532.158 2.059.246.528.089 1.237.228 2.129.418-.649-2.406-2.448-4.616-5.397-6.63-1.988-1.356-4.304-2.55-6.95-3.584zm-36.051 7.482a35.64 35.64 0 00-3.509-1.674c-.544.798-.97 1.553-1.278 2.261a9.05 9.05 0 00-.644 2.32c-.126.624-.175 1.165-.146 1.623.029.458.108 1.108.237 1.948 1.22.165 2.16.274 2.823.328.661.055 1.422.084 2.285.087 1.057.012 2.14-.002 3.245-.04 1.106-.04 2.49-.16 4.154-.362l.942-.109a21.526 21.526 0 00-2.049-2.214c-.682-.631-1.565-1.319-2.651-2.06a41.579 41.579 0 00-3.409-2.108zm3.553 8.191a70.44 70.44 0 01-2.52-.121 44.982 44.982 0 01-5.269-.65l-.728-.121c.509 1.685 1.198 3.137 2.067 4.357.869 1.219 2.002 2.305 3.398 3.26 1.77 1.207 3.44 1.815 5.012 1.822 1.571.006 2.893-.563 3.967-1.71.812-.867 1.221-1.915 1.226-3.144.006-1.229-.379-2.463-1.153-3.701-.745.034-1.32.05-1.722.046l-1.441-.012c-1.027.01-1.973.001-2.837-.026zm35.33-5.122c-.724.092-1.52.196-2.39.311l-2.134.362a60.558 60.558 0 00-4.12.854c-.79.193-1.748.427-2.872.704-.59.14-1.107.257-1.551.352a45.97 45.97 0 00-1.209.271l-1.084.262c-.362.088-.799.187-1.309.297.57.64 1.051 1.148 1.442 1.518.389.37.849.736 1.377 1.097 3.447 2.353 7.269 3.27 11.47 2.752.98-.124 1.962-.331 2.947-.62.983-.29 1.935-.654 2.854-1.092a18.723 18.723 0 002.566-1.477 12.582 12.582 0 002.045-1.737c.598-.637.993-1.182 1.188-1.634.194-.453.3-1.07.32-1.85-1.064-.225-2.298-.388-3.702-.49a30.094 30.094 0 00-3.967-.044 20.65 20.65 0 00-1.871.164z" fill="#F6D4BA" fill-opacity=".9"/><path d="M310.206 26.206c1.656-1.11 3.66-1.96 6.009-2.544.24-1.196.897-2.421 1.965-3.678 1.07-1.256 2.491-2.48 4.264-3.669 3.939-2.642 8.887-4.454 14.847-5.438 2.64-.435 5.186-.646 7.637-.632 2.452.014 5.075.246 7.87.697 3.617.59 6.658 1.468 9.124 2.634a21.654 21.654 0 016.478 4.669l.564.591c.175.184.423.47.743.858l.863-.256c3.719-1.115 6.801-1.72 9.25-1.812 2.449-.093 4.2.414 5.251 1.518.951.999 1.223 2.087.815 3.265-.407 1.179-1.47 2.344-3.186 3.495-1.325.89-2.931 1.652-4.816 2.29-1.886.636-3.924 1.127-6.115 1.47a34.14 34.14 0 01-.839 2.189 15.38 15.38 0 01-.722 1.458c-.45.822-.993 1.585-1.628 2.294a12.337 12.337 0 01-2.308 1.968c-2.078 1.394-4.067 2.143-5.965 2.249-1.899.106-3.427-.45-4.586-1.665-.93-.978-1.405-2.11-1.423-3.4-.017-1.287.423-2.86 1.318-4.717l-.626-.035-1.116-.162a40.783 40.783 0 00-1.613-.216 67.822 67.822 0 01-1.511-.188 99.897 99.897 0 01-1.633-.237 38.156 38.156 0 01-1.976-.364 39.993 39.993 0 01-1.456-.29 52.556 52.556 0 00-1.291-.271c-.421.587-.85 1.092-1.284 1.512-.436.419-1.044.89-1.823 1.413-1.768 1.185-3.732 2.05-5.891 2.595a22.023 22.023 0 01-6.435.667c-2.133-.098-4.149-.512-6.046-1.243-1.899-.73-3.487-1.764-4.763-3.105-1.628-1.708-2.317-3.593-2.066-5.658-2.134.398-4.074 1.183-5.82 2.355-.693.464-1.267.936-1.726 1.415-.455.48-.888 1.05-1.295 1.71l-.406-.115c.603-.922 1.142-1.639 1.616-2.15a9.888 9.888 0 011.751-1.467zm74.186-6.22c-.499-.525-1.258-.92-2.277-1.186-1.017-.264-2.174-.392-3.474-.383-1.298.01-2.683.163-4.152.46-1.469.297-2.92.731-4.35 1.303.886 1.344 1.476 2.715 1.769 4.111.295 1.397.3 2.88.017 4.448 2.468-.363 4.468-.789 6-1.279a16.502 16.502 0 004.196-2.007c1.446-.97 2.368-1.933 2.765-2.889.397-.956.234-1.815-.494-2.578zm-62.048-2.957c-2.861 1.92-4.562 4.073-5.101 6.46a50.824 50.824 0 012.11-.35 27.487 27.487 0 012.049-.18c.758-.034 1.502-.07 2.231-.107a54.07 54.07 0 012.268-.067 41.852 41.852 0 015.141.266c1.611.19 3.498.486 5.658.889a66.133 66.133 0 014.084.944l3.337.861.941.21c1.061-2.047.828-3.872-.699-5.476-.902-.946-2.005-1.638-3.312-2.076-1.305-.438-2.695-.55-4.169-.336l-.09-.328c1.645-.242 3.185-.154 4.617.262 1.434.417 2.627 1.125 3.578 2.124 1.628 1.709 1.882 3.712.766 6.012l.737.152 3.218.813c.327.084.749.177 1.267.28.52.105 1.135.22 1.847.346.767.131 1.425.239 1.973.323.55.084 1.002.158 1.358.22.111.013.227.031.349.056.124.025.295.051.515.075.333-.481.681-.919 1.044-1.314a15.9 15.9 0 011.148-1.126 16.97 16.97 0 011.375-1.084 77.272 77.272 0 011.811-1.247 49.526 49.526 0 012.965-1.861c.864-.492 1.937-.998 3.222-1.514a13.01 13.01 0 01-.548-.732 4.515 4.515 0 00-.481-.582c-1.727-1.813-3.798-3.288-6.213-4.425-2.416-1.136-5.361-2.026-8.836-2.668-2.681-.483-5.212-.757-7.59-.818-2.38-.063-4.862.105-7.445.502-2.953.475-5.73 1.186-8.333 2.134-2.6.948-4.865 2.069-6.792 3.362zm39.891 7.29c-1.052.707-1.906 1.367-2.559 1.977a19.132 19.132 0 00-1.952 2.149l.948.139c1.676.256 3.066.42 4.174.495a70.3 70.3 0 003.25.147c.863.024 1.623.02 2.282-.013a57.034 57.034 0 002.81-.238c.091-.836.141-1.483.149-1.941.008-.458-.065-1-.219-1.63a9.605 9.605 0 00-.75-2.34c-.34-.72-.799-1.489-1.38-2.305a32.783 32.783 0 00-3.436 1.561 37.377 37.377 0 00-3.317 2zm-2.708 6.018a466.07 466.07 0 00-1.44-.036 32.884 32.884 0 01-1.726-.101c-.718 1.214-1.047 2.437-.987 3.666a4.825 4.825 0 001.369 3.186c1.126 1.182 2.476 1.795 4.047 1.84 1.573.044 3.217-.51 4.933-1.662 1.355-.91 2.439-1.96 3.254-3.152.814-1.193 1.439-2.624 1.872-4.293l-.723.097c-.993.15-1.912.26-2.758.33a49.33 49.33 0 01-2.486.15c-.812.029-1.65.042-2.516.041a72.422 72.422 0 01-2.839-.066zm-34.628-6.428a30.16 30.16 0 00-3.967-.084c-1.401.057-2.63.18-3.683.37.055.782.189 1.403.403 1.862.216.46.637 1.017 1.262 1.674.601.63 1.31 1.232 2.126 1.805a20.602 20.602 0 002.635 1.56 20.83 20.83 0 002.905 1.185c.998.322 1.991.561 2.978.716 4.225.654 8.01-.14 11.353-2.383a9.834 9.834 0 001.329-1.053c.375-.358.833-.85 1.375-1.473-.516-.127-.957-.24-1.325-.34l-1.096-.296c-.366-.1-.773-.203-1.222-.311a63.527 63.527 0 01-1.568-.403c-1.137-.312-2.106-.578-2.906-.796a65.495 65.495 0 00-2.199-.56 69.713 69.713 0 00-1.963-.428l-2.15-.431a468.29 468.29 0 00-2.407-.389 20.774 20.774 0 00-1.88-.225zM302.021 18a6.814 6.814 0 001.788-.038c1.057-.16 1.783-.592 2.182-1.291.397-.701.44-1.66.129-2.876a10.32 10.32 0 00-1.017-2.48A13.476 13.476 0 00303.36 8.9a16.264 16.264 0 00-1.133-1.104c-.426-.38-.889-.758-1.388-1.135a32.96 32.96 0 00-1.559-1.109 29.776 29.776 0 00-4.81-2.605 27.596 27.596 0 00-3.217-1.15c-1.009-.3-1.921-.484-2.735-.555a9.874 9.874 0 00-2.358.065c-2.36.36-3.245 1.695-2.653 4.009.107.42.265.841.473 1.262.208.422.496.885.863 1.39.218.28.434.551.647.816.214.263.437.526.669.788.299.313.593.604.881.872.288.269.595.542.923.82.327.278.692.562 1.096.852.403.29.859.607 1.368.95.466.32.878.593 1.238.819a14.876 14.876 0 002.154 1.124c.379.16.824.343 1.333.547a19.21 19.21 0 002.29.799 12.62 12.62 0 002.226.387c.738.06 1.389.046 1.953-.04 1.567-.237 2.174-1.048 1.822-2.43-.119-.466-.356-.96-.709-1.484a11.041 11.041 0 00-1.342-1.599 17.282 17.282 0 00-1.847-1.592 18.37 18.37 0 00-2.247-1.438 19.848 19.848 0 00-2-1.006 17.483 17.483 0 00-1.91-.705 10.95 10.95 0 00-1.687-.376c-.522-.07-.967-.075-1.337-.019-.968.147-1.333.686-1.096 1.618.103.406.38.843.83 1.314.449.47 1.057.95 1.823 1.443.83.53 1.624.916 2.382 1.16.758.243 1.436.32 2.035.229.088-.014.241-.06.458-.14l.078.199a4.042 4.042 0 01-.39.082l-.29.045c-.582.088-1.23.042-1.943-.138a8.682 8.682 0 01-2.197-.919 7.872 7.872 0 01-1.084-.748 8.64 8.64 0 01-.905-.858 6.282 6.282 0 01-.681-.89 3.152 3.152 0 01-.388-.878c-.154-.601-.088-1.095.197-1.482.287-.387.781-.633 1.486-.74.616-.094 1.332-.052 2.146.128.815.18 1.689.486 2.623.92a20.91 20.91 0 012.894 1.66 20.2 20.2 0 012.519 2.02c.749.71 1.386 1.43 1.911 2.159.524.729.869 1.415 1.033 2.059.195.763.058 1.406-.412 1.929-.471.522-1.243.866-2.318 1.029-1.127.171-2.407.066-3.84-.315-1.434-.382-2.972-1.032-4.615-1.95a28.69 28.69 0 01-3.316-2.182 26.08 26.08 0 01-2.848-2.498 17.785 17.785 0 01-2.109-2.564c-.564-.848-.943-1.646-1.134-2.396a6.041 6.041 0 01-.18-1.082 5.45 5.45 0 01.013-.97c.069-.806.448-1.501 1.14-2.09.692-.587 1.583-.964 2.676-1.13.845-.128 1.814-.097 2.906.096s2.236.518 3.433.975a26.962 26.962 0 013.607 1.708 25.748 25.748 0 013.433 2.32c.85.681 1.632 1.376 2.344 2.087a16.69 16.69 0 011.793 2.078c.483.675.907 1.401 1.271 2.18.363.779.638 1.528.821 2.249.338 1.32.293 2.38-.134 3.177-.429.798-1.197 1.28-2.307 1.45-1.285.195-2.537-.013-3.754-.623l.112-.205c.495.22 1.04.365 1.634.43z" fill="#F6D4BA" fill-opacity=".9"/><path d="M313.078 17.788l.121.207a5.929 5.929 0 01-3.729.503c-1.118-.205-1.908-.713-2.372-1.525-.465-.813-.557-1.874-.28-3.185a12.09 12.09 0 01.721-2.223c.329-.768.72-1.482 1.173-2.141a15.06 15.06 0 011.701-2.021 25.519 25.519 0 012.253-2.013 23.046 23.046 0 013.33-2.21 24.569 24.569 0 013.532-1.593 17.656 17.656 0 013.392-.864c1.084-.158 2.052-.159 2.904-.003 1.101.202 2.01.608 2.728 1.218.719.61 1.131 1.32 1.235 2.128.047.301.066.625.058.971a5.92 5.92 0 01-.133 1.077c-.157.744-.499 1.53-1.026 2.361-.526.831-1.19 1.663-1.995 2.498a23.069 23.069 0 01-2.737 2.407 25.569 25.569 0 01-3.22 2.076c-1.602.866-3.113 1.467-4.53 1.802-1.416.335-2.693.4-3.829.192-1.082-.198-1.871-.567-2.365-1.104-.495-.54-.661-1.187-.5-1.944.135-.64.449-1.316.941-2.027a13.81 13.81 0 011.814-2.1 18.008 18.008 0 012.43-1.94 18.964 18.964 0 012.821-1.567c.916-.404 1.777-.682 2.584-.836.807-.153 1.521-.173 2.142-.058.71.129 1.216.392 1.52.788.303.397.391.893.264 1.49-.06.283-.177.571-.348.865a5.655 5.655 0 01-.642.87 7.501 7.501 0 01-1.918 1.542 7.996 7.996 0 01-2.157.849c-.705.157-1.352.182-1.938.074l-.293-.053a4.538 4.538 0 01-.394-.095l.069-.197c.221.087.377.14.466.155.603.11 1.278.056 2.026-.164.747-.219 1.524-.58 2.331-1.083.744-.468 1.332-.93 1.759-1.385.429-.456.686-.886.771-1.288.197-.925-.193-1.476-1.17-1.655-.372-.068-.817-.077-1.336-.024a10.48 10.48 0 00-1.672.321 16.46 16.46 0 00-1.879.644 17.92 17.92 0 00-1.955.943 16.25 16.25 0 00-2.185 1.366 15.367 15.367 0 00-1.777 1.533 9.837 9.837 0 00-1.271 1.557c-.329.513-.544 1-.641 1.462-.291 1.372.353 2.203 1.933 2.492.568.103 1.219.137 1.955.102a12.13 12.13 0 002.21-.316c.292-.07.625-.164 1.001-.281.374-.118.793-.266 1.254-.445.501-.186.938-.355 1.31-.503a13.33 13.33 0 002.105-1.056c.35-.214.751-.474 1.203-.778.493-.328.935-.63 1.325-.908.391-.277.744-.549 1.059-.816.315-.268.61-.532.886-.79.277-.26.558-.542.843-.846.22-.254.431-.509.633-.766.203-.257.406-.523.611-.795.345-.495.612-.949.801-1.364a5.97 5.97 0 00.416-1.247c.487-2.297-.458-3.663-2.835-4.098a9.994 9.994 0 00-2.363-.142c-.811.045-1.715.201-2.713.467a25.61 25.61 0 00-3.167 1.048 27.072 27.072 0 00-3.092 1.478c-.544.303-1.078.628-1.604.973-.524.345-1.028.698-1.511 1.06-.481.36-.927.724-1.336 1.09-.411.367-.772.722-1.085 1.068a12.042 12.042 0 00-1.634 2.361 9.492 9.492 0 00-.906 2.448c-.256 1.208-.17 2.168.259 2.882.43.714 1.177 1.169 2.241 1.363.605.11 1.201.142 1.791.096a5.181 5.181 0 001.616-.378z" fill="#F6D4BA" fill-opacity=".9"/><path d="M277.578 16.803c.012.517-.474.928-1.085.918-.611-.01-1.116-.437-1.127-.954-.012-.517.474-.928 1.084-.918.611.01 1.116.437 1.128.954zm20.145-5.057c.008.362-.331.65-.758.643-.429-.007-.781-.306-.789-.668-.008-.362.331-.65.758-.643.428.008.781.306.789.668zm19.372.443c.008.361-.332.65-.759.643-.428-.008-.781-.307-.789-.668-.008-.362.332-.65.759-.643.428.007.78.306.789.668zm20.888 5.897c.012.516-.474.928-1.084.918-.612-.01-1.116-.437-1.128-.954-.012-.517.474-.928 1.085-.919.611.01 1.115.438 1.127.955z" fill="#69DBEF"/><path d="M305.668 562.631c.499.528 1.07 1.263 1.715 2.204l-.401.103a11.598 11.598 0 00-1.374-1.753 11.614 11.614 0 00-1.79-1.472 16.703 16.703 0 00-5.931-2.544c.344 2.073-.259 3.939-1.811 5.595-1.217 1.3-2.759 2.284-4.627 2.953-1.866.669-3.865 1.019-5.993 1.048-2.131.03-4.287-.262-6.472-.876a20.365 20.365 0 01-6.011-2.787c-.804-.549-1.433-1.039-1.888-1.473a12.33 12.33 0 01-1.355-1.555c-.542.093-.968.169-1.28.23a35.49 35.49 0 01-1.443.243c-.733.13-1.387.23-1.961.301a96.17 96.17 0 01-1.622.184c-.509.053-1.01.099-1.505.139-.496.04-1.031.094-1.605.164l-1.109.125-.625.016c.981 1.888 1.491 3.475 1.532 4.764.04 1.288-.383 2.407-1.271 3.355-1.104 1.179-2.608 1.685-4.513 1.519-1.905-.168-3.929-.982-6.071-2.444a13.845 13.845 0 01-2.399-2.045 13.638 13.638 0 01-1.733-2.348 16.7 16.7 0 01-.787-1.482c-.266-.559-.578-1.3-.939-2.218a39.082 39.082 0 01-6.186-1.669c-1.916-.699-3.557-1.515-4.923-2.447-1.77-1.208-2.886-2.409-3.347-3.601-.461-1.192-.238-2.272.669-3.241 1.002-1.071 2.731-1.521 5.186-1.349 2.455.172 5.567.876 9.338 2.112l.876.285c.303-.378.539-.657.706-.835l.537-.574c1.766-1.886 3.856-3.373 6.272-4.462 2.415-1.087 5.419-1.868 9.012-2.341 2.776-.361 5.39-.509 7.843-.443 2.453.066 5.01.359 7.671.88 6.009 1.178 11.043 3.151 15.104 5.922 1.827 1.248 3.305 2.518 4.433 3.809 1.126 1.292 1.837 2.54 2.133 3.743 2.376.663 4.419 1.576 6.127 2.742.714.488 1.32.995 1.818 1.523zm-76.716-7.584c.44.97 1.406 1.963 2.896 2.981a18.108 18.108 0 004.29 2.145c1.556.539 3.577 1.031 6.063 1.474-.354-1.579-.416-3.062-.185-4.451.231-1.387.76-2.741 1.585-4.058a26.726 26.726 0 00-4.411-1.443c-1.485-.345-2.876-.543-4.176-.595-1.301-.052-2.454.039-3.46.27-1.007.233-1.748.605-2.225 1.115-.693.739-.819 1.594-.377 2.562zm55.388-7.1c-2.647-1.033-5.457-1.834-8.436-2.405-2.602-.48-5.093-.729-7.471-.743-2.379-.015-4.898.176-7.56.574-3.449.529-6.355 1.324-8.721 2.383-2.366 1.059-4.372 2.469-6.019 4.228a3.954 3.954 0 00-.454.567c-.113.174-.285.412-.516.714 1.309.559 2.406 1.099 3.292 1.62a54.569 54.569 0 013.052 1.958c.714.488 1.338.923 1.869 1.306a17.568 17.568 0 012.624 2.294c.381.407.75.856 1.104 1.348.219-.017.39-.037.512-.057a3.57 3.57 0 01.347-.046c.353-.051.803-.11 1.349-.176.545-.067 1.199-.153 1.96-.26a77.687 77.687 0 001.833-.285c.513-.088.932-.168 1.255-.24l3.183-.71.731-.128c-1.221-2.338-1.056-4.334.495-5.992.908-.969 2.069-1.638 3.485-2.009s2.951-.408 4.609-.113l-.075.325c-1.486-.262-2.871-.194-4.158.201-1.287.397-2.36 1.054-3.219 1.971-1.457 1.555-1.608 3.374-.453 5.457l.931-.179 3.302-.755a62.66 62.66 0 014.043-.812c2.144-.333 4.018-.569 5.624-.706a41.574 41.574 0 015.131-.101c.783.033 1.541.08 2.274.141.731.061 1.476.121 2.236.18a28.02 28.02 0 012.059.246c.528.089 1.237.228 2.129.418-.649-2.406-2.448-4.617-5.397-6.63-1.988-1.356-4.304-2.55-6.95-3.584zm-36.051 7.482a35.572 35.572 0 00-3.509-1.674c-.545.798-.97 1.553-1.278 2.261a9.051 9.051 0 00-.644 2.319c-.126.625-.175 1.166-.146 1.624.029.458.108 1.108.237 1.948 1.22.165 2.16.274 2.823.328.661.055 1.422.084 2.285.087a69.686 69.686 0 003.245-.041c1.106-.039 2.489-.16 4.154-.361l.942-.109a21.505 21.505 0 00-2.049-2.214c-.682-.632-1.565-1.319-2.652-2.06a41.5 41.5 0 00-3.408-2.108zm3.552 8.191a71.942 71.942 0 01-2.519-.121 45.571 45.571 0 01-5.269-.65l-.728-.121c.509 1.685 1.198 3.137 2.067 4.356.868 1.22 2.001 2.306 3.398 3.26 1.77 1.208 3.44 1.816 5.012 1.822 1.57.007 2.893-.562 3.967-1.71.812-.866 1.22-1.914 1.226-3.143.006-1.229-.379-2.463-1.153-3.701-.746.034-1.32.049-1.722.046l-1.441-.012c-1.027.01-1.973.001-2.838-.026zm35.331-5.122c-.724.092-1.52.196-2.391.311l-2.133.362c-.636.109-1.285.231-1.944.365-.661.135-1.386.298-2.176.489-.79.193-1.748.427-2.873.704-.589.141-1.106.257-1.55.352-.444.093-.847.184-1.209.271l-1.084.262c-.363.088-.799.187-1.309.297.57.64 1.051 1.148 1.442 1.518.389.37.849.736 1.377 1.097 3.446 2.352 7.269 3.269 11.47 2.752.98-.124 1.962-.331 2.947-.62.983-.29 1.935-.655 2.854-1.092a18.745 18.745 0 002.566-1.477 12.6 12.6 0 002.045-1.737c.598-.637.993-1.182 1.188-1.634.194-.453.3-1.069.32-1.85-1.064-.225-2.298-.388-3.702-.49a30.131 30.131 0 00-3.967-.044 20.65 20.65 0 00-1.871.164z" fill="#F6D4BA" fill-opacity=".9"/><path d="M310.206 561.207c1.656-1.111 3.659-1.959 6.009-2.544.24-1.196.897-2.421 1.965-3.678 1.07-1.256 2.491-2.48 4.264-3.669 3.938-2.642 8.887-4.454 14.847-5.438 2.64-.435 5.185-.646 7.637-.632 2.452.013 5.075.246 7.869.697 3.618.59 6.659 1.468 9.125 2.634a21.681 21.681 0 016.478 4.669l.563.591c.176.184.423.47.743.858l.864-.256c3.719-1.115 6.801-1.72 9.25-1.812 2.448-.093 4.199.414 5.251 1.518.951.999 1.223 2.087.815 3.265-.407 1.179-1.47 2.344-3.186 3.495-1.325.889-2.931 1.652-4.817 2.29-1.885.636-3.923 1.127-6.114 1.47-.32.908-.599 1.637-.84 2.189-.24.551-.48 1.037-.721 1.458-.45.822-.993 1.585-1.628 2.293a12.276 12.276 0 01-2.309 1.968c-2.078 1.395-4.066 2.144-5.964 2.25-1.899.106-3.427-.45-4.586-1.665-.931-.978-1.405-2.111-1.423-3.399-.017-1.288.422-2.861 1.318-4.718l-.626-.036-1.116-.161a41.524 41.524 0 00-1.613-.216 68.418 68.418 0 01-1.511-.188 89.162 89.162 0 01-1.633-.237 38.767 38.767 0 01-1.976-.364 38.792 38.792 0 01-1.456-.29 53.35 53.35 0 00-1.291-.271c-.421.587-.85 1.092-1.284 1.512-.436.419-1.044.889-1.824 1.413-1.767 1.185-3.731 2.051-5.89 2.595a22.063 22.063 0 01-6.436.667c-2.132-.098-4.148-.512-6.046-1.243-1.898-.729-3.486-1.764-4.762-3.105-1.629-1.708-2.317-3.594-2.066-5.658-2.134.398-4.074 1.183-5.821 2.355-.692.464-1.266.936-1.725 1.415a10.396 10.396 0 00-1.295 1.709l-.406-.115c.603-.921 1.142-1.638 1.616-2.15a9.891 9.891 0 011.751-1.466zm74.186-6.22c-.5-.525-1.258-.921-2.277-1.186-1.017-.264-2.174-.392-3.474-.383-1.298.01-2.683.163-4.152.46-1.47.296-2.92.731-4.35 1.303.886 1.344 1.476 2.715 1.769 4.111.295 1.397.3 2.88.016 4.448 2.469-.363 4.469-.789 6.001-1.279a16.473 16.473 0 004.196-2.008c1.446-.969 2.368-1.932 2.765-2.888.397-.956.233-1.815-.494-2.578zm-62.049-2.957c-2.861 1.919-4.561 4.073-5.1 6.46a51.33 51.33 0 012.109-.35 27.521 27.521 0 012.05-.18c.758-.034 1.502-.07 2.231-.107a52.76 52.76 0 012.267-.067c1.817-.012 3.53.077 5.142.266 1.611.189 3.498.486 5.658.889a65.36 65.36 0 014.084.944l3.337.861.941.21c1.06-2.047.828-3.872-.699-5.476-.902-.946-2.005-1.638-3.312-2.076-1.305-.438-2.695-.55-4.169-.336l-.09-.328c1.645-.242 3.185-.154 4.617.262 1.434.417 2.626 1.125 3.577 2.124 1.629 1.709 1.883 3.712.767 6.012l.737.152 3.218.813c.327.084.749.177 1.267.281.519.104 1.135.22 1.847.345.766.131 1.425.239 1.973.323.55.084 1.001.158 1.358.22.111.013.227.031.349.056.123.025.295.051.515.075.332-.481.68-.919 1.043-1.314.365-.395.747-.77 1.149-1.126.402-.356.861-.717 1.375-1.084a79.013 79.013 0 011.81-1.247 49.219 49.219 0 012.966-1.861c.864-.492 1.937-.998 3.221-1.514-.244-.31-.427-.554-.547-.732a4.585 4.585 0 00-.481-.582c-1.727-1.813-3.799-3.288-6.214-4.425-2.415-1.136-5.36-2.026-8.835-2.668-2.681-.483-5.212-.757-7.591-.818-2.379-.063-4.861.105-7.444.502-2.954.475-5.73 1.186-8.333 2.134-2.6.948-4.865 2.069-6.793 3.362zm39.892 7.29c-1.053.707-1.907 1.366-2.559 1.977a19.02 19.02 0 00-1.952 2.148l.948.14c1.676.256 3.066.421 4.173.495 1.108.075 2.193.125 3.251.147.863.024 1.623.02 2.282-.013.66-.033 1.596-.112 2.81-.238.091-.836.14-1.483.149-1.941.008-.458-.065-1.001-.22-1.63a9.594 9.594 0 00-.749-2.34c-.34-.72-.799-1.489-1.38-2.305-1.224.476-2.37.997-3.436 1.561a37.548 37.548 0 00-3.317 1.999zm-2.708 6.018c-.557-.015-1.036-.026-1.441-.036a32.761 32.761 0 01-1.725-.101c-.719 1.214-1.047 2.437-.987 3.666a4.823 4.823 0 001.369 3.186c1.126 1.182 2.476 1.795 4.047 1.839 1.573.045 3.217-.509 4.933-1.661 1.354-.909 2.439-1.96 3.254-3.152.814-1.193 1.438-2.624 1.872-4.293l-.723.097c-.993.149-1.912.259-2.758.331-.844.072-1.673.121-2.486.15-.812.028-1.651.041-2.516.04a72.218 72.218 0 01-2.839-.066zm-34.628-6.428a30.289 30.289 0 00-3.967-.084c-1.401.057-2.63.18-3.683.37.055.782.189 1.403.403 1.862.216.459.636 1.017 1.262 1.674.6.63 1.31 1.232 2.126 1.805a20.978 20.978 0 005.54 2.745c.998.322 1.99.561 2.977.716 4.226.654 8.011-.14 11.354-2.383a9.758 9.758 0 001.328-1.053c.376-.358.833-.849 1.375-1.473a54.37 54.37 0 01-1.324-.34l-1.097-.296c-.365-.1-.772-.203-1.222-.311-.447-.109-.97-.242-1.567-.403-1.138-.312-2.106-.578-2.906-.796a63.964 63.964 0 00-4.162-.988l-2.151-.431c-.877-.144-1.678-.274-2.406-.389a21.001 21.001 0 00-1.88-.225zm-22.878-5.909a6.87 6.87 0 001.788-.038c1.057-.161 1.783-.592 2.182-1.291.397-.701.44-1.659.129-2.876-.207-.812-.547-1.637-1.017-2.48a13.544 13.544 0 00-1.743-2.415 16.273 16.273 0 00-1.133-1.104c-.426-.38-.889-.758-1.388-1.135a33.584 33.584 0 00-1.559-1.109 29.684 29.684 0 00-4.81-2.605 27.553 27.553 0 00-3.217-1.15c-1.009-.299-1.921-.484-2.735-.555a9.872 9.872 0 00-2.358.065c-2.36.359-3.245 1.695-2.653 4.009.107.42.265.841.473 1.262.208.421.496.885.863 1.391.217.279.433.55.647.815.214.263.437.526.668.787a20 20 0 00.882.873c.288.269.595.542.922.82.328.278.693.562 1.097.851.403.291.858.608 1.368.951.466.319.878.593 1.238.819.36.226.714.43 1.062.611.348.181.712.352 1.092.513.379.161.824.343 1.333.547a19.21 19.21 0 002.29.799c.746.198 1.488.327 2.226.387.738.059 1.389.046 1.953-.039 1.567-.238 2.174-1.049 1.822-2.431-.12-.466-.356-.961-.71-1.484-.353-.524-.8-1.057-1.341-1.599a17.187 17.187 0 00-1.847-1.592 18.357 18.357 0 00-2.247-1.438 19.801 19.801 0 00-2-1.006 17.524 17.524 0 00-1.91-.705 10.84 10.84 0 00-1.687-.376c-.522-.069-.967-.075-1.337-.019-.969.147-1.333.686-1.096 1.617.103.406.38.844.83 1.315.449.469 1.057.951 1.823 1.443.83.53 1.624.916 2.382 1.159.758.244 1.436.321 2.035.23.088-.014.241-.06.458-.14l.078.199a3.913 3.913 0 01-.39.082l-.291.045c-.581.088-1.229.042-1.942-.138a8.68 8.68 0 01-2.198-.919 7.913 7.913 0 01-1.083-.748 8.669 8.669 0 01-.905-.858 6.284 6.284 0 01-.681-.891 3.121 3.121 0 01-.388-.877c-.154-.601-.088-1.095.197-1.482.286-.387.781-.633 1.486-.741.616-.093 1.332-.051 2.146.129.814.179 1.688.486 2.623.92.998.47 1.963 1.023 2.894 1.66.93.636 1.77 1.309 2.519 2.019a15.508 15.508 0 011.911 2.16c.524.729.869 1.415 1.033 2.059.195.763.058 1.406-.412 1.929-.471.522-1.243.866-2.318 1.029-1.127.171-2.407.066-3.841-.315-1.433-.382-2.972-1.032-4.614-1.95a28.595 28.595 0 01-3.316-2.182 26.035 26.035 0 01-2.848-2.498c-.842-.861-1.545-1.715-2.109-2.564-.564-.848-.943-1.646-1.134-2.396a6.03 6.03 0 01-.18-1.082 5.46 5.46 0 01.013-.971c.068-.805.448-1.501 1.14-2.089.692-.587 1.583-.964 2.676-1.13.845-.128 1.814-.097 2.906.096s2.236.518 3.433.975a26.923 26.923 0 017.04 4.028c.85.681 1.632 1.376 2.344 2.087.712.711 1.31 1.402 1.793 2.078.483.675.907 1.401 1.271 2.18.363.779.638 1.528.821 2.249.338 1.32.293 2.379-.134 3.177-.429.798-1.198 1.281-2.307 1.45-1.285.195-2.537-.013-3.754-.623l.112-.205c.495.221 1.04.365 1.634.431z" fill="#F6D4BA" fill-opacity=".9"/><path d="M313.078 552.789l.121.207a5.933 5.933 0 01-3.73.503c-1.117-.205-1.908-.713-2.372-1.525-.464-.813-.557-1.874-.279-3.185.152-.714.392-1.455.721-2.223.328-.768.72-1.482 1.173-2.141a14.94 14.94 0 011.701-2.021 25.517 25.517 0 012.253-2.013 22.954 22.954 0 013.33-2.21 24.478 24.478 0 013.532-1.593 17.617 17.617 0 013.392-.864c1.084-.158 2.052-.159 2.904-.003 1.1.202 2.01.608 2.728 1.218.719.61 1.131 1.319 1.235 2.128.047.301.066.625.058.971a5.92 5.92 0 01-.133 1.077c-.157.744-.5 1.531-1.026 2.361-.526.831-1.191 1.663-1.995 2.498a23.083 23.083 0 01-2.737 2.407 25.603 25.603 0 01-3.22 2.076c-1.602.866-3.113 1.467-4.53 1.802-1.417.335-2.693.4-3.829.192-1.082-.199-1.871-.567-2.366-1.104-.494-.539-.66-1.187-.499-1.944.135-.64.448-1.316.941-2.027a13.782 13.782 0 011.814-2.1 17.994 17.994 0 012.43-1.94 18.973 18.973 0 012.821-1.567c.916-.404 1.777-.682 2.584-.836.806-.153 1.521-.173 2.142-.058.71.129 1.216.392 1.52.788.303.397.391.893.264 1.489a2.953 2.953 0 01-.349.866 5.603 5.603 0 01-.641.87 7.632 7.632 0 01-.867.828 6.935 6.935 0 01-1.051.714 8.026 8.026 0 01-2.158.849c-.705.157-1.352.182-1.937.074l-.293-.053a4.774 4.774 0 01-.395-.095l.069-.197c.222.087.377.139.466.155.603.11 1.279.056 2.026-.164.748-.219 1.524-.58 2.332-1.083.744-.468 1.331-.93 1.759-1.385.429-.456.686-.886.77-1.288.197-.925-.193-1.476-1.169-1.655-.373-.068-.817-.077-1.337-.024-.517.052-1.074.16-1.672.321-.596.162-1.222.377-1.878.644-.655.267-1.308.582-1.956.943a16.258 16.258 0 00-3.962 2.899 9.859 9.859 0 00-1.27 1.557c-.329.513-.544 1-.642 1.462-.291 1.372.353 2.202 1.934 2.492.567.103 1.219.137 1.955.102a12.136 12.136 0 002.21-.316c.292-.071.625-.164 1-.281.375-.118.794-.266 1.255-.445.501-.186.938-.355 1.31-.503a13.593 13.593 0 002.105-1.055c.349-.215.75-.475 1.202-.779.494-.328.936-.63 1.326-.908.391-.277.744-.549 1.059-.816.315-.268.61-.532.886-.791.276-.26.557-.541.842-.845.221-.254.432-.509.634-.766s.406-.523.611-.795c.344-.495.612-.949.8-1.364.19-.414.329-.83.417-1.247.487-2.297-.458-3.663-2.836-4.098a10.047 10.047 0 00-2.363-.142c-.811.045-1.714.201-2.712.467a25.726 25.726 0 00-3.167 1.048 27.024 27.024 0 00-3.093 1.478c-.543.303-1.077.628-1.603.973-.524.345-1.028.698-1.511 1.059-.481.361-.928.725-1.336 1.092-.411.366-.772.721-1.085 1.067a12.046 12.046 0 00-1.634 2.361 9.541 9.541 0 00-.907 2.448c-.256 1.208-.169 2.168.26 2.882.429.714 1.176 1.169 2.241 1.363.604.11 1.201.142 1.791.096a5.187 5.187 0 001.616-.378z" fill="#F6D4BA" fill-opacity=".9"/><path d="M277.578 551.804c.012.517-.474.929-1.086.919-.611-.009-1.116-.437-1.127-.955-.012-.517.475-.928 1.085-.918.611.01 1.116.437 1.128.954zm20.145-5.056c.009.361-.331.65-.759.643-.428-.007-.781-.306-.789-.669-.008-.362.332-.649.759-.642.428.007.781.305.789.668zm19.372.442c.008.362-.332.65-.759.643-.428-.007-.781-.306-.79-.668-.008-.362.332-.65.76-.643.428.007.781.306.789.668zm20.889 5.897c.011.517-.475.929-1.085.919-.612-.01-1.117-.437-1.129-.955-.012-.517.475-.928 1.086-.918.611.01 1.116.437 1.128.954zM17.073 219.762l-8.7 7.412L0 220.04l.128-.109 8.571-7.303 8.374 7.134zm-.504.008l-7.88-6.713-8.185 6.975 7.879 6.713 8.186-6.975z" fill="#69DBEF"/><path d="M15.394 219.789l-6.99 5.954-6.727-5.731 6.99-5.955 6.727 5.732zm-.503.008l-6.234-5.311-6.477 5.518 6.234 5.311 6.477-5.518z" fill="#69DBEF"/><path d="M13.718 219.816l-5.281 4.498-5.082-4.329 5.28-4.498 5.083 4.329zm-.504.009l-4.589-3.909-4.766 4.061 4.588 3.908 4.767-4.06zm3.859 22.483l-8.7 7.411L0 242.585l.128-.108 8.571-7.303 8.374 7.134zm-.504.008l-7.88-6.713-8.185 6.974 7.879 6.713 8.186-6.974z" fill="#69DBEF"/><path d="M15.394 242.334l-6.99 5.955-6.727-5.731 6.99-5.955 6.727 5.731zm-.503.009l-6.234-5.311-6.477 5.518 6.234 5.31 6.477-5.517z" fill="#69DBEF"/><path d="M13.718 242.362l-5.281 4.498-5.082-4.329 5.28-4.498 5.083 4.329zm-.504.009l-4.589-3.909-4.766 4.061 4.588 3.908 4.767-4.06zm3.859 22.482l-8.7 7.412L0 265.131l.128-.109 8.571-7.303 8.374 7.134zm-.504.009l-7.88-6.714-8.185 6.975 7.879 6.713 8.186-6.974z" fill="#69DBEF"/><path d="M15.394 264.88l-6.99 5.955-6.727-5.732 6.99-5.955 6.727 5.732zm-.503.008l-6.234-5.311-6.477 5.518 6.234 5.311 6.477-5.518z" fill="#69DBEF"/><path d="M13.718 264.908l-5.281 4.497-5.082-4.328 5.28-4.498 5.083 4.329zm-.504.008l-4.589-3.909-4.766 4.061 4.588 3.908 4.767-4.06zm3.859 22.483l-8.7 7.412L0 287.677l.128-.109 8.571-7.303 8.374 7.134zm-.504.008l-7.88-6.713-8.185 6.975 7.879 6.713 8.186-6.975z" fill="#69DBEF"/><path d="M15.394 287.426l-6.99 5.954-6.727-5.731 6.99-5.955 6.727 5.732zm-.503.008l-6.234-5.311-6.477 5.518 6.234 5.31 6.477-5.517z" fill="#69DBEF"/><path d="M13.718 287.453l-5.281 4.498-5.082-4.329 5.28-4.498 5.083 4.329zm-.504.009l-4.589-3.909-4.766 4.061 4.588 3.908 4.767-4.06zm3.859 22.482l-8.7 7.412L0 310.222l.128-.109 8.571-7.302 8.374 7.133zm-.504.009l-7.88-6.713-8.185 6.974 7.879 6.713 8.186-6.974z" fill="#69DBEF"/><path d="M15.394 309.971l-6.99 5.955-6.727-5.732 6.99-5.954 6.727 5.731zm-.503.008l-6.234-5.31-6.477 5.517 6.234 5.311 6.477-5.518z" fill="#69DBEF"/><path d="M13.718 309.999l-5.281 4.498-5.082-4.329 5.28-4.498 5.083 4.329zm-.504.008l-4.589-3.908-4.766 4.06 4.588 3.909 4.767-4.061zm3.859 22.483l-8.7 7.412L0 332.768l.128-.109 8.571-7.303 8.374 7.134zm-.504.008l-7.88-6.713-8.185 6.975 7.879 6.713 8.186-6.975z" fill="#69DBEF"/><path d="M15.394 332.517l-6.99 5.954-6.727-5.731 6.99-5.955 6.727 5.732zm-.503.008l-6.234-5.311-6.477 5.518 6.234 5.311 6.477-5.518z" fill="#69DBEF"/><path d="M13.718 332.544l-5.281 4.498-5.082-4.329 5.28-4.498 5.083 4.329zm-.504.009l-4.589-3.909-4.766 4.061 4.588 3.908 4.767-4.06zm3.859 22.483l-8.7 7.411L0 355.314l.128-.109 8.571-7.303 8.374 7.134zm-.504.008l-7.88-6.713-8.185 6.974 7.879 6.713 8.186-6.974z" fill="#69DBEF"/><path d="M15.394 355.062l-6.99 5.955-6.727-5.731 6.99-5.955 6.727 5.731zm-.503.009l-6.234-5.311-6.477 5.518 6.234 5.31 6.477-5.517z" fill="#69DBEF"/><path d="M13.718 355.09l-5.281 4.498-5.082-4.329 5.28-4.498 5.083 4.329zm-.504.009l-4.589-3.909-4.766 4.061 4.588 3.908 4.767-4.06zm600.393-135.337l-8.699 7.412-8.374-7.134.129-.109 8.571-7.303 8.373 7.134zm-.503.008l-7.88-6.713-8.186 6.975 7.879 6.713 8.187-6.975z" fill="#69DBEF"/><path d="M611.929 219.789l-6.99 5.954-6.727-5.731 6.989-5.955 6.728 5.732zm-.504.008l-6.234-5.311-6.476 5.518 6.233 5.311 6.477-5.518z" fill="#69DBEF"/><path d="M610.252 219.816l-5.281 4.498-5.082-4.329 5.28-4.498 5.083 4.329zm-.504.009l-4.588-3.909-4.766 4.061 4.587 3.908 4.767-4.06zm3.859 22.483l-8.699 7.411-8.374-7.134.129-.108 8.571-7.303 8.373 7.134zm-.503.008l-7.88-6.713-8.186 6.974 7.879 6.713 8.187-6.974z" fill="#69DBEF"/><path d="M611.929 242.334l-6.99 5.955-6.727-5.731 6.989-5.955 6.728 5.731zm-.504.009l-6.234-5.311-6.476 5.518 6.233 5.31 6.477-5.517z" fill="#69DBEF"/><path d="M610.252 242.362l-5.281 4.498-5.082-4.329 5.28-4.498 5.083 4.329zm-.504.009l-4.588-3.909-4.766 4.061 4.587 3.908 4.767-4.06zm3.859 22.482l-8.699 7.412-8.374-7.134.129-.109 8.571-7.303 8.373 7.134zm-.503.009l-7.88-6.714-8.186 6.975 7.879 6.713 8.187-6.974z" fill="#69DBEF"/><path d="M611.929 264.88l-6.99 5.955-6.727-5.732 6.989-5.955 6.728 5.732zm-.504.008l-6.234-5.311-6.476 5.518 6.233 5.311 6.477-5.518z" fill="#69DBEF"/><path d="M610.252 264.908l-5.281 4.497-5.082-4.328 5.28-4.498 5.083 4.329zm-.504.008l-4.588-3.909-4.766 4.061 4.587 3.908 4.767-4.06zm3.859 22.483l-8.699 7.412-8.374-7.134.129-.109 8.571-7.303 8.373 7.134zm-.503.008l-7.88-6.713-8.186 6.975 7.879 6.713 8.187-6.975z" fill="#69DBEF"/><path d="M611.929 287.426l-6.99 5.954-6.727-5.731 6.989-5.955 6.728 5.732zm-.504.008l-6.234-5.311-6.476 5.518 6.233 5.31 6.477-5.517z" fill="#69DBEF"/><path d="M610.252 287.453l-5.281 4.498-5.082-4.329 5.28-4.498 5.083 4.329zm-.504.009l-4.588-3.909-4.766 4.061 4.587 3.908 4.767-4.06zm3.859 22.482l-8.699 7.412-8.374-7.134.129-.109 8.571-7.302 8.373 7.133zm-.503.009l-7.88-6.713-8.186 6.974 7.879 6.713 8.187-6.974z" fill="#69DBEF"/><path d="M611.929 309.971l-6.99 5.955-6.727-5.732 6.989-5.954 6.728 5.731zm-.504.008l-6.234-5.31-6.476 5.517 6.233 5.311 6.477-5.518z" fill="#69DBEF"/><path d="M610.252 309.999l-5.281 4.498-5.082-4.329 5.28-4.498 5.083 4.329zm-.504.008l-4.588-3.908-4.766 4.06 4.587 3.909 4.767-4.061zm3.859 22.483l-8.699 7.412-8.374-7.134.129-.109 8.571-7.303 8.373 7.134zm-.503.008l-7.88-6.713-8.186 6.975 7.879 6.713 8.187-6.975z" fill="#69DBEF"/><path d="M611.929 332.517l-6.99 5.954-6.727-5.731 6.989-5.955 6.728 5.732zm-.504.008l-6.234-5.311-6.476 5.518 6.233 5.311 6.477-5.518z" fill="#69DBEF"/><path d="M610.252 332.544l-5.281 4.498-5.082-4.329 5.28-4.498 5.083 4.329zm-.504.009l-4.588-3.909-4.766 4.061 4.587 3.908 4.767-4.06zm3.859 22.483l-8.699 7.411-8.374-7.133.129-.109 8.571-7.303 8.373 7.134zm-.503.008l-7.88-6.713-8.186 6.974 7.879 6.713 8.187-6.974z" fill="#69DBEF"/><path d="M611.929 355.062l-6.99 5.955-6.727-5.731 6.989-5.955 6.728 5.731zm-.504.009l-6.234-5.311-6.476 5.518 6.233 5.31 6.477-5.517z" fill="#69DBEF"/><path d="M610.252 355.09l-5.281 4.498-5.082-4.329 5.28-4.498 5.083 4.329zm-.504.009l-4.588-3.909-4.766 4.061 4.587 3.908 4.767-4.06z" fill="#69DBEF"/><path fill-rule="evenodd" clip-rule="evenodd" d="M589 19.628H389.696v-1H589c8.837 0 16 7.164 16 16v174h-1v-174c0-8.284-6.716-15-15-15zm15 347v174c0 8.284-6.716 15-15 15H389.696v1H589c8.837 0 16-7.163 16-16v-174h-1zm-380.175 189H24c-8.284 0-15-6.716-15-15v-174H8v174c0 8.837 7.164 16 16 16h199.825v-1zM9 34.628v174H8v-174c0-8.836 7.164-16 16-16h199.825v1H24c-8.284 0-15 6.716-15 15z" fill="url(#paint0_linear_383_4598)"/><defs><linearGradient id="paint0_linear_383_4598" x1="306.804" y1="0" x2="306.804" y2="574.836" gradientUnits="userSpaceOnUse"><stop stop-color="#F6D4BA"/><stop offset="1" stop-color="#F6D4BA" stop-opacity=".45"/></linearGradient></defs></svg>