<svg width="34" height="34" viewBox="0 0 34 34" fill="none" xmlns="http://www.w3.org/2000/svg">
<g clip-path="url(#clip0_293_2845)">
<path d="M13.3004 3.59997C10.5004 6.69997 9.60038 7.19997 7.00038 6.69997C3.60038 5.99997 3.50038 6.19997 5.20038 9.09997C6.20038 10.8 6.30038 11.4 5.30038 11.7C3.70038 12.3 3.60038 15 5.10038 15C5.90038 15 6.10038 17.8 5.80038 24.6L5.30038 34.1L7.90038 33.8C10.9004 33.4 11.8004 29.4 8.80038 29.6C7.20038 29.8 7.00038 28.8 7.00038 22.6V15.5L10.9004 15.2C15.2004 14.9 17.0004 16.3 14.4004 17.8C13.4004 18.3 12.4004 20.7 12.0004 23.4C11.4004 27.3 11.6004 28 13.0004 28C13.9004 28 15.1004 28.5 15.8004 29.2C16.7004 30.1 17.3004 30.1 18.2004 29.2C18.9004 28.5 20.2004 28 21.1004 28C22.2004 28 22.7004 27.4 22.4004 26.2C22.0004 24.8 21.0004 24.6 17.4004 24.9C12.9004 25.2 12.9004 25.2 13.2004 22.4C13.5004 20 14.0004 19.5 16.8004 19.4C18.9004 19.3 20.4004 19.8 21.0004 20.9C21.6004 21.9 22.0004 22 22.0004 21.2C22.0004 20.5 21.1004 19.2 20.1004 18.3C17.7004 16.3 18.3004 15 21.7004 15H24.2004L23.9004 24.2L23.5004 33.5L26.1004 33.8L28.7004 34.1L28.2004 24.6C27.9004 17.8 28.1004 15 28.9004 15C30.4004 15 30.3004 12.3 28.8004 11.7C27.8004 11.4 27.8004 10.8 28.8004 9.09997C30.5004 6.19997 30.4004 5.99997 27.0004 6.69997C24.4004 7.19997 23.5004 6.69997 20.6004 3.59997C18.7004 1.59997 17.0004 -2.67029e-05 16.8004 -2.67029e-05C16.6004 -2.67029e-05 15.0004 1.59997 13.3004 3.59997ZM20.0004 4.49997C22.6004 7.29997 21.7004 7.89997 18.8004 5.29997C17.1004 3.79997 16.9004 3.79997 15.2004 5.29997C12.3004 7.89997 11.4004 7.29997 14.0004 4.49997C15.3004 3.09997 16.6004 1.99997 17.0004 1.99997C17.4004 1.99997 18.7004 3.09997 20.0004 4.49997ZM18.0004 5.99997C18.0004 6.49997 17.6004 6.99997 17.0004 6.99997C16.5004 6.99997 16.0004 6.49997 16.0004 5.99997C16.0004 5.39997 16.5004 4.99997 17.0004 4.99997C17.6004 4.99997 18.0004 5.39997 18.0004 5.99997ZM25.5004 8.99997C24.4004 9.49997 20.6004 9.89997 17.0004 9.89997C13.4004 9.89997 9.60038 9.49997 8.50038 8.99997C7.20038 8.39997 10.3004 8.09997 17.0004 8.09997C23.7004 8.09997 26.8004 8.39997 25.5004 8.99997ZM17.3004 11.2L24.5004 11.4L19.0004 11.9L13.5004 12.4L21.5004 13C28.7004 13.6 28.2004 13.6 17.0004 13.7C9.00038 13.7 6.00038 13.5 8.50038 13C11.6004 12.4 11.9004 12.3 9.80038 12.1C8.20038 12.1 7.00038 11.5 7.00038 10.9C7.00038 10.3 7.70038 10.1 8.60038 10.4C9.50038 10.7 13.4004 11.1 17.3004 11.2ZM27.0004 11C27.0004 11.5 26.6004 12 26.0004 12C25.5004 12 25.0004 11.5 25.0004 11C25.0004 10.4 25.5004 9.99997 26.0004 9.99997C26.6004 9.99997 27.0004 10.4 27.0004 11ZM27.0004 22.6C27.0004 27.3 26.6004 29.9 26.0004 29.5C24.2004 28.4 24.8004 15 26.7004 15C26.9004 15 27.0004 18.4 27.0004 22.6ZM19.3004 26.7C18.0004 26.9 16.0004 26.9 14.8004 26.7C13.5004 26.5 14.5004 26.3 17.0004 26.3C19.5004 26.3 20.5004 26.5 19.3004 26.7ZM10.0004 32C10.0004 32.5 9.10038 33 8.00038 33C6.90038 33 6.00038 32.5 6.00038 32C6.00038 31.4 6.90038 31 8.00038 31C9.10038 31 10.0004 31.4 10.0004 32ZM28.0004 32C28.0004 32.5 27.1004 33 26.0004 33C24.9004 33 24.0004 32.5 24.0004 32C24.0004 31.4 24.9004 31 26.0004 31C27.1004 31 28.0004 31.4 28.0004 32Z" fill="url(#paint0_linear_293_2845)"/>
</g>
<defs>
<linearGradient id="paint0_linear_293_2845" x1="5.5" y1="-6" x2="24" y2="25" gradientUnits="userSpaceOnUse">
<stop stop-color="#F6D4BA"/>
<stop offset="1" stop-color="#F6D4BA" stop-opacity="0.45"/>
</linearGradient>
<clipPath id="clip0_293_2845">
<rect width="34" height="34" fill="white"/>
</clipPath>
</defs>
</svg>
