<svg width="278" height="280" fill="none" xmlns="http://www.w3.org/2000/svg"><path d="M32.703 31.611c.121-1.127.474-2.268 1.056-3.423-.411-.628-.69-1.427-.836-2.396-.145-.97-.154-2.059-.025-3.266.288-2.68 1.276-5.372 2.964-8.077a20.503 20.503 0 012.424-3.184 22.189 22.189 0 013.058-2.676c1.518-1.108 2.953-1.87 4.305-2.283a10.258 10.258 0 014.22-.365l.443.05c.139.017.345.05.619.103l.197-.442c.845-1.913 1.678-3.355 2.501-4.326.823-.971 1.65-1.409 2.478-1.313.75.087 1.298.472 1.644 1.155.347.683.457 1.61.332 2.778-.097.902-.345 1.854-.743 2.856a17.804 17.804 0 01-1.54 2.982c.264.528.47.962.614 1.3.144.339.262.648.352.928.184.54.31 1.09.38 1.648.07.557.072 1.144.006 1.76-.151 1.414-.54 2.505-1.163 3.273-.625.769-1.393 1.1-2.305.994-.734-.084-1.372-.413-1.914-.984-.541-.571-1.04-1.443-1.497-2.616l-.235.221-.46.352c-.24.18-.459.351-.657.515a27.36 27.36 0 01-.61.49 40.39 40.39 0 01-.673.514c-.24.18-.522.375-.846.587-.282.195-.493.336-.633.423a22.3 22.3 0 00-.567.368c.096.424.155.813.176 1.166.021.354.003.796-.053 1.326a9.878 9.878 0 01-.995 3.401 10.024 10.024 0 01-1.987 2.743 8.216 8.216 0 01-2.643 1.74 5.96 5.96 0 01-2.966.415c-1.282-.148-2.309-.733-3.078-1.754a8.016 8.016 0 00-1.07 3.266c-.05.472-.056.902-.018 1.29.039.389.123.809.255 1.26l-.191.102c-.17-.642-.28-1.168-.325-1.579-.046-.41-.044-.85.006-1.322zM56.22.65c-.395-.046-.826.064-1.294.332-.468.268-.929.65-1.382 1.148a9.947 9.947 0 00-1.27 1.783 12.39 12.39 0 00-.988 2.236c.87.267 1.647.658 2.33 1.172.685.516 1.303 1.18 1.855 1.99.717-1.1 1.244-2.052 1.58-2.853a8.914 8.914 0 00.642-2.494c.105-.984.03-1.766-.229-2.345-.257-.58-.671-.903-1.244-.97zM33.16 22.886c-.208 1.947.089 3.56.89 4.835.244-.408.443-.727.598-.959.155-.23.37-.517.646-.858.253-.303.5-.602.74-.895.242-.295.498-.592.77-.892a18.167 18.167 0 011.92-1.832 37.013 37.013 0 012.36-1.75 28.395 28.395 0 011.828-1.128l1.533-.881.418-.263c-.477-1.321-1.318-2.051-2.522-2.19a3.701 3.701 0 00-2.028.325c-.64.3-1.176.777-1.606 1.433l-.168-.113c.478-.733 1.056-1.279 1.734-1.636a3.606 3.606 0 012.14-.406c1.284.148 2.206.95 2.77 2.406l.321-.212 1.47-.857c.15-.087.337-.205.563-.355a35.61 35.61 0 001.622-1.151c.227-.171.418-.31.569-.417.044-.036.093-.072.146-.107a2.54 2.54 0 00.212-.163 8.142 8.142 0 01-.179-.985 10.02 10.02 0 01-.031-1.95 47.1 47.1 0 01.12-1.247c.08-.758.17-1.412.27-1.961.099-.549.266-1.183.503-1.903a7.436 7.436 0 01-.496-.12 2.41 2.41 0 00-.411-.078 9.727 9.727 0 00-4.026.375c-1.322.407-2.728 1.126-4.217 2.158a21.606 21.606 0 00-3.011 2.515 18.761 18.761 0 00-2.41 3.052 21.925 21.925 0 00-2.045 4.123c-.52 1.412-.852 2.775-.992 4.087zm17.065-11.879a12.5 12.5 0 00-.08 1.86c.025.52.094 1.089.208 1.704l.39-.297a22.474 22.474 0 001.675-1.363c.421-.387.823-.777 1.204-1.168.314-.317.58-.608.798-.873.219-.265.515-.656.89-1.173-.316-.41-.567-.72-.755-.928a4.527 4.527 0 00-.754-.648 6.298 6.298 0 00-1.237-.765 8.89 8.89 0 00-1.443-.51 17.13 17.13 0 00-.56 2.006c-.14.658-.252 1.376-.336 2.155zm1.548 3.728l-.521.532c-.146.148-.362.352-.65.61.252.817.645 1.49 1.177 2.019.533.529 1.135.832 1.806.91.887.102 1.617-.136 2.188-.713.572-.577.92-1.45 1.045-2.618a7.583 7.583 0 00-.166-2.65c-.208-.844-.583-1.723-1.125-2.636l-.214.317a19.89 19.89 0 01-1.645 2.207 31.27 31.27 0 01-1.895 2.022zM36.918 25.001c-.484.421-.961.911-1.43 1.47a12.35 12.35 0 00-1.143 1.563c.345.33.65.558.916.682.267.124.647.215 1.14.272.473.055.973.055 1.498.002a9.4 9.4 0 003.09-.872 8.41 8.41 0 001.345-.81c1.759-1.311 2.76-3.104 3.004-5.38a5.94 5.94 0 00.03-.977c-.017-.303-.06-.697-.128-1.182-.235.139-.437.255-.607.35l-.51.283c-.17.095-.356.203-.559.325-.203.121-.442.26-.719.415-.53.291-.981.54-1.353.746a27.646 27.646 0 00-1.875 1.137l-.936.624c-.368.268-.704.514-1.008.739a8.917 8.917 0 00-.755.613z" fill="#F6D4BA" fill-opacity=".9"/><path d="M31.7 33.97c.394.047.9.16 1.519.337l-.1.198a6.326 6.326 0 00-1.21-.265 5.667 5.667 0 00-1.242.02 7.328 7.328 0 00-3.145 1.11c.983.8 1.546 1.866 1.688 3.199a6.635 6.635 0 01-.4 3.081 8.615 8.615 0 01-1.673 2.747 9.72 9.72 0 01-2.64 2.064 8.987 8.987 0 01-3.274 1.033 7.454 7.454 0 01-1.277.056 6.564 6.564 0 01-1.122-.183c-.153.247-.27.443-.355.589-.083.145-.219.364-.407.657a17 17 0 01-.565.88 30.783 30.783 0 01-.966 1.333c-.157.205-.323.433-.496.682l-.338.477-.213.244c1.129.476 1.969.994 2.519 1.556.55.563.865 1.225.947 1.988.101.948-.217 1.746-.957 2.395-.74.648-1.79 1.051-3.152 1.209a6.798 6.798 0 01-1.693-.006 7.623 7.623 0 01-1.586-.395 9.974 9.974 0 01-.893-.367c-.326-.15-.743-.362-1.252-.638a16.71 16.71 0 01-2.87 1.6c-.964.415-1.88.672-2.749.773-1.124.13-2.016.015-2.674-.345-.657-.36-1.028-.929-1.112-1.708-.092-.86.33-1.72 1.264-2.574.935-.856 2.323-1.721 4.164-2.6l.426-.204a11.43 11.43 0 01-.099-.642l-.049-.462a11.469 11.469 0 01.352-4.383c.397-1.405 1.13-2.896 2.198-4.473.826-1.216 1.685-2.275 2.575-3.177a19.95 19.95 0 013.065-2.519c2.603-1.753 5.194-2.78 7.774-3.079 1.162-.134 2.21-.125 3.143.026.933.152 1.702.442 2.306.87 1.112-.606 2.21-.972 3.295-1.098a5.435 5.435 0 011.273-.007zM1.556 59.7c.558.268 1.31.346 2.258.237a8.056 8.056 0 002.4-.667c.772-.349 1.687-.896 2.746-1.64-.78-.575-1.42-1.217-1.915-1.928a8.015 8.015 0 01-1.128-2.422 11.52 11.52 0 00-2.153 1.028 9.61 9.61 0 00-1.716 1.32c-.48.47-.847.948-1.104 1.434-.258.487-.365.935-.32 1.345.063.595.374 1.026.932 1.293zm16.536-24.22a20.542 20.542 0 00-3.967 2.126 18.312 18.312 0 00-2.938 2.504c-.843.896-1.65 1.94-2.422 3.128-.992 1.547-1.685 3.007-2.077 4.38a10.878 10.878 0 00-.36 4.183c.017.164.042.306.075.427.033.12.072.293.116.516.692-.247 1.303-.42 1.83-.524a25.54 25.54 0 011.889-.28 40.22 40.22 0 011.2-.123c.346-.03.67-.041.97-.035.3.007.603.029.906.066.304.038.62.1.949.187.07-.091.122-.165.156-.221a1.68 1.68 0 01.104-.152c.103-.157.236-.354.4-.591.165-.237.359-.524.582-.861.207-.314.382-.589.527-.824.144-.234.258-.429.342-.584l.824-1.528.204-.335c-1.4-.585-2.173-1.543-2.315-2.876a4 4 0 01.39-2.224c.344-.704.87-1.304 1.575-1.801l.108.174a3.94 3.94 0 00-1.379 1.669 4.117 4.117 0 00-.313 2.107c.134 1.25.837 2.124 2.108 2.62l.254-.434.848-1.592a27.606 27.606 0 011.085-1.9 38.27 38.27 0 011.684-2.452 18.302 18.302 0 011.764-1.995c.29-.282.575-.549.858-.8.283-.25.57-.506.862-.768.328-.288.604-.51.827-.672.222-.16.53-.367.922-.62-1.228-.834-2.78-1.142-4.654-.925-1.263.146-2.574.49-3.934 1.03zM8.519 52.529a15.86 15.86 0 00-1.93.582c.14.565.304 1.064.49 1.5.186.434.432.863.737 1.284.215.328.423.59.623.784.201.195.499.456.893.784.498-.39.874-.698 1.13-.925.255-.227.534-.502.84-.828.377-.397.752-.814 1.124-1.252.373-.437.81-1.016 1.312-1.74l.286-.406a11.2 11.2 0 00-1.641-.214 11.112 11.112 0 00-1.789.082c-.75.087-1.442.203-2.075.349zm4.654 2.326c-.316.316-.628.617-.937.902a19.407 19.407 0 01-2.124 1.709l-.306.222c.879.563 1.725.952 2.537 1.17a6.779 6.779 0 002.55.171c1.125-.13 1.965-.491 2.521-1.085.556-.594.784-1.351.686-2.274-.075-.697-.367-1.322-.876-1.876-.509-.553-1.157-.96-1.944-1.222-.248.299-.443.523-.587.675-.143.151-.313.331-.51.542-.358.394-.695.749-1.01 1.066zM23.474 39.14c-.216.316-.453.665-.712 1.048l-.6.972a28.38 28.38 0 00-1.094 1.947c-.199.387-.438.856-.719 1.407-.149.287-.282.536-.399.747-.117.21-.222.404-.312.58l-.273.53a26.83 26.83 0 01-.337.63c.467.071.846.116 1.138.133a5.3 5.3 0 00.94-.03c2.19-.254 3.917-1.294 5.18-3.121a8.95 8.95 0 00.778-1.398 10.38 10.38 0 00.84-3.21 7.777 7.777 0 00-.002-1.557c-.055-.512-.142-.907-.262-1.184-.12-.276-.339-.593-.657-.95a11.86 11.86 0 00-1.505 1.185 13.16 13.16 0 00-1.414 1.487 9.206 9.206 0 00-.59.784zm6.815-12.487l.13.047c-.182.709-.55 1.256-1.104 1.642-.479.333-.968.405-1.47.217-.5-.188-.973-.63-1.42-1.323a8.779 8.779 0 01-.671-1.27 8.824 8.824 0 01-.477-1.407 9.908 9.908 0 01-.242-1.553 16.054 16.054 0 01-.044-1.758 13.455 13.455 0 01.834-4.312c.24-.635.518-1.193.834-1.676.316-.482.656-.85 1.02-1.103.472-.328.96-.492 1.467-.49a1.96 1.96 0 011.319.485c.141.118.283.256.423.414.141.16.275.336.402.533.254.394.46.877.62 1.45.16.572.272 1.198.336 1.878.064.678.076 1.385.038 2.12a14.862 14.862 0 01-.27 2.153c-.204.997-.486 1.84-.845 2.529-.36.688-.782 1.201-1.268 1.54-.463.322-.894.456-1.291.402-.398-.054-.726-.28-.984-.682-.218-.338-.388-.76-.511-1.267a9.13 9.13 0 01-.234-1.63 11.035 11.035 0 01.39-3.568c.154-.529.34-.98.561-1.356.22-.375.463-.655.729-.84.304-.21.591-.285.863-.222.271.062.509.251.712.566.097.15.175.324.237.522.06.197.106.408.136.633.03.225.042.459.04.701a4.15 4.15 0 01-.074.72c-.087.46-.223.86-.406 1.2-.183.338-.4.595-.65.769l-.126.087a1.918 1.918 0 01-.178.107l-.058-.115c.114-.045.19-.08.228-.107.259-.18.473-.46.645-.842.172-.383.295-.84.37-1.372.067-.493.082-.922.043-1.29-.039-.367-.127-.657-.264-.87-.315-.49-.682-.588-1.1-.298a2.12 2.12 0 00-.48.497c-.16.22-.311.48-.454.78a8.202 8.202 0 00-.394 1.001 9.55 9.55 0 00-.296 1.166 9.474 9.474 0 00-.189 2.805c.037.431.104.825.2 1.18.097.356.225.656.382.9.468.726 1.04.854 1.716.384.243-.17.486-.402.73-.697.244-.295.46-.622.647-.98a8.716 8.716 0 00.492-1.183c.098-.274.182-.515.251-.723a7.33 7.33 0 00.302-1.273 31.25 31.25 0 00.189-1.716c.022-.273.033-.53.033-.769a13.817 13.817 0 00-.072-1.39 14.11 14.11 0 00-.096-.585 34.948 34.948 0 00-.115-.588 6.267 6.267 0 00-.285-.916 4.374 4.374 0 00-.372-.718c-.783-1.215-1.683-1.468-2.7-.76a4.325 4.325 0 00-.89.833 6.22 6.22 0 00-.76 1.24 12.58 12.58 0 00-.68 1.672 14.65 14.65 0 00-.634 2.883c-.04.354-.071.704-.09 1.049-.02.345-.026.677-.018.997.008.32.03.617.063.89.08.585.215 1.145.406 1.68.191.536.424 1.017.699 1.443.412.639.84 1.037 1.288 1.195.448.156.9.076 1.355-.24.26-.18.482-.393.67-.638a2.46 2.46 0 00.412-.783z" fill="#F6D4BA" fill-opacity=".9"/><path d="M26.496 30.963a3.02 3.02 0 00.613-.696c.305-.473.382-.942.231-1.407-.152-.465-.534-.912-1.15-1.34a6.52 6.52 0 00-1.388-.726 7.53 7.53 0 00-1.617-.421 8.008 8.008 0 00-.857-.065 10.609 10.609 0 00-.96.017c-.332.02-.669.053-1.01.095a13.225 13.225 0 00-2.774.658 11.86 11.86 0 00-1.61.706c-.48.249-.878.512-1.193.79a4.393 4.393 0 00-.803.924c-.68 1.057-.437 1.992.733 2.806.212.148.443.277.691.387a5.7 5.7 0 00.881.296c.193.042.382.082.567.12.185.036.372.07.563.099a10.76 10.76 0 001.337.074c.231 0 .478-.011.74-.034.262-.023.554-.054.876-.093.297-.034.556-.068.776-.103a6.434 6.434 0 001.225-.314c.2-.072.433-.159.696-.261.246-.092.463-.181.65-.267a7.63 7.63 0 00.488-.244c.345-.194.66-.418.944-.672.285-.254.508-.506.67-.759.453-.702.33-1.296-.368-1.783a3.004 3.004 0 00-.866-.396c-.342-.1-.722-.17-1.137-.208a8.533 8.533 0 00-2.7.196 8.73 8.73 0 00-1.122.308 7.656 7.656 0 00-.964.409 4.674 4.674 0 00-.75.472 2.12 2.12 0 00-.479.5c-.28.434-.184.814.288 1.141.204.143.484.234.837.275.353.04.767.025 1.242-.045a4.605 4.605 0 001.32-.385c.367-.178.638-.401.81-.67.026-.04.06-.118.104-.237l.11.06a1.976 1.976 0 01-.103.185l-.084.13c-.168.26-.415.486-.74.677a3.84 3.84 0 01-1.155.422 3.682 3.682 0 01-.693.076 4.36 4.36 0 01-.674-.041 3.485 3.485 0 01-.61-.142 1.975 1.975 0 01-.502-.246c-.304-.211-.486-.457-.546-.74-.06-.281.011-.58.215-.895.178-.277.447-.53.808-.758a5.561 5.561 0 011.305-.584 9.475 9.475 0 011.709-.354 9.767 9.767 0 011.725-.05 8.201 8.201 0 011.57.243c.487.127.894.304 1.22.531.385.269.604.609.656 1.022.051.413-.078.86-.388 1.342-.326.504-.82.943-1.482 1.316-.663.374-1.475.666-2.434.878a13.395 13.395 0 01-4.113.241 9.584 9.584 0 01-1.808-.349c-.551-.166-1.016-.38-1.394-.644a4.242 4.242 0 01-.514-.417 3.978 3.978 0 01-.399-.44 2.13 2.13 0 01-.467-1.37c0-.526.156-1.034.472-1.523.244-.379.598-.732 1.062-1.06a8.02 8.02 0 011.613-.867c.611-.25 1.27-.45 1.979-.603a11.941 11.941 0 012.171-.263 14.278 14.278 0 011.693.045 8.952 8.952 0 011.494.251c.45.12.902.285 1.354.496.451.212.86.443 1.223.697.668.464 1.092.956 1.273 1.476.181.52.112 1.03-.209 1.526a2.647 2.647 0 01-1.58 1.146l-.045-.134a2.33 2.33 0 00.754-.427z" fill="#F6D4BA" fill-opacity=".9"/><path d="M38.297 17.987a.546.546 0 00.793 0 .599.599 0 000-.824.546.546 0 00-.793 0 .599.599 0 000 .824zm-9.549 5.181c.153.159.402.16.555 0a.419.419 0 000-.577.382.382 0 00-.555 0 .419.419 0 000 .576zm-6.891 7.27a.383.383 0 00.555 0 .42.42 0 000-.577.382.382 0 00-.555 0 .42.42 0 000 .577zm-5.091 10.186a.546.546 0 00.793 0 .599.599 0 000-.824.546.546 0 00-.793 0 .599.599 0 000 .824zM23.675 14.1v10.482h-10.09l.001-.154V14.1h10.089zm-.298.31h-9.494v9.863h9.494v-9.864z" fill="#69DBEF"/><path d="M22.684 15.13v8.422h-8.106V15.13h8.106zm-.297.31h-7.511v7.803h7.51V15.44z" fill="#69DBEF"/><path d="M21.694 16.16l-.001 6.362H15.57v-6.36l6.124-.002zm-.298.31h-5.528v5.743h5.527l.001-5.743z" fill="#69DBEF"/><path d="M245.303 32.933c-.046.41-.154.937-.325 1.579l-.191-.102c.132-.451.216-.871.255-1.26a6.323 6.323 0 00-.019-1.29 7.994 7.994 0 00-1.069-3.266c-.77 1.021-1.796 1.606-3.078 1.754a5.956 5.956 0 01-2.966-.416 8.203 8.203 0 01-2.643-1.738 10.012 10.012 0 01-1.987-2.744 9.868 9.868 0 01-.995-3.4 8.332 8.332 0 01-.053-1.327c.021-.353.08-.742.176-1.166a23.216 23.216 0 00-.567-.368 16.28 16.28 0 01-.633-.423 16.124 16.124 0 01-.846-.587c-.24-.18-.465-.35-.673-.514a28.052 28.052 0 01-.61-.49 18.15 18.15 0 00-.657-.515l-.46-.352-.235-.221c-.457 1.173-.956 2.045-1.497 2.616-.542.571-1.18.9-1.914.985-.912.106-1.68-.226-2.305-.994-.624-.768-1.011-1.86-1.164-3.274a7.654 7.654 0 01.007-1.76c.07-.558.197-1.108.38-1.648.09-.28.208-.589.352-.927.144-.34.349-.772.614-1.301a17.833 17.833 0 01-1.54-2.981c-.398-1.003-.646-1.955-.743-2.856-.125-1.169-.015-2.095.332-2.779.346-.683.894-1.068 1.643-1.155.829-.096 1.655.342 2.479 1.313.823.972 1.656 2.413 2.501 4.326l.197.443c.274-.053.48-.087.619-.103l.444-.051c1.46-.17 2.866-.047 4.218.366 1.353.413 2.788 1.174 4.306 2.283 1.17.859 2.19 1.75 3.058 2.675a20.527 20.527 0 012.424 3.184c1.688 2.705 2.676 5.397 2.964 8.077.128 1.208.12 2.296-.025 3.266-.146.97-.425 1.768-.837 2.396.583 1.155.936 2.296 1.057 3.423.049.472.052.912.006 1.322zM220.536 1.618c-.257.579-.333 1.361-.228 2.345.093.862.307 1.693.643 2.494.335.802.862 1.753 1.579 2.853.552-.81 1.17-1.474 1.854-1.99a7.492 7.492 0 012.331-1.171 12.33 12.33 0 00-.989-2.237 9.957 9.957 0 00-1.269-1.783c-.453-.498-.914-.88-1.382-1.147-.468-.268-.9-.379-1.294-.333-.573.066-.987.389-1.245.969zm23.312 17.18a22.002 22.002 0 00-2.045-4.123 18.762 18.762 0 00-2.41-3.051 21.636 21.636 0 00-3.011-2.516c-1.489-1.032-2.895-1.75-4.217-2.158a9.728 9.728 0 00-4.026-.375 2.446 2.446 0 00-.411.079 7.34 7.34 0 01-.496.12c.237.72.404 1.354.504 1.902.098.55.188 1.203.27 1.961.05.472.09.888.118 1.247.029.36.04.697.034 1.009a10.36 10.36 0 01-.064.941 8.267 8.267 0 01-.179.986c.087.072.158.126.212.162.053.035.102.07.146.107.151.108.341.246.569.417a36.509 36.509 0 001.622 1.151c.226.15.413.269.563.355l1.469.857.323.212c.563-1.456 1.485-2.258 2.768-2.406a3.603 3.603 0 012.141.406c.678.357 1.256.903 1.734 1.636l-.168.113c-.43-.656-.965-1.133-1.606-1.433a3.704 3.704 0 00-2.028-.326c-1.204.14-2.045.87-2.522 2.191l.418.263 1.533.881a28.495 28.495 0 011.828 1.127c.927.64 1.714 1.223 2.36 1.751a18.025 18.025 0 011.919 1.832c.273.3.529.598.77.892.242.294.488.592.74.895.277.341.492.628.647.859.155.231.353.55.597.958.802-1.275 1.099-2.887.89-4.835-.141-1.312-.472-2.674-.992-4.087zM227.44 8.85a17.33 17.33 0 00-.56-2.006 8.863 8.863 0 00-1.443.51c-.42.193-.832.449-1.237.766a4.547 4.547 0 00-.755.647c-.187.209-.438.518-.754.928.375.517.671.908.89 1.173.218.265.484.556.797.873.382.392.784.781 1.205 1.169.421.387.978.84 1.674 1.362l.391.297c.115-.615.183-1.183.207-1.705a12.53 12.53 0 00-.079-1.858 21.442 21.442 0 00-.336-2.156zm-2.238 4.835a30.736 30.736 0 01-.869-.973 19.667 19.667 0 01-1.645-2.207l-.214-.318c-.542.913-.917 1.792-1.126 2.636a7.578 7.578 0 00-.165 2.65c.125 1.169.474 2.041 1.045 2.619.571.576 1.3.815 2.189.711.67-.077 1.272-.38 1.805-.909.532-.528.925-1.202 1.176-2.02-.287-.257-.503-.46-.649-.609l-.521-.531a30.41 30.41 0 01-1.026-1.05zm15.125 10.702c-.304-.225-.64-.47-1.008-.74l-.936-.623c-.28-.185-.57-.37-.868-.553-.3-.183-.636-.378-1.007-.584-.372-.206-.823-.455-1.354-.746a29.648 29.648 0 01-.718-.415c-.203-.122-.389-.23-.559-.324l-.51-.284a30.41 30.41 0 01-.607-.35c-.068.485-.111.88-.128 1.183a6.06 6.06 0 00.03.976c.244 2.276 1.245 4.07 3.004 5.381.412.305.86.575 1.345.81a9.367 9.367 0 003.09.872 6.962 6.962 0 001.498-.003c.493-.056.873-.148 1.14-.271.266-.125.571-.352.916-.682a12.411 12.411 0 00-1.142-1.565 13.285 13.285 0 00-1.431-1.468 8.92 8.92 0 00-.755-.614z" fill="#F6D4BA" fill-opacity=".9"/><path d="M247.574 33.976c1.085.126 2.183.492 3.295 1.098.603-.428 1.374-.718 2.307-.87.933-.15 1.979-.16 3.142-.025 2.58.298 5.172 1.325 7.774 3.078a19.935 19.935 0 013.064 2.52c.891.901 1.749 1.96 2.577 3.176 1.066 1.577 1.799 3.068 2.197 4.473.398 1.405.515 2.867.353 4.384l-.05.46a9.176 9.176 0 01-.1.643l.427.205c1.842.878 3.228 1.743 4.163 2.599.936.855 1.356 1.714 1.264 2.574-.083.78-.453 1.349-1.111 1.708-.658.36-1.549.475-2.674.344-.869-.1-1.784-.357-2.75-.771a16.843 16.843 0 01-2.87-1.6c-.507.275-.925.488-1.25.638-.326.15-.623.272-.894.366-.52.19-1.048.321-1.586.395a6.793 6.793 0 01-1.694.006c-1.361-.157-2.411-.56-3.152-1.209-.738-.648-1.058-1.446-.956-2.395a3.277 3.277 0 01.949-1.988c.548-.562 1.388-1.08 2.517-1.555l-.213-.244-.338-.478a18.32 18.32 0 00-.498-.683 56.515 56.515 0 01-.47-.633c-.155-.217-.32-.45-.495-.7a15.396 15.396 0 01-.563-.88 15.452 15.452 0 01-.408-.656 32.495 32.495 0 00-.355-.589c-.408.1-.784.16-1.121.183a7.383 7.383 0 01-1.279-.056 8.984 8.984 0 01-3.272-1.033 9.767 9.767 0 01-2.642-2.064 8.622 8.622 0 01-1.672-2.747 6.638 6.638 0 01-.401-3.08c.143-1.334.705-2.4 1.688-3.2a7.326 7.326 0 00-3.144-1.11 5.667 5.667 0 00-1.241-.02c-.374.04-.778.129-1.212.265l-.099-.198c.618-.177 1.125-.29 1.52-.338a5.442 5.442 0 011.273.007zm29.802 24.43c.043-.408-.062-.857-.32-1.343-.258-.487-.625-.965-1.106-1.435a9.529 9.529 0 00-1.716-1.32 11.532 11.532 0 00-2.151-1.027 8.043 8.043 0 01-1.129 2.422c-.495.71-1.133 1.352-1.916 1.927 1.061.745 1.976 1.292 2.747 1.64a8.03 8.03 0 002.399.667c.948.11 1.701.031 2.259-.237.558-.267.868-.698.933-1.293zM255.973 34.45c-1.874-.217-3.427.092-4.653.925.39.253.698.46.92.62.223.162.498.385.829.672.29.262.578.518.86.77.283.25.571.517.858.799a18.129 18.129 0 011.764 1.994 37.44 37.44 0 011.686 2.452 29.253 29.253 0 011.084 1.9l.848 1.592.255.434c1.271-.496 1.974-1.369 2.107-2.62a4.108 4.108 0 00-.313-2.107 3.944 3.944 0 00-1.379-1.669l.108-.174c.705.497 1.231 1.098 1.576 1.8.343.705.473 1.446.39 2.225-.145 1.333-.915 2.291-2.316 2.877l.202.334.826 1.528c.085.156.198.35.343.584a39.59 39.59 0 001.108 1.685c.163.237.298.434.4.591.035.046.07.097.103.152.035.056.087.13.157.221.328-.087.646-.148.949-.187.302-.037.605-.059.905-.066.3-.006.626.006.971.035.345.03.746.07 1.201.123.73.084 1.358.178 1.886.28.531.104 1.139.278 1.832.524a7.05 7.05 0 01.117-.516c.03-.12.058-.263.075-.427.15-1.414.03-2.808-.36-4.182-.393-1.373-1.086-2.834-2.079-4.38a22.109 22.109 0 00-2.422-3.129 18.16 18.16 0 00-2.937-2.504 20.564 20.564 0 00-3.965-2.125c-1.361-.54-2.672-.885-3.936-1.03zm11.434 17.73a11.126 11.126 0 00-1.789-.083c-.503.024-1.051.096-1.641.215l.285.406c.503.723.938 1.303 1.311 1.74.373.437.748.855 1.126 1.251.305.326.585.602.84.828.255.227.631.536 1.129.925.395-.328.693-.59.893-.784.2-.194.407-.456.623-.784.305-.42.55-.85.738-1.284.185-.435.35-.935.49-1.5a15.803 15.803 0 00-1.931-.582 18.99 18.99 0 00-2.074-.349zm-3.588 1.608l-.513-.542a14.408 14.408 0 01-.585-.675c-.788.262-1.436.67-1.944 1.223-.511.553-.801 1.178-.876 1.875-.1.923.13 1.68.686 2.274.555.594 1.393.956 2.519 1.086a6.77 6.77 0 002.549-.172c.813-.218 1.659-.607 2.54-1.17l-.308-.222a18.675 18.675 0 01-1.148-.865c-.341-.277-.666-.56-.976-.844a29.443 29.443 0 01-1.944-1.968zm-9.882-15.433a13.43 13.43 0 00-1.414-1.487 12.244 12.244 0 00-1.506-1.186c-.318.358-.538.675-.658.952-.117.277-.206.671-.261 1.184a7.771 7.771 0 00-.002 1.556c.052.546.148 1.091.288 1.637.143.545.325 1.07.551 1.573.227.504.485.97.78 1.398 1.261 1.827 2.987 2.867 5.179 3.12a5.3 5.3 0 00.941.032c.29-.018.67-.063 1.138-.133a20.097 20.097 0 01-.338-.631l-.273-.53c-.09-.176-.195-.37-.312-.58a34.69 34.69 0 01-.401-.747c-.28-.551-.517-1.02-.718-1.406a30.114 30.114 0 00-.56-1.046c-.178-.31-.355-.611-.533-.902l-.6-.972c-.258-.383-.496-.732-.713-1.047a9.474 9.474 0 00-.588-.785zm-5.818-10.919c.189.246.412.458.67.638.456.317.908.396 1.356.24.447-.158.877-.556 1.287-1.195a7.01 7.01 0 00.701-1.442c.19-.535.325-1.096.405-1.68.033-.274.055-.57.063-.89.007-.32.002-.653-.018-.998a19.29 19.29 0 00-.09-1.049 14.55 14.55 0 00-.633-2.883 13.23 13.23 0 00-.68-1.672 6.25 6.25 0 00-.761-1.24 4.32 4.32 0 00-.889-.833c-1.018-.708-1.918-.455-2.701.76-.142.221-.266.46-.372.719a6.224 6.224 0 00-.285.915c-.041.2-.08.396-.116.588-.035.193-.067.388-.095.585a12.485 12.485 0 00-.072 1.39c0 .24.011.496.034.769.021.272.051.576.089.91.032.309.065.578.099.807a7.197 7.197 0 00.302 1.272c.069.208.153.45.251.724a9.896 9.896 0 00.492 1.181c.187.36.403.686.646.981.245.296.488.528.731.697.676.47 1.248.342 1.716-.383.158-.245.285-.545.383-.9.095-.356.162-.75.197-1.181.038-.431.043-.886.013-1.363a9.418 9.418 0 00-.2-1.442 10.158 10.158 0 00-.295-1.166 8.377 8.377 0 00-.395-1.002c-.143-.3-.294-.56-.454-.779a2.103 2.103 0 00-.481-.497c-.417-.29-.784-.191-1.099.298-.137.213-.225.504-.264.87-.039.368-.024.798.043 1.29.075.532.199.99.37 1.372.172.382.387.663.645.842.038.027.114.063.228.108l-.058.114a2.024 2.024 0 01-.178-.107l-.125-.087c-.251-.174-.468-.43-.651-.77a4.154 4.154 0 01-.406-1.2 4.122 4.122 0 01-.073-.718 4.71 4.71 0 01.04-.701c.029-.226.074-.437.135-.634a2.1 2.1 0 01.238-.521c.202-.316.44-.505.711-.567.271-.063.559.011.863.223.265.184.509.464.729.84.219.375.407.827.562 1.355.162.568.275 1.16.34 1.775s.083 1.212.05 1.793a9.276 9.276 0 01-.235 1.63c-.123.507-.293.93-.51 1.267-.259.402-.587.628-.985.683-.397.053-.828-.081-1.291-.403-.486-.338-.908-.852-1.268-1.54-.359-.69-.641-1.532-.845-2.529a14.974 14.974 0 01-.27-2.154c-.038-.733-.026-1.44.038-2.12a10.7 10.7 0 01.336-1.877c.16-.573.366-1.056.62-1.45a4.095 4.095 0 01.825-.948 1.957 1.957 0 011.319-.484c.507-.001.995.162 1.466.49.365.254.705.621 1.02 1.104a8.47 8.47 0 01.836 1.675c.238.635.433 1.32.58 2.056.145.736.231 1.488.253 2.257.018.605.003 1.19-.045 1.758a9.753 9.753 0 01-.24 1.552 8.887 8.887 0 01-.478 1.406c-.203.47-.428.893-.671 1.271-.447.694-.92 1.135-1.421 1.323-.501.188-.991.116-1.469-.217-.554-.386-.922-.933-1.103-1.641l.129-.048c.086.277.223.538.411.783z" fill="#F6D4BA" fill-opacity=".9"/><path d="M252.26 31.39l-.045.134a2.65 2.65 0 01-1.581-1.146c-.32-.497-.388-1.005-.208-1.526.18-.52.606-1.012 1.274-1.476.362-.254.77-.485 1.223-.697.45-.211.903-.377 1.353-.495a8.95 8.95 0 011.494-.252 14.296 14.296 0 011.694-.045c.738.022 1.463.11 2.171.263.708.152 1.366.354 1.979.603a7.98 7.98 0 011.612.866c.465.329.818.682 1.063 1.061.315.49.473.997.47 1.523 0 .526-.155.983-.465 1.37a4.255 4.255 0 01-.913.858c-.378.263-.843.478-1.394.644a9.6 9.6 0 01-1.809.349 12.84 12.84 0 01-2.039.04 13.267 13.267 0 01-2.074-.282c-.958-.211-1.771-.504-2.434-.877-.663-.373-1.156-.812-1.481-1.317-.31-.481-.44-.929-.388-1.342.053-.413.27-.753.656-1.022.325-.226.733-.404 1.22-.531a8.233 8.233 0 011.569-.244 9.777 9.777 0 011.726.051 9.504 9.504 0 011.709.354c.508.16.943.356 1.304.584.362.229.63.482.808.758.205.315.275.614.215.896-.06.282-.243.528-.546.74-.145.1-.312.182-.5.246-.193.063-.395.11-.61.141a4.38 4.38 0 01-.676.041 3.735 3.735 0 01-.693-.076 3.785 3.785 0 01-1.153-.422 2.123 2.123 0 01-.741-.676 4.305 4.305 0 01-.085-.13 1.847 1.847 0 01-.102-.186l.11-.06c.042.12.077.198.102.238.173.268.443.491.811.67.37.178.808.306 1.321.384.475.07.888.085 1.241.045.353-.04.633-.132.838-.275.47-.327.565-.707.288-1.142a2.145 2.145 0 00-.478-.498 4.728 4.728 0 00-.751-.473 7.63 7.63 0 00-.966-.408 8.613 8.613 0 00-1.12-.308 8.547 8.547 0 00-2.7-.196 5.968 5.968 0 00-1.138.207c-.34.101-.631.233-.866.397-.698.486-.82 1.08-.368 1.783a3.8 3.8 0 00.671.759c.283.253.598.477.943.671.138.076.3.158.488.244s.405.176.65.267c.263.102.496.19.696.262a6.587 6.587 0 001.226.313 27.955 27.955 0 001.651.196c.263.023.51.034.741.034a10.826 10.826 0 001.338-.074c.19-.03.375-.062.561-.1.185-.037.375-.077.567-.12a5.71 5.71 0 00.881-.295c.248-.11.48-.239.691-.387 1.17-.814 1.413-1.749.733-2.806a4.344 4.344 0 00-.803-.925 6.038 6.038 0 00-1.191-.79 11.94 11.94 0 00-1.612-.705 13.002 13.002 0 00-2.774-.658c-.34-.042-.678-.074-1.011-.095a10.7 10.7 0 00-.958-.017c-.308.008-.593.03-.858.065a7.505 7.505 0 00-1.616.422c-.516.198-.979.44-1.389.725-.615.428-.998.875-1.151 1.34-.15.465-.072.934.233 1.407.173.269.378.5.613.696.235.196.488.338.753.427z" fill="#F6D4BA" fill-opacity=".9"/><path d="M239.703 17.987a.546.546 0 01-.793 0 .6.6 0 010-.824.546.546 0 01.793 0 .6.6 0 010 .824zm9.549 5.181a.382.382 0 01-.555 0 .42.42 0 010-.577.382.382 0 01.555 0 .417.417 0 010 .577zm6.883 7.271a.383.383 0 01-.556 0 .422.422 0 010-.577.383.383 0 01.556 0 .416.416 0 010 .577zm5.099 10.185a.546.546 0 01-.793 0 .601.601 0 010-.824.546.546 0 01.793 0c.22.228.22.597 0 .824zm-6.91-26.524h10.088v10.482h-10.088V14.1zm.298.31v9.863h9.492V14.41h-9.492z" fill="#69DBEF"/><path d="M255.316 15.13l8.106.001v8.42l-7.955.001h-.151v-8.421zm.298.31v7.803h7.511V15.44h-7.511z" fill="#69DBEF"/><path d="M256.309 16.16l6.124.001v6.362h-6.122l-.002-6.363zm.297.31l.003 5.743h5.526v-5.742l-5.529-.001z" fill="#69DBEF"/><path d="M11 60h-1v159h1V60zm256 159h1V60h-1v159zM57.918 11.051h162.166v-1.005H57.918v1.005z" fill="#F6D4BA" fill-opacity=".5"/><path d="M32.697 246.462c.046-.41.154-.937.325-1.579l.19.103a6.991 6.991 0 00-.254 1.259 6.39 6.39 0 00.018 1.29 8.012 8.012 0 001.07 3.266c.77-1.021 1.796-1.606 3.078-1.754a5.97 5.97 0 012.966.416 8.214 8.214 0 012.643 1.739c.792.765 1.454 1.68 1.988 2.743a9.877 9.877 0 01.994 3.401c.056.531.074.972.053 1.326a7.3 7.3 0 01-.176 1.167c.238.158.427.281.567.368.14.087.351.228.633.423.324.211.606.407.846.587s.465.351.673.513c.209.163.412.326.61.49.199.164.418.336.657.516l.46.351.235.222c.457-1.174.956-2.046 1.497-2.617.542-.571 1.18-.9 1.914-.984.912-.106 1.68.225 2.305.994.624.768 1.012 1.86 1.163 3.274a7.63 7.63 0 01-.006 1.76 8.393 8.393 0 01-.38 1.647c-.09.28-.208.59-.352.928-.144.338-.35.772-.614 1.3a17.853 17.853 0 011.54 2.982c.398 1.002.646 1.954.743 2.856.125 1.169.015 2.095-.332 2.778-.346.683-.894 1.069-1.644 1.155-.828.096-1.655-.341-2.478-1.313-.823-.971-1.656-2.413-2.501-4.325l-.197-.443c-.274.053-.48.086-.619.102l-.444.052c-1.46.169-2.866.047-4.219-.366-1.352-.413-2.787-1.174-4.305-2.283a22.142 22.142 0 01-3.058-2.676 20.478 20.478 0 01-2.424-3.184c-1.688-2.705-2.676-5.396-2.964-8.077-.129-1.207-.12-2.296.025-3.265.146-.97.425-1.769.837-2.396-.583-1.155-.935-2.296-1.056-3.424a6.105 6.105 0 01-.007-1.322zm24.766 31.316c.258-.58.334-1.362.228-2.346a8.882 8.882 0 00-.641-2.494c-.336-.801-.863-1.752-1.58-2.853-.552.812-1.17 1.475-1.854 1.99a7.508 7.508 0 01-2.331 1.172c.265.8.595 1.545.989 2.236a9.916 9.916 0 001.27 1.783c.452.498.913.881 1.38 1.148.47.268.9.378 1.295.332.573-.066.987-.388 1.244-.968zm-23.31-17.18a21.924 21.924 0 002.044 4.122 18.746 18.746 0 002.41 3.052 21.577 21.577 0 003.011 2.515c1.49 1.033 2.895 1.751 4.217 2.159a9.727 9.727 0 004.026.374 2.48 2.48 0 00.41-.078 7.53 7.53 0 01.497-.12 14.423 14.423 0 01-.504-1.903 28.52 28.52 0 01-.27-1.961 50.72 50.72 0 01-.119-1.247 10.19 10.19 0 01-.032-1.008c.006-.312.027-.626.063-.941.037-.316.096-.644.179-.986a2.643 2.643 0 00-.212-.163 1.427 1.427 0 01-.146-.107 22.777 22.777 0 01-.57-.417 37.567 37.567 0 00-1.622-1.151c-.225-.15-.412-.268-.562-.355l-1.47-.857-.322-.212c-.563 1.456-1.485 2.258-2.768 2.406a3.598 3.598 0 01-2.141-.406c-.678-.357-1.256-.902-1.734-1.636l.168-.113c.43.657.965 1.134 1.606 1.433.642.3 1.318.408 2.028.326 1.204-.139 2.045-.869 2.522-2.191l-.418-.263-1.533-.881a27.848 27.848 0 01-1.828-1.127 37.259 37.259 0 01-2.36-1.75 18.117 18.117 0 01-1.92-1.833c-.271-.3-.528-.597-.77-.891-.24-.294-.487-.592-.74-.895a12.481 12.481 0 01-.646-.859 24.035 24.035 0 01-.597-.959c-.802 1.276-1.1 2.888-.89 4.835.14 1.312.471 2.675.992 4.088zm16.407 9.947c.14.658.327 1.327.56 2.005a8.878 8.878 0 001.443-.509 6.286 6.286 0 001.237-.766c.316-.223.567-.439.755-.648a17.4 17.4 0 00.754-.927 25.956 25.956 0 00-.89-1.174 12.944 12.944 0 00-.798-.873 31.02 31.02 0 00-1.204-1.168 22.489 22.489 0 00-1.674-1.363l-.391-.297a12.64 12.64 0 00-.207 1.705 12.5 12.5 0 00.08 1.859c.083.779.195 1.498.335 2.156zm2.238-4.835c.305.327.595.652.87.973a19.641 19.641 0 011.645 2.207l.213.318c.542-.914.917-1.792 1.125-2.637.21-.844.265-1.727.166-2.649-.125-1.169-.474-2.042-1.045-2.619-.571-.577-1.3-.815-2.188-.712-.671.078-1.273.381-1.806.909-.532.529-.925 1.202-1.177 2.02.288.258.504.461.65.61l.521.531c.38.372.722.721 1.026 1.049zm-15.125-10.703c.304.225.64.471 1.008.74l.936.623a27.611 27.611 0 001.875 1.137l1.353.747c.277.154.516.293.72.415.202.121.389.23.558.324l.51.283c.17.095.372.212.607.35.067-.484.11-.879.128-1.182a5.94 5.94 0 00-.03-.977c-.244-2.275-1.245-4.069-3.004-5.381a8.504 8.504 0 00-1.345-.809 9.155 9.155 0 00-1.515-.572 9.51 9.51 0 00-1.575-.3 7 7 0 00-1.498.002c-.493.057-.873.148-1.14.272-.266.124-.571.352-.916.682.292.486.673 1.007 1.142 1.564.47.559.947 1.048 1.431 1.469.2.185.451.389.755.613z" fill="#F6D4BA" fill-opacity=".9"/><path d="M30.426 245.419c-1.085-.125-2.183-.491-3.295-1.097-.604.428-1.373.717-2.306.869-.933.152-1.981.16-3.143.026-2.58-.299-5.171-1.325-7.774-3.079a19.894 19.894 0 01-3.065-2.519c-.89-.901-1.749-1.961-2.575-3.177-1.068-1.577-1.8-3.067-2.198-4.472a11.471 11.471 0 01-.352-4.384l.05-.461c.015-.144.048-.358.098-.642l-.426-.205c-1.84-.878-3.229-1.744-4.164-2.599-.935-.855-1.356-1.714-1.264-2.575.084-.779.455-1.348 1.112-1.707.658-.361 1.55-.475 2.674-.345.868.1 1.785.358 2.75.772.963.414 1.92.947 2.869 1.6a22.91 22.91 0 011.252-.638c.326-.15.623-.273.893-.366a7.505 7.505 0 011.586-.395 6.793 6.793 0 011.693-.006c1.362.157 2.412.56 3.152 1.208.74.649 1.058 1.447.957 2.396a3.278 3.278 0 01-.947 1.988c-.55.562-1.39 1.08-2.52 1.555l.214.244.338.477c.173.249.339.477.497.683a40.623 40.623 0 01.965 1.333c.173.249.362.543.565.88.188.292.324.511.407.657.084.145.202.341.355.589a6.61 6.61 0 011.122-.184c.34-.021.766-.002 1.277.057a8.992 8.992 0 013.273 1.032 9.723 9.723 0 012.64 2.065 8.604 8.604 0 011.674 2.746 6.636 6.636 0 01.4 3.082c-.142 1.332-.705 2.398-1.688 3.198.952.608 2 .978 3.145 1.111.453.052.867.058 1.241.019a6.33 6.33 0 001.212-.264l.099.198c-.619.177-1.125.29-1.52.337a5.43 5.43 0 01-1.273-.007zM.624 220.989c-.044.409.063.857.32 1.344.258.486.626.964 1.105 1.435.479.47 1.051.91 1.716 1.319a11.51 11.51 0 002.153 1.028 8.025 8.025 0 011.128-2.422c.496-.711 1.134-1.353 1.915-1.927-1.06-.745-1.974-1.292-2.746-1.641a8.096 8.096 0 00-2.4-.667c-.948-.109-1.7-.03-2.258.237-.558.268-.87.698-.933 1.294zm21.403 23.956c1.875.217 3.426-.091 4.654-.925-.392-.252-.7-.459-.922-.619a12.423 12.423 0 01-.827-.672c-.292-.263-.58-.519-.862-.769a24.684 24.684 0 01-.858-.8 18.41 18.41 0 01-1.764-1.994 38.476 38.476 0 01-1.684-2.452 29.23 29.23 0 01-1.085-1.901l-.848-1.591-.254-.435c-1.271.497-1.974 1.37-2.109 2.62-.079.739.026 1.44.315 2.107a3.933 3.933 0 001.378 1.669l-.108.175c-.706-.497-1.23-1.098-1.575-1.801a4.001 4.001 0 01-.39-2.225c.142-1.333.914-2.291 2.315-2.876l-.204-.335-.824-1.527c-.084-.156-.198-.35-.342-.584a36.275 36.275 0 00-1.108-1.686 29.93 29.93 0 01-.401-.591 1.64 1.64 0 01-.104-.152 2.693 2.693 0 00-.156-.22c-.33.086-.645.148-.949.186-.303.037-.605.06-.906.066-.3.007-.624-.005-.97-.035-.346-.029-.747-.07-1.2-.122a25.998 25.998 0 01-1.888-.281 12.906 12.906 0 01-1.831-.524 7.847 7.847 0 01-.116.516 2.76 2.76 0 00-.076.427 10.876 10.876 0 00.361 4.182c.392 1.374 1.085 2.834 2.077 4.382.772 1.188 1.579 2.232 2.422 3.127a18.342 18.342 0 002.938 2.505 20.538 20.538 0 003.967 2.124c1.36.541 2.671.885 3.934 1.031zm-11.433-17.729c.69.08 1.287.107 1.789.083a11.203 11.203 0 001.641-.215l-.286-.406a22.628 22.628 0 00-1.312-1.74 30.742 30.742 0 00-1.124-1.251 13.163 13.163 0 00-.84-.829 24.826 24.826 0 00-1.13-.924c-.394.328-.692.589-.893.783-.2.195-.408.456-.623.785a6.62 6.62 0 00-.737 1.284 9.81 9.81 0 00-.49 1.5c.653.241 1.296.435 1.93.581a18.77 18.77 0 002.075.349zm3.588-1.608l.511.542c.144.151.34.376.587.674.787-.261 1.435-.669 1.944-1.222.51-.554.8-1.179.876-1.876.098-.922-.13-1.68-.686-2.273-.556-.594-1.396-.956-2.52-1.086a6.775 6.775 0 00-2.55.172c-.813.217-1.66.607-2.538 1.169l.306.223c.427.298.81.586 1.15.865.34.277.664.559.974.844a30.02 30.02 0 011.946 1.968zm9.882 15.433c.405.503.877.998 1.414 1.486.536.488 1.039.883 1.505 1.187.318-.359.537-.675.657-.952.12-.277.207-.672.262-1.184a7.776 7.776 0 00.002-1.556 10.456 10.456 0 00-.29-1.637 9.924 9.924 0 00-.55-1.573 8.844 8.844 0 00-.779-1.398c-1.262-1.827-2.988-2.868-5.179-3.121a5.32 5.32 0 00-.94-.031c-.292.017-.671.062-1.138.133.133.243.246.453.337.631l.273.529c.09.176.194.37.312.581.117.21.25.459.4.747l.718 1.406a28.677 28.677 0 001.094 1.947l.6.973c.259.382.496.732.712 1.047.215.316.413.577.59.785zm5.814 10.918a2.977 2.977 0 00-.67-.637c-.456-.317-.908-.397-1.355-.24-.448.157-.877.555-1.29 1.194a7.023 7.023 0 00-.698 1.443 8.317 8.317 0 00-.406 1.68c-.034.274-.055.57-.063.89-.008.32-.002.653.018.998.019.345.05.694.09 1.049a14.793 14.793 0 00.634 2.883c.195.592.421 1.15.68 1.672.239.498.493.911.76 1.24.266.328.563.606.89.833 1.017.708 1.917.454 2.7-.761a4.38 4.38 0 00.372-.718c.106-.258.2-.563.285-.916.041-.2.08-.396.116-.588.035-.192.067-.387.095-.585.026-.244.045-.477.055-.699.01-.221.016-.451.017-.691 0-.24-.01-.496-.033-.768a28.81 28.81 0 00-.09-.911 19.445 19.445 0 00-.1-.806 7.337 7.337 0 00-.3-1.272c-.07-.209-.154-.45-.252-.724a10.489 10.489 0 00-.257-.676 8.08 8.08 0 00-.235-.506 5.651 5.651 0 00-.647-.981 3.793 3.793 0 00-.73-.697c-.676-.47-1.248-.341-1.716.384a3.228 3.228 0 00-.381.9 6.59 6.59 0 00-.2 1.181 9.564 9.564 0 00.188 2.805c.078.408.177.797.296 1.165.12.369.251.703.394 1.002.143.3.294.56.454.78.161.22.321.385.48.496.418.291.785.191 1.1-.298.137-.213.225-.503.264-.87a5.452 5.452 0 00-.043-1.29 5.072 5.072 0 00-.37-1.371c-.172-.382-.386-.663-.645-.843a1.329 1.329 0 00-.228-.107l.058-.114c.073.039.133.075.178.107l.125.087c.25.174.468.431.65.769.184.339.32.739.407 1.2.045.237.07.477.073.719a4.85 4.85 0 01-.04.701c-.03.225-.074.437-.135.634-.062.197-.14.371-.237.521-.203.315-.44.505-.712.567-.272.063-.559-.012-.863-.223-.265-.185-.509-.465-.729-.84a5.99 5.99 0 01-.562-1.356 11.036 11.036 0 01-.39-3.567 9.134 9.134 0 01.235-1.631c.123-.506.293-.929.511-1.267.258-.401.586-.628.984-.682.397-.054.828.081 1.291.403.486.338.909.851 1.268 1.54.359.689.64 1.531.845 2.528a14.989 14.989 0 01.232 4.274c-.064.68-.176 1.306-.336 1.878-.16.572-.366 1.055-.62 1.449-.127.197-.26.374-.402.533a3.91 3.91 0 01-.423.415 1.96 1.96 0 01-1.32.485c-.506.001-.994-.163-1.465-.49-.365-.254-.705-.622-1.02-1.104a8.588 8.588 0 01-.835-1.676c-.24-.634-.433-1.32-.58-2.056a13.402 13.402 0 01-.254-2.256 16.056 16.056 0 01.044-1.758 9.918 9.918 0 01.242-1.553c.115-.468.273-.936.477-1.406a8.79 8.79 0 01.67-1.271c.448-.693.921-1.134 1.422-1.322.5-.188.99-.116 1.469.217.554.385.922.932 1.103 1.641l-.13.047a2.505 2.505 0 00-.41-.783z" fill="#F6D4BA" fill-opacity=".9"/><path d="M25.742 248.005l.045-.134a2.65 2.65 0 011.58 1.146c.32.497.39 1.006.21 1.526-.182.52-.606 1.012-1.274 1.477a8.27 8.27 0 01-1.223.696 7.981 7.981 0 01-1.354.496c-.45.119-.948.203-1.494.251-.546.048-1.11.064-1.693.046a11.941 11.941 0 01-2.171-.263 11.783 11.783 0 01-1.979-.604 7.993 7.993 0 01-1.613-.866c-.464-.328-.818-.682-1.062-1.061-.316-.489-.473-.996-.472-1.522.001-.527.157-.983.467-1.371a4.184 4.184 0 01.912-.857c.379-.263.844-.478 1.395-.644a9.529 9.529 0 011.808-.349c.653-.067 1.334-.08 2.04-.04s1.397.134 2.073.281c.96.212 1.77.505 2.434.878.662.373 1.156.812 1.482 1.317.31.481.44.928.388 1.341-.052.413-.271.754-.657 1.022-.325.227-.732.404-1.219.532a8.281 8.281 0 01-1.57.243 9.758 9.758 0 01-1.725-.051 9.483 9.483 0 01-1.709-.354 5.577 5.577 0 01-1.305-.584c-.36-.228-.63-.481-.808-.757-.204-.316-.275-.614-.215-.896.06-.283.242-.529.546-.74.145-.1.312-.182.502-.246s.393-.111.61-.141a4.25 4.25 0 01.674-.041c.234.003.464.028.693.076.443.091.828.231 1.155.422.325.19.572.415.74.676l.084.13c.03.047.065.109.103.185l-.11.06a1.348 1.348 0 00-.103-.237c-.173-.268-.444-.492-.811-.67a4.598 4.598 0 00-1.32-.385 4.814 4.814 0 00-1.242-.044c-.353.04-.633.131-.837.274-.472.327-.567.708-.287 1.142.106.166.265.332.478.499.211.166.461.324.75.472.287.149.609.285.964.409s.73.227 1.122.308a8.521 8.521 0 002.7.196 5.93 5.93 0 001.137-.208c.341-.101.63-.233.866-.397.698-.485.822-1.08.369-1.782a3.812 3.812 0 00-.67-.759 5.432 5.432 0 00-1.432-.916 9.452 9.452 0 00-.65-.266c-.264-.103-.497-.19-.697-.262a6.776 6.776 0 00-1.225-.314c-.22-.034-.479-.069-.776-.103a26.74 26.74 0 00-.876-.092 8.117 8.117 0 00-.74-.035c-.23.001-.452.007-.665.018-.213.011-.437.03-.672.057-.191.029-.378.062-.563.099a26.57 26.57 0 00-.567.12c-.34.088-.633.186-.881.296-.248.11-.479.239-.691.386-1.17.814-1.414 1.749-.733 2.806.22.34.486.648.803.925.315.277.713.54 1.193.79.502.267 1.038.503 1.61.705a13.327 13.327 0 002.774.658c.341.043.678.075 1.01.095.332.02.652.026.96.017.308-.007.594-.029.857-.064a7.584 7.584 0 001.617-.422c.515-.199.978-.44 1.388-.726.616-.428.998-.874 1.15-1.339.151-.465.074-.935-.23-1.408a3.046 3.046 0 00-.614-.696 2.34 2.34 0 00-.754-.427z" fill="#F6D4BA" fill-opacity=".9"/><path d="M38.297 261.408a.547.547 0 01.793 0 .6.6 0 010 .825.547.547 0 01-.793 0 .6.6 0 010-.825zm-9.549-5.18a.383.383 0 01.555-.001.42.42 0 010 .578.382.382 0 01-.555 0 .42.42 0 010-.577zm-6.891-7.271a.383.383 0 01.555 0 .42.42 0 010 .577.383.383 0 01-.555 0 .42.42 0 010-.577zm-5.091-10.186a.546.546 0 01.793 0 .599.599 0 010 .824.546.546 0 01-.793 0 .599.599 0 010-.824zm6.909 26.524h-10.09l.001-10.327v-.155h10.089v10.482zm-.298-.309v-9.864h-9.493v9.864h9.493z" fill="#69DBEF"/><path d="M22.684 264.265l-8.106-.001v-8.421h8.106v8.422zm-.297-.309v-7.804h-7.511v7.803l7.51.001z" fill="#69DBEF"/><path d="M21.694 263.235l-6.123-.001v-6.361h6.122v6.362zm-.298-.309v-5.743h-5.528v5.742l5.528.001z" fill="#69DBEF"/><path d="M245.297 247.784c-.121 1.128-.474 2.269-1.057 3.424.412.628.691 1.426.837 2.396.145.969.153 2.058.025 3.265-.288 2.681-1.276 5.373-2.964 8.078a20.593 20.593 0 01-2.424 3.184 22.23 22.23 0 01-3.058 2.675c-1.518 1.109-2.953 1.87-4.306 2.283a10.253 10.253 0 01-4.218.366l-.444-.051a8.903 8.903 0 01-.619-.103l-.197.443c-.844 1.913-1.678 3.354-2.501 4.326-.824.971-1.649 1.409-2.479 1.313-.749-.087-1.297-.472-1.643-1.156-.347-.683-.457-1.609-.332-2.778.097-.901.345-1.853.743-2.856a17.873 17.873 0 011.54-2.981 23.89 23.89 0 01-.613-1.301 10.526 10.526 0 01-.353-.928 8.348 8.348 0 01-.38-1.647 7.657 7.657 0 01-.007-1.76c.153-1.414.54-2.506 1.164-3.274.625-.768 1.393-1.1 2.306-.994.733.085 1.371.413 1.913.984.541.572 1.04 1.444 1.497 2.617l.235-.221.46-.352c.239-.18.459-.352.657-.516.198-.163.402-.327.61-.489.208-.163.433-.334.673-.514.24-.179.522-.375.846-.587.282-.195.493-.336.633-.423.14-.087.329-.21.567-.368a7.285 7.285 0 01-.176-1.166 8.34 8.34 0 01.053-1.327c.13-1.203.46-2.336.995-3.401a10.012 10.012 0 011.987-2.743 8.205 8.205 0 012.643-1.738 5.958 5.958 0 012.966-.417c1.282.149 2.308.733 3.078 1.754a8 8 0 001.069-3.266c.051-.471.057-.901.019-1.29a6.994 6.994 0 00-.255-1.259l.191-.103c.171.643.279 1.169.325 1.58.046.409.043.85-.006 1.321zm-23.516 30.963c.394.046.826-.065 1.294-.332.468-.268.929-.651 1.382-1.148a9.965 9.965 0 001.269-1.784c.394-.69.724-1.436.99-2.235a7.488 7.488 0 01-2.332-1.173c-.684-.515-1.302-1.178-1.854-1.989-.717 1.1-1.244 2.051-1.58 2.852a8.923 8.923 0 00-.642 2.494c-.105.984-.029 1.767.228 2.346.257.58.672.903 1.245.969zm23.059-22.236c.209-1.947-.088-3.56-.89-4.835-.243.407-.443.727-.597.958-.155.231-.37.517-.647.859-.252.303-.498.601-.74.895-.241.294-.497.591-.77.892a18.088 18.088 0 01-1.919 1.832 36.6 36.6 0 01-2.36 1.75 27.263 27.263 0 01-1.828 1.127l-1.533.882-.418.262c.477 1.322 1.318 2.052 2.522 2.191a3.697 3.697 0 002.028-.325c.641-.3 1.176-.777 1.606-1.433l.168.113c-.478.733-1.056 1.278-1.734 1.636a3.61 3.61 0 01-2.141.406c-1.283-.149-2.205-.951-2.768-2.406l-.322.211-1.47.858c-.15.086-.337.205-.563.355a33.95 33.95 0 00-1.622 1.151c-.228.171-.418.309-.569.416a1.58 1.58 0 01-.146.108 2.72 2.72 0 00-.212.162c.083.342.142.671.179.986.036.316.057.629.064.941.006.312-.005.649-.034 1.009-.028.359-.068.775-.118 1.246a29.224 29.224 0 01-.27 1.962c-.1.548-.267 1.183-.504 1.902.215.046.38.086.496.12.117.035.253.061.411.079a9.747 9.747 0 004.026-.375c1.322-.407 2.728-1.126 4.217-2.158a21.68 21.68 0 003.011-2.516 18.747 18.747 0 002.41-3.052 21.991 21.991 0 002.045-4.122c.52-1.413.851-2.775.992-4.087zm-17.064 11.878c.076-.717.103-1.337.079-1.858a12.416 12.416 0 00-.207-1.705l-.391.297c-.696.521-1.253.975-1.674 1.362a31.26 31.26 0 00-1.204 1.168c-.314.318-.58.608-.798.873-.219.266-.515.657-.89 1.174.316.41.567.719.754.928.188.208.439.424.755.647.405.317.818.573 1.237.766.418.194.899.364 1.443.51.233-.679.419-1.347.56-2.006.14-.658.252-1.377.336-2.156zm-1.548-3.728l.521-.531c.146-.149.362-.352.65-.61-.252-.817-.645-1.491-1.177-2.019-.533-.529-1.135-.832-1.805-.909-.889-.103-1.618.134-2.189.711-.571.578-.92 1.45-1.045 2.619a7.575 7.575 0 00.165 2.649c.209.845.585 1.723 1.126 2.637l.214-.318a19.734 19.734 0 011.645-2.207 30.73 30.73 0 011.895-2.022zm14.854-10.266c.484-.422.961-.911 1.431-1.469.469-.557.85-1.079 1.141-1.565-.344-.33-.649-.557-.915-.682-.267-.124-.647-.215-1.14-.272a7.002 7.002 0 00-1.498-.002 9.4 9.4 0 00-3.09.872 8.434 8.434 0 00-1.345.81c-1.759 1.312-2.76 3.105-3.004 5.38a5.951 5.951 0 00-.03.977c.017.303.06.698.128 1.183.235-.139.437-.256.607-.35l.51-.284c.17-.094.356-.202.559-.324.203-.122.442-.26.718-.415.531-.291.982-.54 1.354-.746a27.11 27.11 0 001.875-1.137l.936-.624c.368-.268.704-.515 1.008-.739.304-.224.555-.429.755-.613z" fill="#F6D4BA" fill-opacity=".9"/><path d="M246.301 245.426c-.395-.047-.902-.16-1.52-.337l.099-.198a6.33 6.33 0 001.212.264 5.66 5.66 0 001.241-.019 7.328 7.328 0 003.144-1.111c-.983-.8-1.545-1.866-1.688-3.198a6.642 6.642 0 01.401-3.082 8.613 8.613 0 011.672-2.746 9.761 9.761 0 012.642-2.064 8.958 8.958 0 013.273-1.033c.51-.059.935-.078 1.275-.056.341.022.716.083 1.124.183.152-.247.27-.444.355-.589.083-.145.218-.365.408-.657.203-.337.39-.631.563-.88.175-.249.34-.482.495-.699.158-.216.315-.428.47-.633.158-.207.326-.434.498-.684l.338-.477.213-.244c-1.129-.475-1.969-.993-2.517-1.555a3.278 3.278 0 01-.948-1.988c-.103-.949.217-1.747.955-2.395.741-.648 1.792-1.052 3.153-1.209a6.742 6.742 0 011.693.006 7.663 7.663 0 011.587.395c.27.094.568.216.893.366.325.15.743.363 1.251.638a16.824 16.824 0 012.869-1.6c.966-.414 1.882-.672 2.75-.772 1.126-.13 2.016-.015 2.674.345.658.359 1.029.928 1.111 1.707.093.862-.328 1.72-1.263 2.575-.936.856-2.322 1.721-4.163 2.599l-.428.205c.052.284.085.498.1.642l.05.461a11.455 11.455 0 01-.353 4.384c-.398 1.405-1.131 2.896-2.199 4.472-.826 1.217-1.684 2.276-2.574 3.178a19.989 19.989 0 01-3.065 2.518c-2.602 1.754-5.194 2.78-7.776 3.079-1.161.135-2.209.126-3.142-.026-.933-.152-1.701-.441-2.304-.869-1.113.606-2.211.972-3.296 1.097a5.378 5.378 0 01-1.273.007zm30.142-25.731c-.557-.267-1.31-.346-2.259-.236a8.027 8.027 0 00-2.399.667c-.771.348-1.686.895-2.747 1.641.783.573 1.421 1.215 1.916 1.926.496.71.871 1.518 1.129 2.422a11.55 11.55 0 002.151-1.027 9.565 9.565 0 001.717-1.32c.48-.471.848-.949 1.105-1.435.258-.486.363-.935.321-1.344-.065-.595-.376-1.026-.934-1.294zm-16.537 24.219a20.44 20.44 0 003.968-2.124 18.25 18.25 0 002.937-2.504 21.947 21.947 0 002.422-3.128c.993-1.548 1.686-3.008 2.079-4.382.39-1.373.511-2.767.36-4.181a3.057 3.057 0 00-.075-.427 7.14 7.14 0 01-.117-.516c-.693.246-1.301.42-1.832.523-.527.103-1.155.197-1.886.281a45.28 45.28 0 01-1.201.123c-.345.029-.67.041-.97.034a8.944 8.944 0 01-.906-.066 7.326 7.326 0 01-.948-.186c-.07.091-.123.165-.158.221a1.493 1.493 0 01-.103.152 27.2 27.2 0 01-.4.59 38.81 38.81 0 00-1.108 1.686c-.145.234-.26.428-.343.584l-.826 1.527-.202.335c1.401.585 2.171 1.544 2.317 2.876a4.005 4.005 0 01-.393 2.225c-.343.703-.868 1.304-1.574 1.801l-.107-.174a3.95 3.95 0 001.378-1.67 4.106 4.106 0 00.313-2.107c-.133-1.25-.836-2.123-2.109-2.619l-.253.434-.848 1.592c-.148.287-.31.586-.488.897a31.12 31.12 0 01-.598 1.003 36.983 36.983 0 01-1.684 2.452 18.472 18.472 0 01-1.763 1.994c-.288.283-.576.55-.859.8-.282.25-.57.507-.86.769-.33.287-.606.51-.828.672-.223.16-.531.367-.921.62 1.226.833 2.777 1.142 4.653.925 1.261-.147 2.575-.491 3.933-1.032zm9.575-17.046a15.999 15.999 0 001.931-.582 9.972 9.972 0 00-.49-1.5 6.76 6.76 0 00-.738-1.284 4.606 4.606 0 00-.623-.784c-.2-.195-.498-.456-.893-.784-.498.389-.873.697-1.129.924-.255.227-.535.503-.84.829a30.32 30.32 0 00-1.126 1.251 22.927 22.927 0 00-1.311 1.74l-.285.406c.59.119 1.138.19 1.641.215.5.025 1.098-.003 1.789-.082.75-.087 1.441-.204 2.074-.349zm-4.654-2.326c.316-.317.628-.618.936-.902.31-.285.636-.567.976-.844.338-.279.723-.567 1.148-.865l.308-.223c-.881-.562-1.726-.952-2.539-1.169a6.79 6.79 0 00-2.55-.172c-1.126.13-1.964.492-2.519 1.086-.556.593-.786 1.351-.686 2.273.075.698.366 1.323.876 1.876.508.553 1.156.961 1.944 1.223.248-.299.443-.524.585-.675.145-.152.316-.332.513-.542.355-.394.693-.749 1.008-1.066zm-10.302 15.715c.218-.316.453-.665.713-1.048.223-.358.42-.682.6-.972.178-.291.356-.592.533-.902.175-.312.363-.66.561-1.046.2-.386.437-.855.718-1.406.15-.287.282-.536.4-.747.118-.211.223-.404.313-.581l.272-.529c.09-.177.203-.387.338-.631a13.493 13.493 0 00-1.138-.133 5.32 5.32 0 00-.941.031c-2.191.254-3.918 1.294-5.179 3.121a8.832 8.832 0 00-.78 1.398 10.162 10.162 0 00-.839 3.21 7.77 7.77 0 00.002 1.556c.055.513.144.907.261 1.184.12.277.341.594.658.952.466-.303.969-.699 1.504-1.187a13.095 13.095 0 001.416-1.486c.178-.207.373-.469.588-.784zm-6.817 12.486l-.129-.048c.181-.708.549-1.256 1.103-1.641.479-.333.968-.405 1.469-.217.501.188.974.629 1.422 1.322.243.379.468.803.67 1.272.203.469.363.938.478 1.406.113.468.195.985.24 1.552.048.567.06 1.153.045 1.758a13.678 13.678 0 01-.252 2.257 13.306 13.306 0 01-.581 2.055 8.533 8.533 0 01-.835 1.676c-.316.483-.656.85-1.021 1.104-.471.328-.959.491-1.466.49a1.963 1.963 0 01-1.319-.485 3.988 3.988 0 01-.423-.414 4.274 4.274 0 01-.401-.534c-.254-.393-.461-.876-.621-1.449a10.696 10.696 0 01-.336-1.878 14.568 14.568 0 01-.038-2.12c.039-.733.129-1.451.27-2.153.204-.997.486-1.84.845-2.529.36-.688.782-1.202 1.268-1.54.463-.322.893-.456 1.292-.403.397.054.725.281.984.683.218.337.388.76.51 1.266.123.507.201 1.05.236 1.631a11.185 11.185 0 01-.391 3.568c-.155.528-.343.98-.562 1.356-.22.374-.463.654-.729.839-.304.211-.591.286-.863.223-.271-.062-.508-.251-.711-.567a2.136 2.136 0 01-.238-.521 3.855 3.855 0 01-.136-.634 5 5 0 01-.039-.701c.004-.242.028-.482.073-.719.088-.461.223-.861.406-1.2.184-.338.4-.595.651-.769l.125-.087c.046-.032.105-.068.178-.107l.058.114c-.114.045-.19.081-.228.107-.258.18-.473.461-.645.843a5.07 5.07 0 00-.37 1.371 5.446 5.446 0 00-.043 1.29c.039.367.127.658.264.871.315.488.682.588 1.099.297.16-.111.32-.276.481-.496.16-.22.312-.48.454-.779.143-.299.275-.633.395-1.002.118-.369.218-.758.295-1.166.105-.485.173-.966.2-1.442.03-.477.025-.932-.012-1.363a6.482 6.482 0 00-.2-1.181 3.164 3.164 0 00-.381-.9c-.468-.725-1.04-.853-1.716-.383a3.748 3.748 0 00-.73.696 5.647 5.647 0 00-.881 1.487c-.084.195-.17.421-.257.676-.099.274-.183.516-.252.724a7.542 7.542 0 00-.178.62c-.049.206-.09.423-.124.652-.034.229-.067.498-.099.806-.038.335-.067.638-.089.911a9.149 9.149 0 00-.034.768 12.424 12.424 0 00.072 1.39c.028.198.06.393.096.585.035.192.074.388.115.588.084.353.179.658.285.916.106.258.23.497.372.718.783 1.215 1.683 1.469 2.701.761.327-.227.623-.505.89-.833.267-.329.52-.742.76-1.24.258-.522.483-1.08.681-1.672a15.124 15.124 0 00.723-3.932c.02-.345.025-.678.017-.997a9.42 9.42 0 00-.062-.891 8.43 8.43 0 00-.406-1.68 7.006 7.006 0 00-.7-1.443c-.411-.638-.841-1.036-1.288-1.194-.448-.156-.9-.077-1.355.24-.259.18-.482.392-.67.637a2.495 2.495 0 00-.412.784z" fill="#F6D4BA" fill-opacity=".9"/><path d="M251.507 248.433c-.238.195-.44.427-.613.696-.305.473-.383.942-.233 1.407.153.465.536.912 1.151 1.339.41.286.873.528 1.389.726.515.199 1.053.34 1.616.422.263.035.55.057.858.065.308.009.628.003.958-.017.333-.021.671-.053 1.011-.095a13.171 13.171 0 002.774-.658 11.904 11.904 0 001.612-.706 6.073 6.073 0 001.191-.789 4.38 4.38 0 00.803-.925c.68-1.057.437-1.992-.733-2.806a4.17 4.17 0 00-.691-.387 5.8 5.8 0 00-.881-.296 32.523 32.523 0 00-.567-.12c-.186-.037-.371-.07-.561-.099a10.986 10.986 0 00-1.338-.074 8.144 8.144 0 00-.741.034c-.263.023-.555.054-.876.093-.297.033-.555.068-.775.103a6.618 6.618 0 00-1.226.313c-.2.073-.433.159-.696.262a9.22 9.22 0 00-.65.267c-.188.086-.35.168-.488.244a5.33 5.33 0 00-.943.671 3.8 3.8 0 00-.671.759c-.452.703-.33 1.297.368 1.783.235.164.526.296.866.396.343.101.72.171 1.138.208a8.503 8.503 0 002.7-.196 8.618 8.618 0 001.12-.308c.356-.124.678-.26.966-.408.288-.149.538-.306.748-.473.213-.167.373-.333.481-.499.277-.434.182-.814-.288-1.141-.205-.143-.485-.235-.838-.275a4.861 4.861 0 00-1.241.045 4.63 4.63 0 00-1.321.384c-.368.179-.638.402-.811.67-.025.04-.06.119-.102.237l-.11-.059c.037-.077.072-.139.102-.186l.083-.13c.167-.26.415-.486.74-.676.328-.19.713-.331 1.156-.422.228-.047.458-.072.693-.076.233-.003.458.01.676.041.215.031.417.078.608.141.19.064.357.146.502.247.303.211.486.457.546.739.06.282-.01.581-.215.896-.178.276-.448.529-.808.758a5.556 5.556 0 01-1.306.583 9.482 9.482 0 01-1.707.354 9.674 9.674 0 01-1.726.051 8.17 8.17 0 01-1.571-.243c-.485-.127-.893-.305-1.218-.531-.386-.269-.606-.609-.656-1.022-.052-.413.078-.861.388-1.342.325-.505.818-.944 1.481-1.317.663-.373 1.474-.666 2.434-.877a13.137 13.137 0 012.074-.281 12.735 12.735 0 012.039.039 9.624 9.624 0 011.809.349c.551.166 1.016.381 1.394.645.19.131.36.27.513.416.152.147.285.293.397.441.313.387.468.844.468 1.37.003.526-.155 1.034-.47 1.523-.245.379-.598.732-1.063 1.06a7.96 7.96 0 01-1.612.867c-.613.249-1.271.45-1.979.603-.71.153-1.433.241-2.171.263-.583.018-1.149.003-1.694-.046a8.838 8.838 0 01-1.494-.251 8.022 8.022 0 01-1.353-.495 8.194 8.194 0 01-1.223-.697c-.668-.464-1.094-.957-1.274-1.477-.18-.52-.112-1.028.208-1.525a2.652 2.652 0 011.581-1.147l.045.134a2.338 2.338 0 00-.753.428z" fill="#F6D4BA" fill-opacity=".9"/><path d="M239.704 261.409a.546.546 0 00-.794 0 .598.598 0 00.001.824.547.547 0 00.793 0 .599.599 0 000-.824zm9.548-5.181a.383.383 0 00-.555 0 .42.42 0 000 .577.383.383 0 00.555 0 .418.418 0 000-.577zm6.883-7.271a.384.384 0 00-.556 0 .422.422 0 000 .577c.155.16.403.16.556 0a.422.422 0 000-.577zm5.099-10.185a.545.545 0 00-.793 0 .6.6 0 000 .824c.22.227.575.227.793 0a.603.603 0 000-.824zm-6.91 26.523v-10.482h10.088v10.482h-10.088zm.298-.309h9.492v-9.864h-9.492v9.864z" fill="#69DBEF"/><path d="M255.316 264.265v-8.422h.151l7.955.001v8.421h-8.106zm.298-.309h7.511v-7.804h-7.511v7.804z" fill="#69DBEF"/><path d="M256.309 263.235l.002-6.361h.148l5.974-.001v6.362h-6.124zm.297-.309l5.529-.001v-5.742h-5.529v5.743z" fill="#69DBEF"/><path d="M57.918 268.728v1.005h162.166v-1.005H57.918z" fill="#F6D4BA" fill-opacity=".5"/></svg>