<svg width="54" height="54" fill="none" xmlns="http://www.w3.org/2000/svg"><path d="M26.605 29.493c.164.205.351.49.563.856l-.131.04a4.442 4.442 0 00-.452-.68 4.029 4.029 0 00-.588-.572 5.092 5.092 0 00-1.948-.987 2.748 2.748 0 01-.595 2.171 3.79 3.79 0 01-1.52 1.146 5.22 5.22 0 01-1.97.407 6.374 6.374 0 01-2.125-.34 6.277 6.277 0 01-1.975-1.082 5.23 5.23 0 01-.62-.572 4.619 4.619 0 01-.445-.603c-.178.036-.318.066-.42.09-.102.023-.26.055-.475.094-.24.05-.455.089-.644.116a17.863 17.863 0 01-1.027.125c-.163.016-.339.037-.527.064l-.365.049-.205.006c.322.733.49 1.349.504 1.849.013.5-.127.934-.418 1.302-.363.458-.857.654-1.483.59-.625-.066-1.29-.382-1.994-.95a4.844 4.844 0 01-.788-.793 5.334 5.334 0 01-.57-.911 6.885 6.885 0 01-.258-.575c-.088-.217-.19-.504-.309-.86a11.341 11.341 0 01-2.032-.648 6.94 6.94 0 01-1.617-.95c-.581-.469-.948-.935-1.1-1.397-.15-.463-.078-.882.22-1.258.33-.416.897-.59 1.704-.524.807.067 1.829.34 3.068.82l.287.11c.1-.146.177-.254.232-.323l.177-.223a6.516 6.516 0 012.06-1.732c.793-.422 1.78-.725 2.96-.908a14.08 14.08 0 012.577-.172c.806.025 1.646.14 2.52.341 1.974.457 3.628 1.223 4.962 2.298.6.485 1.086.978 1.456 1.479.37.501.604.985.7 1.452.782.258 1.453.612 2.014 1.064.234.19.433.386.597.591zM1.403 26.55c.145.377.462.762.952 1.157.428.345.898.623 1.409.832.51.21 1.175.4 1.991.572a5.276 5.276 0 01-.06-1.727c.076-.538.25-1.063.52-1.575a7.868 7.868 0 00-1.449-.56 6.328 6.328 0 00-1.372-.23 3.68 3.68 0 00-1.136.104c-.331.09-.574.235-.731.433-.228.287-.269.618-.124.994zm18.196-2.755c-.87-.4-1.793-.712-2.772-.933a11.924 11.924 0 00-2.454-.289 13.74 13.74 0 00-2.484.223c-1.132.205-2.087.514-2.864.925a6.181 6.181 0 00-1.978 1.64 1.527 1.527 0 00-.15.22 4.58 4.58 0 01-.168.278c.43.216.79.426 1.081.628.291.203.625.456 1.003.76.234.19.439.358.613.507a6.471 6.471 0 01.863.89c.125.158.246.332.362.523a1.53 1.53 0 00.168-.022 16.093 16.093 0 01.557-.086 21.788 21.788 0 001.246-.212c.17-.034.307-.065.413-.093l1.046-.275.24-.05c-.401-.907-.347-1.682.162-2.325a2.29 2.29 0 011.145-.78c.465-.144.97-.158 1.514-.044l-.024.127a2.461 2.461 0 00-1.366.078 2.352 2.352 0 00-1.058.764c-.478.604-.528 1.31-.149 2.118l.306-.07 1.085-.292a17.135 17.135 0 011.328-.316c.704-.129 1.32-.22 1.848-.273a11.52 11.52 0 011.685-.04c.257.013.506.031.747.055.24.024.485.047.735.07a7.9 7.9 0 01.676.095c.174.035.407.089.7.163-.214-.934-.805-1.792-1.774-2.573a10.878 10.878 0 00-2.282-1.391zM7.755 26.698a11 11 0 00-1.152-.65c-.18.31-.319.603-.42.878a4.017 4.017 0 00-.212.9 2.886 2.886 0 00-.048.63c.01.178.036.43.078.756.4.064.71.107.928.128.217.02.467.032.75.034a20.2 20.2 0 001.066-.017 14.12 14.12 0 001.365-.14l.31-.042a8.021 8.021 0 00-.674-.86 7.945 7.945 0 00-.87-.799 13.51 13.51 0 00-1.12-.817zm1.167 3.18c-.284-.011-.56-.027-.827-.048a12.664 12.664 0 01-1.73-.252l-.24-.047c.167.654.393 1.217.679 1.69a4.82 4.82 0 001.116 1.265c.581.47 1.13.705 1.646.708.516.002.951-.219 1.304-.664.266-.336.4-.743.402-1.22.002-.477-.124-.955-.378-1.436a9.37 9.37 0 01-.566.018l-.473-.005c-.338.004-.649 0-.933-.01zM20.53 27.89c-.238.035-.5.075-.785.12l-.701.14a18.126 18.126 0 00-1.354.332l-.944.273c-.193.055-.363.1-.509.137-.146.036-.278.071-.397.105l-.356.102c-.12.034-.263.072-.43.115.187.248.345.445.473.589.129.144.28.286.453.425 1.132.913 2.388 1.27 3.768 1.069.322-.049.645-.129.968-.241a5.99 5.99 0 001.78-.997 4.41 4.41 0 00.672-.674c.197-.247.326-.459.39-.634.064-.176.1-.415.106-.718a7.837 7.837 0 00-1.216-.19 8.37 8.37 0 00-1.918.047z" fill="#F6D4BA" fill-opacity=".9"/><path d="M28.096 28.94c.544-.43 1.202-.76 1.974-.987.079-.464.294-.94.645-1.427.352-.487.819-.962 1.4-1.424 1.295-1.025 2.92-1.728 4.878-2.11.868-.169 1.704-.25 2.51-.245a14.31 14.31 0 012.584.27c1.189.23 2.188.57 2.998 1.023a7.288 7.288 0 012.128 1.811l.185.23c.057.071.139.182.244.333l.284-.1c1.221-.433 2.234-.667 3.038-.703.805-.036 1.38.16 1.725.59.313.387.402.809.268 1.266-.134.458-.483.91-1.047 1.357a6.281 6.281 0 01-1.582.888c-.62.247-1.289.437-2.009.57-.104.353-.196.636-.275.85-.08.214-.158.402-.237.566a4.837 4.837 0 01-.535.89 4.321 4.321 0 01-.758.764c-.683.54-1.336.831-1.96.873-.624.04-1.126-.175-1.506-.647a2.083 2.083 0 01-.468-1.319c-.005-.5.139-1.11.433-1.83l-.205-.014-.367-.063c-.19-.034-.366-.062-.53-.084a18.978 18.978 0 01-1.033-.165c-.19-.034-.406-.081-.649-.141a11.356 11.356 0 01-.478-.112 15.442 15.442 0 00-.424-.106 4.31 4.31 0 01-.422.587 4.706 4.706 0 01-.6.548c-.58.46-1.225.796-1.934 1.007a6.177 6.177 0 01-2.114.26 5.473 5.473 0 01-1.986-.483 4.216 4.216 0 01-1.565-1.205c-.535-.663-.761-1.394-.679-2.196a4.68 4.68 0 00-1.912.914c-.227.18-.416.364-.566.55-.15.185-.292.407-.426.663l-.134-.045c.199-.358.376-.636.532-.834a3.45 3.45 0 01.575-.57zm24.37-2.413c-.164-.204-.413-.358-.748-.46a3.774 3.774 0 00-1.14-.149 6.126 6.126 0 00-1.365.179 7.3 7.3 0 00-1.429.505 5.1 5.1 0 01.581 1.596c.097.542.099 1.117.006 1.726.81-.141 1.468-.307 1.97-.497.504-.19.964-.45 1.38-.779.474-.376.777-.75.908-1.12.13-.372.076-.705-.163-1.001zm-20.383-1.148c-.94.745-1.498 1.581-1.676 2.507.29-.062.521-.108.693-.136.173-.027.397-.05.674-.07.249-.012.493-.026.733-.04.24-.015.488-.024.744-.027.597-.005 1.16.03 1.69.104.529.073 1.149.188 1.858.344a18.909 18.909 0 011.342.367l1.096.334.31.081c.348-.794.271-1.503-.23-2.125a2.616 2.616 0 00-1.088-.805 2.5 2.5 0 00-1.37-.13l-.03-.128a3.019 3.019 0 011.517.102c.471.162.863.436 1.175.824.535.663.619 1.44.252 2.333l.242.059 1.057.316c.108.032.246.068.416.108a22.054 22.054 0 001.256.26 19.604 19.604 0 01.56.107c.04.01.097.02.17.029.109-.187.223-.357.342-.51a5.668 5.668 0 01.829-.857c.17-.143.368-.304.595-.485.366-.29.69-.53.974-.722.284-.19.637-.387 1.059-.587a4.97 4.97 0 01-.18-.284 1.76 1.76 0 00-.158-.226 6.911 6.911 0 00-2.042-1.717c-.793-.441-1.76-.787-2.902-1.036a14.067 14.067 0 00-2.494-.317c-.781-.025-1.597.04-2.445.195-.97.184-1.883.46-2.738.828a9.839 9.839 0 00-2.231 1.304zm13.105 2.83a7.07 7.07 0 00-.841.767 7.105 7.105 0 00-.641.833l.311.054c.55.1 1.007.164 1.371.193.364.029.72.048 1.068.057.283.009.533.007.75-.005.217-.013.524-.044.923-.093.03-.324.046-.575.049-.753a2.944 2.944 0 00-.072-.633 4.225 4.225 0 00-.247-.908 6.238 6.238 0 00-.453-.894 10.03 10.03 0 00-1.129.606c-.35.219-.713.477-1.09.776zm-.89 2.335l-.473-.014a9.165 9.165 0 01-.567-.04 2.877 2.877 0 00-.324 1.423c.02.478.17.89.45 1.237.37.459.813.696 1.329.713.517.018 1.057-.197 1.62-.644.445-.353.802-.76 1.07-1.224.267-.462.472-1.018.614-1.666l-.237.038a12.043 12.043 0 01-1.723.187 19.93 19.93 0 01-1.759-.01zm-11.376-2.495a8.399 8.399 0 00-1.303-.032c-.46.022-.864.07-1.21.143.018.304.063.545.133.723.07.178.209.394.414.65.198.244.43.478.699.7a6.642 6.642 0 001.82 1.065c.328.125.654.218.978.278 1.388.254 2.631-.054 3.73-.925a3.39 3.39 0 00.436-.409c.123-.138.274-.329.452-.57-.17-.05-.315-.094-.435-.133l-.36-.115c-.12-.038-.254-.078-.402-.12a17.923 17.923 0 01-.515-.157l-.955-.309a18.942 18.942 0 00-1.367-.383l-.706-.167c-.289-.056-.552-.107-.791-.151a5.833 5.833 0 00-.618-.088zm-7.515-2.293c.195.026.39.02.587-.015.348-.062.586-.23.717-.5.13-.273.145-.644.043-1.117a4.457 4.457 0 00-.335-.962 5.303 5.303 0 00-.572-.937 5.91 5.91 0 00-.372-.428 7.733 7.733 0 00-.456-.44 11.52 11.52 0 00-.512-.431 9.338 9.338 0 00-1.58-1.011 8.208 8.208 0 00-1.057-.447 4.005 4.005 0 00-.899-.215 2.75 2.75 0 00-.775.025c-.775.14-1.066.658-.871 1.556.035.163.087.326.155.49.069.163.163.343.284.54.071.108.142.213.212.316.07.102.144.204.22.305a7.533 7.533 0 00.593.657c.107.108.227.218.36.33.132.113.282.236.45.37.152.123.288.23.406.317a4.688 4.688 0 00.707.437c.125.062.271.133.439.212.154.075.294.137.419.188a3.572 3.572 0 001.064.272c.242.023.456.018.641-.015.515-.093.715-.407.599-.943a2.05 2.05 0 00-.233-.576 4.202 4.202 0 00-.44-.62 6.084 6.084 0 00-1.346-1.177 6.163 6.163 0 00-.657-.39 5.226 5.226 0 00-.627-.274 3.135 3.135 0 00-.554-.146 1.342 1.342 0 00-.44-.007c-.318.057-.438.266-.36.628.034.157.125.327.273.51.148.182.347.369.599.56.273.205.534.355.783.45.248.094.471.124.668.089a.824.824 0 00.15-.055l.026.078a1.13 1.13 0 01-.128.032l-.095.017a1.38 1.38 0 01-.639-.053 2.635 2.635 0 01-.721-.357 2.642 2.642 0 01-.357-.29 3.1 3.1 0 01-.297-.333 2.427 2.427 0 01-.223-.346 1.344 1.344 0 01-.128-.34c-.05-.234-.029-.426.065-.576.094-.15.256-.245.488-.287.202-.036.438-.02.705.05.268.07.555.188.861.357a7.023 7.023 0 011.779 1.428c.246.276.455.555.628.838.172.283.285.549.339.799.064.296.019.546-.135.748-.155.203-.409.336-.762.4-.37.066-.79.025-1.262-.123-.47-.148-.976-.4-1.515-.756a9.44 9.44 0 01-1.09-.847 9.214 9.214 0 01-.935-.97 6.783 6.783 0 01-.693-.994 3.375 3.375 0 01-.373-.93 2.769 2.769 0 01-.055-.797c.023-.312.148-.582.375-.81.227-.228.52-.375.879-.44.278-.049.596-.037.955.038a5.51 5.51 0 011.127.378 8.535 8.535 0 012.313 1.563c.28.265.536.535.77.81.234.276.43.545.59.807a5.6 5.6 0 01.417.846c.12.302.21.593.27.872.11.513.096.924-.045 1.233-.14.31-.393.498-.757.563-.423.076-.834-.005-1.234-.242l.037-.079c.163.086.342.142.537.167z" fill="#F6D4BA" fill-opacity=".9"/><path d="M29.04 25.674l.039.08c-.39.223-.8.288-1.225.195-.367-.08-.627-.276-.78-.591-.152-.316-.182-.727-.091-1.236.05-.277.129-.565.237-.863.108-.298.236-.575.385-.831.149-.256.335-.517.559-.784.223-.267.47-.527.74-.781a7.599 7.599 0 011.094-.858 7.47 7.47 0 011.16-.618 5.088 5.088 0 011.114-.335c.357-.062.674-.062.954-.001.362.078.66.235.896.472.237.237.372.512.406.826a2.522 2.522 0 01-.024.795 3.122 3.122 0 01-.337.916 6.091 6.091 0 01-.656.97 8.132 8.132 0 01-.899.933 8.42 8.42 0 01-1.058.806c-.526.336-1.022.57-1.488.7-.465.13-.884.154-1.258.074-.355-.077-.614-.22-.777-.429-.162-.209-.217-.46-.164-.754.044-.248.147-.51.31-.787a5.22 5.22 0 01.595-.815 6.301 6.301 0 011.725-1.361c.301-.156.584-.264.849-.324s.5-.067.704-.023c.233.05.4.153.499.306.1.154.128.347.087.578-.02.11-.058.222-.115.336a2.198 2.198 0 01-.21.338 2.732 2.732 0 01-.285.321 2.34 2.34 0 01-.346.277c-.24.159-.476.268-.708.33a1.361 1.361 0 01-.733.008 1.278 1.278 0 01-.13-.037l.023-.077a.873.873 0 00.153.06c.198.044.42.022.666-.063.245-.085.5-.225.766-.42a3.08 3.08 0 00.577-.538c.141-.177.226-.343.254-.5.064-.359-.064-.572-.385-.642a1.345 1.345 0 00-.439-.01c-.17.021-.353.063-.549.126a4.805 4.805 0 00-.617.25 5.5 5.5 0 00-.643.365 5.443 5.443 0 00-1.302 1.125 3.76 3.76 0 00-.416.605 1.892 1.892 0 00-.211.567c-.096.532.116.855.635.967.186.04.4.053.642.04a3.426 3.426 0 001.055-.232 17.875 17.875 0 00.842-.368 4.271 4.271 0 00.692-.41 16.763 16.763 0 00.83-.654c.129-.107.245-.213.348-.317a7.002 7.002 0 00.568-.635 7.23 7.23 0 00.208-.297c.067-.1.133-.203.2-.308.114-.192.202-.369.264-.53a2.61 2.61 0 00.137-.484c.16-.891-.15-1.421-.932-1.59a2.785 2.785 0 00-.776-.055 3.817 3.817 0 00-.891.181 7.55 7.55 0 00-1.04.407 8.394 8.394 0 00-1.543.95c-.172.135-.338.272-.497.412-.158.14-.304.281-.439.424-.135.142-.253.28-.356.414-.215.29-.394.595-.537.916a4.122 4.122 0 00-.297.95c-.085.469-.056.841.085 1.119.14.277.386.453.736.528.198.043.394.056.588.038.195-.019.371-.068.531-.147z" fill="#F6D4BA" fill-opacity=".9"/><path d="M17.377 25.291a.348.348 0 01-.356.357.38.38 0 01-.37-.37.347.347 0 01.356-.357c.2.004.366.17.37.37zm6.619-1.961a.243.243 0 01-.25.25.267.267 0 01-.259-.26.243.243 0 01.25-.25c.14.003.256.119.259.26zm6.363.171a.243.243 0 01-.25.25.267.267 0 01-.259-.26.243.243 0 01.25-.249c.14.003.256.119.259.26zm6.861 2.289c.005.2-.155.36-.355.356a.38.38 0 01-.37-.37.347.347 0 01.356-.357c.2.004.366.17.37.37z" fill="#69DBEF"/></svg>